<?xml version="1.0" encoding="utf-8"?>
<svg xmlns="http://www.w3.org/2000/svg" xmlns:xlink="http://www.w3.org/1999/xlink" width="500" height="500" viewBox="0 0 2000 2000">
<defs>
  <clipPath id="clip510">
    <rect x="0" y="0" width="2000" height="2000"/>
  </clipPath>
</defs>
<path clip-path="url(#clip510)" d="
M0 2000 L2000 2000 L2000 0 L0 0  Z
  " fill="#ffffff" fill-rule="evenodd" fill-opacity="1"/>
<defs>
  <clipPath id="clip511">
    <rect x="400" y="200" width="1401" height="1401"/>
  </clipPath>
</defs>
<path clip-path="url(#clip510)" d="
M152.598 1753.66 L1952.76 1753.66 L1952.76 47.2441 L152.598 47.2441  Z
  " fill="#ffffff" fill-rule="evenodd" fill-opacity="1"/>
<defs>
  <clipPath id="clip512">
    <rect x="152" y="47" width="1801" height="1707"/>
  </clipPath>
</defs>
<polyline clip-path="url(#clip512)" style="stroke:#000000; stroke-linecap:round; stroke-linejoin:round; stroke-width:2; stroke-opacity:0.1; fill:none" points="
  285.698,1753.66 285.698,47.2441 
  "/>
<polyline clip-path="url(#clip512)" style="stroke:#000000; stroke-linecap:round; stroke-linejoin:round; stroke-width:2; stroke-opacity:0.1; fill:none" points="
  370.918,1753.66 370.918,47.2441 
  "/>
<polyline clip-path="url(#clip512)" style="stroke:#000000; stroke-linecap:round; stroke-linejoin:round; stroke-width:2; stroke-opacity:0.1; fill:none" points="
  456.138,1753.66 456.138,47.2441 
  "/>
<polyline clip-path="url(#clip512)" style="stroke:#000000; stroke-linecap:round; stroke-linejoin:round; stroke-width:2; stroke-opacity:0.1; fill:none" points="
  541.358,1753.66 541.358,47.2441 
  "/>
<polyline clip-path="url(#clip512)" style="stroke:#000000; stroke-linecap:round; stroke-linejoin:round; stroke-width:2; stroke-opacity:0.1; fill:none" points="
  626.578,1753.66 626.578,47.2441 
  "/>
<polyline clip-path="url(#clip512)" style="stroke:#000000; stroke-linecap:round; stroke-linejoin:round; stroke-width:2; stroke-opacity:0.1; fill:none" points="
  711.798,1753.66 711.798,47.2441 
  "/>
<polyline clip-path="url(#clip512)" style="stroke:#000000; stroke-linecap:round; stroke-linejoin:round; stroke-width:2; stroke-opacity:0.1; fill:none" points="
  797.017,1753.66 797.017,47.2441 
  "/>
<polyline clip-path="url(#clip512)" style="stroke:#000000; stroke-linecap:round; stroke-linejoin:round; stroke-width:2; stroke-opacity:0.1; fill:none" points="
  882.237,1753.66 882.237,47.2441 
  "/>
<polyline clip-path="url(#clip512)" style="stroke:#000000; stroke-linecap:round; stroke-linejoin:round; stroke-width:2; stroke-opacity:0.1; fill:none" points="
  967.457,1753.66 967.457,47.2441 
  "/>
<polyline clip-path="url(#clip512)" style="stroke:#000000; stroke-linecap:round; stroke-linejoin:round; stroke-width:2; stroke-opacity:0.1; fill:none" points="
  1052.68,1753.66 1052.68,47.2441 
  "/>
<polyline clip-path="url(#clip512)" style="stroke:#000000; stroke-linecap:round; stroke-linejoin:round; stroke-width:2; stroke-opacity:0.1; fill:none" points="
  1137.9,1753.66 1137.9,47.2441 
  "/>
<polyline clip-path="url(#clip512)" style="stroke:#000000; stroke-linecap:round; stroke-linejoin:round; stroke-width:2; stroke-opacity:0.1; fill:none" points="
  1223.12,1753.66 1223.12,47.2441 
  "/>
<polyline clip-path="url(#clip512)" style="stroke:#000000; stroke-linecap:round; stroke-linejoin:round; stroke-width:2; stroke-opacity:0.1; fill:none" points="
  1308.34,1753.66 1308.34,47.2441 
  "/>
<polyline clip-path="url(#clip512)" style="stroke:#000000; stroke-linecap:round; stroke-linejoin:round; stroke-width:2; stroke-opacity:0.1; fill:none" points="
  1393.56,1753.66 1393.56,47.2441 
  "/>
<polyline clip-path="url(#clip512)" style="stroke:#000000; stroke-linecap:round; stroke-linejoin:round; stroke-width:2; stroke-opacity:0.1; fill:none" points="
  1478.78,1753.66 1478.78,47.2441 
  "/>
<polyline clip-path="url(#clip512)" style="stroke:#000000; stroke-linecap:round; stroke-linejoin:round; stroke-width:2; stroke-opacity:0.1; fill:none" points="
  1564,1753.66 1564,47.2441 
  "/>
<polyline clip-path="url(#clip512)" style="stroke:#000000; stroke-linecap:round; stroke-linejoin:round; stroke-width:2; stroke-opacity:0.1; fill:none" points="
  1649.22,1753.66 1649.22,47.2441 
  "/>
<polyline clip-path="url(#clip512)" style="stroke:#000000; stroke-linecap:round; stroke-linejoin:round; stroke-width:2; stroke-opacity:0.1; fill:none" points="
  1734.44,1753.66 1734.44,47.2441 
  "/>
<polyline clip-path="url(#clip512)" style="stroke:#000000; stroke-linecap:round; stroke-linejoin:round; stroke-width:2; stroke-opacity:0.1; fill:none" points="
  1819.66,1753.66 1819.66,47.2441 
  "/>
<polyline clip-path="url(#clip510)" style="stroke:#000000; stroke-linecap:round; stroke-linejoin:round; stroke-width:4; stroke-opacity:1; fill:none" points="
  152.598,1753.66 1952.76,1753.66 
  "/>
<polyline clip-path="url(#clip510)" style="stroke:#000000; stroke-linecap:round; stroke-linejoin:round; stroke-width:4; stroke-opacity:1; fill:none" points="
  285.698,1753.66 285.698,1734.76 
  "/>
<polyline clip-path="url(#clip510)" style="stroke:#000000; stroke-linecap:round; stroke-linejoin:round; stroke-width:4; stroke-opacity:1; fill:none" points="
  370.918,1753.66 370.918,1734.76 
  "/>
<polyline clip-path="url(#clip510)" style="stroke:#000000; stroke-linecap:round; stroke-linejoin:round; stroke-width:4; stroke-opacity:1; fill:none" points="
  456.138,1753.66 456.138,1734.76 
  "/>
<polyline clip-path="url(#clip510)" style="stroke:#000000; stroke-linecap:round; stroke-linejoin:round; stroke-width:4; stroke-opacity:1; fill:none" points="
  541.358,1753.66 541.358,1734.76 
  "/>
<polyline clip-path="url(#clip510)" style="stroke:#000000; stroke-linecap:round; stroke-linejoin:round; stroke-width:4; stroke-opacity:1; fill:none" points="
  626.578,1753.66 626.578,1734.76 
  "/>
<polyline clip-path="url(#clip510)" style="stroke:#000000; stroke-linecap:round; stroke-linejoin:round; stroke-width:4; stroke-opacity:1; fill:none" points="
  711.798,1753.66 711.798,1734.76 
  "/>
<polyline clip-path="url(#clip510)" style="stroke:#000000; stroke-linecap:round; stroke-linejoin:round; stroke-width:4; stroke-opacity:1; fill:none" points="
  797.017,1753.66 797.017,1734.76 
  "/>
<polyline clip-path="url(#clip510)" style="stroke:#000000; stroke-linecap:round; stroke-linejoin:round; stroke-width:4; stroke-opacity:1; fill:none" points="
  882.237,1753.66 882.237,1734.76 
  "/>
<polyline clip-path="url(#clip510)" style="stroke:#000000; stroke-linecap:round; stroke-linejoin:round; stroke-width:4; stroke-opacity:1; fill:none" points="
  967.457,1753.66 967.457,1734.76 
  "/>
<polyline clip-path="url(#clip510)" style="stroke:#000000; stroke-linecap:round; stroke-linejoin:round; stroke-width:4; stroke-opacity:1; fill:none" points="
  1052.68,1753.66 1052.68,1734.76 
  "/>
<polyline clip-path="url(#clip510)" style="stroke:#000000; stroke-linecap:round; stroke-linejoin:round; stroke-width:4; stroke-opacity:1; fill:none" points="
  1137.9,1753.66 1137.9,1734.76 
  "/>
<polyline clip-path="url(#clip510)" style="stroke:#000000; stroke-linecap:round; stroke-linejoin:round; stroke-width:4; stroke-opacity:1; fill:none" points="
  1223.12,1753.66 1223.12,1734.76 
  "/>
<polyline clip-path="url(#clip510)" style="stroke:#000000; stroke-linecap:round; stroke-linejoin:round; stroke-width:4; stroke-opacity:1; fill:none" points="
  1308.34,1753.66 1308.34,1734.76 
  "/>
<polyline clip-path="url(#clip510)" style="stroke:#000000; stroke-linecap:round; stroke-linejoin:round; stroke-width:4; stroke-opacity:1; fill:none" points="
  1393.56,1753.66 1393.56,1734.76 
  "/>
<polyline clip-path="url(#clip510)" style="stroke:#000000; stroke-linecap:round; stroke-linejoin:round; stroke-width:4; stroke-opacity:1; fill:none" points="
  1478.78,1753.66 1478.78,1734.76 
  "/>
<polyline clip-path="url(#clip510)" style="stroke:#000000; stroke-linecap:round; stroke-linejoin:round; stroke-width:4; stroke-opacity:1; fill:none" points="
  1564,1753.66 1564,1734.76 
  "/>
<polyline clip-path="url(#clip510)" style="stroke:#000000; stroke-linecap:round; stroke-linejoin:round; stroke-width:4; stroke-opacity:1; fill:none" points="
  1649.22,1753.66 1649.22,1734.76 
  "/>
<polyline clip-path="url(#clip510)" style="stroke:#000000; stroke-linecap:round; stroke-linejoin:round; stroke-width:4; stroke-opacity:1; fill:none" points="
  1734.44,1753.66 1734.44,1734.76 
  "/>
<polyline clip-path="url(#clip510)" style="stroke:#000000; stroke-linecap:round; stroke-linejoin:round; stroke-width:4; stroke-opacity:1; fill:none" points="
  1819.66,1753.66 1819.66,1734.76 
  "/>
<path clip-path="url(#clip510)" d="M190.591 1860.26 L193.816 1863.49 Q191.033 1864.47 188.922 1865.7 Q186.81 1866.93 185.255 1868.48 Q182.554 1871.18 182.129 1873.7 Q181.72 1876.21 183.651 1878.14 Q185.271 1879.76 187.072 1879.63 Q188.872 1879.46 192.097 1877.25 L194.503 1875.67 Q198.906 1872.67 202.442 1872.7 Q205.977 1872.7 208.956 1875.68 Q212.508 1879.23 211.951 1883.46 Q211.411 1887.66 206.812 1892.26 Q205.077 1894 202.72 1895.57 Q200.379 1897.12 197.515 1898.45 L194.11 1895.05 Q197.253 1894.16 199.757 1892.8 Q202.262 1891.45 204.128 1889.58 Q206.959 1886.75 207.385 1884.1 Q207.81 1881.44 205.748 1879.38 Q203.947 1877.58 201.82 1877.68 Q199.708 1877.76 196.68 1879.77 L194.274 1881.4 Q189.838 1884.36 186.614 1884.44 Q183.389 1884.52 180.59 1881.72 Q177.349 1878.48 177.758 1874.34 Q178.184 1870.18 182.194 1866.17 Q183.913 1864.45 186.008 1862.98 Q188.103 1861.51 190.591 1860.26 Z" fill="#000000" fill-rule="evenodd" fill-opacity="1" /><path clip-path="url(#clip510)" d="M208.465 1847.3 L216.142 1863.95 L225.128 1854.96 L208.465 1847.3 M203.342 1845.91 L207.09 1842.16 L240.841 1857.28 L237.404 1860.72 L228.909 1856.68 L217.893 1867.69 L221.936 1876.19 L218.45 1879.68 L203.342 1845.91 Z" fill="#000000" fill-rule="evenodd" fill-opacity="1" /><path clip-path="url(#clip510)" d="M219.972 1829.28 L223.278 1825.97 L244.933 1847.63 L256.833 1835.73 L259.615 1838.51 L244.409 1853.72 L219.972 1829.28 Z" fill="#000000" fill-rule="evenodd" fill-opacity="1" /><path clip-path="url(#clip510)" d="M238.648 1810.6 L241.954 1807.3 L263.609 1828.95 L275.509 1817.05 L278.291 1819.83 L263.086 1835.04 L238.648 1810.6 Z" fill="#000000" fill-rule="evenodd" fill-opacity="1" /><path clip-path="url(#clip510)" d="M269.584 1785.43 L274.281 1806.82 L282.629 1798.47 L269.584 1785.43 M265.835 1783.42 L269.993 1779.26 L285.919 1795.18 L289.405 1791.7 L292.155 1794.45 L288.669 1797.93 L294.43 1803.7 L291.14 1806.99 L285.379 1801.22 L274.347 1812.26 L271.155 1809.06 L265.835 1783.42 Z" fill="#000000" fill-rule="evenodd" fill-opacity="1" /><path clip-path="url(#clip510)" d="M238.033 1901.87 L247.216 1911.05 L251.373 1906.9 Q253.681 1904.59 253.747 1902.13 Q253.812 1899.68 251.603 1897.47 Q249.409 1895.28 246.954 1895.34 Q244.499 1895.41 242.191 1897.71 L238.033 1901.87 M232.01 1902.46 L239.474 1895 Q243.582 1890.89 247.543 1890.66 Q251.504 1890.4 255.089 1893.98 Q258.706 1897.6 258.444 1901.56 Q258.199 1905.51 254.09 1909.61 L249.933 1913.77 L259.754 1923.59 L256.447 1926.9 L232.01 1902.46 Z" fill="#000000" fill-rule="evenodd" fill-opacity="1" /><path clip-path="url(#clip510)" d="M264.386 1874.57 Q260.785 1878.17 261.342 1882.98 Q261.914 1887.78 266.547 1892.41 Q271.162 1897.03 275.958 1897.6 Q280.771 1898.16 284.371 1894.56 Q287.972 1890.95 287.383 1886.17 Q286.81 1881.38 282.195 1876.76 Q277.562 1872.13 272.766 1871.56 Q267.987 1870.97 264.386 1874.57 M261.702 1871.89 Q266.841 1866.75 273.372 1867.12 Q279.887 1867.48 285.681 1873.28 Q291.459 1879.05 291.835 1885.59 Q292.195 1892.1 287.056 1897.24 Q281.9 1902.4 275.369 1902.05 Q268.855 1901.69 263.06 1895.9 Q257.266 1890.1 256.906 1883.59 Q256.546 1877.04 261.702 1871.89 Z" fill="#000000" fill-rule="evenodd" fill-opacity="1" /><path clip-path="url(#clip510)" d="M278.233 1856.24 L281.556 1852.91 L296.402 1867.76 Q300.33 1871.69 303.489 1872 Q306.632 1872.29 309.824 1869.1 Q312.999 1865.93 312.705 1862.78 Q312.394 1859.63 308.465 1855.7 L293.619 1840.85 L296.942 1837.53 L312.197 1852.78 Q316.977 1857.56 317.042 1862.38 Q317.124 1867.17 312.508 1871.79 Q307.876 1876.42 303.064 1876.35 Q298.268 1876.27 293.489 1871.49 L278.233 1856.24 Z" fill="#000000" fill-rule="evenodd" fill-opacity="1" /><path clip-path="url(#clip510)" d="M303.473 1831 L316.453 1818.02 L319.236 1820.8 L309.284 1830.75 L315.275 1836.74 Q315.749 1835.78 316.355 1834.94 Q316.944 1834.09 317.664 1833.37 Q321.756 1829.28 326.388 1829.13 Q331.021 1828.98 334.851 1832.81 Q338.796 1836.76 338.534 1841.41 Q338.255 1846.04 333.787 1850.51 Q332.248 1852.05 330.382 1853.39 Q328.533 1854.72 326.307 1855.89 L322.984 1852.57 Q325.259 1851.9 327.223 1850.72 Q329.187 1849.54 330.939 1847.79 Q333.77 1844.96 333.934 1841.82 Q334.098 1838.67 331.544 1836.12 Q328.991 1833.57 325.848 1833.73 Q322.706 1833.89 319.874 1836.73 Q318.548 1838.05 317.517 1839.67 Q316.502 1841.28 315.749 1843.27 L303.473 1831 Z" fill="#000000" fill-rule="evenodd" fill-opacity="1" /><path clip-path="url(#clip510)" d="M324.473 1810 L338.517 1795.95 L341.3 1798.74 L330.562 1809.47 L337.764 1816.68 L347.454 1806.99 L350.237 1809.77 L340.547 1819.46 L352.217 1831.13 L348.911 1834.43 L324.473 1810 Z" fill="#000000" fill-rule="evenodd" fill-opacity="1" /><path clip-path="url(#clip510)" d="M366.278 1811.5 L371.679 1806.1 L353.036 1787.46 L348.338 1794.51 L345.326 1791.5 L349.991 1784.48 L353.298 1781.17 L374.953 1802.83 L380.354 1797.43 L383.137 1800.21 L369.06 1814.29 L366.278 1811.5 Z" fill="#000000" fill-rule="evenodd" fill-opacity="1" /><path clip-path="url(#clip510)" d="M376.204 1845.09 L379.429 1848.32 Q376.646 1849.3 374.535 1850.52 Q372.423 1851.75 370.868 1853.31 Q368.167 1856.01 367.742 1858.53 Q367.333 1861.03 369.264 1862.96 Q370.884 1864.59 372.685 1864.45 Q374.485 1864.29 377.71 1862.08 L380.116 1860.49 Q384.519 1857.5 388.055 1857.53 Q391.59 1857.53 394.569 1860.51 Q398.121 1864.06 397.565 1868.28 Q397.024 1872.49 392.425 1877.09 Q390.69 1878.83 388.333 1880.4 Q385.992 1881.95 383.128 1883.28 L379.723 1879.87 Q382.866 1878.99 385.37 1877.63 Q387.875 1876.27 389.741 1874.41 Q392.572 1871.57 392.998 1868.92 Q393.423 1866.27 391.361 1864.21 Q389.56 1862.41 387.433 1862.51 Q385.321 1862.59 382.293 1864.6 L379.887 1866.22 Q375.451 1869.18 372.227 1869.27 Q369.002 1869.35 366.203 1866.55 Q362.962 1863.31 363.371 1859.17 Q363.797 1855.01 367.807 1851 Q369.526 1849.28 371.621 1847.81 Q373.716 1846.33 376.204 1845.09 Z" fill="#000000" fill-rule="evenodd" fill-opacity="1" /><path clip-path="url(#clip510)" d="M394.193 1829.98 Q390.592 1833.58 391.148 1838.4 Q391.721 1843.19 396.353 1847.82 Q400.969 1852.44 405.765 1853.01 Q410.577 1853.57 414.178 1849.97 Q417.779 1846.37 417.19 1841.59 Q416.617 1836.79 412.001 1832.18 Q407.369 1827.54 402.573 1826.97 Q397.794 1826.38 394.193 1829.98 M391.508 1827.3 Q396.648 1822.16 403.179 1822.54 Q409.693 1822.9 415.488 1828.69 Q421.266 1834.47 421.642 1841 Q422.002 1847.51 416.863 1852.65 Q411.707 1857.81 405.176 1857.46 Q398.661 1857.1 392.867 1851.31 Q387.073 1845.52 386.712 1839 Q386.352 1832.45 391.508 1827.3 Z" fill="#000000" fill-rule="evenodd" fill-opacity="1" /><path clip-path="url(#clip510)" d="M405.094 1814.6 L408.646 1811.04 L423.803 1814.06 L420.824 1798.87 L424.375 1795.32 L428.255 1814.91 L449.337 1819.23 L445.785 1822.78 L428.517 1819.26 L431.987 1836.58 L428.418 1840.15 L424.097 1818.38 L405.094 1814.6 Z" fill="#000000" fill-rule="evenodd" fill-opacity="1" /><path clip-path="url(#clip510)" d="M454.035 1808.97 L465.574 1797.43 L468.357 1800.21 L452.84 1815.73 L450.057 1812.94 Q449.992 1809.11 449.959 1802.6 Q449.926 1796.05 449.812 1794.27 Q449.615 1790.9 449.01 1789.05 Q448.404 1787.16 447.209 1785.97 Q445.261 1784.02 442.659 1784.17 Q440.073 1784.3 437.879 1786.49 Q436.324 1788.05 435.129 1790.32 Q433.951 1792.58 433.083 1795.64 L429.744 1792.3 Q430.939 1789.5 432.265 1787.36 Q433.591 1785.22 435.031 1783.78 Q438.829 1779.98 442.986 1779.62 Q447.144 1779.26 450.319 1782.43 Q451.825 1783.94 452.611 1785.87 Q453.396 1787.77 453.74 1791.09 Q453.805 1791.98 453.887 1796.44 Q453.953 1800.9 454.035 1808.97 Z" fill="#000000" fill-rule="evenodd" fill-opacity="1" /><path clip-path="url(#clip510)" d="M453.044 1851.87 L456.35 1848.56 L466.678 1858.89 L467.317 1837.59 L471.572 1833.34 L470.836 1856.86 L496.877 1856.91 L492.523 1861.26 L469.019 1861.23 L480.787 1873 L477.481 1876.3 L453.044 1851.87 Z" fill="#000000" fill-rule="evenodd" fill-opacity="1" /><path clip-path="url(#clip510)" d="M475.026 1829.88 L478.332 1826.58 L499.987 1848.23 L511.887 1836.33 L514.67 1839.12 L499.464 1854.32 L475.026 1829.88 Z" fill="#000000" fill-rule="evenodd" fill-opacity="1" /><path clip-path="url(#clip510)" d="M493.702 1811.21 L507.746 1797.16 L510.528 1799.95 L499.791 1810.68 L506.993 1817.89 L516.683 1808.2 L519.465 1810.98 L509.775 1820.67 L521.446 1832.34 L518.14 1835.65 L493.702 1811.21 Z" fill="#000000" fill-rule="evenodd" fill-opacity="1" /><path clip-path="url(#clip510)" d="M525.243 1785.43 L529.941 1806.82 L538.289 1798.47 L525.243 1785.43 M521.495 1783.42 L525.653 1779.26 L541.579 1795.18 L545.065 1791.7 L547.815 1794.45 L544.329 1797.93 L550.09 1803.7 L546.8 1806.99 L541.039 1801.22 L530.006 1812.26 L526.815 1809.06 L521.495 1783.42 Z" fill="#000000" fill-rule="evenodd" fill-opacity="1" /><path clip-path="url(#clip510)" d="M494.953 1895.18 L499.405 1890.72 L530.685 1900.33 L510.241 1879.89 L513.449 1876.68 L537.887 1901.12 L533.435 1905.57 L502.155 1895.96 L522.599 1916.41 L519.391 1919.61 L494.953 1895.18 Z" fill="#000000" fill-rule="evenodd" fill-opacity="1" /><path clip-path="url(#clip510)" d="M531.454 1865.19 L539.131 1881.84 L548.117 1872.85 L531.454 1865.19 M526.331 1863.8 L530.079 1860.05 L563.83 1875.18 L560.393 1878.61 L551.898 1874.57 L540.882 1885.59 L544.925 1894.08 L541.439 1897.57 L526.331 1863.8 Z" fill="#000000" fill-rule="evenodd" fill-opacity="1" /><path clip-path="url(#clip510)" d="M542.961 1847.17 L547.413 1842.72 L578.693 1852.33 L558.249 1831.88 L561.457 1828.67 L585.895 1853.11 L581.443 1857.56 L550.163 1847.96 L570.607 1868.4 L567.399 1871.61 L542.961 1847.17 Z" fill="#000000" fill-rule="evenodd" fill-opacity="1" /><path clip-path="url(#clip510)" d="M580.199 1814.42 Q576.598 1818.02 577.154 1822.83 Q577.727 1827.63 582.359 1832.26 Q586.975 1836.87 591.771 1837.45 Q596.583 1838 600.184 1834.4 Q603.785 1830.8 603.196 1826.02 Q602.623 1821.23 598.007 1816.61 Q593.375 1811.98 588.579 1811.4 Q583.8 1810.82 580.199 1814.42 M577.514 1811.73 Q582.654 1806.59 589.185 1806.97 Q595.699 1807.33 601.493 1813.12 Q607.271 1818.9 607.648 1825.43 Q608.008 1831.95 602.868 1837.09 Q597.712 1842.24 591.182 1841.9 Q584.667 1841.54 578.873 1835.74 Q573.078 1829.95 572.718 1823.44 Q572.358 1816.89 577.514 1811.73 Z" fill="#000000" fill-rule="evenodd" fill-opacity="1" /><path clip-path="url(#clip510)" d="M632.036 1800 L625.473 1793.43 L620.071 1798.83 L617.354 1796.12 L626.029 1787.44 L636.521 1797.93 Q635.965 1801.21 634.361 1804.22 Q632.74 1807.21 630.121 1809.83 Q624.392 1815.56 617.812 1815.46 Q611.233 1815.33 605.258 1809.36 Q599.267 1803.37 599.153 1796.8 Q599.038 1790.21 604.767 1784.48 Q607.157 1782.09 609.89 1780.53 Q612.64 1778.96 615.603 1778.29 L619.122 1781.81 Q615.734 1782.09 612.886 1783.37 Q610.038 1784.64 607.762 1786.92 Q603.278 1791.4 603.523 1796.17 Q603.785 1800.91 608.745 1805.87 Q613.688 1810.82 618.434 1811.08 Q623.198 1811.32 627.682 1806.84 Q629.434 1805.09 630.514 1803.42 Q631.578 1801.73 632.036 1800 Z" fill="#000000" fill-rule="evenodd" fill-opacity="1" /><path clip-path="url(#clip510)" d="M599.7 1875.65 L618.9 1856.45 L621.421 1858.97 L625.104 1893.56 L640.932 1877.73 L643.714 1880.51 L623.762 1900.46 L621.241 1897.94 L617.558 1863.36 L602.483 1878.43 L599.7 1875.65 Z" fill="#000000" fill-rule="evenodd" fill-opacity="1" /><path clip-path="url(#clip510)" d="M624.073 1851.28 L638.116 1837.23 L640.899 1840.02 L630.161 1850.75 L637.363 1857.96 L647.053 1848.27 L649.836 1851.05 L640.146 1860.74 L651.817 1872.41 L648.51 1875.72 L624.073 1851.28 Z" fill="#000000" fill-rule="evenodd" fill-opacity="1" /><path clip-path="url(#clip510)" d="M649.378 1831.41 L658.56 1840.59 L662.718 1836.43 Q665.026 1834.12 665.091 1831.67 Q665.157 1829.21 662.947 1827 Q660.754 1824.81 658.298 1824.88 Q655.843 1824.94 653.535 1827.25 L649.378 1831.41 M643.354 1832 L650.818 1824.53 Q654.926 1820.42 658.888 1820.19 Q662.849 1819.93 666.433 1823.52 Q670.051 1827.13 669.789 1831.1 Q669.543 1835.04 665.435 1839.15 L661.277 1843.31 L671.098 1853.13 L667.792 1856.43 L643.354 1832 Z" fill="#000000" fill-rule="evenodd" fill-opacity="1" /><path clip-path="url(#clip510)" d="M675.829 1805.28 L680.526 1826.68 L688.874 1818.33 L675.829 1805.28 M672.08 1803.27 L676.238 1799.11 L692.164 1815.04 L695.65 1811.55 L698.4 1814.3 L694.914 1817.79 L700.675 1823.55 L697.385 1826.84 L691.624 1821.08 L680.592 1832.11 L677.4 1828.92 L672.08 1803.27 Z" fill="#000000" fill-rule="evenodd" fill-opacity="1" /><path clip-path="url(#clip510)" d="M709.694 1808.97 L721.234 1797.43 L724.016 1800.21 L708.499 1815.73 L705.717 1812.94 Q705.651 1809.11 705.619 1802.6 Q705.586 1796.05 705.471 1794.27 Q705.275 1790.9 704.669 1789.05 Q704.064 1787.16 702.869 1785.97 Q700.921 1784.02 698.318 1784.17 Q695.732 1784.3 693.539 1786.49 Q691.984 1788.05 690.789 1790.32 Q689.611 1792.58 688.743 1795.64 L685.404 1792.3 Q686.599 1789.5 687.925 1787.36 Q689.25 1785.22 690.691 1783.78 Q694.488 1779.98 698.646 1779.62 Q702.803 1779.26 705.979 1782.43 Q707.485 1783.94 708.27 1785.87 Q709.056 1787.77 709.4 1791.09 Q709.465 1791.98 709.547 1796.44 Q709.612 1800.9 709.694 1808.97 Z" fill="#000000" fill-rule="evenodd" fill-opacity="1" /><path clip-path="url(#clip510)" d="M699.619 1860.95 L720.292 1840.28 L723.074 1843.06 L714.399 1851.74 L736.054 1873.39 L732.732 1876.71 L711.077 1855.06 L702.401 1863.73 L699.619 1860.95 Z" fill="#000000" fill-rule="evenodd" fill-opacity="1" /><path clip-path="url(#clip510)" d="M739.557 1846.55 L748.51 1855.5 L753.814 1850.2 Q756.482 1847.53 756.662 1845.16 Q756.842 1842.75 754.567 1840.47 Q752.275 1838.18 749.902 1838.4 Q747.528 1838.58 744.86 1841.24 L739.557 1846.55 M729.507 1836.5 L736.873 1843.86 L741.767 1838.97 Q744.189 1836.55 744.468 1834.47 Q744.746 1832.36 742.88 1830.49 Q741.03 1828.64 738.919 1828.92 Q736.824 1829.18 734.401 1831.6 L729.507 1836.5 M723.484 1837.09 L731.93 1828.64 Q735.711 1824.86 739.328 1824.38 Q742.945 1823.91 745.842 1826.81 Q748.085 1829.05 748.363 1831.42 Q748.641 1833.8 746.939 1836.15 Q749.902 1834.24 752.913 1834.57 Q755.925 1834.86 758.413 1837.35 Q761.687 1840.62 761.245 1844.63 Q760.803 1848.64 756.695 1852.75 L747.921 1861.52 L723.484 1837.09 Z" fill="#000000" fill-rule="evenodd" fill-opacity="1" /><path clip-path="url(#clip510)" d="M745.302 1815.27 L748.854 1811.72 L764.011 1814.73 L761.032 1799.54 L764.584 1795.99 L768.463 1815.58 L789.545 1819.9 L785.993 1823.45 L768.725 1819.93 L772.195 1837.25 L768.627 1840.82 L764.306 1819.05 L745.302 1815.27 Z" fill="#000000" fill-rule="evenodd" fill-opacity="1" /><path clip-path="url(#clip510)" d="M791.018 1792.07 Q793.899 1790.21 796.829 1790.49 Q799.775 1790.75 802.132 1793.11 Q805.75 1796.72 805.242 1801.19 Q804.735 1805.66 800.152 1810.24 Q798.613 1811.78 796.665 1813.11 Q794.75 1814.43 792.41 1815.56 L789.218 1812.37 Q791.395 1811.8 793.441 1810.57 Q795.487 1809.34 797.271 1807.56 Q800.381 1804.45 800.774 1801.6 Q801.183 1798.74 798.842 1796.4 Q796.682 1794.23 793.948 1794.55 Q791.215 1794.82 788.514 1797.52 L785.666 1800.37 L782.949 1797.66 L785.928 1794.68 Q788.367 1792.24 788.694 1789.98 Q789.005 1787.7 787.172 1785.87 Q785.29 1783.99 782.949 1784.33 Q780.608 1784.64 778.12 1787.13 Q776.762 1788.49 775.502 1790.34 Q774.241 1792.19 772.997 1794.68 L770.051 1791.73 Q771.409 1789.32 772.784 1787.43 Q774.176 1785.51 775.632 1784.05 Q779.397 1780.29 783.309 1779.81 Q787.205 1779.32 790.118 1782.24 Q792.148 1784.27 792.393 1786.84 Q792.623 1789.39 791.018 1792.07 Z" fill="#000000" fill-rule="evenodd" fill-opacity="1" /><path clip-path="url(#clip510)" d="M780.485 1866.91 L783.709 1870.13 Q780.927 1871.12 778.815 1872.34 Q776.704 1873.57 775.149 1875.13 Q772.448 1877.83 772.023 1880.35 Q771.613 1882.85 773.545 1884.78 Q775.165 1886.4 776.966 1886.27 Q778.766 1886.11 781.991 1883.9 L784.397 1882.31 Q788.8 1879.32 792.335 1879.35 Q795.871 1879.35 798.85 1882.33 Q802.402 1885.88 801.845 1890.1 Q801.305 1894.31 796.706 1898.91 Q794.971 1900.64 792.614 1902.22 Q790.273 1903.77 787.409 1905.1 L784.004 1901.69 Q787.147 1900.81 789.651 1899.45 Q792.155 1898.09 794.021 1896.22 Q796.853 1893.39 797.279 1890.74 Q797.704 1888.09 795.642 1886.03 Q793.841 1884.23 791.713 1884.32 Q789.602 1884.41 786.574 1886.42 L784.168 1888.04 Q779.732 1891 776.507 1891.09 Q773.283 1891.17 770.484 1888.37 Q767.243 1885.13 767.652 1880.99 Q768.078 1876.83 772.088 1872.82 Q773.807 1871.1 775.902 1869.63 Q777.997 1868.15 780.485 1866.91 Z" fill="#000000" fill-rule="evenodd" fill-opacity="1" /><path clip-path="url(#clip510)" d="M798.473 1851.8 Q794.872 1855.4 795.429 1860.21 Q796.002 1865.01 800.634 1869.64 Q805.25 1874.26 810.046 1874.83 Q814.858 1875.39 818.459 1871.79 Q822.06 1868.19 821.471 1863.41 Q820.898 1858.61 816.282 1853.99 Q811.65 1849.36 806.854 1848.79 Q802.074 1848.2 798.473 1851.8 M795.789 1849.12 Q800.929 1843.98 807.46 1844.35 Q813.974 1844.71 819.768 1850.51 Q825.546 1856.29 825.923 1862.82 Q826.283 1869.33 821.143 1874.47 Q815.987 1879.63 809.456 1879.28 Q802.942 1878.92 797.148 1873.13 Q791.353 1867.33 790.993 1860.82 Q790.633 1854.27 795.789 1849.12 Z" fill="#000000" fill-rule="evenodd" fill-opacity="1" /><path clip-path="url(#clip510)" d="M809.375 1836.42 L812.926 1832.86 L828.083 1835.88 L825.104 1820.69 L828.656 1817.13 L832.535 1836.73 L853.618 1841.05 L850.066 1844.6 L832.797 1841.08 L836.267 1858.4 L832.699 1861.97 L828.378 1840.2 L809.375 1836.42 Z" fill="#000000" fill-rule="evenodd" fill-opacity="1" /><path clip-path="url(#clip510)" d="M856.04 1833.06 L861.442 1827.66 L842.798 1809.02 L838.101 1816.07 L835.089 1813.06 L839.754 1806.04 L843.06 1802.73 L864.715 1824.38 L870.117 1818.98 L872.899 1821.77 L858.823 1835.84 L856.04 1833.06 Z" fill="#000000" fill-rule="evenodd" fill-opacity="1" /><path clip-path="url(#clip510)" d="M854.305 1791.48 L870.018 1775.77 L871.426 1777.18 L885.585 1809.08 L882.131 1812.53 L868.824 1782.53 L857.088 1794.27 L854.305 1791.48 Z" fill="#000000" fill-rule="evenodd" fill-opacity="1" /><path clip-path="url(#clip510)" d="M896.771 1860.2 Q898.195 1859.49 900.372 1859.67 Q902.566 1859.84 905.643 1860.89 L915.677 1864.21 L912.125 1867.76 L902.729 1864.62 Q899.063 1863.37 897.115 1863.72 Q895.184 1864.04 893.22 1866.01 L889.619 1869.61 L899.947 1879.94 L896.64 1883.24 L872.203 1858.81 L879.667 1851.34 Q883.857 1847.15 887.671 1846.84 Q891.485 1846.53 895.02 1850.07 Q897.328 1852.37 897.77 1854.98 Q898.228 1857.56 896.771 1860.2 M878.226 1858.22 L886.901 1866.89 L891.059 1862.74 Q893.449 1860.35 893.563 1858.04 Q893.678 1855.7 891.534 1853.55 Q889.389 1851.41 887.082 1851.56 Q884.774 1851.67 882.384 1854.06 L878.226 1858.22 Z" fill="#000000" fill-rule="evenodd" fill-opacity="1" /><path clip-path="url(#clip510)" d="M895.495 1835.52 L910.946 1820.06 L913.729 1822.85 L901.584 1834.99 L908.818 1842.23 L920.456 1830.59 L923.239 1833.37 L911.601 1845.01 L920.456 1853.86 L932.896 1841.42 L935.678 1844.21 L919.932 1859.95 L895.495 1835.52 Z" fill="#000000" fill-rule="evenodd" fill-opacity="1" /><path clip-path="url(#clip510)" d="M932.127 1800.49 L935.351 1803.71 Q932.569 1804.69 930.457 1805.92 Q928.346 1807.15 926.791 1808.7 Q924.09 1811.4 923.664 1813.93 Q923.255 1816.43 925.186 1818.36 Q926.807 1819.98 928.607 1819.85 Q930.408 1819.69 933.632 1817.48 L936.039 1815.89 Q940.442 1812.89 943.977 1812.93 Q947.513 1812.93 950.492 1815.91 Q954.044 1819.46 953.487 1823.68 Q952.947 1827.89 948.347 1832.49 Q946.612 1834.22 944.255 1835.79 Q941.915 1837.35 939.05 1838.67 L935.646 1835.27 Q938.788 1834.39 941.293 1833.03 Q943.797 1831.67 945.663 1829.8 Q948.495 1826.97 948.92 1824.32 Q949.346 1821.67 947.283 1819.61 Q945.483 1817.8 943.355 1817.9 Q941.244 1817.98 938.216 1820 L935.809 1821.62 Q931.374 1824.58 928.149 1824.66 Q924.925 1824.75 922.126 1821.95 Q918.885 1818.71 919.294 1814.56 Q919.72 1810.41 923.73 1806.4 Q925.448 1804.68 927.544 1803.2 Q929.639 1801.73 932.127 1800.49 Z" fill="#000000" fill-rule="evenodd" fill-opacity="1" /><path clip-path="url(#clip510)" d="M934.565 1796.44 L955.238 1775.77 L958.021 1778.55 L949.346 1787.23 L971.001 1808.88 L967.678 1812.21 L946.023 1790.55 L937.348 1799.23 L934.565 1796.44 Z" fill="#000000" fill-rule="evenodd" fill-opacity="1" /><path clip-path="url(#clip510)" d="M934.704 1881.53 L939.631 1876.6 L962.497 1886.99 L952.136 1864.09 L957.063 1859.17 L981.5 1883.6 L978.276 1886.83 L956.817 1865.37 L967.276 1888.43 L963.954 1891.76 L940.891 1881.3 L962.35 1902.76 L959.141 1905.96 L934.704 1881.53 Z" fill="#000000" fill-rule="evenodd" fill-opacity="1" /><path clip-path="url(#clip510)" d="M960.271 1855.96 L963.823 1852.41 L980.649 1855.68 L977.326 1838.9 L980.878 1835.35 L985.036 1856.79 L996.674 1868.43 L993.351 1871.75 L981.713 1860.12 L960.271 1855.96 Z" fill="#000000" fill-rule="evenodd" fill-opacity="1" /><path clip-path="url(#clip510)" d="M1000.18 1841.59 L1009.13 1850.54 L1014.43 1845.24 Q1017.1 1842.57 1017.28 1840.2 Q1017.46 1837.79 1015.19 1835.52 Q1012.89 1833.22 1010.52 1833.44 Q1008.15 1833.62 1005.48 1836.28 L1000.18 1841.59 M990.126 1831.54 L997.492 1838.9 L1002.39 1834.01 Q1004.81 1831.59 1005.09 1829.51 Q1005.37 1827.4 1003.5 1825.53 Q1001.65 1823.68 999.538 1823.96 Q997.443 1824.22 995.02 1826.64 L990.126 1831.54 M984.103 1832.13 L992.549 1823.68 Q996.33 1819.9 999.947 1819.43 Q1003.56 1818.95 1006.46 1821.85 Q1008.7 1824.09 1008.98 1826.46 Q1009.26 1828.84 1007.56 1831.19 Q1010.52 1829.28 1013.53 1829.61 Q1016.54 1829.9 1019.03 1832.39 Q1022.31 1835.66 1021.86 1839.67 Q1021.42 1843.68 1017.31 1847.79 L1008.54 1856.56 L984.103 1832.13 Z" fill="#000000" fill-rule="evenodd" fill-opacity="1" /><path clip-path="url(#clip510)" d="M1007.1 1809.13 L1010.41 1805.82 L1032.06 1827.48 L1043.96 1815.58 L1046.74 1818.36 L1031.54 1833.57 L1007.1 1809.13 Z" fill="#000000" fill-rule="evenodd" fill-opacity="1" /><path clip-path="url(#clip510)" d="M1050.57 1808.97 L1062.11 1797.43 L1064.9 1800.21 L1049.38 1815.73 L1046.6 1812.94 Q1046.53 1809.11 1046.5 1802.6 Q1046.47 1796.05 1046.35 1794.27 Q1046.15 1790.9 1045.55 1789.05 Q1044.94 1787.16 1043.75 1785.97 Q1041.8 1784.02 1039.2 1784.17 Q1036.61 1784.3 1034.42 1786.49 Q1032.86 1788.05 1031.67 1790.32 Q1030.49 1792.58 1029.62 1795.64 L1026.28 1792.3 Q1027.48 1789.5 1028.8 1787.36 Q1030.13 1785.22 1031.57 1783.78 Q1035.37 1779.98 1039.53 1779.62 Q1043.68 1779.26 1046.86 1782.43 Q1048.36 1783.94 1049.15 1785.87 Q1049.94 1787.77 1050.28 1791.09 Q1050.34 1791.98 1050.43 1796.44 Q1050.49 1800.9 1050.57 1808.97 Z" fill="#000000" fill-rule="evenodd" fill-opacity="1" /><path clip-path="url(#clip510)" d="M1057.18 1844.27 L1062.1 1839.35 L1084.97 1849.74 L1074.61 1826.84 L1079.54 1821.91 L1103.97 1846.35 L1100.75 1849.58 L1079.29 1828.12 L1089.75 1851.18 L1086.43 1854.5 L1063.36 1844.04 L1084.82 1865.5 L1081.62 1868.71 L1057.18 1844.27 Z" fill="#000000" fill-rule="evenodd" fill-opacity="1" /><path clip-path="url(#clip510)" d="M1101.55 1801.5 L1104.78 1804.73 Q1101.99 1805.71 1099.88 1806.94 Q1097.77 1808.16 1096.22 1809.72 Q1093.51 1812.42 1093.09 1814.94 Q1092.68 1817.44 1094.61 1819.38 Q1096.23 1821 1098.03 1820.87 Q1099.83 1820.7 1103.06 1818.49 L1105.46 1816.9 Q1109.87 1813.91 1113.4 1813.94 Q1116.94 1813.94 1119.92 1816.92 Q1123.47 1820.47 1122.91 1824.7 Q1122.37 1828.9 1117.77 1833.5 Q1116.04 1835.24 1113.68 1836.81 Q1111.34 1838.36 1108.48 1839.69 L1105.07 1836.28 Q1108.21 1835.4 1110.72 1834.04 Q1113.22 1832.68 1115.09 1830.82 Q1117.92 1827.99 1118.35 1825.33 Q1118.77 1822.68 1116.71 1820.62 Q1114.91 1818.82 1112.78 1818.92 Q1110.67 1819 1107.64 1821.01 L1105.23 1822.63 Q1100.8 1825.6 1097.57 1825.68 Q1094.35 1825.76 1091.55 1822.96 Q1088.31 1819.72 1088.72 1815.58 Q1089.14 1811.42 1093.15 1807.41 Q1094.87 1805.69 1096.97 1804.22 Q1099.06 1802.75 1101.55 1801.5 Z" fill="#000000" fill-rule="evenodd" fill-opacity="1" /><path clip-path="url(#clip510)" d="M1127.56 1777.65 L1131.05 1781.14 Q1127.82 1781.25 1125.15 1782.38 Q1122.5 1783.5 1120.37 1785.63 Q1116.18 1789.82 1116.53 1794.61 Q1116.86 1799.39 1121.7 1804.24 Q1126.53 1809.06 1131.33 1809.41 Q1136.1 1809.74 1140.29 1805.55 Q1142.42 1803.42 1143.54 1800.77 Q1144.67 1798.1 1144.78 1794.87 L1148.23 1798.33 Q1147.68 1801.24 1146.32 1803.78 Q1144.98 1806.3 1142.82 1808.46 Q1137.27 1814.01 1130.69 1813.81 Q1124.09 1813.6 1118.21 1807.72 Q1112.32 1801.83 1112.13 1795.25 Q1111.91 1788.65 1117.46 1783.1 Q1119.65 1780.91 1122.18 1779.57 Q1124.7 1778.19 1127.56 1777.65 Z" fill="#000000" fill-rule="evenodd" fill-opacity="1" /><path clip-path="url(#clip510)" d="M1123.84 1888.79 Q1125.26 1888.09 1127.44 1888.27 Q1129.63 1888.43 1132.71 1889.48 L1142.74 1892.8 L1139.19 1896.36 L1129.79 1893.21 Q1126.13 1891.97 1124.18 1892.31 Q1122.25 1892.64 1120.28 1894.6 L1116.68 1898.21 L1127.01 1908.53 L1123.71 1911.84 L1099.27 1887.4 L1106.73 1879.94 Q1110.92 1875.75 1114.74 1875.44 Q1118.55 1875.13 1122.08 1878.66 Q1124.39 1880.97 1124.83 1883.57 Q1125.29 1886.16 1123.84 1888.79 M1105.29 1886.81 L1113.97 1895.49 L1118.12 1891.33 Q1120.51 1888.94 1120.63 1886.63 Q1120.74 1884.29 1118.6 1882.15 Q1116.45 1880 1114.15 1880.15 Q1111.84 1880.27 1109.45 1882.66 L1105.29 1886.81 Z" fill="#000000" fill-rule="evenodd" fill-opacity="1" /><path clip-path="url(#clip510)" d="M1122.56 1864.11 L1125.87 1860.8 L1135.88 1870.82 L1147.9 1858.81 L1137.88 1848.79 L1141.19 1845.48 L1165.62 1869.92 L1162.32 1873.23 L1150.68 1861.59 L1138.67 1873.6 L1150.3 1885.24 L1147 1888.55 L1122.56 1864.11 Z" fill="#000000" fill-rule="evenodd" fill-opacity="1" /><path clip-path="url(#clip510)" d="M1159.93 1831.23 Q1156.33 1834.83 1156.88 1839.64 Q1157.46 1844.44 1162.09 1849.07 Q1166.7 1853.68 1171.5 1854.26 Q1176.31 1854.81 1179.91 1851.21 Q1183.51 1847.61 1182.92 1842.83 Q1182.35 1838.04 1177.74 1833.42 Q1173.1 1828.79 1168.31 1828.22 Q1163.53 1827.63 1159.93 1831.23 M1157.24 1828.54 Q1162.38 1823.4 1168.91 1823.78 Q1175.43 1824.14 1181.22 1829.93 Q1187 1835.71 1187.38 1842.24 Q1187.74 1848.76 1182.6 1853.9 Q1177.44 1859.05 1170.91 1858.71 Q1164.4 1858.35 1158.6 1852.55 Q1152.81 1846.76 1152.45 1840.25 Q1152.09 1833.7 1157.24 1828.54 Z" fill="#000000" fill-rule="evenodd" fill-opacity="1" /><path clip-path="url(#clip510)" d="M1170.83 1815.84 L1174.38 1812.29 L1189.54 1815.3 L1186.56 1800.11 L1190.11 1796.56 L1193.99 1816.15 L1215.07 1820.47 L1211.52 1824.02 L1194.25 1820.51 L1197.72 1837.82 L1194.15 1841.39 L1189.83 1819.62 L1170.83 1815.84 Z" fill="#000000" fill-rule="evenodd" fill-opacity="1" /><path clip-path="url(#clip510)" d="M1213.65 1794.82 Q1211.42 1797.05 1211.63 1799.88 Q1211.86 1802.7 1214.52 1805.35 Q1217.15 1807.98 1219.98 1808.23 Q1222.81 1808.44 1225.04 1806.22 Q1227.27 1803.99 1227.04 1801.17 Q1226.81 1798.33 1224.17 1795.69 Q1221.52 1793.04 1218.69 1792.83 Q1215.87 1792.6 1213.65 1794.82 M1209.85 1777.9 L1212.86 1780.91 Q1211.03 1781.57 1209.44 1782.53 Q1207.87 1783.48 1206.63 1784.72 Q1203.35 1788 1203.83 1791.94 Q1204.32 1795.87 1208.54 1800.59 Q1208.08 1798.2 1208.79 1795.99 Q1209.47 1793.76 1211.23 1792.01 Q1214.91 1788.33 1219.28 1788.44 Q1223.65 1788.52 1227.5 1792.37 Q1231.26 1796.13 1231.31 1800.63 Q1231.36 1805.14 1227.66 1808.84 Q1223.42 1813.07 1217.94 1812.08 Q1212.44 1811.06 1206.27 1804.89 Q1200.47 1799.1 1199.78 1792.91 Q1199.08 1786.71 1203.71 1782.07 Q1204.96 1780.83 1206.46 1779.81 Q1207.98 1778.78 1209.85 1777.9 Z" fill="#000000" fill-rule="evenodd" fill-opacity="1" /><path clip-path="url(#clip510)" d="M1189.74 1882.15 L1205.19 1866.7 L1207.98 1869.48 L1195.83 1881.62 L1203.07 1888.86 L1214.7 1877.22 L1217.49 1880 L1205.85 1891.64 L1214.7 1900.5 L1227.14 1888.06 L1229.93 1890.84 L1214.18 1906.59 L1189.74 1882.15 Z" fill="#000000" fill-rule="evenodd" fill-opacity="1" /><path clip-path="url(#clip510)" d="M1226.37 1847.12 L1229.6 1850.34 Q1226.82 1851.33 1224.7 1852.55 Q1222.59 1853.78 1221.04 1855.34 Q1218.34 1858.04 1217.91 1860.56 Q1217.5 1863.06 1219.43 1864.99 Q1221.05 1866.61 1222.85 1866.48 Q1224.65 1866.32 1227.88 1864.11 L1230.29 1862.52 Q1234.69 1859.53 1238.22 1859.56 Q1241.76 1859.56 1244.74 1862.54 Q1248.29 1866.09 1247.73 1870.31 Q1247.19 1874.52 1242.59 1879.12 Q1240.86 1880.85 1238.5 1882.43 Q1236.16 1883.98 1233.3 1885.31 L1229.89 1881.9 Q1233.04 1881.02 1235.54 1879.66 Q1238.04 1878.3 1239.91 1876.44 Q1242.74 1873.6 1243.17 1870.95 Q1243.59 1868.3 1241.53 1866.24 Q1239.73 1864.44 1237.6 1864.54 Q1235.49 1864.62 1232.46 1866.63 L1230.06 1868.25 Q1225.62 1871.21 1222.4 1871.3 Q1219.17 1871.38 1216.37 1868.58 Q1213.13 1865.34 1213.54 1861.2 Q1213.97 1857.04 1217.98 1853.03 Q1219.7 1851.31 1221.79 1849.84 Q1223.89 1848.36 1226.37 1847.12 Z" fill="#000000" fill-rule="evenodd" fill-opacity="1" /><path clip-path="url(#clip510)" d="M1256.77 1841.08 Q1258.19 1840.38 1260.37 1840.56 Q1262.56 1840.72 1265.64 1841.77 L1275.67 1845.09 L1272.12 1848.64 L1262.73 1845.5 Q1259.06 1844.26 1257.11 1844.6 Q1255.18 1844.93 1253.22 1846.89 L1249.62 1850.49 L1259.94 1860.82 L1256.64 1864.13 L1232.2 1839.69 L1239.66 1832.23 Q1243.85 1828.03 1247.67 1827.72 Q1251.48 1827.41 1255.02 1830.95 Q1257.33 1833.26 1257.77 1835.86 Q1258.23 1838.45 1256.77 1841.08 M1238.22 1839.1 L1246.9 1847.77 L1251.06 1843.62 Q1253.45 1841.23 1253.56 1838.92 Q1253.68 1836.58 1251.53 1834.43 Q1249.39 1832.29 1247.08 1832.44 Q1244.77 1832.55 1242.38 1834.94 L1238.22 1839.1 Z" fill="#000000" fill-rule="evenodd" fill-opacity="1" /><path clip-path="url(#clip510)" d="M1280.06 1817.79 Q1281.48 1817.08 1283.66 1817.26 Q1285.86 1817.43 1288.93 1818.48 L1298.97 1821.8 L1295.41 1825.35 L1286.02 1822.21 Q1282.35 1820.96 1280.4 1821.31 Q1278.47 1821.64 1276.51 1823.6 L1272.91 1827.2 L1283.24 1837.53 L1279.93 1840.83 L1255.49 1816.4 L1262.96 1808.93 Q1267.15 1804.74 1270.96 1804.43 Q1274.77 1804.12 1278.31 1807.66 Q1280.62 1809.96 1281.06 1812.57 Q1281.52 1815.15 1280.06 1817.79 M1261.52 1815.81 L1270.19 1824.48 L1274.35 1820.33 Q1276.74 1817.94 1276.85 1815.63 Q1276.97 1813.29 1274.82 1811.14 Q1272.68 1809 1270.37 1809.15 Q1268.06 1809.26 1265.67 1811.65 L1261.52 1815.81 Z" fill="#000000" fill-rule="evenodd" fill-opacity="1" /><path clip-path="url(#clip510)" d="M1294.86 1802.57 L1303.81 1811.52 L1309.11 1806.22 Q1311.78 1803.55 1311.96 1801.17 Q1312.14 1798.77 1309.87 1796.49 Q1307.58 1794.2 1305.2 1794.41 Q1302.83 1794.59 1300.16 1797.26 L1294.86 1802.57 M1284.81 1792.52 L1292.17 1799.88 L1297.07 1794.99 Q1299.49 1792.57 1299.77 1790.49 Q1300.05 1788.38 1298.18 1786.51 Q1296.33 1784.66 1294.22 1784.94 Q1292.12 1785.2 1289.7 1787.62 L1284.81 1792.52 M1278.78 1793.11 L1287.23 1784.66 Q1291.01 1780.88 1294.63 1780.4 Q1298.25 1779.93 1301.14 1782.83 Q1303.39 1785.07 1303.66 1787.44 Q1303.94 1789.82 1302.24 1792.17 Q1305.2 1790.26 1308.21 1790.58 Q1311.23 1790.88 1313.71 1793.37 Q1316.99 1796.64 1316.55 1800.65 Q1316.1 1804.66 1312 1808.77 L1303.22 1817.54 L1278.78 1793.11 Z" fill="#000000" fill-rule="evenodd" fill-opacity="1" /><path clip-path="url(#clip510)" d="M1291.87 1865.24 L1296.8 1860.31 L1319.66 1870.71 L1309.3 1847.81 L1314.23 1842.88 L1338.67 1867.32 L1335.44 1870.54 L1313.98 1849.08 L1324.44 1872.15 L1321.12 1875.47 L1298.06 1865.01 L1319.52 1886.47 L1316.31 1889.68 L1291.87 1865.24 Z" fill="#000000" fill-rule="evenodd" fill-opacity="1" /><path clip-path="url(#clip510)" d="M1317.44 1839.67 L1320.99 1836.12 L1337.81 1839.39 L1334.49 1822.62 L1338.04 1819.07 L1342.2 1840.51 L1353.84 1852.15 L1350.52 1855.47 L1338.88 1843.83 L1317.44 1839.67 Z" fill="#000000" fill-rule="evenodd" fill-opacity="1" /><path clip-path="url(#clip510)" d="M1359.62 1801.26 L1363.1 1804.74 Q1359.88 1804.86 1357.21 1805.99 Q1354.56 1807.1 1352.43 1809.23 Q1348.24 1813.42 1348.59 1818.21 Q1348.91 1822.99 1353.76 1827.84 Q1358.59 1832.67 1363.38 1833.01 Q1368.16 1833.34 1372.35 1829.15 Q1374.48 1827.02 1375.59 1824.37 Q1376.72 1821.7 1376.84 1818.48 L1380.29 1821.93 Q1379.73 1824.84 1378.38 1827.38 Q1377.03 1829.9 1374.87 1832.06 Q1369.32 1837.61 1362.74 1837.41 Q1356.15 1837.2 1350.27 1831.32 Q1344.38 1825.43 1344.18 1818.85 Q1343.97 1812.26 1349.52 1806.71 Q1351.71 1804.51 1354.23 1803.17 Q1356.75 1801.8 1359.62 1801.26 Z" fill="#000000" fill-rule="evenodd" fill-opacity="1" /><path clip-path="url(#clip510)" d="M1362.84 1794.27 L1367.29 1789.82 L1398.57 1799.42 L1378.13 1778.98 L1381.34 1775.77 L1405.78 1800.21 L1401.32 1804.66 L1370.04 1795.05 L1390.49 1815.5 L1387.28 1818.71 L1362.84 1794.27 Z" fill="#000000" fill-rule="evenodd" fill-opacity="1" /><path clip-path="url(#clip510)" d="M1347.28 1895.05 L1367.96 1874.37 L1370.74 1877.16 L1362.06 1885.83 L1383.72 1907.49 L1380.4 1910.81 L1358.74 1889.15 L1350.07 1897.83 L1347.28 1895.05 Z" fill="#000000" fill-rule="evenodd" fill-opacity="1" /><path clip-path="url(#clip510)" d="M1389.37 1856.73 L1392.85 1860.21 Q1389.63 1860.33 1386.96 1861.46 Q1384.31 1862.57 1382.18 1864.7 Q1377.99 1868.89 1378.33 1873.69 Q1378.66 1878.47 1383.51 1883.31 Q1388.33 1888.14 1393.13 1888.48 Q1397.91 1888.81 1402.1 1884.62 Q1404.23 1882.49 1405.34 1879.84 Q1406.47 1877.17 1406.58 1873.95 L1410.04 1877.4 Q1409.48 1880.31 1408.12 1882.85 Q1406.78 1885.37 1404.62 1887.53 Q1399.07 1893.08 1392.49 1892.89 Q1385.9 1892.67 1380.02 1886.8 Q1374.13 1880.9 1373.93 1874.32 Q1373.72 1867.73 1379.27 1862.18 Q1381.46 1859.99 1383.98 1858.64 Q1386.5 1857.27 1389.37 1856.73 Z" fill="#000000" fill-rule="evenodd" fill-opacity="1" /><path clip-path="url(#clip510)" d="M1392.59 1849.74 L1406.63 1835.7 L1409.42 1838.48 L1398.68 1849.22 L1405.88 1856.42 L1415.57 1846.73 L1418.35 1849.51 L1408.66 1859.2 L1420.33 1870.87 L1417.03 1874.18 L1392.59 1849.74 Z" fill="#000000" fill-rule="evenodd" fill-opacity="1" /><path clip-path="url(#clip510)" d="M1411.33 1831 L1427.05 1815.28 L1428.45 1816.69 L1442.61 1848.59 L1439.16 1852.05 L1425.85 1822.04 L1414.11 1833.78 L1411.33 1831 Z" fill="#000000" fill-rule="evenodd" fill-opacity="1" /><path clip-path="url(#clip510)" d="M1433.2 1809.13 L1436.51 1805.82 L1458.16 1827.48 L1470.06 1815.58 L1472.84 1818.36 L1457.64 1833.57 L1433.2 1809.13 Z" fill="#000000" fill-rule="evenodd" fill-opacity="1" /><path clip-path="url(#clip510)" d="M1476.67 1808.97 L1488.21 1797.43 L1491 1800.21 L1475.48 1815.73 L1472.7 1812.94 Q1472.63 1809.11 1472.6 1802.6 Q1472.56 1796.05 1472.45 1794.27 Q1472.25 1790.9 1471.65 1789.05 Q1471.04 1787.16 1469.85 1785.97 Q1467.9 1784.02 1465.3 1784.17 Q1462.71 1784.3 1460.52 1786.49 Q1458.96 1788.05 1457.77 1790.32 Q1456.59 1792.58 1455.72 1795.64 L1452.38 1792.3 Q1453.58 1789.5 1454.9 1787.36 Q1456.23 1785.22 1457.67 1783.78 Q1461.47 1779.98 1465.62 1779.62 Q1469.78 1779.26 1472.96 1782.43 Q1474.46 1783.94 1475.25 1785.87 Q1476.03 1787.77 1476.38 1791.09 Q1476.44 1791.98 1476.53 1796.44 Q1476.59 1800.9 1476.67 1808.97 Z" fill="#000000" fill-rule="evenodd" fill-opacity="1" /><path clip-path="url(#clip510)" d="M1501.13 1826.41 L1504.44 1823.11 L1528.88 1847.55 L1525.57 1850.85 L1501.13 1826.41 Z" fill="#000000" fill-rule="evenodd" fill-opacity="1" /><path clip-path="url(#clip510)" d="M1517.04 1815.94 L1536.05 1834.94 L1540.04 1830.95 Q1545.1 1825.89 1545.15 1821.26 Q1545.21 1816.61 1540.27 1811.67 Q1535.36 1806.76 1530.73 1806.84 Q1526.1 1806.89 1521.04 1811.95 L1517.04 1815.94 M1511.02 1816.53 L1517.81 1809.74 Q1524.92 1802.63 1531.2 1802.27 Q1537.47 1801.9 1543.76 1808.18 Q1550.08 1814.5 1549.7 1820.8 Q1549.32 1827.1 1542.25 1834.17 L1535.46 1840.97 L1511.02 1816.53 Z" fill="#000000" fill-rule="evenodd" fill-opacity="1" /><path clip-path="url(#clip510)" d="M1559.36 1811.5 L1564.76 1806.1 L1546.11 1787.46 L1541.42 1794.51 L1538.4 1791.5 L1543.07 1784.48 L1546.38 1781.17 L1568.03 1802.83 L1573.43 1797.43 L1576.22 1800.21 L1562.14 1814.29 L1559.36 1811.5 Z" fill="#000000" fill-rule="evenodd" fill-opacity="1" /><path clip-path="url(#clip510)" d="M1529.36 1883.41 L1533.81 1878.96 L1565.09 1888.56 L1544.65 1868.12 L1547.86 1864.91 L1572.29 1889.35 L1567.84 1893.8 L1536.56 1884.19 L1557.01 1904.64 L1553.8 1907.85 L1529.36 1883.41 Z" fill="#000000" fill-rule="evenodd" fill-opacity="1" /><path clip-path="url(#clip510)" d="M1579.01 1859.72 Q1580.43 1859.02 1582.61 1859.2 Q1584.8 1859.36 1587.88 1860.41 L1597.91 1863.73 L1594.36 1867.29 L1584.96 1864.14 Q1581.3 1862.9 1579.35 1863.24 Q1577.42 1863.57 1575.45 1865.53 L1571.85 1869.14 L1582.18 1879.46 L1578.87 1882.77 L1554.44 1858.33 L1561.9 1850.87 Q1566.09 1846.68 1569.9 1846.37 Q1573.72 1846.06 1577.25 1849.59 Q1579.56 1851.9 1580 1854.5 Q1580.46 1857.09 1579.01 1859.72 M1560.46 1857.74 L1569.14 1866.42 L1573.29 1862.26 Q1575.68 1859.87 1575.8 1857.56 Q1575.91 1855.22 1573.77 1853.08 Q1571.62 1850.93 1569.32 1851.08 Q1567.01 1851.2 1564.62 1853.59 L1560.46 1857.74 Z" fill="#000000" fill-rule="evenodd" fill-opacity="1" /><path clip-path="url(#clip510)" d="M1587.27 1829.85 Q1584.72 1832.41 1585.95 1836.22 Q1587.17 1840 1592.21 1845.04 Q1597.24 1850.07 1601.04 1851.31 Q1604.83 1852.52 1607.39 1849.97 Q1609.96 1847.4 1608.73 1843.62 Q1607.5 1839.8 1602.48 1834.78 Q1597.44 1829.74 1593.64 1828.53 Q1589.84 1827.28 1587.27 1829.85 M1584.65 1827.23 Q1588.76 1823.12 1594.18 1824.22 Q1599.6 1825.29 1605.78 1831.47 Q1611.95 1837.64 1613.03 1843.08 Q1614.11 1848.48 1610.01 1852.59 Q1605.9 1856.7 1600.48 1855.63 Q1595.06 1854.53 1588.89 1848.36 Q1582.7 1842.18 1581.62 1836.78 Q1580.54 1831.34 1584.65 1827.23 Z" fill="#000000" fill-rule="evenodd" fill-opacity="1" /><path clip-path="url(#clip510)" d="M1615.13 1823.17 L1624.08 1832.13 L1629.39 1826.82 Q1632.05 1824.16 1632.23 1821.78 Q1632.41 1819.38 1630.14 1817.1 Q1627.85 1814.81 1625.47 1815.02 Q1623.1 1815.2 1620.43 1817.87 L1615.13 1823.17 M1605.08 1813.12 L1612.45 1820.49 L1617.34 1815.6 Q1619.76 1813.17 1620.04 1811.09 Q1620.32 1808.98 1618.45 1807.12 Q1616.6 1805.27 1614.49 1805.55 Q1612.4 1805.81 1609.97 1808.23 L1605.08 1813.12 M1599.06 1813.71 L1607.5 1805.27 Q1611.28 1801.49 1614.9 1801.01 Q1618.52 1800.54 1621.42 1803.43 Q1623.66 1805.68 1623.94 1808.05 Q1624.21 1810.42 1622.51 1812.78 Q1625.47 1810.86 1628.49 1811.19 Q1631.5 1811.49 1633.99 1813.97 Q1637.26 1817.25 1636.82 1821.26 Q1636.38 1825.27 1632.27 1829.38 L1623.49 1838.15 L1599.06 1813.71 Z" fill="#000000" fill-rule="evenodd" fill-opacity="1" /><path clip-path="url(#clip510)" d="M1644.58 1811.5 L1649.98 1806.1 L1631.33 1787.46 L1626.64 1794.51 L1623.62 1791.5 L1628.29 1784.48 L1631.6 1781.17 L1653.25 1802.83 L1658.65 1797.43 L1661.44 1800.21 L1647.36 1814.29 L1644.58 1811.5 Z" fill="#000000" fill-rule="evenodd" fill-opacity="1" /><path clip-path="url(#clip510)" d="M1623.55 1876.04 L1626.77 1879.27 Q1623.99 1880.25 1621.88 1881.48 Q1619.77 1882.7 1618.21 1884.26 Q1615.51 1886.96 1615.09 1889.48 Q1614.68 1891.99 1616.61 1893.92 Q1618.23 1895.54 1620.03 1895.41 Q1621.83 1895.24 1625.06 1893.03 L1627.46 1891.45 Q1631.87 1888.45 1635.4 1888.48 Q1638.94 1888.48 1641.92 1891.46 Q1645.47 1895.01 1644.91 1899.24 Q1644.37 1903.44 1639.77 1908.04 Q1638.04 1909.78 1635.68 1911.35 Q1633.34 1912.9 1630.47 1914.23 L1627.07 1910.82 Q1630.21 1909.94 1632.72 1908.58 Q1635.22 1907.22 1637.09 1905.36 Q1639.92 1902.53 1640.34 1899.87 Q1640.77 1897.22 1638.71 1895.16 Q1636.91 1893.36 1634.78 1893.46 Q1632.67 1893.54 1629.64 1895.55 L1627.23 1897.17 Q1622.8 1900.14 1619.57 1900.22 Q1616.35 1900.3 1613.55 1897.5 Q1610.31 1894.26 1610.72 1890.12 Q1611.14 1885.96 1615.15 1881.95 Q1616.87 1880.23 1618.97 1878.76 Q1621.06 1877.29 1623.55 1876.04 Z" fill="#000000" fill-rule="evenodd" fill-opacity="1" /><path clip-path="url(#clip510)" d="M1629.38 1868.61 L1634.3 1863.68 L1657.17 1874.08 L1646.81 1851.18 L1651.74 1846.25 L1676.17 1870.69 L1672.95 1873.91 L1651.49 1852.46 L1661.95 1875.52 L1658.63 1878.84 L1635.56 1868.38 L1657.02 1889.84 L1653.81 1893.05 L1629.38 1868.61 Z" fill="#000000" fill-rule="evenodd" fill-opacity="1" /><path clip-path="url(#clip510)" d="M1669.72 1834.78 L1677.4 1851.43 L1686.39 1842.44 L1669.72 1834.78 M1664.6 1833.39 L1668.35 1829.64 L1702.1 1844.76 L1698.66 1848.2 L1690.17 1844.16 L1679.15 1855.17 L1683.2 1863.67 L1679.71 1867.15 L1664.6 1833.39 Z" fill="#000000" fill-rule="evenodd" fill-opacity="1" /><path clip-path="url(#clip510)" d="M1687.26 1816.17 L1706.26 1835.17 L1710.25 1831.18 Q1715.31 1826.12 1715.36 1821.49 Q1715.42 1816.84 1710.48 1811.9 Q1705.57 1806.99 1700.94 1807.07 Q1696.31 1807.12 1691.25 1812.17 L1687.26 1816.17 M1681.23 1816.76 L1688.02 1809.96 Q1695.13 1802.86 1701.41 1802.5 Q1707.68 1802.12 1713.97 1808.41 Q1720.29 1814.73 1719.91 1821.03 Q1719.53 1827.33 1712.46 1834.4 L1705.67 1841.19 L1681.23 1816.76 Z" fill="#000000" fill-rule="evenodd" fill-opacity="1" /><path clip-path="url(#clip510)" d="M1706.5 1791.48 L1722.22 1775.77 L1723.63 1777.18 L1737.78 1809.08 L1734.33 1812.53 L1721.02 1782.53 L1709.29 1794.27 L1706.5 1791.48 Z" fill="#000000" fill-rule="evenodd" fill-opacity="1" /><path clip-path="url(#clip510)" d="M1701.54 1881.67 L1704.84 1878.37 L1727.58 1901.1 Q1732 1905.52 1732.31 1909.2 Q1732.63 1912.87 1728.92 1916.59 L1727.66 1917.85 L1724.88 1915.06 L1725.91 1914.03 Q1728.1 1911.84 1727.77 1909.71 Q1727.45 1907.58 1724.27 1904.41 L1701.54 1881.67 Z" fill="#000000" fill-rule="evenodd" fill-opacity="1" /><path clip-path="url(#clip510)" d="M1722.26 1867.47 L1729.93 1884.11 L1738.92 1875.13 L1722.26 1867.47 M1717.13 1866.07 L1720.88 1862.33 L1754.63 1877.45 L1751.2 1880.89 L1742.7 1876.84 L1731.69 1887.86 L1735.73 1896.36 L1732.24 1899.84 L1717.13 1866.07 Z" fill="#000000" fill-rule="evenodd" fill-opacity="1" /><path clip-path="url(#clip510)" d="M1758.33 1850.84 Q1759.76 1850.13 1761.93 1850.31 Q1764.13 1850.48 1767.2 1851.52 L1777.24 1854.85 L1773.69 1858.4 L1764.29 1855.26 Q1760.62 1854.01 1758.68 1854.35 Q1756.75 1854.68 1754.78 1856.65 L1751.18 1860.25 L1761.51 1870.58 L1758.2 1873.88 L1733.76 1849.44 L1741.23 1841.98 Q1745.42 1837.79 1749.23 1837.48 Q1753.05 1837.17 1756.58 1840.7 Q1758.89 1843.01 1759.33 1845.61 Q1759.79 1848.2 1758.33 1850.84 M1739.79 1848.86 L1748.46 1857.53 L1752.62 1853.37 Q1755.01 1850.98 1755.12 1848.68 Q1755.24 1846.33 1753.1 1844.19 Q1750.95 1842.05 1748.64 1842.19 Q1746.34 1842.31 1743.95 1844.7 L1739.79 1848.86 Z" fill="#000000" fill-rule="evenodd" fill-opacity="1" /><path clip-path="url(#clip510)" d="M1757.06 1826.15 L1760.36 1822.85 L1784.8 1847.28 L1781.49 1850.59 L1757.06 1826.15 Z" fill="#000000" fill-rule="evenodd" fill-opacity="1" /><path clip-path="url(#clip510)" d="M1772.97 1815.68 L1791.97 1834.68 L1795.96 1830.69 Q1801.02 1825.63 1801.07 1821 Q1801.14 1816.35 1796.19 1811.4 Q1791.28 1806.49 1786.65 1806.58 Q1782.02 1806.63 1776.96 1811.68 L1772.97 1815.68 M1766.94 1816.27 L1773.74 1809.47 Q1780.84 1802.37 1787.12 1802.01 Q1793.39 1801.63 1799.68 1807.92 Q1806 1814.24 1805.62 1820.54 Q1805.24 1826.84 1798.17 1833.91 L1791.38 1840.7 L1766.94 1816.27 Z" fill="#000000" fill-rule="evenodd" fill-opacity="1" /><path clip-path="url(#clip510)" d="M1817.55 1808.97 L1829.09 1797.43 L1831.87 1800.21 L1816.36 1815.73 L1813.58 1812.94 Q1813.51 1809.11 1813.48 1802.6 Q1813.44 1796.05 1813.33 1794.27 Q1813.13 1790.9 1812.53 1789.05 Q1811.92 1787.16 1810.73 1785.97 Q1808.78 1784.02 1806.18 1784.17 Q1803.59 1784.3 1801.4 1786.49 Q1799.84 1788.05 1798.65 1790.32 Q1797.47 1792.58 1796.6 1795.64 L1793.26 1792.3 Q1794.46 1789.5 1795.78 1787.36 Q1797.11 1785.22 1798.55 1783.78 Q1802.35 1779.98 1806.5 1779.62 Q1810.66 1779.26 1813.84 1782.43 Q1815.34 1783.94 1816.13 1785.87 Q1816.91 1787.77 1817.26 1791.09 Q1817.32 1791.98 1817.41 1796.44 Q1817.47 1800.9 1817.55 1808.97 Z" fill="#000000" fill-rule="evenodd" fill-opacity="1" /><polyline clip-path="url(#clip512)" style="stroke:#000000; stroke-linecap:round; stroke-linejoin:round; stroke-width:2; stroke-opacity:0.1; fill:none" points="
  152.598,1705.37 1952.76,1705.37 
  "/>
<polyline clip-path="url(#clip512)" style="stroke:#000000; stroke-linecap:round; stroke-linejoin:round; stroke-width:2; stroke-opacity:0.1; fill:none" points="
  152.598,1461.22 1952.76,1461.22 
  "/>
<polyline clip-path="url(#clip512)" style="stroke:#000000; stroke-linecap:round; stroke-linejoin:round; stroke-width:2; stroke-opacity:0.1; fill:none" points="
  152.598,1217.07 1952.76,1217.07 
  "/>
<polyline clip-path="url(#clip512)" style="stroke:#000000; stroke-linecap:round; stroke-linejoin:round; stroke-width:2; stroke-opacity:0.1; fill:none" points="
  152.598,972.916 1952.76,972.916 
  "/>
<polyline clip-path="url(#clip512)" style="stroke:#000000; stroke-linecap:round; stroke-linejoin:round; stroke-width:2; stroke-opacity:0.1; fill:none" points="
  152.598,728.766 1952.76,728.766 
  "/>
<polyline clip-path="url(#clip512)" style="stroke:#000000; stroke-linecap:round; stroke-linejoin:round; stroke-width:2; stroke-opacity:0.1; fill:none" points="
  152.598,484.616 1952.76,484.616 
  "/>
<polyline clip-path="url(#clip512)" style="stroke:#000000; stroke-linecap:round; stroke-linejoin:round; stroke-width:2; stroke-opacity:0.1; fill:none" points="
  152.598,240.465 1952.76,240.465 
  "/>
<polyline clip-path="url(#clip510)" style="stroke:#000000; stroke-linecap:round; stroke-linejoin:round; stroke-width:4; stroke-opacity:1; fill:none" points="
  152.598,1753.66 152.598,47.2441 
  "/>
<polyline clip-path="url(#clip510)" style="stroke:#000000; stroke-linecap:round; stroke-linejoin:round; stroke-width:4; stroke-opacity:1; fill:none" points="
  152.598,1705.37 171.496,1705.37 
  "/>
<polyline clip-path="url(#clip510)" style="stroke:#000000; stroke-linecap:round; stroke-linejoin:round; stroke-width:4; stroke-opacity:1; fill:none" points="
  152.598,1461.22 171.496,1461.22 
  "/>
<polyline clip-path="url(#clip510)" style="stroke:#000000; stroke-linecap:round; stroke-linejoin:round; stroke-width:4; stroke-opacity:1; fill:none" points="
  152.598,1217.07 171.496,1217.07 
  "/>
<polyline clip-path="url(#clip510)" style="stroke:#000000; stroke-linecap:round; stroke-linejoin:round; stroke-width:4; stroke-opacity:1; fill:none" points="
  152.598,972.916 171.496,972.916 
  "/>
<polyline clip-path="url(#clip510)" style="stroke:#000000; stroke-linecap:round; stroke-linejoin:round; stroke-width:4; stroke-opacity:1; fill:none" points="
  152.598,728.766 171.496,728.766 
  "/>
<polyline clip-path="url(#clip510)" style="stroke:#000000; stroke-linecap:round; stroke-linejoin:round; stroke-width:4; stroke-opacity:1; fill:none" points="
  152.598,484.616 171.496,484.616 
  "/>
<polyline clip-path="url(#clip510)" style="stroke:#000000; stroke-linecap:round; stroke-linejoin:round; stroke-width:4; stroke-opacity:1; fill:none" points="
  152.598,240.465 171.496,240.465 
  "/>
<path clip-path="url(#clip510)" d="M65.4226 1691.17 Q61.8115 1691.17 59.9828 1694.73 Q58.1773 1698.27 58.1773 1705.4 Q58.1773 1712.51 59.9828 1716.07 Q61.8115 1719.61 65.4226 1719.61 Q69.0569 1719.61 70.8624 1716.07 Q72.6911 1712.51 72.6911 1705.4 Q72.6911 1698.27 70.8624 1694.73 Q69.0569 1691.17 65.4226 1691.17 M65.4226 1687.46 Q71.2328 1687.46 74.2883 1692.07 Q77.367 1696.65 77.367 1705.4 Q77.367 1714.13 74.2883 1718.74 Q71.2328 1723.32 65.4226 1723.32 Q59.6125 1723.32 56.5338 1718.74 Q53.4782 1714.13 53.4782 1705.4 Q53.4782 1696.65 56.5338 1692.07 Q59.6125 1687.46 65.4226 1687.46 Z" fill="#000000" fill-rule="evenodd" fill-opacity="1" /><path clip-path="url(#clip510)" d="M85.5845 1716.77 L90.4688 1716.77 L90.4688 1722.65 L85.5845 1722.65 L85.5845 1716.77 Z" fill="#000000" fill-rule="evenodd" fill-opacity="1" /><path clip-path="url(#clip510)" d="M110.654 1691.17 Q107.043 1691.17 105.214 1694.73 Q103.409 1698.27 103.409 1705.4 Q103.409 1712.51 105.214 1716.07 Q107.043 1719.61 110.654 1719.61 Q114.288 1719.61 116.094 1716.07 Q117.922 1712.51 117.922 1705.4 Q117.922 1698.27 116.094 1694.73 Q114.288 1691.17 110.654 1691.17 M110.654 1687.46 Q116.464 1687.46 119.52 1692.07 Q122.598 1696.65 122.598 1705.4 Q122.598 1714.13 119.52 1718.74 Q116.464 1723.32 110.654 1723.32 Q104.844 1723.32 101.765 1718.74 Q98.7095 1714.13 98.7095 1705.4 Q98.7095 1696.65 101.765 1692.07 Q104.844 1687.46 110.654 1687.46 Z" fill="#000000" fill-rule="evenodd" fill-opacity="1" /><path clip-path="url(#clip510)" d="M67.0198 1447.02 Q63.4087 1447.02 61.58 1450.58 Q59.7745 1454.12 59.7745 1461.25 Q59.7745 1468.36 61.58 1471.92 Q63.4087 1475.46 67.0198 1475.46 Q70.6541 1475.46 72.4596 1471.92 Q74.2883 1468.36 74.2883 1461.25 Q74.2883 1454.12 72.4596 1450.58 Q70.6541 1447.02 67.0198 1447.02 M67.0198 1443.31 Q72.83 1443.31 75.8855 1447.92 Q78.9642 1452.5 78.9642 1461.25 Q78.9642 1469.98 75.8855 1474.58 Q72.83 1479.17 67.0198 1479.17 Q61.2097 1479.17 58.131 1474.58 Q55.0754 1469.98 55.0754 1461.25 Q55.0754 1452.5 58.131 1447.92 Q61.2097 1443.31 67.0198 1443.31 Z" fill="#000000" fill-rule="evenodd" fill-opacity="1" /><path clip-path="url(#clip510)" d="M87.1818 1472.62 L92.066 1472.62 L92.066 1478.5 L87.1818 1478.5 L87.1818 1472.62 Z" fill="#000000" fill-rule="evenodd" fill-opacity="1" /><path clip-path="url(#clip510)" d="M106.279 1474.56 L122.598 1474.56 L122.598 1478.5 L100.654 1478.5 L100.654 1474.56 Q103.316 1471.81 107.899 1467.18 Q112.506 1462.52 113.686 1461.18 Q115.932 1458.66 116.811 1456.92 Q117.714 1455.16 117.714 1453.47 Q117.714 1450.72 115.77 1448.98 Q113.848 1447.25 110.746 1447.25 Q108.547 1447.25 106.094 1448.01 Q103.663 1448.77 100.885 1450.33 L100.885 1445.6 Q103.709 1444.47 106.163 1443.89 Q108.617 1443.31 110.654 1443.31 Q116.024 1443.31 119.219 1446 Q122.413 1448.68 122.413 1453.17 Q122.413 1455.3 121.603 1457.22 Q120.816 1459.12 118.709 1461.71 Q118.131 1462.39 115.029 1465.6 Q111.927 1468.8 106.279 1474.56 Z" fill="#000000" fill-rule="evenodd" fill-opacity="1" /><path clip-path="url(#clip510)" d="M64.9365 1202.87 Q61.3254 1202.87 59.4967 1206.43 Q57.6912 1209.97 57.6912 1217.1 Q57.6912 1224.21 59.4967 1227.77 Q61.3254 1231.31 64.9365 1231.31 Q68.5707 1231.31 70.3763 1227.77 Q72.205 1224.21 72.205 1217.1 Q72.205 1209.97 70.3763 1206.43 Q68.5707 1202.87 64.9365 1202.87 M64.9365 1199.16 Q70.7467 1199.16 73.8022 1203.77 Q76.8809 1208.35 76.8809 1217.1 Q76.8809 1225.83 73.8022 1230.43 Q70.7467 1235.02 64.9365 1235.02 Q59.1264 1235.02 56.0477 1230.43 Q52.9921 1225.83 52.9921 1217.1 Q52.9921 1208.35 56.0477 1203.77 Q59.1264 1199.16 64.9365 1199.16 Z" fill="#000000" fill-rule="evenodd" fill-opacity="1" /><path clip-path="url(#clip510)" d="M85.0984 1228.47 L89.9827 1228.47 L89.9827 1234.35 L85.0984 1234.35 L85.0984 1228.47 Z" fill="#000000" fill-rule="evenodd" fill-opacity="1" /><path clip-path="url(#clip510)" d="M113.015 1203.86 L101.209 1222.31 L113.015 1222.31 L113.015 1203.86 M111.788 1199.79 L117.668 1199.79 L117.668 1222.31 L122.598 1222.31 L122.598 1226.2 L117.668 1226.2 L117.668 1234.35 L113.015 1234.35 L113.015 1226.2 L97.4132 1226.2 L97.4132 1221.68 L111.788 1199.79 Z" fill="#000000" fill-rule="evenodd" fill-opacity="1" /><path clip-path="url(#clip510)" d="M65.2606 958.715 Q61.6495 958.715 59.8208 962.28 Q58.0152 965.821 58.0152 972.951 Q58.0152 980.057 59.8208 983.622 Q61.6495 987.164 65.2606 987.164 Q68.8948 987.164 70.7004 983.622 Q72.5291 980.057 72.5291 972.951 Q72.5291 965.821 70.7004 962.28 Q68.8948 958.715 65.2606 958.715 M65.2606 955.011 Q71.0707 955.011 74.1263 959.618 Q77.205 964.201 77.205 972.951 Q77.205 981.678 74.1263 986.284 Q71.0707 990.868 65.2606 990.868 Q59.4504 990.868 56.3717 986.284 Q53.3162 981.678 53.3162 972.951 Q53.3162 964.201 56.3717 959.618 Q59.4504 955.011 65.2606 955.011 Z" fill="#000000" fill-rule="evenodd" fill-opacity="1" /><path clip-path="url(#clip510)" d="M85.4225 984.317 L90.3067 984.317 L90.3067 990.196 L85.4225 990.196 L85.4225 984.317 Z" fill="#000000" fill-rule="evenodd" fill-opacity="1" /><path clip-path="url(#clip510)" d="M111.071 971.053 Q107.922 971.053 106.071 973.206 Q104.242 975.358 104.242 979.108 Q104.242 982.835 106.071 985.011 Q107.922 987.164 111.071 987.164 Q114.219 987.164 116.047 985.011 Q117.899 982.835 117.899 979.108 Q117.899 975.358 116.047 973.206 Q114.219 971.053 111.071 971.053 M120.353 956.4 L120.353 960.659 Q118.594 959.826 116.788 959.386 Q115.006 958.946 113.246 958.946 Q108.617 958.946 106.163 962.071 Q103.733 965.196 103.385 971.516 Q104.751 969.502 106.811 968.437 Q108.871 967.349 111.348 967.349 Q116.557 967.349 119.566 970.52 Q122.598 973.669 122.598 979.108 Q122.598 984.432 119.45 987.65 Q116.302 990.868 111.071 990.868 Q105.075 990.868 101.904 986.284 Q98.7326 981.678 98.7326 972.951 Q98.7326 964.757 102.621 959.895 Q106.51 955.011 113.061 955.011 Q114.82 955.011 116.603 955.358 Q118.408 955.706 120.353 956.4 Z" fill="#000000" fill-rule="evenodd" fill-opacity="1" /><path clip-path="url(#clip510)" d="M65.5152 714.565 Q61.9041 714.565 60.0754 718.129 Q58.2699 721.671 58.2699 728.801 Q58.2699 735.907 60.0754 739.472 Q61.9041 743.014 65.5152 743.014 Q69.1494 743.014 70.955 739.472 Q72.7837 735.907 72.7837 728.801 Q72.7837 721.671 70.955 718.129 Q69.1494 714.565 65.5152 714.565 M65.5152 710.861 Q71.3254 710.861 74.3809 715.467 Q77.4596 720.051 77.4596 728.801 Q77.4596 737.527 74.3809 742.134 Q71.3254 746.717 65.5152 746.717 Q59.7051 746.717 56.6264 742.134 Q53.5708 737.527 53.5708 728.801 Q53.5708 720.051 56.6264 715.467 Q59.7051 710.861 65.5152 710.861 Z" fill="#000000" fill-rule="evenodd" fill-opacity="1" /><path clip-path="url(#clip510)" d="M85.6771 740.166 L90.5614 740.166 L90.5614 746.046 L85.6771 746.046 L85.6771 740.166 Z" fill="#000000" fill-rule="evenodd" fill-opacity="1" /><path clip-path="url(#clip510)" d="M110.746 729.634 Q107.413 729.634 105.492 731.416 Q103.594 733.199 103.594 736.324 Q103.594 739.449 105.492 741.231 Q107.413 743.014 110.746 743.014 Q114.08 743.014 116.001 741.231 Q117.922 739.426 117.922 736.324 Q117.922 733.199 116.001 731.416 Q114.103 729.634 110.746 729.634 M106.071 727.643 Q103.061 726.902 101.371 724.842 Q99.7048 722.782 99.7048 719.819 Q99.7048 715.676 102.645 713.268 Q105.608 710.861 110.746 710.861 Q115.908 710.861 118.848 713.268 Q121.788 715.676 121.788 719.819 Q121.788 722.782 120.098 724.842 Q118.432 726.902 115.445 727.643 Q118.825 728.43 120.7 730.722 Q122.598 733.014 122.598 736.324 Q122.598 741.347 119.52 744.032 Q116.464 746.717 110.746 746.717 Q105.029 746.717 101.95 744.032 Q98.8947 741.347 98.8947 736.324 Q98.8947 733.014 100.793 730.722 Q102.691 728.43 106.071 727.643 M104.358 720.259 Q104.358 722.944 106.024 724.449 Q107.714 725.953 110.746 725.953 Q113.756 725.953 115.445 724.449 Q117.158 722.944 117.158 720.259 Q117.158 717.574 115.445 716.069 Q113.756 714.565 110.746 714.565 Q107.714 714.565 106.024 716.069 Q104.358 717.574 104.358 720.259 Z" fill="#000000" fill-rule="evenodd" fill-opacity="1" /><path clip-path="url(#clip510)" d="M56.2328 497.96 L63.8717 497.96 L63.8717 471.595 L55.5616 473.261 L55.5616 469.002 L63.8254 467.336 L68.5013 467.336 L68.5013 497.96 L76.1402 497.96 L76.1402 501.896 L56.2328 501.896 L56.2328 497.96 Z" fill="#000000" fill-rule="evenodd" fill-opacity="1" /><path clip-path="url(#clip510)" d="M85.5845 496.016 L90.4688 496.016 L90.4688 501.896 L85.5845 501.896 L85.5845 496.016 Z" fill="#000000" fill-rule="evenodd" fill-opacity="1" /><path clip-path="url(#clip510)" d="M110.654 470.414 Q107.043 470.414 105.214 473.979 Q103.409 477.521 103.409 484.65 Q103.409 491.757 105.214 495.322 Q107.043 498.863 110.654 498.863 Q114.288 498.863 116.094 495.322 Q117.922 491.757 117.922 484.65 Q117.922 477.521 116.094 473.979 Q114.288 470.414 110.654 470.414 M110.654 466.711 Q116.464 466.711 119.52 471.317 Q122.598 475.9 122.598 484.65 Q122.598 493.377 119.52 497.984 Q116.464 502.567 110.654 502.567 Q104.844 502.567 101.765 497.984 Q98.7095 493.377 98.7095 484.65 Q98.7095 475.9 101.765 471.317 Q104.844 466.711 110.654 466.711 Z" fill="#000000" fill-rule="evenodd" fill-opacity="1" /><path clip-path="url(#clip510)" d="M57.8301 253.81 L65.4689 253.81 L65.4689 227.444 L57.1588 229.111 L57.1588 224.852 L65.4226 223.185 L70.0985 223.185 L70.0985 253.81 L77.7374 253.81 L77.7374 257.745 L57.8301 257.745 L57.8301 253.81 Z" fill="#000000" fill-rule="evenodd" fill-opacity="1" /><path clip-path="url(#clip510)" d="M87.1818 251.866 L92.066 251.866 L92.066 257.745 L87.1818 257.745 L87.1818 251.866 Z" fill="#000000" fill-rule="evenodd" fill-opacity="1" /><path clip-path="url(#clip510)" d="M106.279 253.81 L122.598 253.81 L122.598 257.745 L100.654 257.745 L100.654 253.81 Q103.316 251.055 107.899 246.426 Q112.506 241.773 113.686 240.43 Q115.932 237.907 116.811 236.171 Q117.714 234.412 117.714 232.722 Q117.714 229.968 115.77 228.231 Q113.848 226.495 110.746 226.495 Q108.547 226.495 106.094 227.259 Q103.663 228.023 100.885 229.574 L100.885 224.852 Q103.709 223.718 106.163 223.139 Q108.617 222.56 110.654 222.56 Q116.024 222.56 119.219 225.245 Q122.413 227.931 122.413 232.421 Q122.413 234.551 121.603 236.472 Q120.816 238.37 118.709 240.963 Q118.131 241.634 115.029 244.852 Q111.927 248.046 106.279 253.81 Z" fill="#000000" fill-rule="evenodd" fill-opacity="1" /><path clip-path="url(#clip512)" d="
M251.61 95.5389 L251.61 1705.37 L319.786 1705.37 L319.786 95.5389 L251.61 95.5389 L251.61 95.5389  Z
  " fill="#009af9" fill-rule="evenodd" fill-opacity="1"/>
<polyline clip-path="url(#clip512)" style="stroke:#000000; stroke-linecap:round; stroke-linejoin:round; stroke-width:4; stroke-opacity:1; fill:none" points="
  251.61,95.5389 251.61,1705.37 319.786,1705.37 319.786,95.5389 251.61,95.5389 
  "/>
<path clip-path="url(#clip512)" d="
M336.83 160.356 L336.83 1705.37 L405.006 1705.37 L405.006 160.356 L336.83 160.356 L336.83 160.356  Z
  " fill="#009af9" fill-rule="evenodd" fill-opacity="1"/>
<polyline clip-path="url(#clip512)" style="stroke:#000000; stroke-linecap:round; stroke-linejoin:round; stroke-width:4; stroke-opacity:1; fill:none" points="
  336.83,160.356 336.83,1705.37 405.006,1705.37 405.006,160.356 336.83,160.356 
  "/>
<path clip-path="url(#clip512)" d="
M422.05 212.553 L422.05 1705.37 L490.226 1705.37 L490.226 212.553 L422.05 212.553 L422.05 212.553  Z
  " fill="#009af9" fill-rule="evenodd" fill-opacity="1"/>
<polyline clip-path="url(#clip512)" style="stroke:#000000; stroke-linecap:round; stroke-linejoin:round; stroke-width:4; stroke-opacity:1; fill:none" points="
  422.05,212.553 422.05,1705.37 490.226,1705.37 490.226,212.553 422.05,212.553 
  "/>
<path clip-path="url(#clip512)" d="
M507.27 342.671 L507.27 1705.37 L575.446 1705.37 L575.446 342.671 L507.27 342.671 L507.27 342.671  Z
  " fill="#009af9" fill-rule="evenodd" fill-opacity="1"/>
<polyline clip-path="url(#clip512)" style="stroke:#000000; stroke-linecap:round; stroke-linejoin:round; stroke-width:4; stroke-opacity:1; fill:none" points="
  507.27,342.671 507.27,1705.37 575.446,1705.37 575.446,342.671 507.27,342.671 
  "/>
<path clip-path="url(#clip512)" d="
M592.49 347.876 L592.49 1705.37 L660.666 1705.37 L660.666 347.876 L592.49 347.876 L592.49 347.876  Z
  " fill="#009af9" fill-rule="evenodd" fill-opacity="1"/>
<polyline clip-path="url(#clip512)" style="stroke:#000000; stroke-linecap:round; stroke-linejoin:round; stroke-width:4; stroke-opacity:1; fill:none" points="
  592.49,347.876 592.49,1705.37 660.666,1705.37 660.666,347.876 592.49,347.876 
  "/>
<path clip-path="url(#clip512)" d="
M677.71 454.778 L677.71 1705.37 L745.885 1705.37 L745.885 454.778 L677.71 454.778 L677.71 454.778  Z
  " fill="#009af9" fill-rule="evenodd" fill-opacity="1"/>
<polyline clip-path="url(#clip512)" style="stroke:#000000; stroke-linecap:round; stroke-linejoin:round; stroke-width:4; stroke-opacity:1; fill:none" points="
  677.71,454.778 677.71,1705.37 745.885,1705.37 745.885,454.778 677.71,454.778 
  "/>
<path clip-path="url(#clip512)" d="
M762.929 521.891 L762.929 1705.37 L831.105 1705.37 L831.105 521.891 L762.929 521.891 L762.929 521.891  Z
  " fill="#009af9" fill-rule="evenodd" fill-opacity="1"/>
<polyline clip-path="url(#clip512)" style="stroke:#000000; stroke-linecap:round; stroke-linejoin:round; stroke-width:4; stroke-opacity:1; fill:none" points="
  762.929,521.891 762.929,1705.37 831.105,1705.37 831.105,521.891 762.929,521.891 
  "/>
<path clip-path="url(#clip512)" d="
M848.149 622.864 L848.149 1705.37 L916.325 1705.37 L916.325 622.864 L848.149 622.864 L848.149 622.864  Z
  " fill="#009af9" fill-rule="evenodd" fill-opacity="1"/>
<polyline clip-path="url(#clip512)" style="stroke:#000000; stroke-linecap:round; stroke-linejoin:round; stroke-width:4; stroke-opacity:1; fill:none" points="
  848.149,622.864 848.149,1705.37 916.325,1705.37 916.325,622.864 848.149,622.864 
  "/>
<path clip-path="url(#clip512)" d="
M933.369 785.796 L933.369 1705.37 L1001.55 1705.37 L1001.55 785.796 L933.369 785.796 L933.369 785.796  Z
  " fill="#009af9" fill-rule="evenodd" fill-opacity="1"/>
<polyline clip-path="url(#clip512)" style="stroke:#000000; stroke-linecap:round; stroke-linejoin:round; stroke-width:4; stroke-opacity:1; fill:none" points="
  933.369,785.796 933.369,1705.37 1001.55,1705.37 1001.55,785.796 933.369,785.796 
  "/>
<path clip-path="url(#clip512)" d="
M1018.59 816.992 L1018.59 1705.37 L1086.77 1705.37 L1086.77 816.992 L1018.59 816.992 L1018.59 816.992  Z
  " fill="#009af9" fill-rule="evenodd" fill-opacity="1"/>
<polyline clip-path="url(#clip512)" style="stroke:#000000; stroke-linecap:round; stroke-linejoin:round; stroke-width:4; stroke-opacity:1; fill:none" points="
  1018.59,816.992 1018.59,1705.37 1086.77,1705.37 1086.77,816.992 1018.59,816.992 
  "/>
<path clip-path="url(#clip512)" d="
M1103.81 820.037 L1103.81 1705.37 L1171.98 1705.37 L1171.98 820.037 L1103.81 820.037 L1103.81 820.037  Z
  " fill="#009af9" fill-rule="evenodd" fill-opacity="1"/>
<polyline clip-path="url(#clip512)" style="stroke:#000000; stroke-linecap:round; stroke-linejoin:round; stroke-width:4; stroke-opacity:1; fill:none" points="
  1103.81,820.037 1103.81,1705.37 1171.98,1705.37 1171.98,820.037 1103.81,820.037 
  "/>
<path clip-path="url(#clip512)" d="
M1189.03 874.47 L1189.03 1705.37 L1257.2 1705.37 L1257.2 874.47 L1189.03 874.47 L1189.03 874.47  Z
  " fill="#009af9" fill-rule="evenodd" fill-opacity="1"/>
<polyline clip-path="url(#clip512)" style="stroke:#000000; stroke-linecap:round; stroke-linejoin:round; stroke-width:4; stroke-opacity:1; fill:none" points="
  1189.03,874.47 1189.03,1705.37 1257.2,1705.37 1257.2,874.47 1189.03,874.47 
  "/>
<path clip-path="url(#clip512)" d="
M1274.25 895.241 L1274.25 1705.37 L1342.42 1705.37 L1342.42 895.241 L1274.25 895.241 L1274.25 895.241  Z
  " fill="#009af9" fill-rule="evenodd" fill-opacity="1"/>
<polyline clip-path="url(#clip512)" style="stroke:#000000; stroke-linecap:round; stroke-linejoin:round; stroke-width:4; stroke-opacity:1; fill:none" points="
  1274.25,895.241 1274.25,1705.37 1342.42,1705.37 1342.42,895.241 1274.25,895.241 
  "/>
<path clip-path="url(#clip512)" d="
M1359.47 904.369 L1359.47 1705.37 L1427.64 1705.37 L1427.64 904.369 L1359.47 904.369 L1359.47 904.369  Z
  " fill="#009af9" fill-rule="evenodd" fill-opacity="1"/>
<polyline clip-path="url(#clip512)" style="stroke:#000000; stroke-linecap:round; stroke-linejoin:round; stroke-width:4; stroke-opacity:1; fill:none" points="
  1359.47,904.369 1359.47,1705.37 1427.64,1705.37 1427.64,904.369 1359.47,904.369 
  "/>
<path clip-path="url(#clip512)" d="
M1444.69 930.186 L1444.69 1705.37 L1512.86 1705.37 L1512.86 930.186 L1444.69 930.186 L1444.69 930.186  Z
  " fill="#009af9" fill-rule="evenodd" fill-opacity="1"/>
<polyline clip-path="url(#clip512)" style="stroke:#000000; stroke-linecap:round; stroke-linejoin:round; stroke-width:4; stroke-opacity:1; fill:none" points="
  1444.69,930.186 1444.69,1705.37 1512.86,1705.37 1512.86,930.186 1444.69,930.186 
  "/>
<path clip-path="url(#clip512)" d="
M1529.91 1090.95 L1529.91 1705.37 L1598.08 1705.37 L1598.08 1090.95 L1529.91 1090.95 L1529.91 1090.95  Z
  " fill="#009af9" fill-rule="evenodd" fill-opacity="1"/>
<polyline clip-path="url(#clip512)" style="stroke:#000000; stroke-linecap:round; stroke-linejoin:round; stroke-width:4; stroke-opacity:1; fill:none" points="
  1529.91,1090.95 1529.91,1705.37 1598.08,1705.37 1598.08,1090.95 1529.91,1090.95 
  "/>
<path clip-path="url(#clip512)" d="
M1615.13 1108.33 L1615.13 1705.37 L1683.3 1705.37 L1683.3 1108.33 L1615.13 1108.33 L1615.13 1108.33  Z
  " fill="#009af9" fill-rule="evenodd" fill-opacity="1"/>
<polyline clip-path="url(#clip512)" style="stroke:#000000; stroke-linecap:round; stroke-linejoin:round; stroke-width:4; stroke-opacity:1; fill:none" points="
  1615.13,1108.33 1615.13,1705.37 1683.3,1705.37 1683.3,1108.33 1615.13,1108.33 
  "/>
<path clip-path="url(#clip512)" d="
M1700.35 1128.62 L1700.35 1705.37 L1768.52 1705.37 L1768.52 1128.62 L1700.35 1128.62 L1700.35 1128.62  Z
  " fill="#009af9" fill-rule="evenodd" fill-opacity="1"/>
<polyline clip-path="url(#clip512)" style="stroke:#000000; stroke-linecap:round; stroke-linejoin:round; stroke-width:4; stroke-opacity:1; fill:none" points="
  1700.35,1128.62 1700.35,1705.37 1768.52,1705.37 1768.52,1128.62 1700.35,1128.62 
  "/>
<path clip-path="url(#clip512)" d="
M1785.57 1403.17 L1785.57 1705.37 L1853.74 1705.37 L1853.74 1403.17 L1785.57 1403.17 L1785.57 1403.17  Z
  " fill="#009af9" fill-rule="evenodd" fill-opacity="1"/>
<polyline clip-path="url(#clip512)" style="stroke:#000000; stroke-linecap:round; stroke-linejoin:round; stroke-width:4; stroke-opacity:1; fill:none" points="
  1785.57,1403.17 1785.57,1705.37 1853.74,1705.37 1853.74,1403.17 1785.57,1403.17 
  "/>
<circle clip-path="url(#clip512)" style="fill:#009af9; stroke:none; fill-opacity:0" cx="285.698" cy="95.5389" r="2"/>
<circle clip-path="url(#clip512)" style="fill:#009af9; stroke:none; fill-opacity:0" cx="370.918" cy="160.356" r="2"/>
<circle clip-path="url(#clip512)" style="fill:#009af9; stroke:none; fill-opacity:0" cx="456.138" cy="212.553" r="2"/>
<circle clip-path="url(#clip512)" style="fill:#009af9; stroke:none; fill-opacity:0" cx="541.358" cy="342.671" r="2"/>
<circle clip-path="url(#clip512)" style="fill:#009af9; stroke:none; fill-opacity:0" cx="626.578" cy="347.876" r="2"/>
<circle clip-path="url(#clip512)" style="fill:#009af9; stroke:none; fill-opacity:0" cx="711.798" cy="454.778" r="2"/>
<circle clip-path="url(#clip512)" style="fill:#009af9; stroke:none; fill-opacity:0" cx="797.017" cy="521.891" r="2"/>
<circle clip-path="url(#clip512)" style="fill:#009af9; stroke:none; fill-opacity:0" cx="882.237" cy="622.864" r="2"/>
<circle clip-path="url(#clip512)" style="fill:#009af9; stroke:none; fill-opacity:0" cx="967.457" cy="785.796" r="2"/>
<circle clip-path="url(#clip512)" style="fill:#009af9; stroke:none; fill-opacity:0" cx="1052.68" cy="816.992" r="2"/>
<circle clip-path="url(#clip512)" style="fill:#009af9; stroke:none; fill-opacity:0" cx="1137.9" cy="820.037" r="2"/>
<circle clip-path="url(#clip512)" style="fill:#009af9; stroke:none; fill-opacity:0" cx="1223.12" cy="874.47" r="2"/>
<circle clip-path="url(#clip512)" style="fill:#009af9; stroke:none; fill-opacity:0" cx="1308.34" cy="895.241" r="2"/>
<circle clip-path="url(#clip512)" style="fill:#009af9; stroke:none; fill-opacity:0" cx="1393.56" cy="904.369" r="2"/>
<circle clip-path="url(#clip512)" style="fill:#009af9; stroke:none; fill-opacity:0" cx="1478.78" cy="930.186" r="2"/>
<circle clip-path="url(#clip512)" style="fill:#009af9; stroke:none; fill-opacity:0" cx="1564" cy="1090.95" r="2"/>
<circle clip-path="url(#clip512)" style="fill:#009af9; stroke:none; fill-opacity:0" cx="1649.22" cy="1108.33" r="2"/>
<circle clip-path="url(#clip512)" style="fill:#009af9; stroke:none; fill-opacity:0" cx="1734.44" cy="1128.62" r="2"/>
<circle clip-path="url(#clip512)" style="fill:#009af9; stroke:none; fill-opacity:0" cx="1819.66" cy="1403.17" r="2"/>
<path clip-path="url(#clip510)" d="
M1660.3 207.805 L1892.75 207.805 L1892.75 104.125 L1660.3 104.125  Z
  " fill="#ffffff" fill-rule="evenodd" fill-opacity="1"/>
<polyline clip-path="url(#clip510)" style="stroke:#000000; stroke-linecap:round; stroke-linejoin:round; stroke-width:4; stroke-opacity:1; fill:none" points="
  1660.3,207.805 1892.75,207.805 1892.75,104.125 1660.3,104.125 1660.3,207.805 
  "/>
<path clip-path="url(#clip510)" d="
M1680.31 176.701 L1800.32 176.701 L1800.32 135.229 L1680.31 135.229 L1680.31 176.701  Z
  " fill="#009af9" fill-rule="evenodd" fill-opacity="1"/>
<polyline clip-path="url(#clip510)" style="stroke:#000000; stroke-linecap:round; stroke-linejoin:round; stroke-width:4; stroke-opacity:1; fill:none" points="
  1680.31,176.701 1800.32,176.701 1800.32,135.229 1680.31,135.229 1680.31,176.701 
  "/>
<path clip-path="url(#clip510)" d="M1834.16 175.652 Q1832.36 180.282 1830.64 181.694 Q1828.93 183.106 1826.06 183.106 L1822.66 183.106 L1822.66 179.541 L1825.16 179.541 Q1826.92 179.541 1827.89 178.708 Q1828.86 177.874 1830.04 174.772 L1830.8 172.828 L1820.32 147.319 L1824.83 147.319 L1832.93 167.597 L1841.04 147.319 L1845.55 147.319 L1834.16 175.652 Z" fill="#000000" fill-rule="evenodd" fill-opacity="1" /><path clip-path="url(#clip510)" d="M1852.84 169.31 L1860.48 169.31 L1860.48 142.944 L1852.17 144.611 L1852.17 140.351 L1860.43 138.685 L1865.11 138.685 L1865.11 169.31 L1872.75 169.31 L1872.75 173.245 L1852.84 173.245 L1852.84 169.31 Z" fill="#000000" fill-rule="evenodd" fill-opacity="1" /></svg>
