<?xml version="1.0" encoding="utf-8"?>
<svg xmlns="http://www.w3.org/2000/svg" xmlns:xlink="http://www.w3.org/1999/xlink" width="500" height="500" viewBox="0 0 2000 2000">
<defs>
  <clipPath id="clip950">
    <rect x="0" y="0" width="2000" height="2000"/>
  </clipPath>
</defs>
<path clip-path="url(#clip950)" d="
M0 2000 L2000 2000 L2000 0 L0 0  Z
  " fill="#ffffff" fill-rule="evenodd" fill-opacity="1"/>
<defs>
  <clipPath id="clip951">
    <rect x="400" y="200" width="1401" height="1401"/>
  </clipPath>
</defs>
<path clip-path="url(#clip950)" d="
M152.112 1753.66 L1952.76 1753.66 L1952.76 47.2441 L152.112 47.2441  Z
  " fill="#ffffff" fill-rule="evenodd" fill-opacity="1"/>
<defs>
  <clipPath id="clip952">
    <rect x="152" y="47" width="1802" height="1707"/>
  </clipPath>
</defs>
<polyline clip-path="url(#clip952)" style="stroke:#000000; stroke-linecap:round; stroke-linejoin:round; stroke-width:2; stroke-opacity:0.1; fill:none" points="
  285.248,1753.66 285.248,47.2441 
  "/>
<polyline clip-path="url(#clip952)" style="stroke:#000000; stroke-linecap:round; stroke-linejoin:round; stroke-width:2; stroke-opacity:0.1; fill:none" points="
  370.491,1753.66 370.491,47.2441 
  "/>
<polyline clip-path="url(#clip952)" style="stroke:#000000; stroke-linecap:round; stroke-linejoin:round; stroke-width:2; stroke-opacity:0.1; fill:none" points="
  455.734,1753.66 455.734,47.2441 
  "/>
<polyline clip-path="url(#clip952)" style="stroke:#000000; stroke-linecap:round; stroke-linejoin:round; stroke-width:2; stroke-opacity:0.1; fill:none" points="
  540.977,1753.66 540.977,47.2441 
  "/>
<polyline clip-path="url(#clip952)" style="stroke:#000000; stroke-linecap:round; stroke-linejoin:round; stroke-width:2; stroke-opacity:0.1; fill:none" points="
  626.22,1753.66 626.22,47.2441 
  "/>
<polyline clip-path="url(#clip952)" style="stroke:#000000; stroke-linecap:round; stroke-linejoin:round; stroke-width:2; stroke-opacity:0.1; fill:none" points="
  711.462,1753.66 711.462,47.2441 
  "/>
<polyline clip-path="url(#clip952)" style="stroke:#000000; stroke-linecap:round; stroke-linejoin:round; stroke-width:2; stroke-opacity:0.1; fill:none" points="
  796.705,1753.66 796.705,47.2441 
  "/>
<polyline clip-path="url(#clip952)" style="stroke:#000000; stroke-linecap:round; stroke-linejoin:round; stroke-width:2; stroke-opacity:0.1; fill:none" points="
  881.948,1753.66 881.948,47.2441 
  "/>
<polyline clip-path="url(#clip952)" style="stroke:#000000; stroke-linecap:round; stroke-linejoin:round; stroke-width:2; stroke-opacity:0.1; fill:none" points="
  967.191,1753.66 967.191,47.2441 
  "/>
<polyline clip-path="url(#clip952)" style="stroke:#000000; stroke-linecap:round; stroke-linejoin:round; stroke-width:2; stroke-opacity:0.1; fill:none" points="
  1052.43,1753.66 1052.43,47.2441 
  "/>
<polyline clip-path="url(#clip952)" style="stroke:#000000; stroke-linecap:round; stroke-linejoin:round; stroke-width:2; stroke-opacity:0.1; fill:none" points="
  1137.68,1753.66 1137.68,47.2441 
  "/>
<polyline clip-path="url(#clip952)" style="stroke:#000000; stroke-linecap:round; stroke-linejoin:round; stroke-width:2; stroke-opacity:0.1; fill:none" points="
  1222.92,1753.66 1222.92,47.2441 
  "/>
<polyline clip-path="url(#clip952)" style="stroke:#000000; stroke-linecap:round; stroke-linejoin:round; stroke-width:2; stroke-opacity:0.1; fill:none" points="
  1308.16,1753.66 1308.16,47.2441 
  "/>
<polyline clip-path="url(#clip952)" style="stroke:#000000; stroke-linecap:round; stroke-linejoin:round; stroke-width:2; stroke-opacity:0.1; fill:none" points="
  1393.41,1753.66 1393.41,47.2441 
  "/>
<polyline clip-path="url(#clip952)" style="stroke:#000000; stroke-linecap:round; stroke-linejoin:round; stroke-width:2; stroke-opacity:0.1; fill:none" points="
  1478.65,1753.66 1478.65,47.2441 
  "/>
<polyline clip-path="url(#clip952)" style="stroke:#000000; stroke-linecap:round; stroke-linejoin:round; stroke-width:2; stroke-opacity:0.1; fill:none" points="
  1563.89,1753.66 1563.89,47.2441 
  "/>
<polyline clip-path="url(#clip952)" style="stroke:#000000; stroke-linecap:round; stroke-linejoin:round; stroke-width:2; stroke-opacity:0.1; fill:none" points="
  1649.13,1753.66 1649.13,47.2441 
  "/>
<polyline clip-path="url(#clip952)" style="stroke:#000000; stroke-linecap:round; stroke-linejoin:round; stroke-width:2; stroke-opacity:0.1; fill:none" points="
  1734.38,1753.66 1734.38,47.2441 
  "/>
<polyline clip-path="url(#clip952)" style="stroke:#000000; stroke-linecap:round; stroke-linejoin:round; stroke-width:2; stroke-opacity:0.1; fill:none" points="
  1819.62,1753.66 1819.62,47.2441 
  "/>
<polyline clip-path="url(#clip950)" style="stroke:#000000; stroke-linecap:round; stroke-linejoin:round; stroke-width:4; stroke-opacity:1; fill:none" points="
  152.112,1753.66 1952.76,1753.66 
  "/>
<polyline clip-path="url(#clip950)" style="stroke:#000000; stroke-linecap:round; stroke-linejoin:round; stroke-width:4; stroke-opacity:1; fill:none" points="
  285.248,1753.66 285.248,1734.76 
  "/>
<polyline clip-path="url(#clip950)" style="stroke:#000000; stroke-linecap:round; stroke-linejoin:round; stroke-width:4; stroke-opacity:1; fill:none" points="
  370.491,1753.66 370.491,1734.76 
  "/>
<polyline clip-path="url(#clip950)" style="stroke:#000000; stroke-linecap:round; stroke-linejoin:round; stroke-width:4; stroke-opacity:1; fill:none" points="
  455.734,1753.66 455.734,1734.76 
  "/>
<polyline clip-path="url(#clip950)" style="stroke:#000000; stroke-linecap:round; stroke-linejoin:round; stroke-width:4; stroke-opacity:1; fill:none" points="
  540.977,1753.66 540.977,1734.76 
  "/>
<polyline clip-path="url(#clip950)" style="stroke:#000000; stroke-linecap:round; stroke-linejoin:round; stroke-width:4; stroke-opacity:1; fill:none" points="
  626.22,1753.66 626.22,1734.76 
  "/>
<polyline clip-path="url(#clip950)" style="stroke:#000000; stroke-linecap:round; stroke-linejoin:round; stroke-width:4; stroke-opacity:1; fill:none" points="
  711.462,1753.66 711.462,1734.76 
  "/>
<polyline clip-path="url(#clip950)" style="stroke:#000000; stroke-linecap:round; stroke-linejoin:round; stroke-width:4; stroke-opacity:1; fill:none" points="
  796.705,1753.66 796.705,1734.76 
  "/>
<polyline clip-path="url(#clip950)" style="stroke:#000000; stroke-linecap:round; stroke-linejoin:round; stroke-width:4; stroke-opacity:1; fill:none" points="
  881.948,1753.66 881.948,1734.76 
  "/>
<polyline clip-path="url(#clip950)" style="stroke:#000000; stroke-linecap:round; stroke-linejoin:round; stroke-width:4; stroke-opacity:1; fill:none" points="
  967.191,1753.66 967.191,1734.76 
  "/>
<polyline clip-path="url(#clip950)" style="stroke:#000000; stroke-linecap:round; stroke-linejoin:round; stroke-width:4; stroke-opacity:1; fill:none" points="
  1052.43,1753.66 1052.43,1734.76 
  "/>
<polyline clip-path="url(#clip950)" style="stroke:#000000; stroke-linecap:round; stroke-linejoin:round; stroke-width:4; stroke-opacity:1; fill:none" points="
  1137.68,1753.66 1137.68,1734.76 
  "/>
<polyline clip-path="url(#clip950)" style="stroke:#000000; stroke-linecap:round; stroke-linejoin:round; stroke-width:4; stroke-opacity:1; fill:none" points="
  1222.92,1753.66 1222.92,1734.76 
  "/>
<polyline clip-path="url(#clip950)" style="stroke:#000000; stroke-linecap:round; stroke-linejoin:round; stroke-width:4; stroke-opacity:1; fill:none" points="
  1308.16,1753.66 1308.16,1734.76 
  "/>
<polyline clip-path="url(#clip950)" style="stroke:#000000; stroke-linecap:round; stroke-linejoin:round; stroke-width:4; stroke-opacity:1; fill:none" points="
  1393.41,1753.66 1393.41,1734.76 
  "/>
<polyline clip-path="url(#clip950)" style="stroke:#000000; stroke-linecap:round; stroke-linejoin:round; stroke-width:4; stroke-opacity:1; fill:none" points="
  1478.65,1753.66 1478.65,1734.76 
  "/>
<polyline clip-path="url(#clip950)" style="stroke:#000000; stroke-linecap:round; stroke-linejoin:round; stroke-width:4; stroke-opacity:1; fill:none" points="
  1563.89,1753.66 1563.89,1734.76 
  "/>
<polyline clip-path="url(#clip950)" style="stroke:#000000; stroke-linecap:round; stroke-linejoin:round; stroke-width:4; stroke-opacity:1; fill:none" points="
  1649.13,1753.66 1649.13,1734.76 
  "/>
<polyline clip-path="url(#clip950)" style="stroke:#000000; stroke-linecap:round; stroke-linejoin:round; stroke-width:4; stroke-opacity:1; fill:none" points="
  1734.38,1753.66 1734.38,1734.76 
  "/>
<polyline clip-path="url(#clip950)" style="stroke:#000000; stroke-linecap:round; stroke-linejoin:round; stroke-width:4; stroke-opacity:1; fill:none" points="
  1819.62,1753.66 1819.62,1734.76 
  "/>
<path clip-path="url(#clip950)" d="M190.141 1860.26 L193.365 1863.49 Q190.583 1864.47 188.471 1865.7 Q186.36 1866.93 184.805 1868.48 Q182.104 1871.18 181.679 1873.7 Q181.269 1876.21 183.201 1878.14 Q184.821 1879.76 186.622 1879.63 Q188.422 1879.46 191.647 1877.25 L194.053 1875.67 Q198.456 1872.67 201.991 1872.7 Q205.527 1872.7 208.506 1875.68 Q212.058 1879.23 211.501 1883.46 Q210.961 1887.66 206.362 1892.26 Q204.627 1894 202.27 1895.57 Q199.929 1897.12 197.065 1898.45 L193.66 1895.05 Q196.803 1894.16 199.307 1892.8 Q201.811 1891.45 203.677 1889.58 Q206.509 1886.75 206.935 1884.1 Q207.36 1881.44 205.298 1879.38 Q203.497 1877.58 201.369 1877.68 Q199.258 1877.76 196.23 1879.77 L193.824 1881.4 Q189.388 1884.36 186.163 1884.44 Q182.939 1884.52 180.14 1881.72 Q176.899 1878.48 177.308 1874.34 Q177.734 1870.18 181.744 1866.17 Q183.463 1864.45 185.558 1862.98 Q187.653 1861.51 190.141 1860.26 Z" fill="#000000" fill-rule="evenodd" fill-opacity="1" /><path clip-path="url(#clip950)" d="M208.015 1847.3 L215.692 1863.95 L224.678 1854.96 L208.015 1847.3 M202.892 1845.91 L206.64 1842.16 L240.391 1857.28 L236.954 1860.72 L228.459 1856.68 L217.443 1867.69 L221.486 1876.19 L217.999 1879.68 L202.892 1845.91 Z" fill="#000000" fill-rule="evenodd" fill-opacity="1" /><path clip-path="url(#clip950)" d="M219.522 1829.28 L222.828 1825.97 L244.483 1847.63 L256.383 1835.73 L259.165 1838.51 L243.959 1853.72 L219.522 1829.28 Z" fill="#000000" fill-rule="evenodd" fill-opacity="1" /><path clip-path="url(#clip950)" d="M238.198 1810.6 L241.504 1807.3 L263.159 1828.95 L275.059 1817.05 L277.841 1819.83 L262.635 1835.04 L238.198 1810.6 Z" fill="#000000" fill-rule="evenodd" fill-opacity="1" /><path clip-path="url(#clip950)" d="M269.133 1785.43 L273.831 1806.82 L282.179 1798.47 L269.133 1785.43 M265.385 1783.42 L269.543 1779.26 L285.469 1795.18 L288.955 1791.7 L291.705 1794.45 L288.219 1797.93 L293.98 1803.7 L290.69 1806.99 L284.929 1801.22 L273.897 1812.26 L270.705 1809.06 L265.385 1783.42 Z" fill="#000000" fill-rule="evenodd" fill-opacity="1" /><path clip-path="url(#clip950)" d="M237.606 1901.87 L246.789 1911.05 L250.946 1906.9 Q253.254 1904.59 253.32 1902.13 Q253.385 1899.68 251.175 1897.47 Q248.982 1895.28 246.527 1895.34 Q244.072 1895.41 241.764 1897.71 L237.606 1901.87 M231.583 1902.46 L239.047 1895 Q243.155 1890.89 247.116 1890.66 Q251.077 1890.4 254.662 1893.98 Q258.279 1897.6 258.017 1901.56 Q257.772 1905.51 253.663 1909.61 L249.506 1913.77 L259.327 1923.59 L256.02 1926.9 L231.583 1902.46 Z" fill="#000000" fill-rule="evenodd" fill-opacity="1" /><path clip-path="url(#clip950)" d="M263.959 1874.57 Q260.358 1878.17 260.914 1882.98 Q261.487 1887.78 266.119 1892.41 Q270.735 1897.03 275.531 1897.6 Q280.343 1898.16 283.944 1894.56 Q287.545 1890.95 286.956 1886.17 Q286.383 1881.38 281.767 1876.76 Q277.135 1872.13 272.339 1871.56 Q267.56 1870.97 263.959 1874.57 M261.274 1871.89 Q266.414 1866.75 272.945 1867.12 Q279.459 1867.48 285.254 1873.28 Q291.032 1879.05 291.408 1885.59 Q291.768 1892.1 286.629 1897.24 Q281.473 1902.4 274.942 1902.05 Q268.427 1901.69 262.633 1895.9 Q256.839 1890.1 256.479 1883.59 Q256.119 1877.04 261.274 1871.89 Z" fill="#000000" fill-rule="evenodd" fill-opacity="1" /><path clip-path="url(#clip950)" d="M277.806 1856.24 L281.129 1852.91 L295.975 1867.76 Q299.903 1871.69 303.062 1872 Q306.205 1872.29 309.397 1869.1 Q312.572 1865.93 312.278 1862.78 Q311.967 1859.63 308.038 1855.7 L293.192 1840.85 L296.515 1837.53 L311.77 1852.78 Q316.55 1857.56 316.615 1862.38 Q316.697 1867.17 312.081 1871.79 Q307.449 1876.42 302.637 1876.35 Q297.841 1876.27 293.061 1871.49 L277.806 1856.24 Z" fill="#000000" fill-rule="evenodd" fill-opacity="1" /><path clip-path="url(#clip950)" d="M303.046 1831 L316.026 1818.02 L318.808 1820.8 L308.857 1830.75 L314.847 1836.74 Q315.322 1835.78 315.928 1834.94 Q316.517 1834.09 317.237 1833.37 Q321.329 1829.28 325.961 1829.13 Q330.593 1828.98 334.424 1832.81 Q338.368 1836.76 338.106 1841.41 Q337.828 1846.04 333.36 1850.51 Q331.821 1852.05 329.955 1853.39 Q328.106 1854.72 325.879 1855.89 L322.557 1852.57 Q324.832 1851.9 326.796 1850.72 Q328.76 1849.54 330.512 1847.79 Q333.343 1844.96 333.507 1841.82 Q333.671 1838.67 331.117 1836.12 Q328.564 1833.57 325.421 1833.73 Q322.278 1833.89 319.447 1836.73 Q318.121 1838.05 317.09 1839.67 Q316.075 1841.28 315.322 1843.27 L303.046 1831 Z" fill="#000000" fill-rule="evenodd" fill-opacity="1" /><path clip-path="url(#clip950)" d="M324.046 1810 L338.09 1795.95 L340.873 1798.74 L330.135 1809.47 L337.337 1816.68 L347.027 1806.99 L349.81 1809.77 L340.12 1819.46 L351.79 1831.13 L348.484 1834.43 L324.046 1810 Z" fill="#000000" fill-rule="evenodd" fill-opacity="1" /><path clip-path="url(#clip950)" d="M365.85 1811.5 L371.252 1806.1 L352.609 1787.46 L347.911 1794.51 L344.899 1791.5 L349.564 1784.48 L352.871 1781.17 L374.526 1802.83 L379.927 1797.43 L382.71 1800.21 L368.633 1814.29 L365.85 1811.5 Z" fill="#000000" fill-rule="evenodd" fill-opacity="1" /><path clip-path="url(#clip950)" d="M375.8 1845.09 L379.024 1848.32 Q376.242 1849.3 374.13 1850.52 Q372.019 1851.75 370.464 1853.31 Q367.763 1856.01 367.338 1858.53 Q366.928 1861.03 368.86 1862.96 Q370.48 1864.59 372.281 1864.45 Q374.081 1864.29 377.306 1862.08 L379.712 1860.49 Q384.115 1857.5 387.65 1857.53 Q391.186 1857.53 394.165 1860.51 Q397.717 1864.06 397.16 1868.28 Q396.62 1872.49 392.021 1877.09 Q390.286 1878.83 387.929 1880.4 Q385.588 1881.95 382.724 1883.28 L379.319 1879.87 Q382.462 1878.99 384.966 1877.63 Q387.47 1876.27 389.336 1874.41 Q392.168 1871.57 392.594 1868.92 Q393.019 1866.27 390.957 1864.21 Q389.156 1862.41 387.028 1862.51 Q384.917 1862.59 381.889 1864.6 L379.483 1866.22 Q375.047 1869.18 371.823 1869.27 Q368.598 1869.35 365.799 1866.55 Q362.558 1863.31 362.967 1859.17 Q363.393 1855.01 367.403 1851 Q369.122 1849.28 371.217 1847.81 Q373.312 1846.33 375.8 1845.09 Z" fill="#000000" fill-rule="evenodd" fill-opacity="1" /><path clip-path="url(#clip950)" d="M393.789 1829.98 Q390.188 1833.58 390.744 1838.4 Q391.317 1843.19 395.949 1847.82 Q400.565 1852.44 405.361 1853.01 Q410.173 1853.57 413.774 1849.97 Q417.375 1846.37 416.786 1841.59 Q416.213 1836.79 411.597 1832.18 Q406.965 1827.54 402.169 1826.97 Q397.39 1826.38 393.789 1829.98 M391.104 1827.3 Q396.244 1822.16 402.775 1822.54 Q409.289 1822.9 415.083 1828.69 Q420.861 1834.47 421.238 1841 Q421.598 1847.51 416.458 1852.65 Q411.302 1857.81 404.772 1857.46 Q398.257 1857.1 392.463 1851.31 Q386.668 1845.52 386.308 1839 Q385.948 1832.45 391.104 1827.3 Z" fill="#000000" fill-rule="evenodd" fill-opacity="1" /><path clip-path="url(#clip950)" d="M404.69 1814.6 L408.242 1811.04 L423.398 1814.06 L420.419 1798.87 L423.971 1795.32 L427.851 1814.91 L448.933 1819.23 L445.381 1822.78 L428.112 1819.26 L431.583 1836.58 L428.014 1840.15 L423.693 1818.38 L404.69 1814.6 Z" fill="#000000" fill-rule="evenodd" fill-opacity="1" /><path clip-path="url(#clip950)" d="M453.63 1808.97 L465.17 1797.43 L467.953 1800.21 L452.436 1815.73 L449.653 1812.94 Q449.587 1809.11 449.555 1802.6 Q449.522 1796.05 449.407 1794.27 Q449.211 1790.9 448.605 1789.05 Q448 1787.16 446.805 1785.97 Q444.857 1784.02 442.255 1784.17 Q439.668 1784.3 437.475 1786.49 Q435.92 1788.05 434.725 1790.32 Q433.547 1792.58 432.679 1795.64 L429.34 1792.3 Q430.535 1789.5 431.861 1787.36 Q433.187 1785.22 434.627 1783.78 Q438.424 1779.98 442.582 1779.62 Q446.739 1779.26 449.915 1782.43 Q451.421 1783.94 452.206 1785.87 Q452.992 1787.77 453.336 1791.09 Q453.401 1791.98 453.483 1796.44 Q453.549 1800.9 453.63 1808.97 Z" fill="#000000" fill-rule="evenodd" fill-opacity="1" /><path clip-path="url(#clip950)" d="M452.662 1851.87 L455.969 1848.56 L466.297 1858.89 L466.935 1837.59 L471.191 1833.34 L470.455 1856.86 L496.496 1856.91 L492.142 1861.26 L468.638 1861.23 L480.406 1873 L477.1 1876.3 L452.662 1851.87 Z" fill="#000000" fill-rule="evenodd" fill-opacity="1" /><path clip-path="url(#clip950)" d="M474.645 1829.88 L477.951 1826.58 L499.606 1848.23 L511.506 1836.33 L514.288 1839.12 L499.082 1854.32 L474.645 1829.88 Z" fill="#000000" fill-rule="evenodd" fill-opacity="1" /><path clip-path="url(#clip950)" d="M493.321 1811.21 L507.365 1797.16 L510.147 1799.95 L499.41 1810.68 L506.612 1817.89 L516.302 1808.2 L519.084 1810.98 L509.394 1820.67 L521.065 1832.34 L517.758 1835.65 L493.321 1811.21 Z" fill="#000000" fill-rule="evenodd" fill-opacity="1" /><path clip-path="url(#clip950)" d="M524.862 1785.43 L529.56 1806.82 L537.908 1798.47 L524.862 1785.43 M521.114 1783.42 L525.271 1779.26 L541.198 1795.18 L544.684 1791.7 L547.434 1794.45 L543.947 1797.93 L549.709 1803.7 L546.419 1806.99 L540.657 1801.22 L529.625 1812.26 L526.434 1809.06 L521.114 1783.42 Z" fill="#000000" fill-rule="evenodd" fill-opacity="1" /><path clip-path="url(#clip950)" d="M494.595 1895.18 L499.047 1890.72 L530.327 1900.33 L509.883 1879.89 L513.091 1876.68 L537.529 1901.12 L533.077 1905.57 L501.797 1895.96 L522.241 1916.41 L519.033 1919.61 L494.595 1895.18 Z" fill="#000000" fill-rule="evenodd" fill-opacity="1" /><path clip-path="url(#clip950)" d="M531.096 1865.19 L538.773 1881.84 L547.759 1872.85 L531.096 1865.19 M525.973 1863.8 L529.721 1860.05 L563.472 1875.18 L560.035 1878.61 L551.54 1874.57 L540.524 1885.59 L544.567 1894.08 L541.081 1897.57 L525.973 1863.8 Z" fill="#000000" fill-rule="evenodd" fill-opacity="1" /><path clip-path="url(#clip950)" d="M542.603 1847.17 L547.055 1842.72 L578.335 1852.33 L557.891 1831.88 L561.099 1828.67 L585.537 1853.11 L581.084 1857.56 L549.805 1847.96 L570.249 1868.4 L567.041 1871.61 L542.603 1847.17 Z" fill="#000000" fill-rule="evenodd" fill-opacity="1" /><path clip-path="url(#clip950)" d="M579.84 1814.42 Q576.239 1818.02 576.796 1822.83 Q577.369 1827.63 582.001 1832.26 Q586.617 1836.87 591.413 1837.45 Q596.225 1838 599.826 1834.4 Q603.427 1830.8 602.838 1826.02 Q602.265 1821.23 597.649 1816.61 Q593.017 1811.98 588.221 1811.4 Q583.441 1810.82 579.84 1814.42 M577.156 1811.73 Q582.296 1806.59 588.827 1806.97 Q595.341 1807.33 601.135 1813.12 Q606.913 1818.9 607.29 1825.43 Q607.65 1831.95 602.51 1837.09 Q597.354 1842.24 590.823 1841.9 Q584.309 1841.54 578.515 1835.74 Q572.72 1829.95 572.36 1823.44 Q572 1816.89 577.156 1811.73 Z" fill="#000000" fill-rule="evenodd" fill-opacity="1" /><path clip-path="url(#clip950)" d="M631.678 1800 L625.115 1793.43 L619.713 1798.83 L616.996 1796.12 L625.671 1787.44 L636.163 1797.93 Q635.607 1801.21 634.003 1804.22 Q632.382 1807.21 629.763 1809.83 Q624.034 1815.56 617.454 1815.46 Q610.874 1815.33 604.9 1809.36 Q598.909 1803.37 598.795 1796.8 Q598.68 1790.21 604.409 1784.48 Q606.799 1782.09 609.532 1780.53 Q612.282 1778.96 615.245 1778.29 L618.764 1781.81 Q615.376 1782.09 612.528 1783.37 Q609.68 1784.64 607.404 1786.92 Q602.919 1791.4 603.165 1796.17 Q603.427 1800.91 608.386 1805.87 Q613.33 1810.82 618.076 1811.08 Q622.839 1811.32 627.324 1806.84 Q629.076 1805.09 630.156 1803.42 Q631.22 1801.73 631.678 1800 Z" fill="#000000" fill-rule="evenodd" fill-opacity="1" /><path clip-path="url(#clip950)" d="M599.365 1875.65 L618.565 1856.45 L621.086 1858.97 L624.769 1893.56 L640.597 1877.73 L643.379 1880.51 L623.426 1900.46 L620.906 1897.94 L617.223 1863.36 L602.148 1878.43 L599.365 1875.65 Z" fill="#000000" fill-rule="evenodd" fill-opacity="1" /><path clip-path="url(#clip950)" d="M623.737 1851.28 L637.781 1837.23 L640.564 1840.02 L629.826 1850.75 L637.028 1857.96 L646.718 1848.27 L649.501 1851.05 L639.811 1860.74 L651.481 1872.41 L648.175 1875.72 L623.737 1851.28 Z" fill="#000000" fill-rule="evenodd" fill-opacity="1" /><path clip-path="url(#clip950)" d="M649.043 1831.41 L658.225 1840.59 L662.383 1836.43 Q664.69 1834.12 664.756 1831.67 Q664.821 1829.21 662.612 1827 Q660.418 1824.81 657.963 1824.88 Q655.508 1824.94 653.2 1827.25 L649.043 1831.41 M643.019 1832 L650.483 1824.53 Q654.591 1820.42 658.552 1820.19 Q662.514 1819.93 666.098 1823.52 Q669.716 1827.13 669.454 1831.1 Q669.208 1835.04 665.1 1839.15 L660.942 1843.31 L670.763 1853.13 L667.457 1856.43 L643.019 1832 Z" fill="#000000" fill-rule="evenodd" fill-opacity="1" /><path clip-path="url(#clip950)" d="M675.493 1805.28 L680.191 1826.68 L688.539 1818.33 L675.493 1805.28 M671.745 1803.27 L675.903 1799.11 L691.829 1815.04 L695.315 1811.55 L698.065 1814.3 L694.579 1817.79 L700.34 1823.55 L697.05 1826.84 L691.289 1821.08 L680.257 1832.11 L677.065 1828.92 L671.745 1803.27 Z" fill="#000000" fill-rule="evenodd" fill-opacity="1" /><path clip-path="url(#clip950)" d="M709.359 1808.97 L720.899 1797.43 L723.681 1800.21 L708.164 1815.73 L705.382 1812.94 Q705.316 1809.11 705.283 1802.6 Q705.251 1796.05 705.136 1794.27 Q704.94 1790.9 704.334 1789.05 Q703.728 1787.16 702.534 1785.97 Q700.586 1784.02 697.983 1784.17 Q695.397 1784.3 693.204 1786.49 Q691.649 1788.05 690.454 1790.32 Q689.275 1792.58 688.408 1795.64 L685.069 1792.3 Q686.264 1789.5 687.589 1787.36 Q688.915 1785.22 690.356 1783.78 Q694.153 1779.98 698.311 1779.62 Q702.468 1779.26 705.644 1782.43 Q707.149 1783.94 707.935 1785.87 Q708.721 1787.77 709.064 1791.09 Q709.13 1791.98 709.212 1796.44 Q709.277 1800.9 709.359 1808.97 Z" fill="#000000" fill-rule="evenodd" fill-opacity="1" /><path clip-path="url(#clip950)" d="M699.307 1860.95 L719.98 1840.28 L722.762 1843.06 L714.087 1851.74 L735.742 1873.39 L732.42 1876.71 L710.764 1855.06 L702.089 1863.73 L699.307 1860.95 Z" fill="#000000" fill-rule="evenodd" fill-opacity="1" /><path clip-path="url(#clip950)" d="M739.245 1846.55 L748.198 1855.5 L753.502 1850.2 Q756.17 1847.53 756.35 1845.16 Q756.53 1842.75 754.255 1840.47 Q751.963 1838.18 749.59 1838.4 Q747.216 1838.58 744.548 1841.24 L739.245 1846.55 M729.195 1836.5 L736.561 1843.86 L741.455 1838.97 Q743.877 1836.55 744.155 1834.47 Q744.434 1832.36 742.568 1830.49 Q740.718 1828.64 738.607 1828.92 Q736.512 1829.18 734.089 1831.6 L729.195 1836.5 M723.172 1837.09 L731.617 1828.64 Q735.398 1824.86 739.016 1824.38 Q742.633 1823.91 745.53 1826.81 Q747.773 1829.05 748.051 1831.42 Q748.329 1833.8 746.627 1836.15 Q749.59 1834.24 752.601 1834.57 Q755.613 1834.86 758.101 1837.35 Q761.375 1840.62 760.933 1844.63 Q760.491 1848.64 756.382 1852.75 L747.609 1861.52 L723.172 1837.09 Z" fill="#000000" fill-rule="evenodd" fill-opacity="1" /><path clip-path="url(#clip950)" d="M744.99 1815.27 L748.542 1811.72 L763.699 1814.73 L760.72 1799.54 L764.272 1795.99 L768.151 1815.58 L789.233 1819.9 L785.681 1823.45 L768.413 1819.93 L771.883 1837.25 L768.315 1840.82 L763.994 1819.05 L744.99 1815.27 Z" fill="#000000" fill-rule="evenodd" fill-opacity="1" /><path clip-path="url(#clip950)" d="M790.706 1792.07 Q793.587 1790.21 796.517 1790.49 Q799.463 1790.75 801.82 1793.11 Q805.438 1796.72 804.93 1801.19 Q804.423 1805.66 799.84 1810.24 Q798.301 1811.78 796.353 1813.11 Q794.438 1814.43 792.098 1815.56 L788.906 1812.37 Q791.083 1811.8 793.129 1810.57 Q795.175 1809.34 796.959 1807.56 Q800.069 1804.45 800.462 1801.6 Q800.871 1798.74 798.53 1796.4 Q796.37 1794.23 793.636 1794.55 Q790.903 1794.82 788.202 1797.52 L785.354 1800.37 L782.637 1797.66 L785.616 1794.68 Q788.055 1792.24 788.382 1789.98 Q788.693 1787.7 786.86 1785.87 Q784.978 1783.99 782.637 1784.33 Q780.296 1784.64 777.808 1787.13 Q776.45 1788.49 775.189 1790.34 Q773.929 1792.19 772.685 1794.68 L769.739 1791.73 Q771.097 1789.32 772.472 1787.43 Q773.864 1785.51 775.32 1784.05 Q779.085 1780.29 782.997 1779.81 Q786.893 1779.32 789.806 1782.24 Q791.836 1784.27 792.081 1786.84 Q792.31 1789.39 790.706 1792.07 Z" fill="#000000" fill-rule="evenodd" fill-opacity="1" /><path clip-path="url(#clip950)" d="M780.196 1866.91 L783.42 1870.13 Q780.638 1871.12 778.526 1872.34 Q776.415 1873.57 774.86 1875.13 Q772.159 1877.83 771.733 1880.35 Q771.324 1882.85 773.256 1884.78 Q774.876 1886.4 776.677 1886.27 Q778.477 1886.11 781.702 1883.9 L784.108 1882.31 Q788.511 1879.32 792.046 1879.35 Q795.582 1879.35 798.561 1882.33 Q802.113 1885.88 801.556 1890.1 Q801.016 1894.31 796.417 1898.91 Q794.682 1900.64 792.325 1902.22 Q789.984 1903.77 787.119 1905.1 L783.715 1901.69 Q786.858 1900.81 789.362 1899.45 Q791.866 1898.09 793.732 1896.22 Q796.564 1893.39 796.989 1890.74 Q797.415 1888.09 795.353 1886.03 Q793.552 1884.23 791.424 1884.32 Q789.313 1884.41 786.285 1886.42 L783.879 1888.04 Q779.443 1891 776.218 1891.09 Q772.994 1891.17 770.195 1888.37 Q766.954 1885.13 767.363 1880.99 Q767.789 1876.83 771.799 1872.82 Q773.518 1871.1 775.613 1869.63 Q777.708 1868.15 780.196 1866.91 Z" fill="#000000" fill-rule="evenodd" fill-opacity="1" /><path clip-path="url(#clip950)" d="M798.184 1851.8 Q794.583 1855.4 795.14 1860.21 Q795.713 1865.01 800.345 1869.64 Q804.961 1874.26 809.757 1874.83 Q814.569 1875.39 818.17 1871.79 Q821.771 1868.19 821.182 1863.41 Q820.609 1858.61 815.993 1853.99 Q811.361 1849.36 806.565 1848.79 Q801.785 1848.2 798.184 1851.8 M795.5 1849.12 Q800.64 1843.98 807.17 1844.35 Q813.685 1844.71 819.479 1850.51 Q825.257 1856.29 825.634 1862.82 Q825.994 1869.33 820.854 1874.47 Q815.698 1879.63 809.167 1879.28 Q802.653 1878.92 796.859 1873.13 Q791.064 1867.33 790.704 1860.82 Q790.344 1854.27 795.5 1849.12 Z" fill="#000000" fill-rule="evenodd" fill-opacity="1" /><path clip-path="url(#clip950)" d="M809.086 1836.42 L812.637 1832.86 L827.794 1835.88 L824.815 1820.69 L828.367 1817.13 L832.246 1836.73 L853.329 1841.05 L849.777 1844.6 L832.508 1841.08 L835.978 1858.4 L832.41 1861.97 L828.089 1840.2 L809.086 1836.42 Z" fill="#000000" fill-rule="evenodd" fill-opacity="1" /><path clip-path="url(#clip950)" d="M855.751 1833.06 L861.153 1827.66 L842.509 1809.02 L837.812 1816.07 L834.8 1813.06 L839.465 1806.04 L842.771 1802.73 L864.426 1824.38 L869.828 1818.98 L872.61 1821.77 L858.534 1835.84 L855.751 1833.06 Z" fill="#000000" fill-rule="evenodd" fill-opacity="1" /><path clip-path="url(#clip950)" d="M854.016 1791.48 L869.729 1775.77 L871.137 1777.18 L885.295 1809.08 L881.842 1812.53 L868.535 1782.53 L856.799 1794.27 L854.016 1791.48 Z" fill="#000000" fill-rule="evenodd" fill-opacity="1" /><path clip-path="url(#clip950)" d="M896.505 1860.2 Q897.929 1859.49 900.106 1859.67 Q902.3 1859.84 905.377 1860.89 L915.411 1864.21 L911.859 1867.76 L902.463 1864.62 Q898.797 1863.37 896.849 1863.72 Q894.918 1864.04 892.953 1866.01 L889.352 1869.61 L899.681 1879.94 L896.374 1883.24 L871.937 1858.81 L879.401 1851.34 Q883.591 1847.15 887.405 1846.84 Q891.218 1846.53 894.754 1850.07 Q897.062 1852.37 897.504 1854.98 Q897.962 1857.56 896.505 1860.2 M877.96 1858.22 L886.635 1866.89 L890.793 1862.74 Q893.183 1860.35 893.297 1858.04 Q893.412 1855.7 891.268 1853.55 Q889.123 1851.41 886.815 1851.56 Q884.508 1851.67 882.118 1854.06 L877.96 1858.22 Z" fill="#000000" fill-rule="evenodd" fill-opacity="1" /><path clip-path="url(#clip950)" d="M895.229 1835.52 L910.68 1820.06 L913.463 1822.85 L901.318 1834.99 L908.552 1842.23 L920.19 1830.59 L922.973 1833.37 L911.335 1845.01 L920.19 1853.86 L932.63 1841.42 L935.412 1844.21 L919.666 1859.95 L895.229 1835.52 Z" fill="#000000" fill-rule="evenodd" fill-opacity="1" /><path clip-path="url(#clip950)" d="M931.861 1800.49 L935.085 1803.71 Q932.302 1804.69 930.191 1805.92 Q928.079 1807.15 926.525 1808.7 Q923.824 1811.4 923.398 1813.93 Q922.989 1816.43 924.92 1818.36 Q926.541 1819.98 928.341 1819.85 Q930.142 1819.69 933.366 1817.48 L935.772 1815.89 Q940.176 1812.89 943.711 1812.93 Q947.247 1812.93 950.226 1815.91 Q953.777 1819.46 953.221 1823.68 Q952.681 1827.89 948.081 1832.49 Q946.346 1834.22 943.989 1835.79 Q941.649 1837.35 938.784 1838.67 L935.38 1835.27 Q938.522 1834.39 941.027 1833.03 Q943.531 1831.67 945.397 1829.8 Q948.229 1826.97 948.654 1824.32 Q949.08 1821.67 947.017 1819.61 Q945.217 1817.8 943.089 1817.9 Q940.978 1817.98 937.949 1820 L935.543 1821.62 Q931.108 1824.58 927.883 1824.66 Q924.659 1824.75 921.86 1821.95 Q918.619 1818.71 919.028 1814.56 Q919.453 1810.41 923.464 1806.4 Q925.182 1804.68 927.277 1803.2 Q929.373 1801.73 931.861 1800.49 Z" fill="#000000" fill-rule="evenodd" fill-opacity="1" /><path clip-path="url(#clip950)" d="M934.299 1796.44 L954.972 1775.77 L957.755 1778.55 L949.08 1787.23 L970.735 1808.88 L967.412 1812.21 L945.757 1790.55 L937.082 1799.23 L934.299 1796.44 Z" fill="#000000" fill-rule="evenodd" fill-opacity="1" /><path clip-path="url(#clip950)" d="M971.715 1844.27 L976.641 1839.35 L999.508 1849.74 L989.147 1826.84 L994.073 1821.91 L1018.51 1846.35 L1015.29 1849.58 L993.828 1828.12 L1004.29 1851.18 L1000.96 1854.5 L977.902 1844.04 L999.36 1865.5 L996.152 1868.71 L971.715 1844.27 Z" fill="#000000" fill-rule="evenodd" fill-opacity="1" /><path clip-path="url(#clip950)" d="M1016.09 1801.5 L1019.31 1804.73 Q1016.53 1805.71 1014.42 1806.94 Q1012.31 1808.16 1010.75 1809.72 Q1008.05 1812.42 1007.63 1814.94 Q1007.22 1817.44 1009.15 1819.38 Q1010.77 1821 1012.57 1820.87 Q1014.37 1820.7 1017.59 1818.49 L1020 1816.9 Q1024.4 1813.91 1027.94 1813.94 Q1031.47 1813.94 1034.45 1816.92 Q1038.01 1820.47 1037.45 1824.7 Q1036.91 1828.9 1032.31 1833.5 Q1030.57 1835.24 1028.22 1836.81 Q1025.88 1838.36 1023.01 1839.69 L1019.61 1836.28 Q1022.75 1835.4 1025.25 1834.04 Q1027.76 1832.68 1029.63 1830.82 Q1032.46 1827.99 1032.88 1825.33 Q1033.31 1822.68 1031.25 1820.62 Q1029.44 1818.82 1027.32 1818.92 Q1025.21 1819 1022.18 1821.01 L1019.77 1822.63 Q1015.34 1825.6 1012.11 1825.68 Q1008.89 1825.76 1006.09 1822.96 Q1002.85 1819.72 1003.26 1815.58 Q1003.68 1811.42 1007.69 1807.41 Q1009.41 1805.69 1011.51 1804.22 Q1013.6 1802.75 1016.09 1801.5 Z" fill="#000000" fill-rule="evenodd" fill-opacity="1" /><path clip-path="url(#clip950)" d="M1042.1 1777.65 L1045.58 1781.14 Q1042.36 1781.25 1039.69 1782.38 Q1037.04 1783.5 1034.91 1785.63 Q1030.72 1789.82 1031.07 1794.61 Q1031.39 1799.39 1036.24 1804.24 Q1041.07 1809.06 1045.86 1809.41 Q1050.64 1809.74 1054.83 1805.55 Q1056.96 1803.42 1058.07 1800.77 Q1059.2 1798.1 1059.32 1794.87 L1062.77 1798.33 Q1062.21 1801.24 1060.86 1803.78 Q1059.51 1806.3 1057.35 1808.46 Q1051.8 1814.01 1045.22 1813.81 Q1038.63 1813.6 1032.75 1807.72 Q1026.86 1801.83 1026.66 1795.25 Q1026.45 1788.65 1032 1783.1 Q1034.19 1780.91 1036.71 1779.57 Q1039.23 1778.19 1042.1 1777.65 Z" fill="#000000" fill-rule="evenodd" fill-opacity="1" /><path clip-path="url(#clip950)" d="M1019.7 1881.53 L1024.63 1876.6 L1047.5 1886.99 L1037.14 1864.09 L1042.06 1859.17 L1066.5 1883.6 L1063.28 1886.83 L1041.82 1865.37 L1052.28 1888.43 L1048.95 1891.76 L1025.89 1881.3 L1047.35 1902.76 L1044.14 1905.96 L1019.7 1881.53 Z" fill="#000000" fill-rule="evenodd" fill-opacity="1" /><path clip-path="url(#clip950)" d="M1045.27 1855.96 L1048.82 1852.41 L1065.65 1855.68 L1062.33 1838.9 L1065.88 1835.35 L1070.04 1856.79 L1081.67 1868.43 L1078.35 1871.75 L1066.71 1860.12 L1045.27 1855.96 Z" fill="#000000" fill-rule="evenodd" fill-opacity="1" /><path clip-path="url(#clip950)" d="M1085.18 1841.59 L1094.13 1850.54 L1099.43 1845.24 Q1102.1 1842.57 1102.28 1840.2 Q1102.46 1837.79 1100.19 1835.52 Q1097.89 1833.22 1095.52 1833.44 Q1093.15 1833.62 1090.48 1836.28 L1085.18 1841.59 M1075.13 1831.54 L1082.49 1838.9 L1087.39 1834.01 Q1089.81 1831.59 1090.09 1829.51 Q1090.36 1827.4 1088.5 1825.53 Q1086.65 1823.68 1084.54 1823.96 Q1082.44 1824.22 1080.02 1826.64 L1075.13 1831.54 M1069.1 1832.13 L1077.55 1823.68 Q1081.33 1819.9 1084.95 1819.43 Q1088.56 1818.95 1091.46 1821.85 Q1093.7 1824.09 1093.98 1826.46 Q1094.26 1828.84 1092.56 1831.19 Q1095.52 1829.28 1098.53 1829.61 Q1101.54 1829.9 1104.03 1832.39 Q1107.31 1835.66 1106.86 1839.67 Q1106.42 1843.68 1102.31 1847.79 L1093.54 1856.56 L1069.1 1832.13 Z" fill="#000000" fill-rule="evenodd" fill-opacity="1" /><path clip-path="url(#clip950)" d="M1092.1 1809.13 L1095.41 1805.82 L1117.06 1827.48 L1128.96 1815.58 L1131.74 1818.36 L1116.54 1833.57 L1092.1 1809.13 Z" fill="#000000" fill-rule="evenodd" fill-opacity="1" /><path clip-path="url(#clip950)" d="M1135.57 1808.97 L1147.11 1797.43 L1149.9 1800.21 L1134.38 1815.73 L1131.6 1812.94 Q1131.53 1809.11 1131.5 1802.6 Q1131.47 1796.05 1131.35 1794.27 Q1131.15 1790.9 1130.55 1789.05 Q1129.94 1787.16 1128.75 1785.97 Q1126.8 1784.02 1124.2 1784.17 Q1121.61 1784.3 1119.42 1786.49 Q1117.86 1788.05 1116.67 1790.32 Q1115.49 1792.58 1114.62 1795.64 L1111.28 1792.3 Q1112.48 1789.5 1113.8 1787.36 Q1115.13 1785.22 1116.57 1783.78 Q1120.37 1779.98 1124.53 1779.62 Q1128.68 1779.26 1131.86 1782.43 Q1133.36 1783.94 1134.15 1785.87 Q1134.94 1787.77 1135.28 1791.09 Q1135.34 1791.98 1135.43 1796.44 Q1135.49 1800.9 1135.57 1808.97 Z" fill="#000000" fill-rule="evenodd" fill-opacity="1" /><path clip-path="url(#clip950)" d="M1123.64 1888.79 Q1125.06 1888.09 1127.24 1888.27 Q1129.43 1888.43 1132.51 1889.48 L1142.54 1892.8 L1138.99 1896.36 L1129.6 1893.21 Q1125.93 1891.97 1123.98 1892.31 Q1122.05 1892.64 1120.09 1894.6 L1116.49 1898.21 L1126.81 1908.53 L1123.51 1911.84 L1099.07 1887.4 L1106.53 1879.94 Q1110.72 1875.75 1114.54 1875.44 Q1118.35 1875.13 1121.89 1878.66 Q1124.2 1880.97 1124.64 1883.57 Q1125.1 1886.16 1123.64 1888.79 M1105.09 1886.81 L1113.77 1895.49 L1117.93 1891.33 Q1120.32 1888.94 1120.43 1886.63 Q1120.55 1884.29 1118.4 1882.15 Q1116.26 1880 1113.95 1880.15 Q1111.64 1880.27 1109.25 1882.66 L1105.09 1886.81 Z" fill="#000000" fill-rule="evenodd" fill-opacity="1" /><path clip-path="url(#clip950)" d="M1122.36 1864.11 L1125.67 1860.8 L1135.69 1870.82 L1147.7 1858.81 L1137.68 1848.79 L1140.99 1845.48 L1165.43 1869.92 L1162.12 1873.23 L1150.48 1861.59 L1138.47 1873.6 L1150.11 1885.24 L1146.8 1888.55 L1122.36 1864.11 Z" fill="#000000" fill-rule="evenodd" fill-opacity="1" /><path clip-path="url(#clip950)" d="M1159.73 1831.23 Q1156.13 1834.83 1156.69 1839.64 Q1157.26 1844.44 1161.89 1849.07 Q1166.51 1853.68 1171.3 1854.26 Q1176.12 1854.81 1179.72 1851.21 Q1183.32 1847.61 1182.73 1842.83 Q1182.16 1838.04 1177.54 1833.42 Q1172.91 1828.79 1168.11 1828.22 Q1163.33 1827.63 1159.73 1831.23 M1157.05 1828.54 Q1162.19 1823.4 1168.72 1823.78 Q1175.23 1824.14 1181.03 1829.93 Q1186.8 1835.71 1187.18 1842.24 Q1187.54 1848.76 1182.4 1853.9 Q1177.24 1859.05 1170.71 1858.71 Q1164.2 1858.35 1158.4 1852.55 Q1152.61 1846.76 1152.25 1840.25 Q1151.89 1833.7 1157.05 1828.54 Z" fill="#000000" fill-rule="evenodd" fill-opacity="1" /><path clip-path="url(#clip950)" d="M1170.63 1815.84 L1174.18 1812.29 L1189.34 1815.3 L1186.36 1800.11 L1189.91 1796.56 L1193.79 1816.15 L1214.87 1820.47 L1211.32 1824.02 L1194.05 1820.51 L1197.52 1837.82 L1193.96 1841.39 L1189.64 1819.62 L1170.63 1815.84 Z" fill="#000000" fill-rule="evenodd" fill-opacity="1" /><path clip-path="url(#clip950)" d="M1213.45 1794.82 Q1211.22 1797.05 1211.44 1799.88 Q1211.67 1802.7 1214.32 1805.35 Q1216.95 1807.98 1219.79 1808.23 Q1222.62 1808.44 1224.84 1806.22 Q1227.07 1803.99 1226.84 1801.17 Q1226.61 1798.33 1223.98 1795.69 Q1221.32 1793.04 1218.49 1792.83 Q1215.68 1792.6 1213.45 1794.82 M1209.65 1777.9 L1212.67 1780.91 Q1210.83 1781.57 1209.24 1782.53 Q1207.67 1783.48 1206.43 1784.72 Q1203.16 1788 1203.63 1791.94 Q1204.12 1795.87 1208.34 1800.59 Q1207.89 1798.2 1208.59 1795.99 Q1209.28 1793.76 1211.03 1792.01 Q1214.71 1788.33 1219.08 1788.44 Q1223.45 1788.52 1227.3 1792.37 Q1231.06 1796.13 1231.11 1800.63 Q1231.16 1805.14 1227.46 1808.84 Q1223.22 1813.07 1217.74 1812.08 Q1212.24 1811.06 1206.07 1804.89 Q1200.27 1799.1 1199.59 1792.91 Q1198.88 1786.71 1203.52 1782.07 Q1204.76 1780.83 1206.27 1779.81 Q1207.79 1778.78 1209.65 1777.9 Z" fill="#000000" fill-rule="evenodd" fill-opacity="1" /><path clip-path="url(#clip950)" d="M1189.57 1882.15 L1205.02 1866.7 L1207.8 1869.48 L1195.66 1881.62 L1202.89 1888.86 L1214.53 1877.22 L1217.31 1880 L1205.67 1891.64 L1214.53 1900.5 L1226.97 1888.06 L1229.75 1890.84 L1214.01 1906.59 L1189.57 1882.15 Z" fill="#000000" fill-rule="evenodd" fill-opacity="1" /><path clip-path="url(#clip950)" d="M1226.2 1847.12 L1229.42 1850.34 Q1226.64 1851.33 1224.53 1852.55 Q1222.42 1853.78 1220.86 1855.34 Q1218.16 1858.04 1217.74 1860.56 Q1217.33 1863.06 1219.26 1864.99 Q1220.88 1866.61 1222.68 1866.48 Q1224.48 1866.32 1227.71 1864.11 L1230.11 1862.52 Q1234.51 1859.53 1238.05 1859.56 Q1241.59 1859.56 1244.56 1862.54 Q1248.12 1866.09 1247.56 1870.31 Q1247.02 1874.52 1242.42 1879.12 Q1240.69 1880.85 1238.33 1882.43 Q1235.99 1883.98 1233.12 1885.31 L1229.72 1881.9 Q1232.86 1881.02 1235.37 1879.66 Q1237.87 1878.3 1239.74 1876.44 Q1242.57 1873.6 1242.99 1870.95 Q1243.42 1868.3 1241.36 1866.24 Q1239.56 1864.44 1237.43 1864.54 Q1235.32 1864.62 1232.29 1866.63 L1229.88 1868.25 Q1225.45 1871.21 1222.22 1871.3 Q1219 1871.38 1216.2 1868.58 Q1212.96 1865.34 1213.37 1861.2 Q1213.79 1857.04 1217.8 1853.03 Q1219.52 1851.31 1221.62 1849.84 Q1223.71 1848.36 1226.2 1847.12 Z" fill="#000000" fill-rule="evenodd" fill-opacity="1" /><path clip-path="url(#clip950)" d="M1256.59 1841.08 Q1258.02 1840.38 1260.2 1840.56 Q1262.39 1840.72 1265.47 1841.77 L1275.5 1845.09 L1271.95 1848.64 L1262.55 1845.5 Q1258.89 1844.26 1256.94 1844.6 Q1255.01 1844.93 1253.04 1846.89 L1249.44 1850.49 L1259.77 1860.82 L1256.46 1864.13 L1232.03 1839.69 L1239.49 1832.23 Q1243.68 1828.03 1247.49 1827.72 Q1251.31 1827.41 1254.84 1830.95 Q1257.15 1833.26 1257.59 1835.86 Q1258.05 1838.45 1256.59 1841.08 M1238.05 1839.1 L1246.72 1847.77 L1250.88 1843.62 Q1253.27 1841.23 1253.39 1838.92 Q1253.5 1836.58 1251.36 1834.43 Q1249.21 1832.29 1246.91 1832.44 Q1244.6 1832.55 1242.21 1834.94 L1238.05 1839.1 Z" fill="#000000" fill-rule="evenodd" fill-opacity="1" /><path clip-path="url(#clip950)" d="M1279.89 1817.79 Q1281.31 1817.08 1283.49 1817.26 Q1285.68 1817.43 1288.76 1818.48 L1298.79 1821.8 L1295.24 1825.35 L1285.84 1822.21 Q1282.18 1820.96 1280.23 1821.31 Q1278.3 1821.64 1276.33 1823.6 L1272.73 1827.2 L1283.06 1837.53 L1279.76 1840.83 L1255.32 1816.4 L1262.78 1808.93 Q1266.97 1804.74 1270.79 1804.43 Q1274.6 1804.12 1278.14 1807.66 Q1280.44 1809.96 1280.89 1812.57 Q1281.34 1815.15 1279.89 1817.79 M1261.34 1815.81 L1270.02 1824.48 L1274.17 1820.33 Q1276.56 1817.94 1276.68 1815.63 Q1276.79 1813.29 1274.65 1811.14 Q1272.5 1809 1270.2 1809.15 Q1267.89 1809.26 1265.5 1811.65 L1261.34 1815.81 Z" fill="#000000" fill-rule="evenodd" fill-opacity="1" /><path clip-path="url(#clip950)" d="M1294.68 1802.57 L1303.64 1811.52 L1308.94 1806.22 Q1311.61 1803.55 1311.79 1801.17 Q1311.97 1798.77 1309.69 1796.49 Q1307.4 1794.2 1305.03 1794.41 Q1302.65 1794.59 1299.99 1797.26 L1294.68 1802.57 M1284.63 1792.52 L1292 1799.88 L1296.89 1794.99 Q1299.32 1792.57 1299.59 1790.49 Q1299.87 1788.38 1298.01 1786.51 Q1296.16 1784.66 1294.05 1784.94 Q1291.95 1785.2 1289.53 1787.62 L1284.63 1792.52 M1278.61 1793.11 L1287.06 1784.66 Q1290.84 1780.88 1294.45 1780.4 Q1298.07 1779.93 1300.97 1782.83 Q1303.21 1785.07 1303.49 1787.44 Q1303.77 1789.82 1302.07 1792.17 Q1305.03 1790.26 1308.04 1790.58 Q1311.05 1790.88 1313.54 1793.37 Q1316.81 1796.64 1316.37 1800.65 Q1315.93 1804.66 1311.82 1808.77 L1303.05 1817.54 L1278.61 1793.11 Z" fill="#000000" fill-rule="evenodd" fill-opacity="1" /><path clip-path="url(#clip950)" d="M1291.72 1865.24 L1296.65 1860.31 L1319.51 1870.71 L1309.15 1847.81 L1314.08 1842.88 L1338.52 1867.32 L1335.29 1870.54 L1313.83 1849.08 L1324.29 1872.15 L1320.97 1875.47 L1297.91 1865.01 L1319.36 1886.47 L1316.16 1889.68 L1291.72 1865.24 Z" fill="#000000" fill-rule="evenodd" fill-opacity="1" /><path clip-path="url(#clip950)" d="M1317.29 1839.67 L1320.84 1836.12 L1337.66 1839.39 L1334.34 1822.62 L1337.89 1819.07 L1342.05 1840.51 L1353.69 1852.15 L1350.37 1855.47 L1338.73 1843.83 L1317.29 1839.67 Z" fill="#000000" fill-rule="evenodd" fill-opacity="1" /><path clip-path="url(#clip950)" d="M1359.47 1801.26 L1362.95 1804.74 Q1359.73 1804.86 1357.06 1805.99 Q1354.41 1807.1 1352.28 1809.23 Q1348.09 1813.42 1348.43 1818.21 Q1348.76 1822.99 1353.61 1827.84 Q1358.44 1832.67 1363.23 1833.01 Q1368.01 1833.34 1372.2 1829.15 Q1374.33 1827.02 1375.44 1824.37 Q1376.57 1821.7 1376.69 1818.48 L1380.14 1821.93 Q1379.58 1824.84 1378.22 1827.38 Q1376.88 1829.9 1374.72 1832.06 Q1369.17 1837.61 1362.59 1837.41 Q1356 1837.2 1350.12 1831.32 Q1344.23 1825.43 1344.03 1818.85 Q1343.82 1812.26 1349.37 1806.71 Q1351.56 1804.51 1354.08 1803.17 Q1356.6 1801.8 1359.47 1801.26 Z" fill="#000000" fill-rule="evenodd" fill-opacity="1" /><path clip-path="url(#clip950)" d="M1362.69 1794.27 L1367.14 1789.82 L1398.42 1799.42 L1377.98 1778.98 L1381.19 1775.77 L1405.62 1800.21 L1401.17 1804.66 L1369.89 1795.05 L1390.34 1815.5 L1387.13 1818.71 L1362.69 1794.27 Z" fill="#000000" fill-rule="evenodd" fill-opacity="1" /><path clip-path="url(#clip950)" d="M1347.16 1895.05 L1367.83 1874.37 L1370.61 1877.16 L1361.94 1885.83 L1383.59 1907.49 L1380.27 1910.81 L1358.61 1889.15 L1349.94 1897.83 L1347.16 1895.05 Z" fill="#000000" fill-rule="evenodd" fill-opacity="1" /><path clip-path="url(#clip950)" d="M1389.24 1856.73 L1392.72 1860.21 Q1389.5 1860.33 1386.83 1861.46 Q1384.18 1862.57 1382.05 1864.7 Q1377.86 1868.89 1378.21 1873.69 Q1378.53 1878.47 1383.38 1883.31 Q1388.21 1888.14 1393 1888.48 Q1397.78 1888.81 1401.97 1884.62 Q1404.1 1882.49 1405.21 1879.84 Q1406.34 1877.17 1406.46 1873.95 L1409.91 1877.4 Q1409.35 1880.31 1408 1882.85 Q1406.65 1885.37 1404.49 1887.53 Q1398.94 1893.08 1392.36 1892.89 Q1385.77 1892.67 1379.89 1886.8 Q1374 1880.9 1373.8 1874.32 Q1373.59 1867.73 1379.14 1862.18 Q1381.33 1859.99 1383.85 1858.64 Q1386.37 1857.27 1389.24 1856.73 Z" fill="#000000" fill-rule="evenodd" fill-opacity="1" /><path clip-path="url(#clip950)" d="M1392.46 1849.74 L1406.51 1835.7 L1409.29 1838.48 L1398.55 1849.22 L1405.75 1856.42 L1415.44 1846.73 L1418.23 1849.51 L1408.54 1859.2 L1420.21 1870.87 L1416.9 1874.18 L1392.46 1849.74 Z" fill="#000000" fill-rule="evenodd" fill-opacity="1" /><path clip-path="url(#clip950)" d="M1411.2 1831 L1426.92 1815.28 L1428.32 1816.69 L1442.48 1848.59 L1439.03 1852.05 L1425.72 1822.04 L1413.99 1833.78 L1411.2 1831 Z" fill="#000000" fill-rule="evenodd" fill-opacity="1" /><path clip-path="url(#clip950)" d="M1433.07 1809.13 L1436.38 1805.82 L1458.03 1827.48 L1469.93 1815.58 L1472.72 1818.36 L1457.51 1833.57 L1433.07 1809.13 Z" fill="#000000" fill-rule="evenodd" fill-opacity="1" /><path clip-path="url(#clip950)" d="M1476.55 1808.97 L1488.08 1797.43 L1490.87 1800.21 L1475.35 1815.73 L1472.57 1812.94 Q1472.5 1809.11 1472.47 1802.6 Q1472.44 1796.05 1472.32 1794.27 Q1472.13 1790.9 1471.52 1789.05 Q1470.91 1787.16 1469.72 1785.97 Q1467.77 1784.02 1465.17 1784.17 Q1462.58 1784.3 1460.39 1786.49 Q1458.83 1788.05 1457.64 1790.32 Q1456.46 1792.58 1455.59 1795.64 L1452.25 1792.3 Q1453.45 1789.5 1454.78 1787.36 Q1456.1 1785.22 1457.54 1783.78 Q1461.34 1779.98 1465.5 1779.62 Q1469.65 1779.26 1472.83 1782.43 Q1474.34 1783.94 1475.12 1785.87 Q1475.91 1787.77 1476.25 1791.09 Q1476.32 1791.98 1476.4 1796.44 Q1476.46 1800.9 1476.55 1808.97 Z" fill="#000000" fill-rule="evenodd" fill-opacity="1" /><path clip-path="url(#clip950)" d="M1501.03 1826.41 L1504.34 1823.11 L1528.77 1847.55 L1525.47 1850.85 L1501.03 1826.41 Z" fill="#000000" fill-rule="evenodd" fill-opacity="1" /><path clip-path="url(#clip950)" d="M1516.94 1815.94 L1535.94 1834.94 L1539.94 1830.95 Q1544.99 1825.89 1545.04 1821.26 Q1545.11 1816.61 1540.17 1811.67 Q1535.26 1806.76 1530.62 1806.84 Q1525.99 1806.89 1520.93 1811.95 L1516.94 1815.94 M1510.92 1816.53 L1517.71 1809.74 Q1524.81 1802.63 1531.1 1802.27 Q1537.37 1801.9 1543.65 1808.18 Q1549.97 1814.5 1549.59 1820.8 Q1549.22 1827.1 1542.15 1834.17 L1535.35 1840.97 L1510.92 1816.53 Z" fill="#000000" fill-rule="evenodd" fill-opacity="1" /><path clip-path="url(#clip950)" d="M1559.25 1811.5 L1564.65 1806.1 L1546.01 1787.46 L1541.31 1794.51 L1538.3 1791.5 L1542.96 1784.48 L1546.27 1781.17 L1567.93 1802.83 L1573.33 1797.43 L1576.11 1800.21 L1562.03 1814.29 L1559.25 1811.5 Z" fill="#000000" fill-rule="evenodd" fill-opacity="1" /><path clip-path="url(#clip950)" d="M1529.28 1883.41 L1533.73 1878.96 L1565.01 1888.56 L1544.57 1868.12 L1547.77 1864.91 L1572.21 1889.35 L1567.76 1893.8 L1536.48 1884.19 L1556.92 1904.64 L1553.72 1907.85 L1529.28 1883.41 Z" fill="#000000" fill-rule="evenodd" fill-opacity="1" /><path clip-path="url(#clip950)" d="M1578.92 1859.72 Q1580.35 1859.02 1582.52 1859.2 Q1584.72 1859.36 1587.79 1860.41 L1597.83 1863.73 L1594.28 1867.29 L1584.88 1864.14 Q1581.21 1862.9 1579.27 1863.24 Q1577.34 1863.57 1575.37 1865.53 L1571.77 1869.14 L1582.1 1879.46 L1578.79 1882.77 L1554.35 1858.33 L1561.82 1850.87 Q1566.01 1846.68 1569.82 1846.37 Q1573.64 1846.06 1577.17 1849.59 Q1579.48 1851.9 1579.92 1854.5 Q1580.38 1857.09 1578.92 1859.72 M1560.38 1857.74 L1569.05 1866.42 L1573.21 1862.26 Q1575.6 1859.87 1575.72 1857.56 Q1575.83 1855.22 1573.69 1853.08 Q1571.54 1850.93 1569.23 1851.08 Q1566.93 1851.2 1564.54 1853.59 L1560.38 1857.74 Z" fill="#000000" fill-rule="evenodd" fill-opacity="1" /><path clip-path="url(#clip950)" d="M1587.19 1829.85 Q1584.64 1832.41 1585.86 1836.22 Q1587.09 1840 1592.13 1845.04 Q1597.16 1850.07 1600.95 1851.31 Q1604.75 1852.52 1607.31 1849.97 Q1609.88 1847.4 1608.65 1843.62 Q1607.42 1839.8 1602.4 1834.78 Q1597.35 1829.74 1593.56 1828.53 Q1589.76 1827.28 1587.19 1829.85 M1584.57 1827.23 Q1588.68 1823.12 1594.1 1824.22 Q1599.51 1825.29 1605.7 1831.47 Q1611.87 1837.64 1612.95 1843.08 Q1614.03 1848.48 1609.92 1852.59 Q1605.82 1856.7 1600.4 1855.63 Q1594.98 1854.53 1588.81 1848.36 Q1582.62 1842.18 1581.54 1836.78 Q1580.46 1831.34 1584.57 1827.23 Z" fill="#000000" fill-rule="evenodd" fill-opacity="1" /><path clip-path="url(#clip950)" d="M1615.05 1823.17 L1624 1832.13 L1629.3 1826.82 Q1631.97 1824.16 1632.15 1821.78 Q1632.33 1819.38 1630.06 1817.1 Q1627.77 1814.81 1625.39 1815.02 Q1623.02 1815.2 1620.35 1817.87 L1615.05 1823.17 M1605 1813.12 L1612.36 1820.49 L1617.26 1815.6 Q1619.68 1813.17 1619.96 1811.09 Q1620.24 1808.98 1618.37 1807.12 Q1616.52 1805.27 1614.41 1805.55 Q1612.31 1805.81 1609.89 1808.23 L1605 1813.12 M1598.97 1813.71 L1607.42 1805.27 Q1611.2 1801.49 1614.82 1801.01 Q1618.44 1800.54 1621.33 1803.43 Q1623.58 1805.68 1623.85 1808.05 Q1624.13 1810.42 1622.43 1812.78 Q1625.39 1810.86 1628.4 1811.19 Q1631.42 1811.49 1633.9 1813.97 Q1637.18 1817.25 1636.74 1821.26 Q1636.29 1825.27 1632.19 1829.38 L1623.41 1838.15 L1598.97 1813.71 Z" fill="#000000" fill-rule="evenodd" fill-opacity="1" /><path clip-path="url(#clip950)" d="M1644.49 1811.5 L1649.9 1806.1 L1631.25 1787.46 L1626.55 1794.51 L1623.54 1791.5 L1628.21 1784.48 L1631.51 1781.17 L1653.17 1802.83 L1658.57 1797.43 L1661.35 1800.21 L1647.28 1814.29 L1644.49 1811.5 Z" fill="#000000" fill-rule="evenodd" fill-opacity="1" /><path clip-path="url(#clip950)" d="M1623.49 1876.04 L1626.72 1879.27 Q1623.93 1880.25 1621.82 1881.48 Q1619.71 1882.7 1618.16 1884.26 Q1615.45 1886.96 1615.03 1889.48 Q1614.62 1891.99 1616.55 1893.92 Q1618.17 1895.54 1619.97 1895.41 Q1621.77 1895.24 1625 1893.03 L1627.4 1891.45 Q1631.81 1888.45 1635.34 1888.48 Q1638.88 1888.48 1641.86 1891.46 Q1645.41 1895.01 1644.85 1899.24 Q1644.31 1903.44 1639.71 1908.04 Q1637.98 1909.78 1635.62 1911.35 Q1633.28 1912.9 1630.42 1914.23 L1627.01 1910.82 Q1630.15 1909.94 1632.66 1908.58 Q1635.16 1907.22 1637.03 1905.36 Q1639.86 1902.53 1640.29 1899.87 Q1640.71 1897.22 1638.65 1895.16 Q1636.85 1893.36 1634.72 1893.46 Q1632.61 1893.54 1629.58 1895.55 L1627.17 1897.17 Q1622.74 1900.14 1619.51 1900.22 Q1616.29 1900.3 1613.49 1897.5 Q1610.25 1894.26 1610.66 1890.12 Q1611.08 1885.96 1615.09 1881.95 Q1616.81 1880.23 1618.91 1878.76 Q1621 1877.29 1623.49 1876.04 Z" fill="#000000" fill-rule="evenodd" fill-opacity="1" /><path clip-path="url(#clip950)" d="M1629.32 1868.61 L1634.25 1863.68 L1657.11 1874.08 L1646.75 1851.18 L1651.68 1846.25 L1676.11 1870.69 L1672.89 1873.91 L1651.43 1852.46 L1661.89 1875.52 L1658.57 1878.84 L1635.51 1868.38 L1656.96 1889.84 L1653.76 1893.05 L1629.32 1868.61 Z" fill="#000000" fill-rule="evenodd" fill-opacity="1" /><path clip-path="url(#clip950)" d="M1669.67 1834.78 L1677.34 1851.43 L1686.33 1842.44 L1669.67 1834.78 M1664.54 1833.39 L1668.29 1829.64 L1702.04 1844.76 L1698.6 1848.2 L1690.11 1844.16 L1679.09 1855.17 L1683.14 1863.67 L1679.65 1867.15 L1664.54 1833.39 Z" fill="#000000" fill-rule="evenodd" fill-opacity="1" /><path clip-path="url(#clip950)" d="M1687.2 1816.17 L1706.2 1835.17 L1710.19 1831.18 Q1715.25 1826.12 1715.3 1821.49 Q1715.37 1816.84 1710.42 1811.9 Q1705.51 1806.99 1700.88 1807.07 Q1696.25 1807.12 1691.19 1812.17 L1687.2 1816.17 M1681.17 1816.76 L1687.97 1809.96 Q1695.07 1802.86 1701.35 1802.5 Q1707.62 1802.12 1713.91 1808.41 Q1720.23 1814.73 1719.85 1821.03 Q1719.47 1827.33 1712.4 1834.4 L1705.61 1841.19 L1681.17 1816.76 Z" fill="#000000" fill-rule="evenodd" fill-opacity="1" /><path clip-path="url(#clip950)" d="M1706.45 1791.48 L1722.16 1775.77 L1723.57 1777.18 L1737.72 1809.08 L1734.27 1812.53 L1720.96 1782.53 L1709.23 1794.27 L1706.45 1791.48 Z" fill="#000000" fill-rule="evenodd" fill-opacity="1" /><path clip-path="url(#clip950)" d="M1701.5 1881.67 L1704.81 1878.37 L1727.54 1901.1 Q1731.96 1905.52 1732.27 1909.2 Q1732.6 1912.87 1728.88 1916.59 L1727.62 1917.85 L1724.84 1915.06 L1725.87 1914.03 Q1728.07 1911.84 1727.74 1909.71 Q1727.41 1907.58 1724.23 1904.41 L1701.5 1881.67 Z" fill="#000000" fill-rule="evenodd" fill-opacity="1" /><path clip-path="url(#clip950)" d="M1722.22 1867.47 L1729.9 1884.11 L1738.88 1875.13 L1722.22 1867.47 M1717.1 1866.07 L1720.85 1862.33 L1754.6 1877.45 L1751.16 1880.89 L1742.67 1876.84 L1731.65 1887.86 L1735.69 1896.36 L1732.21 1899.84 L1717.1 1866.07 Z" fill="#000000" fill-rule="evenodd" fill-opacity="1" /><path clip-path="url(#clip950)" d="M1758.3 1850.84 Q1759.72 1850.13 1761.9 1850.31 Q1764.09 1850.48 1767.17 1851.52 L1777.2 1854.85 L1773.65 1858.4 L1764.25 1855.26 Q1760.59 1854.01 1758.64 1854.35 Q1756.71 1854.68 1754.75 1856.65 L1751.14 1860.25 L1761.47 1870.58 L1758.17 1873.88 L1733.73 1849.44 L1741.19 1841.98 Q1745.38 1837.79 1749.2 1837.48 Q1753.01 1837.17 1756.55 1840.7 Q1758.85 1843.01 1759.3 1845.61 Q1759.75 1848.2 1758.3 1850.84 M1739.75 1848.86 L1748.43 1857.53 L1752.58 1853.37 Q1754.97 1850.98 1755.09 1848.68 Q1755.2 1846.33 1753.06 1844.19 Q1750.91 1842.05 1748.61 1842.19 Q1746.3 1842.31 1743.91 1844.7 L1739.75 1848.86 Z" fill="#000000" fill-rule="evenodd" fill-opacity="1" /><path clip-path="url(#clip950)" d="M1757.02 1826.15 L1760.33 1822.85 L1784.76 1847.28 L1781.46 1850.59 L1757.02 1826.15 Z" fill="#000000" fill-rule="evenodd" fill-opacity="1" /><path clip-path="url(#clip950)" d="M1772.93 1815.68 L1791.93 1834.68 L1795.93 1830.69 Q1800.99 1825.63 1801.03 1821 Q1801.1 1816.35 1796.16 1811.4 Q1791.25 1806.49 1786.61 1806.58 Q1781.98 1806.63 1776.92 1811.68 L1772.93 1815.68 M1766.91 1816.27 L1773.7 1809.47 Q1780.8 1802.37 1787.09 1802.01 Q1793.36 1801.63 1799.64 1807.92 Q1805.96 1814.24 1805.58 1820.54 Q1805.21 1826.84 1798.14 1833.91 L1791.34 1840.7 L1766.91 1816.27 Z" fill="#000000" fill-rule="evenodd" fill-opacity="1" /><path clip-path="url(#clip950)" d="M1817.52 1808.97 L1829.06 1797.43 L1831.84 1800.21 L1816.32 1815.73 L1813.54 1812.94 Q1813.47 1809.11 1813.44 1802.6 Q1813.41 1796.05 1813.29 1794.27 Q1813.1 1790.9 1812.49 1789.05 Q1811.89 1787.16 1810.69 1785.97 Q1808.74 1784.02 1806.14 1784.17 Q1803.55 1784.3 1801.36 1786.49 Q1799.81 1788.05 1798.61 1790.32 Q1797.43 1792.58 1796.57 1795.64 L1793.23 1792.3 Q1794.42 1789.5 1795.75 1787.36 Q1797.07 1785.22 1798.51 1783.78 Q1802.31 1779.98 1806.47 1779.62 Q1810.63 1779.26 1813.8 1782.43 Q1815.31 1783.94 1816.09 1785.87 Q1816.88 1787.77 1817.22 1791.09 Q1817.29 1791.98 1817.37 1796.44 Q1817.43 1800.9 1817.52 1808.97 Z" fill="#000000" fill-rule="evenodd" fill-opacity="1" /><polyline clip-path="url(#clip952)" style="stroke:#000000; stroke-linecap:round; stroke-linejoin:round; stroke-width:2; stroke-opacity:0.1; fill:none" points="
  152.112,1705.37 1952.76,1705.37 
  "/>
<polyline clip-path="url(#clip952)" style="stroke:#000000; stroke-linecap:round; stroke-linejoin:round; stroke-width:2; stroke-opacity:0.1; fill:none" points="
  152.112,1290.93 1952.76,1290.93 
  "/>
<polyline clip-path="url(#clip952)" style="stroke:#000000; stroke-linecap:round; stroke-linejoin:round; stroke-width:2; stroke-opacity:0.1; fill:none" points="
  152.112,876.502 1952.76,876.502 
  "/>
<polyline clip-path="url(#clip952)" style="stroke:#000000; stroke-linecap:round; stroke-linejoin:round; stroke-width:2; stroke-opacity:0.1; fill:none" points="
  152.112,462.07 1952.76,462.07 
  "/>
<polyline clip-path="url(#clip952)" style="stroke:#000000; stroke-linecap:round; stroke-linejoin:round; stroke-width:2; stroke-opacity:0.1; fill:none" points="
  152.112,47.6374 1952.76,47.6374 
  "/>
<polyline clip-path="url(#clip950)" style="stroke:#000000; stroke-linecap:round; stroke-linejoin:round; stroke-width:4; stroke-opacity:1; fill:none" points="
  152.112,1753.66 152.112,47.2441 
  "/>
<polyline clip-path="url(#clip950)" style="stroke:#000000; stroke-linecap:round; stroke-linejoin:round; stroke-width:4; stroke-opacity:1; fill:none" points="
  152.112,1705.37 171.01,1705.37 
  "/>
<polyline clip-path="url(#clip950)" style="stroke:#000000; stroke-linecap:round; stroke-linejoin:round; stroke-width:4; stroke-opacity:1; fill:none" points="
  152.112,1290.93 171.01,1290.93 
  "/>
<polyline clip-path="url(#clip950)" style="stroke:#000000; stroke-linecap:round; stroke-linejoin:round; stroke-width:4; stroke-opacity:1; fill:none" points="
  152.112,876.502 171.01,876.502 
  "/>
<polyline clip-path="url(#clip950)" style="stroke:#000000; stroke-linecap:round; stroke-linejoin:round; stroke-width:4; stroke-opacity:1; fill:none" points="
  152.112,462.07 171.01,462.07 
  "/>
<polyline clip-path="url(#clip950)" style="stroke:#000000; stroke-linecap:round; stroke-linejoin:round; stroke-width:4; stroke-opacity:1; fill:none" points="
  152.112,47.6374 171.01,47.6374 
  "/>
<path clip-path="url(#clip950)" d="M64.9365 1691.17 Q61.3254 1691.17 59.4967 1694.73 Q57.6912 1698.27 57.6912 1705.4 Q57.6912 1712.51 59.4967 1716.07 Q61.3254 1719.61 64.9365 1719.61 Q68.5707 1719.61 70.3763 1716.07 Q72.205 1712.51 72.205 1705.4 Q72.205 1698.27 70.3763 1694.73 Q68.5707 1691.17 64.9365 1691.17 M64.9365 1687.46 Q70.7467 1687.46 73.8022 1692.07 Q76.8809 1696.65 76.8809 1705.4 Q76.8809 1714.13 73.8022 1718.74 Q70.7467 1723.32 64.9365 1723.32 Q59.1264 1723.32 56.0477 1718.74 Q52.9921 1714.13 52.9921 1705.4 Q52.9921 1696.65 56.0477 1692.07 Q59.1264 1687.46 64.9365 1687.46 Z" fill="#000000" fill-rule="evenodd" fill-opacity="1" /><path clip-path="url(#clip950)" d="M85.0984 1716.77 L89.9827 1716.77 L89.9827 1722.65 L85.0984 1722.65 L85.0984 1716.77 Z" fill="#000000" fill-rule="evenodd" fill-opacity="1" /><path clip-path="url(#clip950)" d="M110.168 1691.17 Q106.557 1691.17 104.728 1694.73 Q102.922 1698.27 102.922 1705.4 Q102.922 1712.51 104.728 1716.07 Q106.557 1719.61 110.168 1719.61 Q113.802 1719.61 115.608 1716.07 Q117.436 1712.51 117.436 1705.4 Q117.436 1698.27 115.608 1694.73 Q113.802 1691.17 110.168 1691.17 M110.168 1687.46 Q115.978 1687.46 119.033 1692.07 Q122.112 1696.65 122.112 1705.4 Q122.112 1714.13 119.033 1718.74 Q115.978 1723.32 110.168 1723.32 Q104.358 1723.32 101.279 1718.74 Q98.2234 1714.13 98.2234 1705.4 Q98.2234 1696.65 101.279 1692.07 Q104.358 1687.46 110.168 1687.46 Z" fill="#000000" fill-rule="evenodd" fill-opacity="1" /><path clip-path="url(#clip950)" d="M65.9319 1276.73 Q62.3208 1276.73 60.4921 1280.3 Q58.6865 1283.84 58.6865 1290.97 Q58.6865 1298.08 60.4921 1301.64 Q62.3208 1305.18 65.9319 1305.18 Q69.5661 1305.18 71.3717 1301.64 Q73.2004 1298.08 73.2004 1290.97 Q73.2004 1283.84 71.3717 1280.3 Q69.5661 1276.73 65.9319 1276.73 M65.9319 1273.03 Q71.742 1273.03 74.7976 1277.64 Q77.8763 1282.22 77.8763 1290.97 Q77.8763 1299.7 74.7976 1304.3 Q71.742 1308.89 65.9319 1308.89 Q60.1217 1308.89 57.043 1304.3 Q53.9875 1299.7 53.9875 1290.97 Q53.9875 1282.22 57.043 1277.64 Q60.1217 1273.03 65.9319 1273.03 Z" fill="#000000" fill-rule="evenodd" fill-opacity="1" /><path clip-path="url(#clip950)" d="M86.0938 1302.34 L90.978 1302.34 L90.978 1308.21 L86.0938 1308.21 L86.0938 1302.34 Z" fill="#000000" fill-rule="evenodd" fill-opacity="1" /><path clip-path="url(#clip950)" d="M101.209 1273.65 L119.566 1273.65 L119.566 1277.59 L105.492 1277.59 L105.492 1286.06 Q106.51 1285.71 107.529 1285.55 Q108.547 1285.37 109.566 1285.37 Q115.353 1285.37 118.733 1288.54 Q122.112 1291.71 122.112 1297.13 Q122.112 1302.71 118.64 1305.81 Q115.168 1308.89 108.848 1308.89 Q106.672 1308.89 104.404 1308.52 Q102.159 1308.15 99.7511 1307.4 L99.7511 1302.71 Q101.834 1303.84 104.057 1304.4 Q106.279 1304.95 108.756 1304.95 Q112.76 1304.95 115.098 1302.84 Q117.436 1300.74 117.436 1297.13 Q117.436 1293.52 115.098 1291.41 Q112.76 1289.3 108.756 1289.3 Q106.881 1289.3 105.006 1289.72 Q103.154 1290.14 101.209 1291.02 L101.209 1273.65 Z" fill="#000000" fill-rule="evenodd" fill-opacity="1" /><path clip-path="url(#clip950)" d="M55.7467 889.847 L63.3856 889.847 L63.3856 863.482 L55.0754 865.148 L55.0754 860.889 L63.3393 859.222 L68.0152 859.222 L68.0152 889.847 L75.654 889.847 L75.654 893.782 L55.7467 893.782 L55.7467 889.847 Z" fill="#000000" fill-rule="evenodd" fill-opacity="1" /><path clip-path="url(#clip950)" d="M85.0984 887.903 L89.9827 887.903 L89.9827 893.782 L85.0984 893.782 L85.0984 887.903 Z" fill="#000000" fill-rule="evenodd" fill-opacity="1" /><path clip-path="url(#clip950)" d="M110.168 862.301 Q106.557 862.301 104.728 865.866 Q102.922 869.407 102.922 876.537 Q102.922 883.644 104.728 887.208 Q106.557 890.75 110.168 890.75 Q113.802 890.75 115.608 887.208 Q117.436 883.644 117.436 876.537 Q117.436 869.407 115.608 865.866 Q113.802 862.301 110.168 862.301 M110.168 858.597 Q115.978 858.597 119.033 863.204 Q122.112 867.787 122.112 876.537 Q122.112 885.264 119.033 889.87 Q115.978 894.454 110.168 894.454 Q104.358 894.454 101.279 889.87 Q98.2234 885.264 98.2234 876.537 Q98.2234 867.787 101.279 863.204 Q104.358 858.597 110.168 858.597 Z" fill="#000000" fill-rule="evenodd" fill-opacity="1" /><path clip-path="url(#clip950)" d="M56.7421 475.415 L64.381 475.415 L64.381 449.049 L56.0708 450.716 L56.0708 446.457 L64.3347 444.79 L69.0106 444.79 L69.0106 475.415 L76.6494 475.415 L76.6494 479.35 L56.7421 479.35 L56.7421 475.415 Z" fill="#000000" fill-rule="evenodd" fill-opacity="1" /><path clip-path="url(#clip950)" d="M86.0938 473.47 L90.978 473.47 L90.978 479.35 L86.0938 479.35 L86.0938 473.47 Z" fill="#000000" fill-rule="evenodd" fill-opacity="1" /><path clip-path="url(#clip950)" d="M101.209 444.79 L119.566 444.79 L119.566 448.725 L105.492 448.725 L105.492 457.197 Q106.51 456.85 107.529 456.688 Q108.547 456.503 109.566 456.503 Q115.353 456.503 118.733 459.674 Q122.112 462.845 122.112 468.262 Q122.112 473.841 118.64 476.942 Q115.168 480.021 108.848 480.021 Q106.672 480.021 104.404 479.651 Q102.159 479.28 99.7511 478.54 L99.7511 473.841 Q101.834 474.975 104.057 475.53 Q106.279 476.086 108.756 476.086 Q112.76 476.086 115.098 473.98 Q117.436 471.873 117.436 468.262 Q117.436 464.651 115.098 462.544 Q112.76 460.438 108.756 460.438 Q106.881 460.438 105.006 460.855 Q103.154 461.271 101.209 462.151 L101.209 444.79 Z" fill="#000000" fill-rule="evenodd" fill-opacity="1" /><path clip-path="url(#clip950)" d="M58.9643 60.9822 L75.2837 60.9822 L75.2837 64.9174 L53.3393 64.9174 L53.3393 60.9822 Q56.0014 58.2276 60.5847 53.598 Q65.1911 48.9452 66.3717 47.6026 Q68.617 45.0795 69.4967 43.3434 Q70.3994 41.5842 70.3994 39.8944 Q70.3994 37.1397 68.455 35.4036 Q66.5337 33.6675 63.4319 33.6675 Q61.2328 33.6675 58.7791 34.4314 Q56.3486 35.1953 53.5708 36.7462 L53.5708 32.024 Q56.3949 30.8898 58.8486 30.3111 Q61.3023 29.7324 63.3393 29.7324 Q68.7096 29.7324 71.9041 32.4175 Q75.0985 35.1027 75.0985 39.5934 Q75.0985 41.723 74.2883 43.6443 Q73.5013 45.5425 71.3948 48.135 Q70.8161 48.8063 67.7143 52.0239 Q64.6124 55.2183 58.9643 60.9822 Z" fill="#000000" fill-rule="evenodd" fill-opacity="1" /><path clip-path="url(#clip950)" d="M85.0984 59.0378 L89.9827 59.0378 L89.9827 64.9174 L85.0984 64.9174 L85.0984 59.0378 Z" fill="#000000" fill-rule="evenodd" fill-opacity="1" /><path clip-path="url(#clip950)" d="M110.168 33.4361 Q106.557 33.4361 104.728 37.0008 Q102.922 40.5425 102.922 47.6721 Q102.922 54.7785 104.728 58.3433 Q106.557 61.885 110.168 61.885 Q113.802 61.885 115.608 58.3433 Q117.436 54.7785 117.436 47.6721 Q117.436 40.5425 115.608 37.0008 Q113.802 33.4361 110.168 33.4361 M110.168 29.7324 Q115.978 29.7324 119.033 34.3388 Q122.112 38.9221 122.112 47.6721 Q122.112 56.3989 119.033 61.0053 Q115.978 65.5887 110.168 65.5887 Q104.358 65.5887 101.279 61.0053 Q98.2234 56.3989 98.2234 47.6721 Q98.2234 38.9221 101.279 34.3388 Q104.358 29.7324 110.168 29.7324 Z" fill="#000000" fill-rule="evenodd" fill-opacity="1" /><path clip-path="url(#clip952)" d="
M251.151 95.5389 L251.151 1705.37 L319.345 1705.37 L319.345 95.5389 L251.151 95.5389 L251.151 95.5389  Z
  " fill="#009af9" fill-rule="evenodd" fill-opacity="1"/>
<polyline clip-path="url(#clip952)" style="stroke:#000000; stroke-linecap:round; stroke-linejoin:round; stroke-width:4; stroke-opacity:1; fill:none" points="
  251.151,95.5389 251.151,1705.37 319.345,1705.37 319.345,95.5389 251.151,95.5389 
  "/>
<path clip-path="url(#clip952)" d="
M336.394 156.252 L336.394 1705.37 L404.588 1705.37 L404.588 156.252 L336.394 156.252 L336.394 156.252  Z
  " fill="#009af9" fill-rule="evenodd" fill-opacity="1"/>
<polyline clip-path="url(#clip952)" style="stroke:#000000; stroke-linecap:round; stroke-linejoin:round; stroke-width:4; stroke-opacity:1; fill:none" points="
  336.394,156.252 336.394,1705.37 404.588,1705.37 404.588,156.252 336.394,156.252 
  "/>
<path clip-path="url(#clip952)" d="
M421.637 210.466 L421.637 1705.37 L489.831 1705.37 L489.831 210.466 L421.637 210.466 L421.637 210.466  Z
  " fill="#009af9" fill-rule="evenodd" fill-opacity="1"/>
<polyline clip-path="url(#clip952)" style="stroke:#000000; stroke-linecap:round; stroke-linejoin:round; stroke-width:4; stroke-opacity:1; fill:none" points="
  421.637,210.466 421.637,1705.37 489.831,1705.37 489.831,210.466 421.637,210.466 
  "/>
<path clip-path="url(#clip952)" d="
M506.879 341.438 L506.879 1705.37 L575.074 1705.37 L575.074 341.438 L506.879 341.438 L506.879 341.438  Z
  " fill="#009af9" fill-rule="evenodd" fill-opacity="1"/>
<polyline clip-path="url(#clip952)" style="stroke:#000000; stroke-linecap:round; stroke-linejoin:round; stroke-width:4; stroke-opacity:1; fill:none" points="
  506.879,341.438 506.879,1705.37 575.074,1705.37 575.074,341.438 506.879,341.438 
  "/>
<path clip-path="url(#clip952)" d="
M592.122 345.195 L592.122 1705.37 L660.317 1705.37 L660.317 345.195 L592.122 345.195 L592.122 345.195  Z
  " fill="#009af9" fill-rule="evenodd" fill-opacity="1"/>
<polyline clip-path="url(#clip952)" style="stroke:#000000; stroke-linecap:round; stroke-linejoin:round; stroke-width:4; stroke-opacity:1; fill:none" points="
  592.122,345.195 592.122,1705.37 660.317,1705.37 660.317,345.195 592.122,345.195 
  "/>
<path clip-path="url(#clip952)" d="
M677.365 448.831 L677.365 1705.37 L745.56 1705.37 L745.56 448.831 L677.365 448.831 L677.365 448.831  Z
  " fill="#009af9" fill-rule="evenodd" fill-opacity="1"/>
<polyline clip-path="url(#clip952)" style="stroke:#000000; stroke-linecap:round; stroke-linejoin:round; stroke-width:4; stroke-opacity:1; fill:none" points="
  677.365,448.831 677.365,1705.37 745.56,1705.37 745.56,448.831 677.365,448.831 
  "/>
<path clip-path="url(#clip952)" d="
M762.608 513.682 L762.608 1705.37 L830.802 1705.37 L830.802 513.682 L762.608 513.682 L762.608 513.682  Z
  " fill="#009af9" fill-rule="evenodd" fill-opacity="1"/>
<polyline clip-path="url(#clip952)" style="stroke:#000000; stroke-linecap:round; stroke-linejoin:round; stroke-width:4; stroke-opacity:1; fill:none" points="
  762.608,513.682 762.608,1705.37 830.802,1705.37 830.802,513.682 762.608,513.682 
  "/>
<path clip-path="url(#clip952)" d="
M847.851 613.093 L847.851 1705.37 L916.045 1705.37 L916.045 613.093 L847.851 613.093 L847.851 613.093  Z
  " fill="#009af9" fill-rule="evenodd" fill-opacity="1"/>
<polyline clip-path="url(#clip952)" style="stroke:#000000; stroke-linecap:round; stroke-linejoin:round; stroke-width:4; stroke-opacity:1; fill:none" points="
  847.851,613.093 847.851,1705.37 916.045,1705.37 916.045,613.093 847.851,613.093 
  "/>
<path clip-path="url(#clip952)" d="
M933.094 772.453 L933.094 1705.37 L1001.29 1705.37 L1001.29 772.453 L933.094 772.453 L933.094 772.453  Z
  " fill="#009af9" fill-rule="evenodd" fill-opacity="1"/>
<polyline clip-path="url(#clip952)" style="stroke:#000000; stroke-linecap:round; stroke-linejoin:round; stroke-width:4; stroke-opacity:1; fill:none" points="
  933.094,772.453 933.094,1705.37 1001.29,1705.37 1001.29,772.453 933.094,772.453 
  "/>
<path clip-path="url(#clip952)" d="
M1018.34 807.455 L1018.34 1705.37 L1086.53 1705.37 L1086.53 807.455 L1018.34 807.455 L1018.34 807.455  Z
  " fill="#009af9" fill-rule="evenodd" fill-opacity="1"/>
<polyline clip-path="url(#clip952)" style="stroke:#000000; stroke-linecap:round; stroke-linejoin:round; stroke-width:4; stroke-opacity:1; fill:none" points="
  1018.34,807.455 1018.34,1705.37 1086.53,1705.37 1086.53,807.455 1018.34,807.455 
  "/>
<path clip-path="url(#clip952)" d="
M1103.58 809.292 L1103.58 1705.37 L1171.77 1705.37 L1171.77 809.292 L1103.58 809.292 L1103.58 809.292  Z
  " fill="#009af9" fill-rule="evenodd" fill-opacity="1"/>
<polyline clip-path="url(#clip952)" style="stroke:#000000; stroke-linecap:round; stroke-linejoin:round; stroke-width:4; stroke-opacity:1; fill:none" points="
  1103.58,809.292 1103.58,1705.37 1171.77,1705.37 1171.77,809.292 1103.58,809.292 
  "/>
<path clip-path="url(#clip952)" d="
M1188.82 861.836 L1188.82 1705.37 L1257.02 1705.37 L1257.02 861.836 L1188.82 861.836 L1188.82 861.836  Z
  " fill="#009af9" fill-rule="evenodd" fill-opacity="1"/>
<polyline clip-path="url(#clip952)" style="stroke:#000000; stroke-linecap:round; stroke-linejoin:round; stroke-width:4; stroke-opacity:1; fill:none" points="
  1188.82,861.836 1188.82,1705.37 1257.02,1705.37 1257.02,861.836 1188.82,861.836 
  "/>
<path clip-path="url(#clip952)" d="
M1274.07 882.618 L1274.07 1705.37 L1342.26 1705.37 L1342.26 882.618 L1274.07 882.618 L1274.07 882.618  Z
  " fill="#009af9" fill-rule="evenodd" fill-opacity="1"/>
<polyline clip-path="url(#clip952)" style="stroke:#000000; stroke-linecap:round; stroke-linejoin:round; stroke-width:4; stroke-opacity:1; fill:none" points="
  1274.07,882.618 1274.07,1705.37 1342.26,1705.37 1342.26,882.618 1274.07,882.618 
  "/>
<path clip-path="url(#clip952)" d="
M1359.31 892.017 L1359.31 1705.37 L1427.5 1705.37 L1427.5 892.017 L1359.31 892.017 L1359.31 892.017  Z
  " fill="#009af9" fill-rule="evenodd" fill-opacity="1"/>
<polyline clip-path="url(#clip952)" style="stroke:#000000; stroke-linecap:round; stroke-linejoin:round; stroke-width:4; stroke-opacity:1; fill:none" points="
  1359.31,892.017 1359.31,1705.37 1427.5,1705.37 1427.5,892.017 1359.31,892.017 
  "/>
<path clip-path="url(#clip952)" d="
M1444.55 920.067 L1444.55 1705.37 L1512.75 1705.37 L1512.75 920.067 L1444.55 920.067 L1444.55 920.067  Z
  " fill="#009af9" fill-rule="evenodd" fill-opacity="1"/>
<polyline clip-path="url(#clip952)" style="stroke:#000000; stroke-linecap:round; stroke-linejoin:round; stroke-width:4; stroke-opacity:1; fill:none" points="
  1444.55,920.067 1444.55,1705.37 1512.75,1705.37 1512.75,920.067 1444.55,920.067 
  "/>
<path clip-path="url(#clip952)" d="
M1529.79 1077.43 L1529.79 1705.37 L1597.99 1705.37 L1597.99 1077.43 L1529.79 1077.43 L1529.79 1077.43  Z
  " fill="#009af9" fill-rule="evenodd" fill-opacity="1"/>
<polyline clip-path="url(#clip952)" style="stroke:#000000; stroke-linecap:round; stroke-linejoin:round; stroke-width:4; stroke-opacity:1; fill:none" points="
  1529.79,1077.43 1529.79,1705.37 1597.99,1705.37 1597.99,1077.43 1529.79,1077.43 
  "/>
<path clip-path="url(#clip952)" d="
M1615.04 1097.84 L1615.04 1705.37 L1683.23 1705.37 L1683.23 1097.84 L1615.04 1097.84 L1615.04 1097.84  Z
  " fill="#009af9" fill-rule="evenodd" fill-opacity="1"/>
<polyline clip-path="url(#clip952)" style="stroke:#000000; stroke-linecap:round; stroke-linejoin:round; stroke-width:4; stroke-opacity:1; fill:none" points="
  1615.04,1097.84 1615.04,1705.37 1683.23,1705.37 1683.23,1097.84 1615.04,1097.84 
  "/>
<path clip-path="url(#clip952)" d="
M1700.28 1118.66 L1700.28 1705.37 L1768.47 1705.37 L1768.47 1118.66 L1700.28 1118.66 L1700.28 1118.66  Z
  " fill="#009af9" fill-rule="evenodd" fill-opacity="1"/>
<polyline clip-path="url(#clip952)" style="stroke:#000000; stroke-linecap:round; stroke-linejoin:round; stroke-width:4; stroke-opacity:1; fill:none" points="
  1700.28,1118.66 1700.28,1705.37 1768.47,1705.37 1768.47,1118.66 1700.28,1118.66 
  "/>
<path clip-path="url(#clip952)" d="
M1785.52 1392.25 L1785.52 1705.37 L1853.72 1705.37 L1853.72 1392.25 L1785.52 1392.25 L1785.52 1392.25  Z
  " fill="#009af9" fill-rule="evenodd" fill-opacity="1"/>
<polyline clip-path="url(#clip952)" style="stroke:#000000; stroke-linecap:round; stroke-linejoin:round; stroke-width:4; stroke-opacity:1; fill:none" points="
  1785.52,1392.25 1785.52,1705.37 1853.72,1705.37 1853.72,1392.25 1785.52,1392.25 
  "/>
<circle clip-path="url(#clip952)" style="fill:#009af9; stroke:none; fill-opacity:0" cx="285.248" cy="95.5389" r="2"/>
<circle clip-path="url(#clip952)" style="fill:#009af9; stroke:none; fill-opacity:0" cx="370.491" cy="156.252" r="2"/>
<circle clip-path="url(#clip952)" style="fill:#009af9; stroke:none; fill-opacity:0" cx="455.734" cy="210.466" r="2"/>
<circle clip-path="url(#clip952)" style="fill:#009af9; stroke:none; fill-opacity:0" cx="540.977" cy="341.438" r="2"/>
<circle clip-path="url(#clip952)" style="fill:#009af9; stroke:none; fill-opacity:0" cx="626.22" cy="345.195" r="2"/>
<circle clip-path="url(#clip952)" style="fill:#009af9; stroke:none; fill-opacity:0" cx="711.462" cy="448.831" r="2"/>
<circle clip-path="url(#clip952)" style="fill:#009af9; stroke:none; fill-opacity:0" cx="796.705" cy="513.682" r="2"/>
<circle clip-path="url(#clip952)" style="fill:#009af9; stroke:none; fill-opacity:0" cx="881.948" cy="613.093" r="2"/>
<circle clip-path="url(#clip952)" style="fill:#009af9; stroke:none; fill-opacity:0" cx="967.191" cy="772.453" r="2"/>
<circle clip-path="url(#clip952)" style="fill:#009af9; stroke:none; fill-opacity:0" cx="1052.43" cy="807.455" r="2"/>
<circle clip-path="url(#clip952)" style="fill:#009af9; stroke:none; fill-opacity:0" cx="1137.68" cy="809.292" r="2"/>
<circle clip-path="url(#clip952)" style="fill:#009af9; stroke:none; fill-opacity:0" cx="1222.92" cy="861.836" r="2"/>
<circle clip-path="url(#clip952)" style="fill:#009af9; stroke:none; fill-opacity:0" cx="1308.16" cy="882.618" r="2"/>
<circle clip-path="url(#clip952)" style="fill:#009af9; stroke:none; fill-opacity:0" cx="1393.41" cy="892.017" r="2"/>
<circle clip-path="url(#clip952)" style="fill:#009af9; stroke:none; fill-opacity:0" cx="1478.65" cy="920.067" r="2"/>
<circle clip-path="url(#clip952)" style="fill:#009af9; stroke:none; fill-opacity:0" cx="1563.89" cy="1077.43" r="2"/>
<circle clip-path="url(#clip952)" style="fill:#009af9; stroke:none; fill-opacity:0" cx="1649.13" cy="1097.84" r="2"/>
<circle clip-path="url(#clip952)" style="fill:#009af9; stroke:none; fill-opacity:0" cx="1734.38" cy="1118.66" r="2"/>
<circle clip-path="url(#clip952)" style="fill:#009af9; stroke:none; fill-opacity:0" cx="1819.62" cy="1392.25" r="2"/>
<path clip-path="url(#clip950)" d="
M1660.24 207.805 L1892.73 207.805 L1892.73 104.125 L1660.24 104.125  Z
  " fill="#ffffff" fill-rule="evenodd" fill-opacity="1"/>
<polyline clip-path="url(#clip950)" style="stroke:#000000; stroke-linecap:round; stroke-linejoin:round; stroke-width:4; stroke-opacity:1; fill:none" points="
  1660.24,207.805 1892.73,207.805 1892.73,104.125 1660.24,104.125 1660.24,207.805 
  "/>
<path clip-path="url(#clip950)" d="
M1680.25 176.701 L1800.29 176.701 L1800.29 135.229 L1680.25 135.229 L1680.25 176.701  Z
  " fill="#009af9" fill-rule="evenodd" fill-opacity="1"/>
<polyline clip-path="url(#clip950)" style="stroke:#000000; stroke-linecap:round; stroke-linejoin:round; stroke-width:4; stroke-opacity:1; fill:none" points="
  1680.25,176.701 1800.29,176.701 1800.29,135.229 1680.25,135.229 1680.25,176.701 
  "/>
<path clip-path="url(#clip950)" d="M1834.14 175.652 Q1832.33 180.282 1830.62 181.694 Q1828.91 183.106 1826.04 183.106 L1822.63 183.106 L1822.63 179.541 L1825.13 179.541 Q1826.89 179.541 1827.87 178.708 Q1828.84 177.874 1830.02 174.772 L1830.78 172.828 L1820.3 147.319 L1824.81 147.319 L1832.91 167.597 L1841.01 147.319 L1845.53 147.319 L1834.14 175.652 Z" fill="#000000" fill-rule="evenodd" fill-opacity="1" /><path clip-path="url(#clip950)" d="M1852.82 169.31 L1860.46 169.31 L1860.46 142.944 L1852.15 144.611 L1852.15 140.351 L1860.41 138.685 L1865.09 138.685 L1865.09 169.31 L1872.73 169.31 L1872.73 173.245 L1852.82 173.245 L1852.82 169.31 Z" fill="#000000" fill-rule="evenodd" fill-opacity="1" /></svg>
