<?xml version="1.0" encoding="utf-8"?>
<svg xmlns="http://www.w3.org/2000/svg" xmlns:xlink="http://www.w3.org/1999/xlink" width="500" height="500" viewBox="0 0 2000 2000">
<defs>
  <clipPath id="clip220">
    <rect x="0" y="0" width="2000" height="2000"/>
  </clipPath>
</defs>
<path clip-path="url(#clip220)" d="
M0 2000 L2000 2000 L2000 0 L0 0  Z
  " fill="#ffffff" fill-rule="evenodd" fill-opacity="1"/>
<defs>
  <clipPath id="clip221">
    <rect x="400" y="200" width="1401" height="1401"/>
  </clipPath>
</defs>
<path clip-path="url(#clip220)" d="
M82.9921 1917.01 L1952.76 1917.01 L1952.76 47.2441 L82.9921 47.2441  Z
  " fill="#ffffff" fill-rule="evenodd" fill-opacity="1"/>
<defs>
  <clipPath id="clip222">
    <rect x="82" y="47" width="1871" height="1871"/>
  </clipPath>
</defs>
<polyline clip-path="url(#clip222)" style="stroke:#000000; stroke-linecap:round; stroke-linejoin:round; stroke-width:2; stroke-opacity:0.1; fill:none" points="
  212.673,1917.01 212.673,47.2441 
  "/>
<polyline clip-path="url(#clip222)" style="stroke:#000000; stroke-linecap:round; stroke-linejoin:round; stroke-width:2; stroke-opacity:0.1; fill:none" points="
  279.773,1917.01 279.773,47.2441 
  "/>
<polyline clip-path="url(#clip222)" style="stroke:#000000; stroke-linecap:round; stroke-linejoin:round; stroke-width:2; stroke-opacity:0.1; fill:none" points="
  346.873,1917.01 346.873,47.2441 
  "/>
<polyline clip-path="url(#clip222)" style="stroke:#000000; stroke-linecap:round; stroke-linejoin:round; stroke-width:2; stroke-opacity:0.1; fill:none" points="
  413.973,1917.01 413.973,47.2441 
  "/>
<polyline clip-path="url(#clip222)" style="stroke:#000000; stroke-linecap:round; stroke-linejoin:round; stroke-width:2; stroke-opacity:0.1; fill:none" points="
  481.073,1917.01 481.073,47.2441 
  "/>
<polyline clip-path="url(#clip222)" style="stroke:#000000; stroke-linecap:round; stroke-linejoin:round; stroke-width:2; stroke-opacity:0.1; fill:none" points="
  548.173,1917.01 548.173,47.2441 
  "/>
<polyline clip-path="url(#clip222)" style="stroke:#000000; stroke-linecap:round; stroke-linejoin:round; stroke-width:2; stroke-opacity:0.1; fill:none" points="
  615.273,1917.01 615.273,47.2441 
  "/>
<polyline clip-path="url(#clip222)" style="stroke:#000000; stroke-linecap:round; stroke-linejoin:round; stroke-width:2; stroke-opacity:0.1; fill:none" points="
  682.373,1917.01 682.373,47.2441 
  "/>
<polyline clip-path="url(#clip222)" style="stroke:#000000; stroke-linecap:round; stroke-linejoin:round; stroke-width:2; stroke-opacity:0.1; fill:none" points="
  749.474,1917.01 749.474,47.2441 
  "/>
<polyline clip-path="url(#clip222)" style="stroke:#000000; stroke-linecap:round; stroke-linejoin:round; stroke-width:2; stroke-opacity:0.1; fill:none" points="
  816.574,1917.01 816.574,47.2441 
  "/>
<polyline clip-path="url(#clip222)" style="stroke:#000000; stroke-linecap:round; stroke-linejoin:round; stroke-width:2; stroke-opacity:0.1; fill:none" points="
  883.674,1917.01 883.674,47.2441 
  "/>
<polyline clip-path="url(#clip222)" style="stroke:#000000; stroke-linecap:round; stroke-linejoin:round; stroke-width:2; stroke-opacity:0.1; fill:none" points="
  950.774,1917.01 950.774,47.2441 
  "/>
<polyline clip-path="url(#clip222)" style="stroke:#000000; stroke-linecap:round; stroke-linejoin:round; stroke-width:2; stroke-opacity:0.1; fill:none" points="
  1017.87,1917.01 1017.87,47.2441 
  "/>
<polyline clip-path="url(#clip222)" style="stroke:#000000; stroke-linecap:round; stroke-linejoin:round; stroke-width:2; stroke-opacity:0.1; fill:none" points="
  1084.97,1917.01 1084.97,47.2441 
  "/>
<polyline clip-path="url(#clip222)" style="stroke:#000000; stroke-linecap:round; stroke-linejoin:round; stroke-width:2; stroke-opacity:0.1; fill:none" points="
  1152.07,1917.01 1152.07,47.2441 
  "/>
<polyline clip-path="url(#clip222)" style="stroke:#000000; stroke-linecap:round; stroke-linejoin:round; stroke-width:2; stroke-opacity:0.1; fill:none" points="
  1219.17,1917.01 1219.17,47.2441 
  "/>
<polyline clip-path="url(#clip222)" style="stroke:#000000; stroke-linecap:round; stroke-linejoin:round; stroke-width:2; stroke-opacity:0.1; fill:none" points="
  1286.27,1917.01 1286.27,47.2441 
  "/>
<polyline clip-path="url(#clip222)" style="stroke:#000000; stroke-linecap:round; stroke-linejoin:round; stroke-width:2; stroke-opacity:0.1; fill:none" points="
  1353.37,1917.01 1353.37,47.2441 
  "/>
<polyline clip-path="url(#clip222)" style="stroke:#000000; stroke-linecap:round; stroke-linejoin:round; stroke-width:2; stroke-opacity:0.1; fill:none" points="
  1420.47,1917.01 1420.47,47.2441 
  "/>
<polyline clip-path="url(#clip222)" style="stroke:#000000; stroke-linecap:round; stroke-linejoin:round; stroke-width:2; stroke-opacity:0.1; fill:none" points="
  1487.57,1917.01 1487.57,47.2441 
  "/>
<polyline clip-path="url(#clip222)" style="stroke:#000000; stroke-linecap:round; stroke-linejoin:round; stroke-width:2; stroke-opacity:0.1; fill:none" points="
  1554.68,1917.01 1554.68,47.2441 
  "/>
<polyline clip-path="url(#clip222)" style="stroke:#000000; stroke-linecap:round; stroke-linejoin:round; stroke-width:2; stroke-opacity:0.1; fill:none" points="
  1621.78,1917.01 1621.78,47.2441 
  "/>
<polyline clip-path="url(#clip222)" style="stroke:#000000; stroke-linecap:round; stroke-linejoin:round; stroke-width:2; stroke-opacity:0.1; fill:none" points="
  1688.88,1917.01 1688.88,47.2441 
  "/>
<polyline clip-path="url(#clip222)" style="stroke:#000000; stroke-linecap:round; stroke-linejoin:round; stroke-width:2; stroke-opacity:0.1; fill:none" points="
  1755.98,1917.01 1755.98,47.2441 
  "/>
<polyline clip-path="url(#clip222)" style="stroke:#000000; stroke-linecap:round; stroke-linejoin:round; stroke-width:2; stroke-opacity:0.1; fill:none" points="
  1823.08,1917.01 1823.08,47.2441 
  "/>
<polyline clip-path="url(#clip220)" style="stroke:#000000; stroke-linecap:round; stroke-linejoin:round; stroke-width:4; stroke-opacity:1; fill:none" points="
  82.9921,1917.01 1952.76,1917.01 
  "/>
<polyline clip-path="url(#clip220)" style="stroke:#000000; stroke-linecap:round; stroke-linejoin:round; stroke-width:4; stroke-opacity:1; fill:none" points="
  212.673,1917.01 212.673,1898.11 
  "/>
<polyline clip-path="url(#clip220)" style="stroke:#000000; stroke-linecap:round; stroke-linejoin:round; stroke-width:4; stroke-opacity:1; fill:none" points="
  279.773,1917.01 279.773,1898.11 
  "/>
<polyline clip-path="url(#clip220)" style="stroke:#000000; stroke-linecap:round; stroke-linejoin:round; stroke-width:4; stroke-opacity:1; fill:none" points="
  346.873,1917.01 346.873,1898.11 
  "/>
<polyline clip-path="url(#clip220)" style="stroke:#000000; stroke-linecap:round; stroke-linejoin:round; stroke-width:4; stroke-opacity:1; fill:none" points="
  413.973,1917.01 413.973,1898.11 
  "/>
<polyline clip-path="url(#clip220)" style="stroke:#000000; stroke-linecap:round; stroke-linejoin:round; stroke-width:4; stroke-opacity:1; fill:none" points="
  481.073,1917.01 481.073,1898.11 
  "/>
<polyline clip-path="url(#clip220)" style="stroke:#000000; stroke-linecap:round; stroke-linejoin:round; stroke-width:4; stroke-opacity:1; fill:none" points="
  548.173,1917.01 548.173,1898.11 
  "/>
<polyline clip-path="url(#clip220)" style="stroke:#000000; stroke-linecap:round; stroke-linejoin:round; stroke-width:4; stroke-opacity:1; fill:none" points="
  615.273,1917.01 615.273,1898.11 
  "/>
<polyline clip-path="url(#clip220)" style="stroke:#000000; stroke-linecap:round; stroke-linejoin:round; stroke-width:4; stroke-opacity:1; fill:none" points="
  682.373,1917.01 682.373,1898.11 
  "/>
<polyline clip-path="url(#clip220)" style="stroke:#000000; stroke-linecap:round; stroke-linejoin:round; stroke-width:4; stroke-opacity:1; fill:none" points="
  749.474,1917.01 749.474,1898.11 
  "/>
<polyline clip-path="url(#clip220)" style="stroke:#000000; stroke-linecap:round; stroke-linejoin:round; stroke-width:4; stroke-opacity:1; fill:none" points="
  816.574,1917.01 816.574,1898.11 
  "/>
<polyline clip-path="url(#clip220)" style="stroke:#000000; stroke-linecap:round; stroke-linejoin:round; stroke-width:4; stroke-opacity:1; fill:none" points="
  883.674,1917.01 883.674,1898.11 
  "/>
<polyline clip-path="url(#clip220)" style="stroke:#000000; stroke-linecap:round; stroke-linejoin:round; stroke-width:4; stroke-opacity:1; fill:none" points="
  950.774,1917.01 950.774,1898.11 
  "/>
<polyline clip-path="url(#clip220)" style="stroke:#000000; stroke-linecap:round; stroke-linejoin:round; stroke-width:4; stroke-opacity:1; fill:none" points="
  1017.87,1917.01 1017.87,1898.11 
  "/>
<polyline clip-path="url(#clip220)" style="stroke:#000000; stroke-linecap:round; stroke-linejoin:round; stroke-width:4; stroke-opacity:1; fill:none" points="
  1084.97,1917.01 1084.97,1898.11 
  "/>
<polyline clip-path="url(#clip220)" style="stroke:#000000; stroke-linecap:round; stroke-linejoin:round; stroke-width:4; stroke-opacity:1; fill:none" points="
  1152.07,1917.01 1152.07,1898.11 
  "/>
<polyline clip-path="url(#clip220)" style="stroke:#000000; stroke-linecap:round; stroke-linejoin:round; stroke-width:4; stroke-opacity:1; fill:none" points="
  1219.17,1917.01 1219.17,1898.11 
  "/>
<polyline clip-path="url(#clip220)" style="stroke:#000000; stroke-linecap:round; stroke-linejoin:round; stroke-width:4; stroke-opacity:1; fill:none" points="
  1286.27,1917.01 1286.27,1898.11 
  "/>
<polyline clip-path="url(#clip220)" style="stroke:#000000; stroke-linecap:round; stroke-linejoin:round; stroke-width:4; stroke-opacity:1; fill:none" points="
  1353.37,1917.01 1353.37,1898.11 
  "/>
<polyline clip-path="url(#clip220)" style="stroke:#000000; stroke-linecap:round; stroke-linejoin:round; stroke-width:4; stroke-opacity:1; fill:none" points="
  1420.47,1917.01 1420.47,1898.11 
  "/>
<polyline clip-path="url(#clip220)" style="stroke:#000000; stroke-linecap:round; stroke-linejoin:round; stroke-width:4; stroke-opacity:1; fill:none" points="
  1487.57,1917.01 1487.57,1898.11 
  "/>
<polyline clip-path="url(#clip220)" style="stroke:#000000; stroke-linecap:round; stroke-linejoin:round; stroke-width:4; stroke-opacity:1; fill:none" points="
  1554.68,1917.01 1554.68,1898.11 
  "/>
<polyline clip-path="url(#clip220)" style="stroke:#000000; stroke-linecap:round; stroke-linejoin:round; stroke-width:4; stroke-opacity:1; fill:none" points="
  1621.78,1917.01 1621.78,1898.11 
  "/>
<polyline clip-path="url(#clip220)" style="stroke:#000000; stroke-linecap:round; stroke-linejoin:round; stroke-width:4; stroke-opacity:1; fill:none" points="
  1688.88,1917.01 1688.88,1898.11 
  "/>
<polyline clip-path="url(#clip220)" style="stroke:#000000; stroke-linecap:round; stroke-linejoin:round; stroke-width:4; stroke-opacity:1; fill:none" points="
  1755.98,1917.01 1755.98,1898.11 
  "/>
<polyline clip-path="url(#clip220)" style="stroke:#000000; stroke-linecap:round; stroke-linejoin:round; stroke-width:4; stroke-opacity:1; fill:none" points="
  1823.08,1917.01 1823.08,1898.11 
  "/>
<path clip-path="url(#clip220)" d="M102.049 2037.52 L117.5 2022.07 L120.283 2024.85 L108.137 2037 L115.372 2044.23 L127.01 2032.6 L129.793 2035.38 L118.155 2047.02 L127.01 2055.87 L139.45 2043.43 L142.232 2046.21 L126.486 2061.96 L102.049 2037.52 Z" fill="#000000" fill-rule="evenodd" fill-opacity="1" /><path clip-path="url(#clip220)" d="M129.252 2015.75 L138.435 2024.94 L142.592 2020.78 Q144.9 2018.47 144.966 2016.01 Q145.031 2013.56 142.822 2011.35 Q140.628 2009.16 138.173 2009.22 Q135.718 2009.29 133.41 2011.6 L129.252 2015.75 M123.229 2016.34 L130.693 2008.88 Q134.801 2004.77 138.762 2004.54 Q142.723 2004.28 146.308 2007.86 Q149.925 2011.48 149.663 2015.44 Q149.418 2019.39 145.309 2023.49 L141.152 2027.65 L150.973 2037.47 L147.667 2040.78 L123.229 2016.34 Z" fill="#000000" fill-rule="evenodd" fill-opacity="1" /><path clip-path="url(#clip220)" d="M152.724 1993.36 L160.401 2010.01 L169.387 2001.02 L152.724 1993.36 M147.601 1991.97 L151.349 1988.22 L185.1 2003.35 L181.663 2006.78 L173.168 2002.74 L162.152 2013.76 L166.195 2022.25 L162.709 2025.74 L147.601 1991.97 Z" fill="#000000" fill-rule="evenodd" fill-opacity="1" /><path clip-path="url(#clip220)" d="M179.683 1961.49 L182.907 1964.72 Q180.124 1965.7 178.013 1966.93 Q175.902 1968.15 174.347 1969.71 Q171.646 1972.41 171.22 1974.93 Q170.811 1977.44 172.742 1979.37 Q174.363 1980.99 176.163 1980.86 Q177.964 1980.69 181.188 1978.48 L183.595 1976.89 Q187.998 1973.9 191.533 1973.93 Q195.069 1973.93 198.048 1976.91 Q201.599 1980.46 201.043 1984.69 Q200.503 1988.89 195.903 1993.49 Q194.168 1995.23 191.811 1996.8 Q189.471 1998.35 186.606 1999.68 L183.202 1996.27 Q186.344 1995.39 188.849 1994.03 Q191.353 1992.67 193.219 1990.81 Q196.051 1987.98 196.476 1985.32 Q196.902 1982.67 194.839 1980.61 Q193.039 1978.81 190.911 1978.91 Q188.8 1978.99 185.771 1981 L183.365 1982.62 Q178.93 1985.59 175.705 1985.67 Q172.481 1985.75 169.682 1982.95 Q166.441 1979.71 166.85 1975.57 Q167.276 1971.41 171.286 1967.4 Q173.004 1965.68 175.099 1964.21 Q177.195 1962.74 179.683 1961.49 Z" fill="#000000" fill-rule="evenodd" fill-opacity="1" /><path clip-path="url(#clip220)" d="M208.032 1974.85 L213.434 1969.45 L194.79 1950.8 L190.093 1957.86 L187.081 1954.85 L191.746 1947.83 L195.052 1944.52 L216.707 1966.17 L222.109 1960.77 L224.891 1963.55 L210.815 1977.63 L208.032 1974.85 Z" fill="#000000" fill-rule="evenodd" fill-opacity="1" /><path clip-path="url(#clip220)" d="M159.737 2046.93 L173.781 2032.89 L176.563 2035.67 L165.826 2046.41 L173.028 2053.61 L182.718 2043.92 L185.5 2046.7 L175.81 2056.39 L187.481 2068.07 L184.175 2071.37 L159.737 2046.93 Z" fill="#000000" fill-rule="evenodd" fill-opacity="1" /><path clip-path="url(#clip220)" d="M191.18 2019.98 Q187.579 2023.58 188.136 2028.39 Q188.709 2033.18 193.341 2037.82 Q197.957 2042.43 202.752 2043.01 Q207.565 2043.56 211.166 2039.96 Q214.767 2036.36 214.177 2031.58 Q213.604 2026.78 208.989 2022.17 Q204.357 2017.54 199.561 2016.96 Q194.781 2016.37 191.18 2019.98 M188.496 2017.29 Q193.635 2012.15 200.166 2012.53 Q206.681 2012.89 212.475 2018.68 Q218.253 2024.46 218.63 2030.99 Q218.99 2037.51 213.85 2042.65 Q208.694 2047.8 202.163 2047.46 Q195.649 2047.1 189.854 2041.3 Q184.06 2035.51 183.7 2028.99 Q183.34 2022.45 188.496 2017.29 Z" fill="#000000" fill-rule="evenodd" fill-opacity="1" /><path clip-path="url(#clip220)" d="M202.081 2004.59 L205.633 2001.04 L220.79 2004.05 L217.811 1988.86 L221.363 1985.31 L225.242 2004.9 L246.324 2009.22 L242.772 2012.77 L225.504 2009.25 L228.974 2026.57 L225.406 2030.14 L221.085 2008.37 L202.081 2004.59 Z" fill="#000000" fill-rule="evenodd" fill-opacity="1" /><path clip-path="url(#clip220)" d="M238.386 1972.77 Q234.785 1976.37 235.341 1981.18 Q235.914 1985.98 240.546 1990.61 Q245.162 1995.23 249.958 1995.8 Q254.77 1996.36 258.371 1992.76 Q261.972 1989.15 261.383 1984.38 Q260.81 1979.58 256.194 1974.96 Q251.562 1970.33 246.766 1969.76 Q241.987 1969.17 238.386 1972.77 M264.771 1989.89 L273.888 1990.3 L269.894 1994.29 L262.365 1994 Q261.858 1994.57 261.579 1994.88 Q261.318 1995.18 261.056 1995.44 Q255.9 2000.6 249.369 2000.25 Q242.838 1999.88 237.06 1994.1 Q231.266 1988.3 230.906 1981.79 Q230.546 1975.24 235.701 1970.09 Q240.841 1964.95 247.372 1965.32 Q253.886 1965.68 259.681 1971.48 Q263.936 1975.73 265.246 1980.48 Q266.572 1985.21 264.771 1989.89 Z" fill="#000000" fill-rule="evenodd" fill-opacity="1" /><path clip-path="url(#clip220)" d="M275.132 1974.85 L280.534 1969.45 L261.89 1950.8 L257.193 1957.86 L254.181 1954.85 L258.846 1947.83 L262.152 1944.52 L283.807 1966.17 L289.209 1960.77 L291.991 1963.55 L277.915 1977.63 L275.132 1974.85 Z" fill="#000000" fill-rule="evenodd" fill-opacity="1" /><path clip-path="url(#clip220)" d="M203.856 2075.35 L222.86 2094.35 L226.853 2090.36 Q231.911 2085.3 231.96 2080.67 Q232.026 2076.02 227.083 2071.08 Q222.172 2066.17 217.54 2066.25 Q212.908 2066.3 207.85 2071.36 L203.856 2075.35 M197.833 2075.94 L204.626 2069.15 Q211.729 2062.04 218.015 2061.68 Q224.284 2061.31 230.569 2067.59 Q236.887 2073.91 236.511 2080.21 Q236.134 2086.51 229.063 2093.58 L222.27 2100.38 L197.833 2075.94 Z" fill="#000000" fill-rule="evenodd" fill-opacity="1" /><path clip-path="url(#clip220)" d="M223.645 2050.13 L228.097 2045.67 L259.377 2055.28 L238.933 2034.84 L242.141 2031.63 L266.579 2056.07 L262.127 2060.52 L230.847 2050.91 L251.291 2071.36 L248.083 2074.56 L223.645 2050.13 Z" fill="#000000" fill-rule="evenodd" fill-opacity="1" /><path clip-path="url(#clip220)" d="M248.721 2025.05 L253.648 2020.12 L276.514 2030.52 L266.153 2007.62 L271.08 2002.69 L295.518 2027.13 L292.293 2030.35 L270.835 2008.89 L281.294 2031.96 L277.971 2035.28 L254.908 2024.82 L276.367 2046.28 L273.159 2049.49 L248.721 2025.05 Z" fill="#000000" fill-rule="evenodd" fill-opacity="1" /><path clip-path="url(#clip220)" d="M274.256 1999.52 L294.929 1978.84 L297.711 1981.63 L289.036 1990.3 L310.691 2011.96 L307.368 2015.28 L285.713 1993.62 L277.038 2002.3 L274.256 1999.52 Z" fill="#000000" fill-rule="evenodd" fill-opacity="1" /><path clip-path="url(#clip220)" d="M319.693 1976.6 Q322.574 1974.73 325.504 1975.01 Q328.45 1975.27 330.807 1977.63 Q334.425 1981.25 333.917 1985.72 Q333.41 1990.19 328.827 1994.77 Q327.288 1996.31 325.34 1997.63 Q323.425 1998.96 321.085 2000.09 L317.893 1996.9 Q320.07 1996.32 322.116 1995.1 Q324.162 1993.87 325.946 1992.08 Q329.056 1988.97 329.449 1986.13 Q329.858 1983.26 327.517 1980.92 Q325.357 1978.76 322.623 1979.07 Q319.89 1979.35 317.189 1982.05 L314.341 1984.9 L311.624 1982.18 L314.603 1979.2 Q317.042 1976.76 317.369 1974.51 Q317.68 1972.23 315.847 1970.4 Q313.965 1968.51 311.624 1968.86 Q309.283 1969.17 306.795 1971.66 Q305.437 1973.02 304.177 1974.87 Q302.916 1976.71 301.672 1979.2 L298.726 1976.26 Q300.084 1973.85 301.459 1971.95 Q302.851 1970.04 304.307 1968.58 Q308.072 1964.82 311.984 1964.34 Q315.88 1963.85 318.793 1966.76 Q320.823 1968.79 321.068 1971.36 Q321.298 1973.92 319.693 1976.6 Z" fill="#000000" fill-rule="evenodd" fill-opacity="1" /><path clip-path="url(#clip220)" d="M319.448 1954.32 L322.754 1951.02 L344.409 1972.67 L356.309 1960.77 L359.092 1963.55 L343.886 1978.76 L319.448 1954.32 Z" fill="#000000" fill-rule="evenodd" fill-opacity="1" /><path clip-path="url(#clip220)" d="M327.132 2013.74 L330.438 2010.43 L340.766 2020.76 L341.405 1999.47 L345.661 1995.21 L344.924 2018.73 L370.966 2018.78 L366.612 2023.13 L343.107 2023.1 L354.876 2034.87 L351.569 2038.18 L327.132 2013.74 Z" fill="#000000" fill-rule="evenodd" fill-opacity="1" /><path clip-path="url(#clip220)" d="M349.114 1991.76 L352.421 1988.45 L374.076 2010.11 L385.975 1998.21 L388.758 2000.99 L373.552 2016.19 L349.114 1991.76 Z" fill="#000000" fill-rule="evenodd" fill-opacity="1" /><path clip-path="url(#clip220)" d="M367.79 1973.08 L381.834 1959.04 L384.617 1961.82 L373.879 1972.56 L381.081 1979.76 L390.771 1970.07 L393.554 1972.85 L383.864 1982.54 L395.534 1994.21 L392.228 1997.52 L367.79 1973.08 Z" fill="#000000" fill-rule="evenodd" fill-opacity="1" /><path clip-path="url(#clip220)" d="M411.87 1972.31 L423.409 1960.77 L426.192 1963.55 L410.675 1979.07 L407.892 1976.29 Q407.827 1972.46 407.794 1965.94 Q407.761 1959.4 407.647 1957.61 Q407.45 1954.24 406.845 1952.39 Q406.239 1950.51 405.044 1949.31 Q403.096 1947.37 400.494 1947.51 Q397.908 1947.65 395.714 1949.84 Q394.159 1951.39 392.964 1953.67 Q391.786 1955.93 390.918 1958.99 L387.579 1955.65 Q388.774 1952.85 390.1 1950.71 Q391.426 1948.56 392.866 1947.12 Q396.664 1943.32 400.821 1942.96 Q404.979 1942.6 408.154 1945.78 Q409.66 1947.28 410.446 1949.22 Q411.231 1951.12 411.575 1954.44 Q411.64 1955.32 411.722 1959.79 Q411.788 1964.24 411.87 1972.31 Z" fill="#000000" fill-rule="evenodd" fill-opacity="1" /><path clip-path="url(#clip220)" d="M362.216 2045.76 L376.26 2031.71 L379.042 2034.49 L368.305 2045.23 L375.507 2052.43 L385.197 2042.74 L387.979 2045.53 L378.289 2055.22 L389.96 2066.89 L386.653 2070.19 L362.216 2045.76 Z" fill="#000000" fill-rule="evenodd" fill-opacity="1" /><path clip-path="url(#clip220)" d="M393.659 2018.8 Q390.058 2022.4 390.615 2027.21 Q391.187 2032.01 395.82 2036.64 Q400.435 2041.25 405.231 2041.83 Q410.044 2042.38 413.645 2038.78 Q417.246 2035.18 416.656 2030.4 Q416.083 2025.61 411.468 2020.99 Q406.835 2016.36 402.04 2015.79 Q397.26 2015.2 393.659 2018.8 M390.975 2016.11 Q396.114 2010.97 402.645 2011.35 Q409.16 2011.71 414.954 2017.5 Q420.732 2023.28 421.108 2029.81 Q421.468 2036.33 416.329 2041.47 Q411.173 2046.62 404.642 2046.28 Q398.128 2045.92 392.333 2040.12 Q386.539 2034.33 386.179 2027.82 Q385.819 2021.27 390.975 2016.11 Z" fill="#000000" fill-rule="evenodd" fill-opacity="1" /><path clip-path="url(#clip220)" d="M404.56 2003.41 L408.112 1999.86 L423.269 2002.87 L420.29 1987.68 L423.842 1984.13 L427.721 2003.72 L448.803 2008.04 L445.251 2011.6 L427.983 2008.08 L431.453 2025.39 L427.885 2028.96 L423.564 2007.19 L404.56 2003.41 Z" fill="#000000" fill-rule="evenodd" fill-opacity="1" /><path clip-path="url(#clip220)" d="M428.703 1979.27 L432.01 1975.96 L442.027 1985.98 L454.041 1973.97 L444.024 1963.95 L447.33 1960.64 L471.768 1985.08 L468.461 1988.39 L456.824 1976.75 L444.809 1988.76 L456.447 2000.4 L453.141 2003.71 L428.703 1979.27 Z" fill="#000000" fill-rule="evenodd" fill-opacity="1" /><path clip-path="url(#clip220)" d="M476.433 1974.85 L481.834 1969.45 L463.191 1950.8 L458.493 1957.86 L455.481 1954.85 L460.146 1947.83 L463.453 1944.52 L485.108 1966.17 L490.509 1960.77 L493.292 1963.55 L479.215 1977.63 L476.433 1974.85 Z" fill="#000000" fill-rule="evenodd" fill-opacity="1" /><path clip-path="url(#clip220)" d="M453.066 2023.61 L456.291 2026.83 Q453.508 2027.82 451.397 2029.04 Q449.285 2030.27 447.73 2031.83 Q445.029 2034.53 444.604 2037.05 Q444.195 2039.55 446.126 2041.48 Q447.747 2043.1 449.547 2042.97 Q451.347 2042.81 454.572 2040.6 L456.978 2039.01 Q461.381 2036.02 464.917 2036.05 Q468.452 2036.05 471.431 2039.03 Q474.983 2042.58 474.427 2046.8 Q473.886 2051.01 469.287 2055.61 Q467.552 2057.34 465.195 2058.92 Q462.854 2060.47 459.99 2061.8 L456.585 2058.39 Q459.728 2057.51 462.232 2056.15 Q464.737 2054.79 466.603 2052.92 Q469.434 2050.09 469.86 2047.44 Q470.285 2044.79 468.223 2042.73 Q466.423 2040.93 464.295 2041.03 Q462.183 2041.11 459.155 2043.12 L456.749 2044.74 Q452.313 2047.7 449.089 2047.79 Q445.864 2047.87 443.065 2045.07 Q439.824 2041.83 440.234 2037.69 Q440.659 2033.53 444.669 2029.52 Q446.388 2027.8 448.483 2026.33 Q450.578 2024.85 453.066 2023.61 Z" fill="#000000" fill-rule="evenodd" fill-opacity="1" /><path clip-path="url(#clip220)" d="M470.94 2010.65 L478.617 2027.29 L487.603 2018.31 L470.94 2010.65 M465.817 2009.25 L469.565 2005.51 L503.316 2020.63 L499.879 2024.07 L491.384 2020.02 L480.368 2031.04 L484.411 2039.54 L480.925 2043.02 L465.817 2009.25 Z" fill="#000000" fill-rule="evenodd" fill-opacity="1" /><path clip-path="url(#clip220)" d="M482.447 1992.62 L485.753 1989.32 L507.408 2010.97 L519.308 1999.07 L522.091 2001.86 L506.885 2017.06 L482.447 1992.62 Z" fill="#000000" fill-rule="evenodd" fill-opacity="1" /><path clip-path="url(#clip220)" d="M501.123 1973.95 L504.429 1970.64 L526.084 1992.3 L537.984 1980.4 L540.767 1983.18 L525.561 1998.39 L501.123 1973.95 Z" fill="#000000" fill-rule="evenodd" fill-opacity="1" /><path clip-path="url(#clip220)" d="M532.059 1948.77 L536.756 1970.17 L545.104 1961.82 L532.059 1948.77 M528.31 1946.76 L532.468 1942.6 L548.394 1958.53 L551.881 1955.04 L554.63 1957.79 L551.144 1961.28 L556.906 1967.04 L553.616 1970.33 L547.854 1964.57 L536.822 1975.6 L533.63 1972.41 L528.31 1946.76 Z" fill="#000000" fill-rule="evenodd" fill-opacity="1" /><path clip-path="url(#clip220)" d="M482.389 2065.22 L491.571 2074.4 L495.729 2070.24 Q498.037 2067.93 498.102 2065.48 Q498.168 2063.02 495.958 2060.81 Q493.764 2058.62 491.309 2058.69 Q488.854 2058.75 486.546 2061.06 L482.389 2065.22 M476.365 2065.81 L483.829 2058.34 Q487.937 2054.23 491.899 2054.01 Q495.86 2053.74 499.444 2057.33 Q503.062 2060.95 502.8 2064.91 Q502.554 2068.85 498.446 2072.96 L494.288 2077.12 L504.109 2086.94 L500.803 2090.24 L476.365 2065.81 Z" fill="#000000" fill-rule="evenodd" fill-opacity="1" /><path clip-path="url(#clip220)" d="M508.741 2037.92 Q505.14 2041.52 505.697 2046.33 Q506.27 2051.12 510.902 2055.76 Q515.518 2060.37 520.314 2060.95 Q525.126 2061.5 528.727 2057.9 Q532.328 2054.3 531.739 2049.52 Q531.166 2044.72 526.55 2040.11 Q521.918 2035.48 517.122 2034.9 Q512.342 2034.31 508.741 2037.92 M506.057 2035.23 Q511.197 2030.09 517.727 2030.47 Q524.242 2030.83 530.036 2036.62 Q535.814 2042.4 536.191 2048.93 Q536.551 2055.45 531.411 2060.59 Q526.255 2065.74 519.724 2065.4 Q513.21 2065.04 507.416 2059.24 Q501.621 2053.45 501.261 2046.93 Q500.901 2040.39 506.057 2035.23 Z" fill="#000000" fill-rule="evenodd" fill-opacity="1" /><path clip-path="url(#clip220)" d="M522.589 2019.58 L525.911 2016.26 L540.757 2031.11 Q544.686 2035.03 547.845 2035.35 Q550.987 2035.64 554.179 2032.45 Q557.355 2029.27 557.06 2026.13 Q556.749 2022.97 552.821 2019.04 L537.975 2004.2 L541.298 2000.87 L556.553 2016.13 Q561.332 2020.91 561.398 2025.72 Q561.479 2030.52 556.864 2035.13 Q552.231 2039.76 547.419 2039.7 Q542.623 2039.62 537.844 2034.84 L522.589 2019.58 Z" fill="#000000" fill-rule="evenodd" fill-opacity="1" /><path clip-path="url(#clip220)" d="M547.828 1994.34 L560.808 1981.36 L563.591 1984.15 L553.639 1994.1 L559.63 2000.09 Q560.104 1999.12 560.71 1998.29 Q561.299 1997.44 562.02 1996.72 Q566.112 1992.62 570.744 1992.48 Q575.376 1992.33 579.206 1996.16 Q583.151 2000.1 582.889 2004.75 Q582.611 2009.39 578.142 2013.85 Q576.604 2015.39 574.738 2016.73 Q572.888 2018.06 570.662 2019.24 L567.339 2015.92 Q569.614 2015.25 571.579 2014.07 Q573.543 2012.89 575.294 2011.14 Q578.126 2008.31 578.289 2005.16 Q578.453 2002.02 575.9 1999.47 Q573.346 1996.91 570.204 1997.08 Q567.061 1997.24 564.229 2000.07 Q562.903 2001.4 561.872 2003.02 Q560.857 2004.62 560.104 2006.62 L547.828 1994.34 Z" fill="#000000" fill-rule="evenodd" fill-opacity="1" /><path clip-path="url(#clip220)" d="M568.829 1973.34 L582.873 1959.3 L585.655 1962.08 L574.918 1972.82 L582.12 1980.02 L591.81 1970.33 L594.592 1973.11 L584.902 1982.8 L596.573 1994.47 L593.266 1997.78 L568.829 1973.34 Z" fill="#000000" fill-rule="evenodd" fill-opacity="1" /><path clip-path="url(#clip220)" d="M610.633 1974.85 L616.034 1969.45 L597.391 1950.8 L592.693 1957.86 L589.682 1954.85 L594.347 1947.83 L597.653 1944.52 L619.308 1966.17 L624.709 1960.77 L627.492 1963.55 L613.415 1977.63 L610.633 1974.85 Z" fill="#000000" fill-rule="evenodd" fill-opacity="1" /><path clip-path="url(#clip220)" d="M590.802 2023.9 L599.984 2033.09 L604.142 2028.93 Q606.45 2026.62 606.515 2024.17 Q606.581 2021.71 604.371 2019.5 Q602.178 2017.31 599.723 2017.37 Q597.267 2017.44 594.959 2019.75 L590.802 2023.9 M584.778 2024.49 L592.242 2017.03 Q596.351 2012.92 600.312 2012.69 Q604.273 2012.43 607.858 2016.01 Q611.475 2019.63 611.213 2023.59 Q610.967 2027.54 606.859 2031.65 L602.702 2035.8 L612.522 2045.62 L609.216 2048.93 L584.778 2024.49 Z" fill="#000000" fill-rule="evenodd" fill-opacity="1" /><path clip-path="url(#clip220)" d="M604.617 2004.66 L607.939 2001.33 L622.785 2016.18 Q626.714 2020.11 629.873 2020.42 Q633.015 2020.71 636.207 2017.52 Q639.383 2014.35 639.088 2011.2 Q638.777 2008.04 634.849 2004.12 L620.003 1989.27 L623.325 1985.95 L638.58 2001.2 Q643.36 2005.98 643.425 2010.79 Q643.507 2015.59 638.891 2020.2 Q634.259 2024.84 629.447 2024.77 Q624.651 2024.69 619.872 2019.91 L604.617 2004.66 Z" fill="#000000" fill-rule="evenodd" fill-opacity="1" /><path clip-path="url(#clip220)" d="M654.097 1981.13 Q655.521 1980.43 657.698 1980.61 Q659.892 1980.77 662.969 1981.82 L673.003 1985.14 L669.451 1988.7 L660.055 1985.55 Q656.389 1984.31 654.441 1984.65 Q652.51 1984.98 650.546 1986.94 L646.945 1990.55 L657.273 2000.87 L653.967 2004.18 L629.529 1979.74 L636.993 1972.28 Q641.183 1968.09 644.997 1967.78 Q648.811 1967.47 652.346 1971 Q654.654 1973.31 655.096 1975.91 Q655.554 1978.5 654.097 1981.13 M635.552 1979.15 L644.227 1987.83 L648.385 1983.67 Q650.775 1981.28 650.889 1978.97 Q651.004 1976.63 648.86 1974.49 Q646.715 1972.34 644.408 1972.49 Q642.1 1972.61 639.71 1975 L635.552 1979.15 Z" fill="#000000" fill-rule="evenodd" fill-opacity="1" /><path clip-path="url(#clip220)" d="M668.894 1965.91 L677.848 1974.87 L683.151 1969.56 Q685.819 1966.89 685.999 1964.52 Q686.179 1962.11 683.904 1959.84 Q681.612 1957.55 679.239 1957.76 Q676.866 1957.94 674.198 1960.61 L668.894 1965.91 M658.844 1955.86 L666.21 1963.23 L671.104 1958.33 Q673.526 1955.91 673.805 1953.83 Q674.083 1951.72 672.217 1949.85 Q670.367 1948.01 668.256 1948.28 Q666.161 1948.55 663.738 1950.97 L658.844 1955.86 M652.821 1956.45 L661.267 1948.01 Q665.048 1944.22 668.665 1943.75 Q672.282 1943.27 675.18 1946.17 Q677.422 1948.41 677.7 1950.79 Q677.979 1953.16 676.276 1955.52 Q679.239 1953.6 682.251 1953.93 Q685.262 1954.23 687.75 1956.71 Q691.024 1959.99 690.582 1964 Q690.14 1968.01 686.032 1972.12 L677.258 1980.89 L652.821 1956.45 Z" fill="#000000" fill-rule="evenodd" fill-opacity="1" /><path clip-path="url(#clip220)" d="M671.602 2046.67 L665.039 2040.11 L659.637 2045.51 L656.92 2042.79 L665.595 2034.12 L676.087 2044.61 Q675.531 2047.88 673.926 2050.9 Q672.306 2053.89 669.687 2056.51 Q663.958 2062.24 657.378 2062.14 Q650.798 2062.01 644.824 2056.03 Q638.833 2050.04 638.719 2043.48 Q638.604 2036.88 644.333 2031.16 Q646.723 2028.77 649.456 2027.21 Q652.206 2025.64 655.169 2024.97 L658.688 2028.49 Q655.3 2028.77 652.451 2030.04 Q649.603 2031.32 647.328 2033.59 Q642.843 2038.08 643.089 2042.84 Q643.351 2047.59 648.31 2052.55 Q653.253 2057.49 658 2057.75 Q662.763 2058 667.248 2053.51 Q669 2051.76 670.08 2050.09 Q671.144 2048.41 671.602 2046.67 Z" fill="#000000" fill-rule="evenodd" fill-opacity="1" /><path clip-path="url(#clip220)" d="M671.389 2011.5 L679.066 2028.14 L688.052 2019.16 L671.389 2011.5 M666.266 2010.11 L670.014 2006.36 L703.766 2021.48 L700.328 2024.92 L691.833 2020.88 L680.817 2031.89 L684.86 2040.39 L681.374 2043.87 L666.266 2010.11 Z" fill="#000000" fill-rule="evenodd" fill-opacity="1" /><path clip-path="url(#clip220)" d="M676.905 1999.47 L697.578 1978.79 L700.361 1981.58 L691.686 1990.25 L713.341 2011.91 L710.018 2015.23 L688.363 1993.57 L679.688 2002.25 L676.905 1999.47 Z" fill="#000000" fill-rule="evenodd" fill-opacity="1" /><path clip-path="url(#clip220)" d="M709.593 1973.29 L717.269 1989.94 L726.255 1980.95 L709.593 1973.29 M704.469 1971.9 L708.218 1968.15 L741.969 1983.28 L738.531 1986.72 L730.036 1982.67 L719.021 1993.69 L723.064 2002.18 L719.577 2005.67 L704.469 1971.9 Z" fill="#000000" fill-rule="evenodd" fill-opacity="1" /><path clip-path="url(#clip220)" d="M733.359 1948.77 L738.057 1970.17 L746.404 1961.82 L733.359 1948.77 M729.611 1946.76 L733.768 1942.6 L749.694 1958.53 L753.181 1955.04 L755.931 1957.79 L752.444 1961.28 L758.206 1967.04 L754.916 1970.33 L749.154 1964.57 L738.122 1975.6 L734.93 1972.41 L729.611 1946.76 Z" fill="#000000" fill-rule="evenodd" fill-opacity="1" /><path clip-path="url(#clip220)" d="M736.64 2008.44 L739.864 2011.66 Q737.082 2012.64 734.97 2013.87 Q732.859 2015.1 731.304 2016.65 Q728.603 2019.35 728.178 2021.87 Q727.768 2024.38 729.7 2026.31 Q731.32 2027.93 733.121 2027.8 Q734.921 2027.64 738.146 2025.43 L740.552 2023.84 Q744.955 2020.84 748.49 2020.88 Q752.026 2020.88 755.005 2023.86 Q758.557 2027.41 758 2031.63 Q757.46 2035.84 752.861 2040.44 Q751.126 2042.17 748.769 2043.74 Q746.428 2045.3 743.564 2046.62 L740.159 2043.22 Q743.302 2042.33 745.806 2040.98 Q748.31 2039.62 750.176 2037.75 Q753.008 2034.92 753.434 2032.27 Q753.859 2029.62 751.797 2027.55 Q749.996 2025.75 747.868 2025.85 Q745.757 2025.93 742.729 2027.95 L740.323 2029.57 Q735.887 2032.53 732.662 2032.61 Q729.438 2032.69 726.639 2029.89 Q723.398 2026.65 723.807 2022.51 Q724.233 2018.36 728.243 2014.35 Q729.962 2012.63 732.057 2011.15 Q734.152 2009.68 736.64 2008.44 Z" fill="#000000" fill-rule="evenodd" fill-opacity="1" /><path clip-path="url(#clip220)" d="M754.628 1993.33 Q751.027 1996.93 751.584 2001.74 Q752.157 2006.54 756.789 2011.17 Q761.405 2015.79 766.201 2016.36 Q771.013 2016.91 774.614 2013.31 Q778.215 2009.71 777.626 2004.93 Q777.053 2000.14 772.437 1995.52 Q767.805 1990.89 763.009 1990.32 Q758.229 1989.73 754.628 1993.33 M751.944 1990.64 Q757.084 1985.5 763.615 1985.88 Q770.129 1986.24 775.923 1992.04 Q781.701 1997.81 782.078 2004.34 Q782.438 2010.86 777.298 2016 Q772.142 2021.15 765.611 2020.81 Q759.097 2020.45 753.303 2014.66 Q747.508 2008.86 747.148 2002.35 Q746.788 1995.8 751.944 1990.64 Z" fill="#000000" fill-rule="evenodd" fill-opacity="1" /><path clip-path="url(#clip220)" d="M765.53 1977.94 L769.082 1974.39 L784.238 1977.4 L781.259 1962.21 L784.811 1958.66 L788.691 1978.25 L809.773 1982.57 L806.221 1986.13 L788.952 1982.61 L792.422 1999.92 L788.854 2003.49 L784.533 1981.72 L765.53 1977.94 Z" fill="#000000" fill-rule="evenodd" fill-opacity="1" /><path clip-path="url(#clip220)" d="M814.47 1972.31 L826.01 1960.77 L828.792 1963.55 L813.275 1979.07 L810.493 1976.29 Q810.427 1972.46 810.395 1965.94 Q810.362 1959.4 810.247 1957.61 Q810.051 1954.24 809.445 1952.39 Q808.84 1950.51 807.645 1949.31 Q805.697 1947.37 803.094 1947.51 Q800.508 1947.65 798.315 1949.84 Q796.76 1951.39 795.565 1953.67 Q794.387 1955.93 793.519 1958.99 L790.18 1955.65 Q791.375 1952.85 792.701 1950.71 Q794.027 1948.56 795.467 1947.12 Q799.264 1943.32 803.422 1942.96 Q807.579 1942.6 810.755 1945.78 Q812.261 1947.28 813.046 1949.22 Q813.832 1951.12 814.176 1954.44 Q814.241 1955.32 814.323 1959.79 Q814.388 1964.24 814.47 1972.31 Z" fill="#000000" fill-rule="evenodd" fill-opacity="1" /><path clip-path="url(#clip220)" d="M821.074 1989.5 L824.38 1986.19 L848.818 2010.63 L845.511 2013.94 L821.074 1989.5 Z" fill="#000000" fill-rule="evenodd" fill-opacity="1" /><path clip-path="url(#clip220)" d="M836.984 1979.02 L855.987 1998.03 L859.981 1994.03 Q865.039 1988.97 865.088 1984.34 Q865.153 1979.69 860.21 1974.75 Q855.3 1969.84 850.667 1969.92 Q846.035 1969.97 840.978 1975.03 L836.984 1979.02 M830.96 1979.61 L837.753 1972.82 Q844.857 1965.72 851.142 1965.36 Q857.411 1964.98 863.696 1971.26 Q870.015 1977.58 869.638 1983.88 Q869.262 1990.19 862.191 1997.26 L855.398 2004.05 L830.96 1979.61 Z" fill="#000000" fill-rule="evenodd" fill-opacity="1" /><path clip-path="url(#clip220)" d="M881.57 1972.31 L893.11 1960.77 L895.893 1963.55 L880.376 1979.07 L877.593 1976.29 Q877.528 1972.46 877.495 1965.94 Q877.462 1959.4 877.347 1957.61 Q877.151 1954.24 876.545 1952.39 Q875.94 1950.51 874.745 1949.31 Q872.797 1947.37 870.195 1947.51 Q867.608 1947.65 865.415 1949.84 Q863.86 1951.39 862.665 1953.67 Q861.487 1955.93 860.619 1958.99 L857.28 1955.65 Q858.475 1952.85 859.801 1950.71 Q861.127 1948.56 862.567 1947.12 Q866.364 1943.32 870.522 1942.96 Q874.679 1942.6 877.855 1945.78 Q879.361 1947.28 880.146 1949.22 Q880.932 1951.12 881.276 1954.44 Q881.341 1955.32 881.423 1959.79 Q881.489 1964.24 881.57 1972.31 Z" fill="#000000" fill-rule="evenodd" fill-opacity="1" /><path clip-path="url(#clip220)" d="M873.132 2046.44 L866.568 2039.88 L861.167 2045.28 L858.449 2042.56 L867.125 2033.89 L877.617 2044.38 Q877.06 2047.65 875.456 2050.67 Q873.836 2053.66 871.217 2056.28 Q865.488 2062.01 858.908 2061.91 Q852.328 2061.78 846.353 2055.81 Q840.363 2049.81 840.248 2043.25 Q840.134 2036.65 845.862 2030.93 Q848.252 2028.54 850.986 2026.98 Q853.735 2025.41 856.698 2024.74 L860.217 2028.26 Q856.829 2028.54 853.981 2029.81 Q851.133 2031.09 848.858 2033.36 Q844.373 2037.85 844.618 2042.61 Q844.88 2047.36 849.84 2052.32 Q854.783 2057.26 859.53 2057.52 Q864.293 2057.77 868.778 2053.28 Q870.529 2051.53 871.609 2049.86 Q872.673 2048.18 873.132 2046.44 Z" fill="#000000" fill-rule="evenodd" fill-opacity="1" /><path clip-path="url(#clip220)" d="M872.919 2011.27 L880.596 2027.91 L889.582 2018.93 L872.919 2011.27 M867.796 2009.88 L871.544 2006.13 L905.295 2021.25 L901.858 2024.69 L893.363 2020.65 L882.347 2031.66 L886.39 2040.16 L882.903 2043.64 L867.796 2009.88 Z" fill="#000000" fill-rule="evenodd" fill-opacity="1" /><path clip-path="url(#clip220)" d="M878.435 1999.24 L899.108 1978.56 L901.89 1981.35 L893.215 1990.02 L914.87 2011.68 L911.548 2015 L889.893 1993.34 L881.218 2002.02 L878.435 1999.24 Z" fill="#000000" fill-rule="evenodd" fill-opacity="1" /><path clip-path="url(#clip220)" d="M911.122 1973.06 L918.799 1989.71 L927.785 1980.73 L911.122 1973.06 M905.999 1971.67 L909.747 1967.93 L943.498 1983.05 L940.061 1986.49 L931.566 1982.44 L920.55 1993.46 L924.593 2001.95 L921.107 2005.44 L905.999 1971.67 Z" fill="#000000" fill-rule="evenodd" fill-opacity="1" /><path clip-path="url(#clip220)" d="M941.305 1958.17 Q939.079 1960.4 939.292 1963.23 Q939.521 1966.04 942.172 1968.69 Q944.808 1971.33 947.639 1971.58 Q950.471 1971.79 952.697 1969.56 Q954.923 1967.34 954.694 1964.52 Q954.465 1961.67 951.83 1959.04 Q949.178 1956.39 946.346 1956.17 Q943.531 1955.94 941.305 1958.17 M937.508 1941.25 L940.519 1944.26 Q938.686 1944.91 937.098 1945.88 Q935.527 1946.83 934.283 1948.07 Q931.009 1951.34 931.484 1955.29 Q931.975 1959.22 936.198 1963.93 Q935.74 1961.54 936.444 1959.33 Q937.131 1957.11 938.882 1955.35 Q942.565 1951.67 946.936 1951.79 Q951.306 1951.87 955.152 1955.71 Q958.917 1959.48 958.966 1963.98 Q959.015 1968.48 955.316 1972.18 Q951.077 1976.42 945.593 1975.42 Q940.094 1974.41 933.923 1968.24 Q928.129 1962.44 927.441 1956.25 Q926.737 1950.05 931.369 1945.42 Q932.613 1944.18 934.119 1943.16 Q935.642 1942.13 937.508 1941.25 Z" fill="#000000" fill-rule="evenodd" fill-opacity="1" /><path clip-path="url(#clip220)" d="M877.673 2067.1 L896.873 2047.9 L899.393 2050.42 L903.076 2085.01 L918.904 2069.18 L921.687 2071.96 L901.734 2091.91 L899.213 2089.39 L895.53 2054.81 L880.455 2069.88 L877.673 2067.1 Z" fill="#000000" fill-rule="evenodd" fill-opacity="1" /><path clip-path="url(#clip220)" d="M918.118 2052.19 L927.072 2061.14 L932.375 2055.84 Q935.043 2053.17 935.223 2050.8 Q935.403 2048.39 933.128 2046.12 Q930.837 2043.82 928.463 2044.04 Q926.09 2044.22 923.422 2046.89 L918.118 2052.19 M908.068 2042.14 L915.434 2049.5 L920.328 2044.61 Q922.751 2042.19 923.029 2040.11 Q923.307 2038 921.441 2036.13 Q919.592 2034.28 917.48 2034.56 Q915.385 2034.82 912.963 2037.24 L908.068 2042.14 M902.045 2042.73 L910.491 2034.28 Q914.272 2030.5 917.889 2030.03 Q921.507 2029.55 924.404 2032.45 Q926.646 2034.69 926.925 2037.06 Q927.203 2039.44 925.501 2041.79 Q928.463 2039.88 931.475 2040.21 Q934.487 2040.5 936.975 2042.99 Q940.248 2046.26 939.806 2050.27 Q939.364 2054.28 935.256 2058.39 L926.483 2067.17 L902.045 2042.73 Z" fill="#000000" fill-rule="evenodd" fill-opacity="1" /><path clip-path="url(#clip220)" d="M921.654 2023.12 L942.327 2002.45 L945.11 2005.23 L936.434 2013.9 L958.089 2035.56 L954.767 2038.88 L933.112 2017.23 L924.437 2025.9 L921.654 2023.12 Z" fill="#000000" fill-rule="evenodd" fill-opacity="1" /><path clip-path="url(#clip220)" d="M961.592 2008.71 L970.546 2017.67 L975.849 2012.36 Q978.517 2009.7 978.697 2007.32 Q978.877 2004.92 976.602 2002.64 Q974.31 2000.35 971.937 2000.56 Q969.563 2000.74 966.895 2003.41 L961.592 2008.71 M951.542 1998.66 L958.908 2006.03 L963.802 2001.14 Q966.224 1998.71 966.503 1996.63 Q966.781 1994.52 964.915 1992.66 Q963.065 1990.81 960.954 1991.09 Q958.859 1991.35 956.436 1993.77 L951.542 1998.66 M945.519 1999.25 L953.965 1990.81 Q957.746 1987.03 961.363 1986.55 Q964.98 1986.08 967.878 1988.97 Q970.12 1991.22 970.398 1993.59 Q970.677 1995.96 968.974 1998.32 Q971.937 1996.41 974.949 1996.73 Q977.96 1997.03 980.448 1999.52 Q983.722 2002.79 983.28 2006.8 Q982.838 2010.81 978.73 2014.92 L969.956 2023.69 L945.519 1999.25 Z" fill="#000000" fill-rule="evenodd" fill-opacity="1" /><path clip-path="url(#clip220)" d="M991.038 1997.04 L996.44 1991.64 L977.797 1973 L973.099 1980.05 L970.087 1977.04 L974.752 1970.02 L978.059 1966.71 L999.714 1988.37 L1005.12 1982.97 L1007.9 1985.75 L993.821 1999.83 L991.038 1997.04 Z" fill="#000000" fill-rule="evenodd" fill-opacity="1" /><path clip-path="url(#clip220)" d="M999.386 1949.74 Q996.833 1952.29 998.06 1956.11 Q999.288 1959.89 1004.33 1964.93 Q1009.35 1969.95 1013.15 1971.2 Q1016.95 1972.41 1019.5 1969.86 Q1022.07 1967.29 1020.84 1963.51 Q1019.62 1959.69 1014.59 1954.67 Q1009.55 1949.63 1005.75 1948.41 Q1001.96 1947.17 999.386 1949.74 M996.767 1947.12 Q1000.88 1943.01 1006.29 1944.11 Q1011.71 1945.17 1017.9 1951.36 Q1024.07 1957.53 1025.15 1962.97 Q1026.23 1968.37 1022.12 1972.48 Q1018.01 1976.58 1012.6 1975.52 Q1007.18 1974.42 1001.01 1968.25 Q994.82 1962.07 993.739 1956.66 Q992.659 1951.23 996.767 1947.12 Z" fill="#000000" fill-rule="evenodd" fill-opacity="1" /><path clip-path="url(#clip220)" d="M947.375 2068.26 L950.862 2071.75 Q947.637 2071.86 944.969 2072.99 Q942.318 2074.11 940.19 2076.23 Q936 2080.42 936.343 2085.22 Q936.671 2090 941.516 2094.84 Q946.344 2099.67 951.14 2100.02 Q955.92 2100.34 960.11 2096.15 Q962.238 2094.03 963.351 2091.37 Q964.48 2088.71 964.595 2085.48 L968.048 2088.93 Q967.492 2091.85 966.133 2094.39 Q964.791 2096.91 962.631 2099.07 Q957.082 2104.62 950.502 2104.42 Q943.905 2104.21 938.029 2098.33 Q932.137 2092.44 931.94 2085.86 Q931.728 2079.26 937.276 2073.71 Q939.47 2071.52 941.99 2070.18 Q944.511 2068.8 947.375 2068.26 Z" fill="#000000" fill-rule="evenodd" fill-opacity="1" /><path clip-path="url(#clip220)" d="M975.169 2062.66 Q976.593 2061.96 978.77 2062.14 Q980.963 2062.3 984.04 2063.35 L994.074 2066.67 L990.522 2070.23 L981.127 2067.08 Q977.46 2065.84 975.512 2066.18 Q973.581 2066.51 971.617 2068.47 L968.016 2072.08 L978.344 2082.4 L975.038 2085.71 L950.6 2061.27 L958.064 2053.81 Q962.254 2049.62 966.068 2049.31 Q969.882 2049 973.417 2052.53 Q975.725 2054.84 976.167 2057.44 Q976.625 2060.03 975.169 2062.66 M956.623 2060.68 L965.299 2069.36 L969.456 2065.2 Q971.846 2062.81 971.96 2060.5 Q972.075 2058.16 969.931 2056.02 Q967.787 2053.87 965.479 2054.02 Q963.171 2054.14 960.781 2056.53 L956.623 2060.68 Z" fill="#000000" fill-rule="evenodd" fill-opacity="1" /><path clip-path="url(#clip220)" d="M973.892 2037.98 L989.343 2022.53 L992.126 2025.31 L979.981 2037.46 L987.216 2044.69 L998.853 2033.05 L1001.64 2035.84 L989.998 2047.47 L998.853 2056.33 L1011.29 2043.89 L1014.08 2046.67 L998.329 2062.42 L973.892 2037.98 Z" fill="#000000" fill-rule="evenodd" fill-opacity="1" /><path clip-path="url(#clip220)" d="M1011.15 2026.26 L1020.1 2035.21 L1025.4 2029.91 Q1028.07 2027.24 1028.25 2024.87 Q1028.43 2022.46 1026.16 2020.19 Q1023.86 2017.9 1021.49 2018.11 Q1019.12 2018.29 1016.45 2020.96 L1011.15 2026.26 M1001.1 2016.21 L1008.46 2023.58 L1013.36 2018.68 Q1015.78 2016.26 1016.06 2014.18 Q1016.33 2012.07 1014.47 2010.2 Q1012.62 2008.35 1010.51 2008.63 Q1008.41 2008.89 1005.99 2011.32 L1001.1 2016.21 M995.072 2016.8 L1003.52 2008.35 Q1007.3 2004.57 1010.92 2004.1 Q1014.53 2003.62 1017.43 2006.52 Q1019.67 2008.76 1019.95 2011.14 Q1020.23 2013.51 1018.53 2015.87 Q1021.49 2013.95 1024.5 2014.28 Q1027.51 2014.57 1030 2017.06 Q1033.28 2020.34 1032.83 2024.35 Q1032.39 2028.36 1028.28 2032.46 L1019.51 2041.24 L995.072 2016.8 Z" fill="#000000" fill-rule="evenodd" fill-opacity="1" /><path clip-path="url(#clip220)" d="M1039.64 1994.75 Q1042.52 1992.89 1045.45 1993.16 Q1048.4 1993.43 1050.76 1995.78 Q1054.37 1999.4 1053.87 2003.87 Q1053.36 2008.34 1048.78 2012.92 Q1047.24 2014.46 1045.29 2015.79 Q1043.37 2017.11 1041.03 2018.24 L1037.84 2015.05 Q1040.02 2014.48 1042.07 2013.25 Q1044.11 2012.02 1045.9 2010.24 Q1049.01 2007.13 1049.4 2004.28 Q1049.81 2001.41 1047.47 1999.07 Q1045.31 1996.91 1042.57 1997.22 Q1039.84 1997.5 1037.14 2000.2 L1034.29 2003.05 L1031.57 2000.33 L1034.55 1997.36 Q1036.99 1994.92 1037.32 1992.66 Q1037.63 1990.38 1035.8 1988.55 Q1033.91 1986.67 1031.57 1987.01 Q1029.23 1987.32 1026.74 1989.81 Q1025.39 1991.17 1024.13 1993.02 Q1022.87 1994.87 1021.62 1997.36 L1018.68 1994.41 Q1020.03 1992 1021.41 1990.1 Q1022.8 1988.19 1024.26 1986.73 Q1028.02 1982.97 1031.93 1982.49 Q1035.83 1982 1038.74 1984.92 Q1040.77 1986.94 1041.02 1989.51 Q1041.25 1992.07 1039.64 1994.75 Z" fill="#000000" fill-rule="evenodd" fill-opacity="1" /><path clip-path="url(#clip220)" d="M1039.4 1972.48 L1042.7 1969.17 L1064.36 1990.82 L1076.26 1978.92 L1079.04 1981.71 L1063.83 1996.91 L1039.4 1972.48 Z" fill="#000000" fill-rule="evenodd" fill-opacity="1" /><path clip-path="url(#clip220)" d="M1082.87 1972.31 L1094.41 1960.77 L1097.19 1963.55 L1081.68 1979.07 L1078.89 1976.29 Q1078.83 1972.46 1078.8 1965.94 Q1078.76 1959.4 1078.65 1957.61 Q1078.45 1954.24 1077.85 1952.39 Q1077.24 1950.51 1076.05 1949.31 Q1074.1 1947.37 1071.49 1947.51 Q1068.91 1947.65 1066.72 1949.84 Q1065.16 1951.39 1063.97 1953.67 Q1062.79 1955.93 1061.92 1958.99 L1058.58 1955.65 Q1059.78 1952.85 1061.1 1950.71 Q1062.43 1948.56 1063.87 1947.12 Q1067.66 1943.32 1071.82 1942.96 Q1075.98 1942.6 1079.16 1945.78 Q1080.66 1947.28 1081.45 1949.22 Q1082.23 1951.12 1082.58 1954.44 Q1082.64 1955.32 1082.72 1959.79 Q1082.79 1964.24 1082.87 1972.31 Z" fill="#000000" fill-rule="evenodd" fill-opacity="1" /><path clip-path="url(#clip220)" d="M1063.76 2015.21 L1067.07 2011.91 L1077.39 2022.23 L1078.03 2000.94 L1082.29 1996.68 L1081.55 2020.2 L1107.59 2020.25 L1103.24 2024.61 L1079.74 2024.58 L1091.5 2036.34 L1088.2 2039.65 L1063.76 2015.21 Z" fill="#000000" fill-rule="evenodd" fill-opacity="1" /><path clip-path="url(#clip220)" d="M1085.74 1993.23 L1089.05 1989.92 L1110.7 2011.58 L1122.6 1999.68 L1125.39 2002.46 L1110.18 2017.67 L1085.74 1993.23 Z" fill="#000000" fill-rule="evenodd" fill-opacity="1" /><path clip-path="url(#clip220)" d="M1104.42 1974.55 L1118.46 1960.51 L1121.24 1963.29 L1110.51 1974.03 L1117.71 1981.23 L1127.4 1971.54 L1130.18 1974.33 L1120.49 1984.02 L1132.16 1995.69 L1128.86 1998.99 L1104.42 1974.55 Z" fill="#000000" fill-rule="evenodd" fill-opacity="1" /><path clip-path="url(#clip220)" d="M1135.96 1948.77 L1140.66 1970.17 L1149.01 1961.82 L1135.96 1948.77 M1132.21 1946.76 L1136.37 1942.6 L1152.3 1958.53 L1155.78 1955.04 L1158.53 1957.79 L1155.05 1961.28 L1160.81 1967.04 L1157.52 1970.33 L1151.76 1964.57 L1140.72 1975.6 L1137.53 1972.41 L1132.21 1946.76 Z" fill="#000000" fill-rule="evenodd" fill-opacity="1" /><path clip-path="url(#clip220)" d="M1087.55 2058.52 L1092 2054.07 L1123.28 2063.68 L1102.84 2043.23 L1106.05 2040.03 L1130.48 2064.46 L1126.03 2068.92 L1094.75 2059.31 L1115.2 2079.75 L1111.99 2082.96 L1087.55 2058.52 Z" fill="#000000" fill-rule="evenodd" fill-opacity="1" /><path clip-path="url(#clip220)" d="M1124.05 2028.54 L1131.73 2045.18 L1140.71 2036.2 L1124.05 2028.54 M1118.93 2027.15 L1122.68 2023.4 L1156.43 2038.52 L1152.99 2041.96 L1144.49 2037.92 L1133.48 2048.93 L1137.52 2057.43 L1134.04 2060.91 L1118.93 2027.15 Z" fill="#000000" fill-rule="evenodd" fill-opacity="1" /><path clip-path="url(#clip220)" d="M1135.56 2010.52 L1140.01 2006.06 L1171.29 2015.67 L1150.85 1995.23 L1154.05 1992.02 L1178.49 2016.46 L1174.04 2020.91 L1142.76 2011.3 L1163.2 2031.74 L1160 2034.95 L1135.56 2010.52 Z" fill="#000000" fill-rule="evenodd" fill-opacity="1" /><path clip-path="url(#clip220)" d="M1172.8 1977.76 Q1169.19 1981.36 1169.75 1986.18 Q1170.32 1990.97 1174.96 1995.6 Q1179.57 2000.22 1184.37 2000.79 Q1189.18 2001.35 1192.78 1997.75 Q1196.38 1994.15 1195.79 1989.37 Q1195.22 1984.57 1190.6 1979.96 Q1185.97 1975.32 1181.18 1974.75 Q1176.4 1974.16 1172.8 1977.76 M1170.11 1975.08 Q1175.25 1969.94 1181.78 1970.31 Q1188.3 1970.68 1194.09 1976.47 Q1199.87 1982.25 1200.24 1988.78 Q1200.6 1995.29 1195.47 2000.43 Q1190.31 2005.59 1183.78 2005.24 Q1177.26 2004.88 1171.47 1999.09 Q1165.68 1993.3 1165.32 1986.78 Q1164.95 1980.23 1170.11 1975.08 Z" fill="#000000" fill-rule="evenodd" fill-opacity="1" /><path clip-path="url(#clip220)" d="M1224.63 1963.34 L1218.07 1956.78 L1212.67 1962.18 L1209.95 1959.46 L1218.63 1950.79 L1229.12 1961.28 Q1228.56 1964.55 1226.96 1967.57 Q1225.34 1970.56 1222.72 1973.18 Q1216.99 1978.91 1210.41 1978.81 Q1203.83 1978.68 1197.85 1972.7 Q1191.86 1966.71 1191.75 1960.15 Q1191.64 1953.55 1197.36 1947.83 Q1199.75 1945.44 1202.49 1943.88 Q1205.24 1942.31 1208.2 1941.64 L1211.72 1945.16 Q1208.33 1945.44 1205.48 1946.71 Q1202.63 1947.99 1200.36 1950.26 Q1195.87 1954.75 1196.12 1959.51 Q1196.38 1964.26 1201.34 1969.22 Q1206.28 1974.16 1211.03 1974.42 Q1215.79 1974.67 1220.28 1970.18 Q1222.03 1968.43 1223.11 1966.76 Q1224.17 1965.08 1224.63 1963.34 Z" fill="#000000" fill-rule="evenodd" fill-opacity="1" /><path clip-path="url(#clip220)" d="M1215.11 2024.02 Q1216.54 2023.31 1218.72 2023.49 Q1220.91 2023.66 1223.99 2024.71 L1234.02 2028.03 L1230.47 2031.58 L1221.07 2028.44 Q1217.41 2027.19 1215.46 2027.54 Q1213.53 2027.87 1211.56 2029.83 L1207.96 2033.43 L1218.29 2043.76 L1214.98 2047.07 L1190.55 2022.63 L1198.01 2015.16 Q1202.2 2010.97 1206.01 2010.66 Q1209.83 2010.35 1213.36 2013.89 Q1215.67 2016.19 1216.11 2018.8 Q1216.57 2021.38 1215.11 2024.02 M1196.57 2022.04 L1205.24 2030.71 L1209.4 2026.56 Q1211.79 2024.17 1211.91 2021.86 Q1212.02 2019.52 1209.88 2017.37 Q1207.73 2015.23 1205.42 2015.38 Q1203.12 2015.49 1200.73 2017.88 L1196.57 2022.04 Z" fill="#000000" fill-rule="evenodd" fill-opacity="1" /><path clip-path="url(#clip220)" d="M1213.84 1999.34 L1229.29 1983.88 L1232.07 1986.67 L1219.93 1998.81 L1227.16 2006.05 L1238.8 1994.41 L1241.58 1997.19 L1229.94 2008.83 L1238.8 2017.68 L1251.24 2005.24 L1254.02 2008.03 L1238.27 2023.77 L1213.84 1999.34 Z" fill="#000000" fill-rule="evenodd" fill-opacity="1" /><path clip-path="url(#clip220)" d="M1259.59 1979.55 Q1261.01 1978.84 1263.19 1979.02 Q1265.38 1979.19 1268.46 1980.23 L1278.49 1983.56 L1274.94 1987.11 L1265.54 1983.97 Q1261.88 1982.72 1259.93 1983.07 Q1258 1983.39 1256.03 1985.36 L1252.43 1988.96 L1262.76 1999.29 L1259.46 2002.59 L1235.02 1978.16 L1242.48 1970.69 Q1246.67 1966.5 1250.49 1966.19 Q1254.3 1965.88 1257.83 1969.41 Q1260.14 1971.72 1260.58 1974.33 Q1261.04 1976.91 1259.59 1979.55 M1241.04 1977.57 L1249.72 1986.24 L1253.87 1982.08 Q1256.26 1979.69 1256.38 1977.39 Q1256.49 1975.05 1254.35 1972.9 Q1252.2 1970.76 1249.9 1970.9 Q1247.59 1971.02 1245.2 1973.41 L1241.04 1977.57 Z" fill="#000000" fill-rule="evenodd" fill-opacity="1" /><path clip-path="url(#clip220)" d="M1258.31 1954.86 L1273.76 1939.41 L1276.54 1942.19 L1264.4 1954.34 L1271.63 1961.57 L1283.27 1949.94 L1286.05 1952.72 L1274.42 1964.36 L1283.27 1973.21 L1295.71 1960.77 L1298.49 1963.55 L1282.75 1979.3 L1258.31 1954.86 Z" fill="#000000" fill-rule="evenodd" fill-opacity="1" /><path clip-path="url(#clip220)" d="M1231.21 2049.06 L1251.88 2028.39 L1254.67 2031.17 L1245.99 2039.85 L1267.65 2061.5 L1264.32 2064.82 L1242.67 2043.17 L1233.99 2051.84 L1231.21 2049.06 Z" fill="#000000" fill-rule="evenodd" fill-opacity="1" /><path clip-path="url(#clip220)" d="M1255.08 2025.2 L1270.53 2009.75 L1273.31 2012.53 L1261.16 2024.67 L1268.4 2031.91 L1280.04 2020.27 L1282.82 2023.05 L1271.18 2034.69 L1280.04 2043.55 L1292.48 2031.11 L1295.26 2033.89 L1279.51 2049.63 L1255.08 2025.2 Z" fill="#000000" fill-rule="evenodd" fill-opacity="1" /><path clip-path="url(#clip220)" d="M1287.68 1999.11 L1295.36 2015.75 L1304.34 2006.77 L1287.68 1999.11 M1282.56 1997.72 L1286.31 1993.97 L1320.06 2009.09 L1316.62 2012.53 L1308.12 2008.49 L1297.11 2019.5 L1301.15 2028 L1297.67 2031.48 L1282.56 1997.72 Z" fill="#000000" fill-rule="evenodd" fill-opacity="1" /><path clip-path="url(#clip220)" d="M1305.21 1980.5 L1324.21 1999.5 L1328.21 1995.51 Q1333.27 1990.45 1333.32 1985.82 Q1333.38 1981.17 1328.44 1976.22 Q1323.53 1971.31 1318.9 1971.4 Q1314.26 1971.44 1309.21 1976.5 L1305.21 1980.5 M1299.19 1981.09 L1305.98 1974.29 Q1313.08 1967.19 1319.37 1966.83 Q1325.64 1966.45 1331.92 1972.74 Q1338.24 1979.06 1337.87 1985.36 Q1337.49 1991.66 1330.42 1998.73 L1323.63 2005.52 L1299.19 1981.09 Z" fill="#000000" fill-rule="evenodd" fill-opacity="1" /><path clip-path="url(#clip220)" d="M1337.26 1948.77 L1341.96 1970.17 L1350.31 1961.82 L1337.26 1948.77 M1333.51 1946.76 L1337.67 1942.6 L1353.6 1958.53 L1357.08 1955.04 L1359.83 1957.79 L1356.35 1961.28 L1362.11 1967.04 L1358.82 1970.33 L1353.06 1964.57 L1342.02 1975.6 L1338.83 1972.41 L1333.51 1946.76 Z" fill="#000000" fill-rule="evenodd" fill-opacity="1" /><path clip-path="url(#clip220)" d="M1333.76 2013.61 L1349.22 1998.16 L1352 2000.94 L1339.85 2013.08 L1347.09 2020.32 L1358.73 2008.68 L1361.51 2011.46 L1349.87 2023.1 L1358.73 2031.96 L1371.17 2019.52 L1373.95 2022.3 L1358.2 2038.05 L1333.76 2013.61 Z" fill="#000000" fill-rule="evenodd" fill-opacity="1" /><path clip-path="url(#clip220)" d="M1354.94 1992.43 L1358.25 1989.12 L1379.91 2010.78 L1391.81 1998.88 L1394.59 2001.66 L1379.38 2016.87 L1354.94 1992.43 Z" fill="#000000" fill-rule="evenodd" fill-opacity="1" /><path clip-path="url(#clip220)" d="M1373.62 1973.75 L1387.66 1959.71 L1390.45 1962.49 L1379.71 1973.23 L1386.91 1980.43 L1396.6 1970.74 L1399.38 1973.52 L1389.69 1983.21 L1401.36 1994.88 L1398.06 1998.19 L1373.62 1973.75 Z" fill="#000000" fill-rule="evenodd" fill-opacity="1" /><path clip-path="url(#clip220)" d="M1414.48 1955.42 Q1417.36 1953.55 1420.29 1953.83 Q1423.23 1954.09 1425.59 1956.45 Q1429.21 1960.07 1428.7 1964.54 Q1428.19 1969.01 1423.61 1973.59 Q1422.07 1975.13 1420.12 1976.45 Q1418.21 1977.78 1415.87 1978.91 L1412.68 1975.72 Q1414.85 1975.14 1416.9 1973.92 Q1418.94 1972.69 1420.73 1970.9 Q1423.84 1967.79 1424.23 1964.95 Q1424.64 1962.08 1422.3 1959.74 Q1420.14 1957.58 1417.41 1957.89 Q1414.67 1958.17 1411.97 1960.87 L1409.12 1963.72 L1406.41 1961 L1409.39 1958.02 Q1411.82 1955.58 1412.15 1953.32 Q1412.46 1951.05 1410.63 1949.22 Q1408.75 1947.33 1406.41 1947.68 Q1404.07 1947.99 1401.58 1950.48 Q1400.22 1951.84 1398.96 1953.68 Q1397.7 1955.53 1396.45 1958.02 L1393.51 1955.08 Q1394.87 1952.67 1396.24 1950.77 Q1397.63 1948.86 1399.09 1947.4 Q1402.85 1943.63 1406.77 1943.16 Q1410.66 1942.67 1413.58 1945.58 Q1415.61 1947.61 1415.85 1950.18 Q1416.08 1952.74 1414.48 1955.42 Z" fill="#000000" fill-rule="evenodd" fill-opacity="1" /><path clip-path="url(#clip220)" d="M1393.06 2021.42 L1396.61 2017.86 L1411.77 2020.88 L1408.79 2005.69 L1412.34 2002.13 L1416.22 2021.73 L1437.3 2026.05 L1433.75 2029.6 L1416.48 2026.08 L1419.95 2043.4 L1416.38 2046.97 L1412.06 2025.2 L1393.06 2021.42 Z" fill="#000000" fill-rule="evenodd" fill-opacity="1" /><path clip-path="url(#clip220)" d="M1433.27 2006.73 L1442.23 2015.69 L1447.53 2010.38 Q1450.2 2007.72 1450.38 2005.34 Q1450.56 2002.94 1448.28 2000.66 Q1445.99 1998.37 1443.62 1998.58 Q1441.24 1998.76 1438.58 2001.43 L1433.27 2006.73 M1423.22 1996.68 L1430.59 2004.05 L1435.48 1999.16 Q1437.91 1996.73 1438.18 1994.65 Q1438.46 1992.54 1436.6 1990.68 Q1434.75 1988.83 1432.64 1989.11 Q1430.54 1989.37 1428.12 1991.79 L1423.22 1996.68 M1417.2 1997.27 L1425.65 1988.83 Q1429.43 1985.05 1433.04 1984.57 Q1436.66 1984.1 1439.56 1986.99 Q1441.8 1989.24 1442.08 1991.61 Q1442.36 1993.98 1440.66 1996.34 Q1443.62 1994.43 1446.63 1994.75 Q1449.64 1995.05 1452.13 1997.54 Q1455.4 2000.81 1454.96 2004.82 Q1454.52 2008.83 1450.41 2012.94 L1441.64 2021.71 L1417.2 1997.27 Z" fill="#000000" fill-rule="evenodd" fill-opacity="1" /><path clip-path="url(#clip220)" d="M1446.22 1973.69 L1455.4 1982.87 L1459.56 1978.71 Q1461.87 1976.4 1461.93 1973.95 Q1462 1971.49 1459.79 1969.28 Q1457.6 1967.09 1455.14 1967.16 Q1452.69 1967.22 1450.38 1969.53 L1446.22 1973.69 M1440.2 1974.28 L1447.66 1966.81 Q1451.77 1962.7 1455.73 1962.47 Q1459.69 1962.21 1463.28 1965.8 Q1466.89 1969.41 1466.63 1973.38 Q1466.39 1977.32 1462.28 1981.43 L1458.12 1985.59 L1467.94 1995.41 L1464.63 1998.71 L1440.2 1974.28 Z" fill="#000000" fill-rule="evenodd" fill-opacity="1" /><path clip-path="url(#clip220)" d="M1482.93 1974.85 L1488.34 1969.45 L1469.69 1950.8 L1465 1957.86 L1461.98 1954.85 L1466.65 1947.83 L1469.95 1944.52 L1491.61 1966.17 L1497.01 1960.77 L1499.79 1963.55 L1485.72 1977.63 L1482.93 1974.85 Z" fill="#000000" fill-rule="evenodd" fill-opacity="1" /><path clip-path="url(#clip220)" d="M1488.83 1994.34 L1492.06 1997.57 Q1489.28 1998.55 1487.16 1999.78 Q1485.05 2001.01 1483.5 2002.56 Q1480.8 2005.26 1480.37 2007.78 Q1479.96 2010.29 1481.89 2012.22 Q1483.51 2013.84 1485.32 2013.71 Q1487.12 2013.54 1490.34 2011.33 L1492.75 2009.75 Q1497.15 2006.75 1500.68 2006.78 Q1504.22 2006.78 1507.2 2009.76 Q1510.75 2013.31 1510.19 2017.54 Q1509.65 2021.74 1505.06 2026.34 Q1503.32 2028.08 1500.96 2029.65 Q1498.62 2031.2 1495.76 2032.53 L1492.35 2029.13 Q1495.5 2028.24 1498 2026.88 Q1500.5 2025.52 1502.37 2023.66 Q1505.2 2020.83 1505.63 2018.18 Q1506.05 2015.52 1503.99 2013.46 Q1502.19 2011.66 1500.06 2011.76 Q1497.95 2011.84 1494.92 2013.85 L1492.52 2015.47 Q1488.08 2018.44 1484.86 2018.52 Q1481.63 2018.6 1478.83 2015.8 Q1475.59 2012.56 1476 2008.42 Q1476.43 2004.26 1480.44 2000.25 Q1482.16 1998.53 1484.25 1997.06 Q1486.35 1995.59 1488.83 1994.34 Z" fill="#000000" fill-rule="evenodd" fill-opacity="1" /><path clip-path="url(#clip220)" d="M1494.66 1986.91 L1497.97 1983.61 L1522.41 2008.04 L1519.1 2011.35 L1494.66 1986.91 Z" fill="#000000" fill-rule="evenodd" fill-opacity="1" /><path clip-path="url(#clip220)" d="M1503.37 1978.2 L1506.92 1974.65 L1522.08 1977.66 L1519.1 1962.47 L1522.65 1958.92 L1526.53 1978.52 L1547.61 1982.84 L1544.06 1986.39 L1526.79 1982.87 L1530.26 2000.19 L1526.69 2003.76 L1522.37 1981.99 L1503.37 1978.2 Z" fill="#000000" fill-rule="evenodd" fill-opacity="1" /><path clip-path="url(#clip220)" d="M1550.03 1974.85 L1555.44 1969.45 L1536.79 1950.8 L1532.1 1957.86 L1529.08 1954.85 L1533.75 1947.83 L1537.05 1944.52 L1558.71 1966.17 L1564.11 1960.77 L1566.89 1963.55 L1552.82 1977.63 L1550.03 1974.85 Z" fill="#000000" fill-rule="evenodd" fill-opacity="1" /><path clip-path="url(#clip220)" d="M1509.68 2039 L1528.88 2019.8 L1531.4 2022.32 L1535.08 2056.9 L1550.91 2041.07 L1553.69 2043.86 L1533.74 2063.81 L1531.22 2061.29 L1527.54 2026.7 L1512.46 2041.78 L1509.68 2039 Z" fill="#000000" fill-rule="evenodd" fill-opacity="1" /><path clip-path="url(#clip220)" d="M1534.05 2014.62 L1548.09 2000.58 L1550.88 2003.36 L1540.14 2014.1 L1547.34 2021.3 L1557.03 2011.61 L1559.81 2014.39 L1550.12 2024.08 L1561.79 2035.75 L1558.49 2039.06 L1534.05 2014.62 Z" fill="#000000" fill-rule="evenodd" fill-opacity="1" /><path clip-path="url(#clip220)" d="M1559.36 1994.75 L1568.54 2003.94 L1572.7 1999.78 Q1575 1997.47 1575.07 1995.01 Q1575.13 1992.56 1572.92 1990.35 Q1570.73 1988.16 1568.28 1988.22 Q1565.82 1988.29 1563.51 1990.6 L1559.36 1994.75 M1553.33 1995.34 L1560.8 1987.88 Q1564.9 1983.77 1568.87 1983.54 Q1572.83 1983.28 1576.41 1986.86 Q1580.03 1990.48 1579.77 1994.44 Q1579.52 1998.39 1575.41 2002.49 L1571.25 2006.65 L1581.08 2016.47 L1577.77 2019.78 L1553.33 1995.34 Z" fill="#000000" fill-rule="evenodd" fill-opacity="1" /><path clip-path="url(#clip220)" d="M1585.81 1968.63 L1590.5 1990.02 L1598.85 1981.67 L1585.81 1968.63 M1582.06 1966.62 L1586.22 1962.46 L1602.14 1978.38 L1605.63 1974.9 L1608.38 1977.65 L1604.89 1981.13 L1610.65 1986.9 L1607.36 1990.19 L1601.6 1984.42 L1590.57 1995.46 L1587.38 1992.26 L1582.06 1966.62 Z" fill="#000000" fill-rule="evenodd" fill-opacity="1" /><path clip-path="url(#clip220)" d="M1619.67 1972.31 L1631.21 1960.77 L1633.99 1963.55 L1618.48 1979.07 L1615.69 1976.29 Q1615.63 1972.46 1615.6 1965.94 Q1615.56 1959.4 1615.45 1957.61 Q1615.25 1954.24 1614.65 1952.39 Q1614.04 1950.51 1612.85 1949.31 Q1610.9 1947.37 1608.3 1947.51 Q1605.71 1947.65 1603.52 1949.84 Q1601.96 1951.39 1600.77 1953.67 Q1599.59 1955.93 1598.72 1958.99 L1595.38 1955.65 Q1596.58 1952.85 1597.9 1950.71 Q1599.23 1948.56 1600.67 1947.12 Q1604.47 1943.32 1608.62 1942.96 Q1612.78 1942.6 1615.96 1945.78 Q1617.46 1947.28 1618.25 1949.22 Q1619.03 1951.12 1619.38 1954.44 Q1619.44 1955.32 1619.52 1959.79 Q1619.59 1964.24 1619.67 1972.31 Z" fill="#000000" fill-rule="evenodd" fill-opacity="1" /><path clip-path="url(#clip220)" d="M1619.92 2001.28 L1629.11 2010.47 L1633.26 2006.31 Q1635.57 2004 1635.64 2001.55 Q1635.7 1999.09 1633.49 1996.88 Q1631.3 1994.69 1628.85 1994.75 Q1626.39 1994.82 1624.08 1997.13 L1619.92 2001.28 M1613.9 2001.87 L1621.36 1994.41 Q1625.47 1990.3 1629.43 1990.07 Q1633.4 1989.81 1636.98 1993.39 Q1640.6 1997.01 1640.34 2000.97 Q1640.09 2004.92 1635.98 2009.03 L1631.82 2013.18 L1641.65 2023 L1638.34 2026.31 L1613.9 2001.87 Z" fill="#000000" fill-rule="evenodd" fill-opacity="1" /><path clip-path="url(#clip220)" d="M1634.12 1981.66 L1637.42 1978.35 L1647.44 1988.37 L1659.45 1976.35 L1649.44 1966.34 L1652.74 1963.03 L1677.18 1987.47 L1673.87 1990.78 L1662.24 1979.14 L1650.22 1991.15 L1661.86 2002.79 L1658.55 2006.1 L1634.12 1981.66 Z" fill="#000000" fill-rule="evenodd" fill-opacity="1" /><path clip-path="url(#clip220)" d="M1675.4 1965.91 L1684.35 1974.87 L1689.65 1969.56 Q1692.32 1966.89 1692.5 1964.52 Q1692.68 1962.11 1690.41 1959.84 Q1688.11 1957.55 1685.74 1957.76 Q1683.37 1957.94 1680.7 1960.61 L1675.4 1965.91 M1665.35 1955.86 L1672.71 1963.23 L1677.61 1958.33 Q1680.03 1955.91 1680.31 1953.83 Q1680.58 1951.72 1678.72 1949.85 Q1676.87 1948.01 1674.76 1948.28 Q1672.66 1948.55 1670.24 1950.97 L1665.35 1955.86 M1659.32 1956.45 L1667.77 1948.01 Q1671.55 1944.22 1675.17 1943.75 Q1678.78 1943.27 1681.68 1946.17 Q1683.92 1948.41 1684.2 1950.79 Q1684.48 1953.16 1682.78 1955.52 Q1685.74 1953.6 1688.75 1953.93 Q1691.76 1954.23 1694.25 1956.71 Q1697.53 1959.99 1697.08 1964 Q1696.64 1968.01 1692.53 1972.12 L1683.76 1980.89 L1659.32 1956.45 Z" fill="#000000" fill-rule="evenodd" fill-opacity="1" /><path clip-path="url(#clip220)" d="M1658.58 2024.3 L1679.25 2003.62 L1682.03 2006.41 L1673.36 2015.08 L1695.01 2036.74 L1691.69 2040.06 L1670.03 2018.4 L1661.36 2027.08 L1658.58 2024.3 Z" fill="#000000" fill-rule="evenodd" fill-opacity="1" /><path clip-path="url(#clip220)" d="M1698.52 2009.89 L1707.47 2018.85 L1712.77 2013.54 Q1715.44 2010.88 1715.62 2008.5 Q1715.8 2006.1 1713.52 2003.82 Q1711.23 2001.53 1708.86 2001.74 Q1706.49 2001.92 1703.82 2004.59 L1698.52 2009.89 M1688.47 1999.84 L1695.83 2007.21 L1700.72 2002.31 Q1703.15 1999.89 1703.43 1997.81 Q1703.7 1995.7 1701.84 1993.84 Q1699.99 1991.99 1697.88 1992.26 Q1695.78 1992.53 1693.36 1994.95 L1688.47 1999.84 M1682.44 2000.43 L1690.89 1991.99 Q1694.67 1988.21 1698.29 1987.73 Q1701.9 1987.26 1704.8 1990.15 Q1707.04 1992.4 1707.32 1994.77 Q1707.6 1997.14 1705.9 1999.5 Q1708.86 1997.58 1711.87 1997.91 Q1714.88 1998.21 1717.37 2000.69 Q1720.64 2003.97 1720.2 2007.98 Q1719.76 2011.99 1715.65 2016.1 L1706.88 2024.87 L1682.44 2000.43 Z" fill="#000000" fill-rule="evenodd" fill-opacity="1" /><path clip-path="url(#clip220)" d="M1704.26 1978.61 L1707.81 1975.06 L1722.97 1978.07 L1719.99 1962.88 L1723.54 1959.33 L1727.42 1978.92 L1748.5 1983.25 L1744.95 1986.8 L1727.68 1983.28 L1731.15 2000.6 L1727.58 2004.16 L1723.26 1982.39 L1704.26 1978.61 Z" fill="#000000" fill-rule="evenodd" fill-opacity="1" /><path clip-path="url(#clip220)" d="M1749.98 1955.42 Q1752.86 1953.55 1755.79 1953.83 Q1758.73 1954.09 1761.09 1956.45 Q1764.71 1960.07 1764.2 1964.54 Q1763.69 1969.01 1759.11 1973.59 Q1757.57 1975.13 1755.62 1976.45 Q1753.71 1977.78 1751.37 1978.91 L1748.18 1975.72 Q1750.35 1975.14 1752.4 1973.92 Q1754.44 1972.69 1756.23 1970.9 Q1759.34 1967.79 1759.73 1964.95 Q1760.14 1962.08 1757.8 1959.74 Q1755.64 1957.58 1752.91 1957.89 Q1750.17 1958.17 1747.47 1960.87 L1744.62 1963.72 L1741.91 1961 L1744.89 1958.02 Q1747.32 1955.58 1747.65 1953.32 Q1747.96 1951.05 1746.13 1949.22 Q1744.25 1947.33 1741.91 1947.68 Q1739.57 1947.99 1737.08 1950.48 Q1735.72 1951.84 1734.46 1953.68 Q1733.2 1955.53 1731.96 1958.02 L1729.01 1955.08 Q1730.37 1952.67 1731.74 1950.77 Q1733.13 1948.86 1734.59 1947.4 Q1738.36 1943.63 1742.27 1943.16 Q1746.16 1942.67 1749.08 1945.58 Q1751.11 1947.61 1751.35 1950.18 Q1751.58 1952.74 1749.98 1955.42 Z" fill="#000000" fill-rule="evenodd" fill-opacity="1" /><path clip-path="url(#clip220)" d="M1706.8 2043.17 L1727.48 2022.5 L1730.26 2025.28 L1721.58 2033.95 L1743.24 2055.61 L1739.92 2058.93 L1718.26 2037.28 L1709.59 2045.95 L1706.8 2043.17 Z" fill="#000000" fill-rule="evenodd" fill-opacity="1" /><path clip-path="url(#clip220)" d="M1755.24 2020.7 Q1756.66 2019.99 1758.84 2020.17 Q1761.03 2020.34 1764.11 2021.38 L1774.14 2024.71 L1770.59 2028.26 L1761.2 2025.12 Q1757.53 2023.87 1755.58 2024.22 Q1753.65 2024.54 1751.69 2026.51 L1748.08 2030.11 L1758.41 2040.44 L1755.11 2043.74 L1730.67 2019.3 L1738.13 2011.84 Q1742.32 2007.65 1746.14 2007.34 Q1749.95 2007.03 1753.49 2010.56 Q1755.79 2012.87 1756.24 2015.47 Q1756.69 2018.06 1755.24 2020.7 M1736.69 2018.72 L1745.37 2027.39 L1749.53 2023.23 Q1751.92 2020.84 1752.03 2018.54 Q1752.14 2016.19 1750 2014.05 Q1747.86 2011.91 1745.55 2012.05 Q1743.24 2012.17 1740.85 2014.56 L1736.69 2018.72 Z" fill="#000000" fill-rule="evenodd" fill-opacity="1" /><path clip-path="url(#clip220)" d="M1759.98 1995.42 L1769.17 2004.61 L1773.32 2000.45 Q1775.63 1998.14 1775.7 1995.69 Q1775.76 1993.23 1773.55 1991.02 Q1771.36 1988.83 1768.91 1988.89 Q1766.45 1988.96 1764.14 1991.27 L1759.98 1995.42 M1753.96 1996.01 L1761.42 1988.55 Q1765.53 1984.44 1769.49 1984.21 Q1773.46 1983.95 1777.04 1987.53 Q1780.66 1991.15 1780.4 1995.11 Q1780.15 1999.06 1776.04 2003.17 L1771.88 2007.32 L1781.71 2017.14 L1778.4 2020.45 L1753.96 1996.01 Z" fill="#000000" fill-rule="evenodd" fill-opacity="1" /><path clip-path="url(#clip220)" d="M1774.5 1975.47 L1787.48 1962.49 L1790.27 1965.27 L1780.31 1975.23 L1786.3 1981.22 Q1786.78 1980.25 1787.38 1979.42 Q1787.97 1978.56 1788.69 1977.84 Q1792.79 1973.75 1797.42 1973.6 Q1802.05 1973.46 1805.88 1977.29 Q1809.83 1981.23 1809.56 1985.88 Q1809.29 1990.51 1804.82 1994.98 Q1803.28 1996.52 1801.41 1997.86 Q1799.56 1999.19 1797.34 2000.37 L1794.01 1997.04 Q1796.29 1996.37 1798.25 1995.19 Q1800.22 1994.02 1801.97 1992.26 Q1804.8 1989.43 1804.96 1986.29 Q1805.13 1983.15 1802.57 1980.59 Q1800.02 1978.04 1796.88 1978.2 Q1793.74 1978.37 1790.9 1981.2 Q1789.58 1982.53 1788.55 1984.15 Q1787.53 1985.75 1786.78 1987.75 L1774.5 1975.47 Z" fill="#000000" fill-rule="evenodd" fill-opacity="1" /><path clip-path="url(#clip220)" d="M1817.08 1955.42 Q1819.96 1953.55 1822.89 1953.83 Q1825.83 1954.09 1828.19 1956.45 Q1831.81 1960.07 1831.3 1964.54 Q1830.79 1969.01 1826.21 1973.59 Q1824.67 1975.13 1822.72 1976.45 Q1820.81 1977.78 1818.47 1978.91 L1815.28 1975.72 Q1817.45 1975.14 1819.5 1973.92 Q1821.55 1972.69 1823.33 1970.9 Q1826.44 1967.79 1826.83 1964.95 Q1827.24 1962.08 1824.9 1959.74 Q1822.74 1957.58 1820.01 1957.89 Q1817.27 1958.17 1814.57 1960.87 L1811.72 1963.72 L1809.01 1961 L1811.99 1958.02 Q1814.42 1955.58 1814.75 1953.32 Q1815.06 1951.05 1813.23 1949.22 Q1811.35 1947.33 1809.01 1947.68 Q1806.67 1947.99 1804.18 1950.48 Q1802.82 1951.84 1801.56 1953.68 Q1800.3 1955.53 1799.06 1958.02 L1796.11 1955.08 Q1797.47 1952.67 1798.84 1950.77 Q1800.23 1948.86 1801.69 1947.4 Q1805.46 1943.63 1809.37 1943.16 Q1813.26 1942.67 1816.18 1945.58 Q1818.21 1947.61 1818.45 1950.18 Q1818.68 1952.74 1817.08 1955.42 Z" fill="#000000" fill-rule="evenodd" fill-opacity="1" /><polyline clip-path="url(#clip222)" style="stroke:#000000; stroke-linecap:round; stroke-linejoin:round; stroke-width:2; stroke-opacity:0.1; fill:none" points="
  82.9921,1864.09 1952.76,1864.09 
  "/>
<polyline clip-path="url(#clip222)" style="stroke:#000000; stroke-linecap:round; stroke-linejoin:round; stroke-width:2; stroke-opacity:0.1; fill:none" points="
  82.9921,1410.3 1952.76,1410.3 
  "/>
<polyline clip-path="url(#clip222)" style="stroke:#000000; stroke-linecap:round; stroke-linejoin:round; stroke-width:2; stroke-opacity:0.1; fill:none" points="
  82.9921,956.513 1952.76,956.513 
  "/>
<polyline clip-path="url(#clip222)" style="stroke:#000000; stroke-linecap:round; stroke-linejoin:round; stroke-width:2; stroke-opacity:0.1; fill:none" points="
  82.9921,502.724 1952.76,502.724 
  "/>
<polyline clip-path="url(#clip222)" style="stroke:#000000; stroke-linecap:round; stroke-linejoin:round; stroke-width:2; stroke-opacity:0.1; fill:none" points="
  82.9921,48.9357 1952.76,48.9357 
  "/>
<polyline clip-path="url(#clip220)" style="stroke:#000000; stroke-linecap:round; stroke-linejoin:round; stroke-width:4; stroke-opacity:1; fill:none" points="
  82.9921,1917.01 82.9921,47.2441 
  "/>
<polyline clip-path="url(#clip220)" style="stroke:#000000; stroke-linecap:round; stroke-linejoin:round; stroke-width:4; stroke-opacity:1; fill:none" points="
  82.9921,1864.09 101.89,1864.09 
  "/>
<polyline clip-path="url(#clip220)" style="stroke:#000000; stroke-linecap:round; stroke-linejoin:round; stroke-width:4; stroke-opacity:1; fill:none" points="
  82.9921,1410.3 101.89,1410.3 
  "/>
<polyline clip-path="url(#clip220)" style="stroke:#000000; stroke-linecap:round; stroke-linejoin:round; stroke-width:4; stroke-opacity:1; fill:none" points="
  82.9921,956.513 101.89,956.513 
  "/>
<polyline clip-path="url(#clip220)" style="stroke:#000000; stroke-linecap:round; stroke-linejoin:round; stroke-width:4; stroke-opacity:1; fill:none" points="
  82.9921,502.724 101.89,502.724 
  "/>
<polyline clip-path="url(#clip220)" style="stroke:#000000; stroke-linecap:round; stroke-linejoin:round; stroke-width:4; stroke-opacity:1; fill:none" points="
  82.9921,48.9357 101.89,48.9357 
  "/>
<path clip-path="url(#clip220)" d="M-4.18349 1849.89 Q-7.79459 1849.89 -9.62328 1853.45 Q-11.4288 1857 -11.4288 1864.12 Q-11.4288 1871.23 -9.62328 1874.8 Q-7.79459 1878.34 -4.18349 1878.34 Q-0.549254 1878.34 1.25629 1874.8 Q3.08499 1871.23 3.08499 1864.12 Q3.08499 1857 1.25629 1853.45 Q-0.549254 1849.89 -4.18349 1849.89 M-4.18349 1846.19 Q1.62666 1846.19 4.6822 1850.79 Q7.76089 1855.37 7.76089 1864.12 Q7.76089 1872.85 4.6822 1877.46 Q1.62666 1882.04 -4.18349 1882.04 Q-9.99365 1882.04 -13.0723 1877.46 Q-16.1279 1872.85 -16.1279 1864.12 Q-16.1279 1855.37 -13.0723 1850.79 Q-9.99365 1846.19 -4.18349 1846.19 Z" fill="#000000" fill-rule="evenodd" fill-opacity="1" /><path clip-path="url(#clip220)" d="M15.9784 1875.49 L20.8627 1875.49 L20.8627 1881.37 L15.9784 1881.37 L15.9784 1875.49 Z" fill="#000000" fill-rule="evenodd" fill-opacity="1" /><path clip-path="url(#clip220)" d="M41.0477 1849.89 Q37.4367 1849.89 35.608 1853.45 Q33.8024 1857 33.8024 1864.12 Q33.8024 1871.23 35.608 1874.8 Q37.4367 1878.34 41.0477 1878.34 Q44.682 1878.34 46.4875 1874.8 Q48.3162 1871.23 48.3162 1864.12 Q48.3162 1857 46.4875 1853.45 Q44.682 1849.89 41.0477 1849.89 M41.0477 1846.19 Q46.8579 1846.19 49.9134 1850.79 Q52.9921 1855.37 52.9921 1864.12 Q52.9921 1872.85 49.9134 1877.46 Q46.8579 1882.04 41.0477 1882.04 Q35.2376 1882.04 32.1589 1877.46 Q29.1034 1872.85 29.1034 1864.12 Q29.1034 1855.37 32.1589 1850.79 Q35.2376 1846.19 41.0477 1846.19 Z" fill="#000000" fill-rule="evenodd" fill-opacity="1" /><path clip-path="url(#clip220)" d="M-3.18813 1396.1 Q-6.79922 1396.1 -8.62791 1399.66 Q-10.4335 1403.21 -10.4335 1410.34 Q-10.4335 1417.44 -8.62791 1421.01 Q-6.79922 1424.55 -3.18813 1424.55 Q0.446111 1424.55 2.25166 1421.01 Q4.08035 1417.44 4.08035 1410.34 Q4.08035 1403.21 2.25166 1399.66 Q0.446111 1396.1 -3.18813 1396.1 M-3.18813 1392.4 Q2.62203 1392.4 5.67756 1397 Q8.75625 1401.59 8.75625 1410.34 Q8.75625 1419.06 5.67756 1423.67 Q2.62203 1428.25 -3.18813 1428.25 Q-8.99828 1428.25 -12.077 1423.67 Q-15.1325 1419.06 -15.1325 1410.34 Q-15.1325 1401.59 -12.077 1397 Q-8.99828 1392.4 -3.18813 1392.4 Z" fill="#000000" fill-rule="evenodd" fill-opacity="1" /><path clip-path="url(#clip220)" d="M16.9738 1421.7 L21.858 1421.7 L21.858 1427.58 L16.9738 1427.58 L16.9738 1421.7 Z" fill="#000000" fill-rule="evenodd" fill-opacity="1" /><path clip-path="url(#clip220)" d="M32.0895 1393.02 L50.4458 1393.02 L50.4458 1396.96 L36.3718 1396.96 L36.3718 1405.43 Q37.3904 1405.08 38.4089 1404.92 Q39.4274 1404.73 40.4459 1404.73 Q46.2329 1404.73 49.6125 1407.91 Q52.9921 1411.08 52.9921 1416.49 Q52.9921 1422.07 49.5199 1425.17 Q46.0477 1428.25 39.7283 1428.25 Q37.5524 1428.25 35.2839 1427.88 Q33.0385 1427.51 30.6311 1426.77 L30.6311 1422.07 Q32.7145 1423.21 34.9367 1423.76 Q37.1589 1424.32 39.6357 1424.32 Q43.6403 1424.32 45.9783 1422.21 Q48.3162 1420.1 48.3162 1416.49 Q48.3162 1412.88 45.9783 1410.78 Q43.6403 1408.67 39.6357 1408.67 Q37.7607 1408.67 35.8857 1409.09 Q34.0339 1409.5 32.0895 1410.38 L32.0895 1393.02 Z" fill="#000000" fill-rule="evenodd" fill-opacity="1" /><path clip-path="url(#clip220)" d="M-13.3733 969.858 L-5.73441 969.858 L-5.73441 943.492 L-14.0446 945.159 L-14.0446 940.9 L-5.78071 939.233 L-1.10481 939.233 L-1.10481 969.858 L6.53404 969.858 L6.53404 973.793 L-13.3733 973.793 L-13.3733 969.858 Z" fill="#000000" fill-rule="evenodd" fill-opacity="1" /><path clip-path="url(#clip220)" d="M15.9784 967.913 L20.8627 967.913 L20.8627 973.793 L15.9784 973.793 L15.9784 967.913 Z" fill="#000000" fill-rule="evenodd" fill-opacity="1" /><path clip-path="url(#clip220)" d="M41.0477 942.312 Q37.4367 942.312 35.608 945.876 Q33.8024 949.418 33.8024 956.548 Q33.8024 963.654 35.608 967.219 Q37.4367 970.76 41.0477 970.76 Q44.682 970.76 46.4875 967.219 Q48.3162 963.654 48.3162 956.548 Q48.3162 949.418 46.4875 945.876 Q44.682 942.312 41.0477 942.312 M41.0477 938.608 Q46.8579 938.608 49.9134 943.214 Q52.9921 947.798 52.9921 956.548 Q52.9921 965.274 49.9134 969.881 Q46.8579 974.464 41.0477 974.464 Q35.2376 974.464 32.1589 969.881 Q29.1034 965.274 29.1034 956.548 Q29.1034 947.798 32.1589 943.214 Q35.2376 938.608 41.0477 938.608 Z" fill="#000000" fill-rule="evenodd" fill-opacity="1" /><path clip-path="url(#clip220)" d="M-12.3779 516.069 L-4.73905 516.069 L-4.73905 489.704 L-13.0492 491.37 L-13.0492 487.111 L-4.78534 485.444 L-0.109441 485.444 L-0.109441 516.069 L7.52941 516.069 L7.52941 520.004 L-12.3779 520.004 L-12.3779 516.069 Z" fill="#000000" fill-rule="evenodd" fill-opacity="1" /><path clip-path="url(#clip220)" d="M16.9738 514.125 L21.858 514.125 L21.858 520.004 L16.9738 520.004 L16.9738 514.125 Z" fill="#000000" fill-rule="evenodd" fill-opacity="1" /><path clip-path="url(#clip220)" d="M32.0895 485.444 L50.4458 485.444 L50.4458 489.379 L36.3718 489.379 L36.3718 497.852 Q37.3904 497.504 38.4089 497.342 Q39.4274 497.157 40.4459 497.157 Q46.2329 497.157 49.6125 500.328 Q52.9921 503.5 52.9921 508.916 Q52.9921 514.495 49.5199 517.597 Q46.0477 520.676 39.7283 520.676 Q37.5524 520.676 35.2839 520.305 Q33.0385 519.935 30.6311 519.194 L30.6311 514.495 Q32.7145 515.629 34.9367 516.185 Q37.1589 516.74 39.6357 516.74 Q43.6403 516.74 45.9783 514.634 Q48.3162 512.527 48.3162 508.916 Q48.3162 505.305 45.9783 503.199 Q43.6403 501.092 39.6357 501.092 Q37.7607 501.092 35.8857 501.509 Q34.0339 501.926 32.0895 502.805 L32.0895 485.444 Z" fill="#000000" fill-rule="evenodd" fill-opacity="1" /><path clip-path="url(#clip220)" d="M-10.1557 62.2806 L6.16367 62.2806 L6.16367 66.2157 L-15.7807 66.2157 L-15.7807 62.2806 Q-13.1186 59.5259 -8.53532 54.8963 Q-3.92887 50.2436 -2.74832 48.901 Q-0.502958 46.3779 0.376667 44.6418 Q1.27944 42.8825 1.27944 41.1927 Q1.27944 38.4381 -0.664994 36.702 Q-2.58628 34.9659 -5.68812 34.9659 Q-7.88718 34.9659 -10.3409 35.7298 Q-12.7714 36.4937 -15.5492 38.0446 L-15.5492 33.3224 Q-12.7251 32.1881 -10.2714 31.6094 Q-7.81773 31.0307 -5.78071 31.0307 Q-0.410366 31.0307 2.78406 33.7159 Q5.97849 36.4011 5.97849 40.8918 Q5.97849 43.0214 5.16831 44.9427 Q4.38128 46.8408 2.27481 49.4334 Q1.6961 50.1047 -1.40573 53.3223 Q-4.50757 56.5167 -10.1557 62.2806 Z" fill="#000000" fill-rule="evenodd" fill-opacity="1" /><path clip-path="url(#clip220)" d="M15.9784 60.3361 L20.8627 60.3361 L20.8627 66.2157 L15.9784 66.2157 L15.9784 60.3361 Z" fill="#000000" fill-rule="evenodd" fill-opacity="1" /><path clip-path="url(#clip220)" d="M41.0477 34.7344 Q37.4367 34.7344 35.608 38.2992 Q33.8024 41.8409 33.8024 48.9704 Q33.8024 56.0769 35.608 59.6417 Q37.4367 63.1833 41.0477 63.1833 Q44.682 63.1833 46.4875 59.6417 Q48.3162 56.0769 48.3162 48.9704 Q48.3162 41.8409 46.4875 38.2992 Q44.682 34.7344 41.0477 34.7344 M41.0477 31.0307 Q46.8579 31.0307 49.9134 35.6372 Q52.9921 40.2205 52.9921 48.9704 Q52.9921 57.6973 49.9134 62.3037 Q46.8579 66.887 41.0477 66.887 Q35.2376 66.887 32.1589 62.3037 Q29.1034 57.6973 29.1034 48.9704 Q29.1034 40.2205 32.1589 35.6372 Q35.2376 31.0307 41.0477 31.0307 Z" fill="#000000" fill-rule="evenodd" fill-opacity="1" /><path clip-path="url(#clip222)" d="
M185.832 100.162 L185.832 1864.09 L239.513 1864.09 L239.513 100.162 L185.832 100.162 L185.832 100.162  Z
  " fill="#009af9" fill-rule="evenodd" fill-opacity="1"/>
<polyline clip-path="url(#clip222)" style="stroke:#000000; stroke-linecap:round; stroke-linejoin:round; stroke-width:4; stroke-opacity:1; fill:none" points="
  185.832,100.162 185.832,1864.09 239.513,1864.09 239.513,100.162 185.832,100.162 
  "/>
<path clip-path="url(#clip222)" d="
M252.933 191.744 L252.933 1864.09 L306.613 1864.09 L306.613 191.744 L252.933 191.744 L252.933 191.744  Z
  " fill="#009af9" fill-rule="evenodd" fill-opacity="1"/>
<polyline clip-path="url(#clip222)" style="stroke:#000000; stroke-linecap:round; stroke-linejoin:round; stroke-width:4; stroke-opacity:1; fill:none" points="
  252.933,191.744 252.933,1864.09 306.613,1864.09 306.613,191.744 252.933,191.744 
  "/>
<path clip-path="url(#clip222)" d="
M320.033 330.098 L320.033 1864.09 L373.713 1864.09 L373.713 330.098 L320.033 330.098 L320.033 330.098  Z
  " fill="#009af9" fill-rule="evenodd" fill-opacity="1"/>
<polyline clip-path="url(#clip222)" style="stroke:#000000; stroke-linecap:round; stroke-linejoin:round; stroke-width:4; stroke-opacity:1; fill:none" points="
  320.033,330.098 320.033,1864.09 373.713,1864.09 373.713,330.098 320.033,330.098 
  "/>
<path clip-path="url(#clip222)" d="
M387.133 443.409 L387.133 1864.09 L440.813 1864.09 L440.813 443.409 L387.133 443.409 L387.133 443.409  Z
  " fill="#009af9" fill-rule="evenodd" fill-opacity="1"/>
<polyline clip-path="url(#clip222)" style="stroke:#000000; stroke-linecap:round; stroke-linejoin:round; stroke-width:4; stroke-opacity:1; fill:none" points="
  387.133,443.409 387.133,1864.09 440.813,1864.09 440.813,443.409 387.133,443.409 
  "/>
<path clip-path="url(#clip222)" d="
M454.233 641.645 L454.233 1864.09 L507.913 1864.09 L507.913 641.645 L454.233 641.645 L454.233 641.645  Z
  " fill="#009af9" fill-rule="evenodd" fill-opacity="1"/>
<polyline clip-path="url(#clip222)" style="stroke:#000000; stroke-linecap:round; stroke-linejoin:round; stroke-width:4; stroke-opacity:1; fill:none" points="
  454.233,641.645 454.233,1864.09 507.913,1864.09 507.913,641.645 454.233,641.645 
  "/>
<path clip-path="url(#clip222)" d="
M521.333 667.25 L521.333 1864.09 L575.013 1864.09 L575.013 667.25 L521.333 667.25 L521.333 667.25  Z
  " fill="#009af9" fill-rule="evenodd" fill-opacity="1"/>
<polyline clip-path="url(#clip222)" style="stroke:#000000; stroke-linecap:round; stroke-linejoin:round; stroke-width:4; stroke-opacity:1; fill:none" points="
  521.333,667.25 521.333,1864.09 575.013,1864.09 575.013,667.25 521.333,667.25 
  "/>
<path clip-path="url(#clip222)" d="
M588.433 715.439 L588.433 1864.09 L642.113 1864.09 L642.113 715.439 L588.433 715.439 L588.433 715.439  Z
  " fill="#009af9" fill-rule="evenodd" fill-opacity="1"/>
<polyline clip-path="url(#clip222)" style="stroke:#000000; stroke-linecap:round; stroke-linejoin:round; stroke-width:4; stroke-opacity:1; fill:none" points="
  588.433,715.439 588.433,1864.09 642.113,1864.09 642.113,715.439 588.433,715.439 
  "/>
<path clip-path="url(#clip222)" d="
M655.533 721.897 L655.533 1864.09 L709.213 1864.09 L709.213 721.897 L655.533 721.897 L655.533 721.897  Z
  " fill="#009af9" fill-rule="evenodd" fill-opacity="1"/>
<polyline clip-path="url(#clip222)" style="stroke:#000000; stroke-linecap:round; stroke-linejoin:round; stroke-width:4; stroke-opacity:1; fill:none" points="
  655.533,721.897 655.533,1864.09 709.213,1864.09 709.213,721.897 655.533,721.897 
  "/>
<path clip-path="url(#clip222)" d="
M722.633 725.919 L722.633 1864.09 L776.314 1864.09 L776.314 725.919 L722.633 725.919 L722.633 725.919  Z
  " fill="#009af9" fill-rule="evenodd" fill-opacity="1"/>
<polyline clip-path="url(#clip222)" style="stroke:#000000; stroke-linecap:round; stroke-linejoin:round; stroke-width:4; stroke-opacity:1; fill:none" points="
  722.633,725.919 722.633,1864.09 776.314,1864.09 776.314,725.919 722.633,725.919 
  "/>
<path clip-path="url(#clip222)" d="
M789.734 754.244 L789.734 1864.09 L843.414 1864.09 L843.414 754.244 L789.734 754.244 L789.734 754.244  Z
  " fill="#009af9" fill-rule="evenodd" fill-opacity="1"/>
<polyline clip-path="url(#clip222)" style="stroke:#000000; stroke-linecap:round; stroke-linejoin:round; stroke-width:4; stroke-opacity:1; fill:none" points="
  789.734,754.244 789.734,1864.09 843.414,1864.09 843.414,754.244 789.734,754.244 
  "/>
<path clip-path="url(#clip222)" d="
M856.834 755.33 L856.834 1864.09 L910.514 1864.09 L910.514 755.33 L856.834 755.33 L856.834 755.33  Z
  " fill="#009af9" fill-rule="evenodd" fill-opacity="1"/>
<polyline clip-path="url(#clip222)" style="stroke:#000000; stroke-linecap:round; stroke-linejoin:round; stroke-width:4; stroke-opacity:1; fill:none" points="
  856.834,755.33 856.834,1864.09 910.514,1864.09 910.514,755.33 856.834,755.33 
  "/>
<path clip-path="url(#clip222)" d="
M923.934 766.837 L923.934 1864.09 L977.614 1864.09 L977.614 766.837 L923.934 766.837 L923.934 766.837  Z
  " fill="#009af9" fill-rule="evenodd" fill-opacity="1"/>
<polyline clip-path="url(#clip222)" style="stroke:#000000; stroke-linecap:round; stroke-linejoin:round; stroke-width:4; stroke-opacity:1; fill:none" points="
  923.934,766.837 923.934,1864.09 977.614,1864.09 977.614,766.837 923.934,766.837 
  "/>
<path clip-path="url(#clip222)" d="
M991.034 833.132 L991.034 1864.09 L1044.71 1864.09 L1044.71 833.132 L991.034 833.132 L991.034 833.132  Z
  " fill="#009af9" fill-rule="evenodd" fill-opacity="1"/>
<polyline clip-path="url(#clip222)" style="stroke:#000000; stroke-linecap:round; stroke-linejoin:round; stroke-width:4; stroke-opacity:1; fill:none" points="
  991.034,833.132 991.034,1864.09 1044.71,1864.09 1044.71,833.132 991.034,833.132 
  "/>
<path clip-path="url(#clip222)" d="
M1058.13 843.513 L1058.13 1864.09 L1111.81 1864.09 L1111.81 843.513 L1058.13 843.513 L1058.13 843.513  Z
  " fill="#009af9" fill-rule="evenodd" fill-opacity="1"/>
<polyline clip-path="url(#clip222)" style="stroke:#000000; stroke-linecap:round; stroke-linejoin:round; stroke-width:4; stroke-opacity:1; fill:none" points="
  1058.13,843.513 1058.13,1864.09 1111.81,1864.09 1111.81,843.513 1058.13,843.513 
  "/>
<path clip-path="url(#clip222)" d="
M1125.23 850.984 L1125.23 1864.09 L1178.91 1864.09 L1178.91 850.984 L1125.23 850.984 L1125.23 850.984  Z
  " fill="#009af9" fill-rule="evenodd" fill-opacity="1"/>
<polyline clip-path="url(#clip222)" style="stroke:#000000; stroke-linecap:round; stroke-linejoin:round; stroke-width:4; stroke-opacity:1; fill:none" points="
  1125.23,850.984 1125.23,1864.09 1178.91,1864.09 1178.91,850.984 1125.23,850.984 
  "/>
<path clip-path="url(#clip222)" d="
M1192.33 854.854 L1192.33 1864.09 L1246.01 1864.09 L1246.01 854.854 L1192.33 854.854 L1192.33 854.854  Z
  " fill="#009af9" fill-rule="evenodd" fill-opacity="1"/>
<polyline clip-path="url(#clip222)" style="stroke:#000000; stroke-linecap:round; stroke-linejoin:round; stroke-width:4; stroke-opacity:1; fill:none" points="
  1192.33,854.854 1192.33,1864.09 1246.01,1864.09 1246.01,854.854 1192.33,854.854 
  "/>
<path clip-path="url(#clip222)" d="
M1259.43 857.798 L1259.43 1864.09 L1313.11 1864.09 L1313.11 857.798 L1259.43 857.798 L1259.43 857.798  Z
  " fill="#009af9" fill-rule="evenodd" fill-opacity="1"/>
<polyline clip-path="url(#clip222)" style="stroke:#000000; stroke-linecap:round; stroke-linejoin:round; stroke-width:4; stroke-opacity:1; fill:none" points="
  1259.43,857.798 1259.43,1864.09 1313.11,1864.09 1313.11,857.798 1259.43,857.798 
  "/>
<path clip-path="url(#clip222)" d="
M1326.53 865.618 L1326.53 1864.09 L1380.21 1864.09 L1380.21 865.618 L1326.53 865.618 L1326.53 865.618  Z
  " fill="#009af9" fill-rule="evenodd" fill-opacity="1"/>
<polyline clip-path="url(#clip222)" style="stroke:#000000; stroke-linecap:round; stroke-linejoin:round; stroke-width:4; stroke-opacity:1; fill:none" points="
  1326.53,865.618 1326.53,1864.09 1380.21,1864.09 1380.21,865.618 1326.53,865.618 
  "/>
<path clip-path="url(#clip222)" d="
M1393.63 889.868 L1393.63 1864.09 L1447.31 1864.09 L1447.31 889.868 L1393.63 889.868 L1393.63 889.868  Z
  " fill="#009af9" fill-rule="evenodd" fill-opacity="1"/>
<polyline clip-path="url(#clip222)" style="stroke:#000000; stroke-linecap:round; stroke-linejoin:round; stroke-width:4; stroke-opacity:1; fill:none" points="
  1393.63,889.868 1393.63,1864.09 1447.31,1864.09 1447.31,889.868 1393.63,889.868 
  "/>
<path clip-path="url(#clip222)" d="
M1460.73 897.733 L1460.73 1864.09 L1514.41 1864.09 L1514.41 897.733 L1460.73 897.733 L1460.73 897.733  Z
  " fill="#009af9" fill-rule="evenodd" fill-opacity="1"/>
<polyline clip-path="url(#clip222)" style="stroke:#000000; stroke-linecap:round; stroke-linejoin:round; stroke-width:4; stroke-opacity:1; fill:none" points="
  1460.73,897.733 1460.73,1864.09 1514.41,1864.09 1514.41,897.733 1460.73,897.733 
  "/>
<path clip-path="url(#clip222)" d="
M1527.83 922.629 L1527.83 1864.09 L1581.52 1864.09 L1581.52 922.629 L1527.83 922.629 L1527.83 922.629  Z
  " fill="#009af9" fill-rule="evenodd" fill-opacity="1"/>
<polyline clip-path="url(#clip222)" style="stroke:#000000; stroke-linecap:round; stroke-linejoin:round; stroke-width:4; stroke-opacity:1; fill:none" points="
  1527.83,922.629 1527.83,1864.09 1581.52,1864.09 1581.52,922.629 1527.83,922.629 
  "/>
<path clip-path="url(#clip222)" d="
M1594.94 934.33 L1594.94 1864.09 L1648.62 1864.09 L1648.62 934.33 L1594.94 934.33 L1594.94 934.33  Z
  " fill="#009af9" fill-rule="evenodd" fill-opacity="1"/>
<polyline clip-path="url(#clip222)" style="stroke:#000000; stroke-linecap:round; stroke-linejoin:round; stroke-width:4; stroke-opacity:1; fill:none" points="
  1594.94,934.33 1594.94,1864.09 1648.62,1864.09 1648.62,934.33 1594.94,934.33 
  "/>
<path clip-path="url(#clip222)" d="
M1662.04 982.481 L1662.04 1864.09 L1715.72 1864.09 L1715.72 982.481 L1662.04 982.481 L1662.04 982.481  Z
  " fill="#009af9" fill-rule="evenodd" fill-opacity="1"/>
<polyline clip-path="url(#clip222)" style="stroke:#000000; stroke-linecap:round; stroke-linejoin:round; stroke-width:4; stroke-opacity:1; fill:none" points="
  1662.04,982.481 1662.04,1864.09 1715.72,1864.09 1715.72,982.481 1662.04,982.481 
  "/>
<path clip-path="url(#clip222)" d="
M1729.14 984.226 L1729.14 1864.09 L1782.82 1864.09 L1782.82 984.226 L1729.14 984.226 L1729.14 984.226  Z
  " fill="#009af9" fill-rule="evenodd" fill-opacity="1"/>
<polyline clip-path="url(#clip222)" style="stroke:#000000; stroke-linecap:round; stroke-linejoin:round; stroke-width:4; stroke-opacity:1; fill:none" points="
  1729.14,984.226 1729.14,1864.09 1782.82,1864.09 1782.82,984.226 1729.14,984.226 
  "/>
<path clip-path="url(#clip222)" d="
M1796.24 993.907 L1796.24 1864.09 L1849.92 1864.09 L1849.92 993.907 L1796.24 993.907 L1796.24 993.907  Z
  " fill="#009af9" fill-rule="evenodd" fill-opacity="1"/>
<polyline clip-path="url(#clip222)" style="stroke:#000000; stroke-linecap:round; stroke-linejoin:round; stroke-width:4; stroke-opacity:1; fill:none" points="
  1796.24,993.907 1796.24,1864.09 1849.92,1864.09 1849.92,993.907 1796.24,993.907 
  "/>
<circle clip-path="url(#clip222)" style="fill:#009af9; stroke:none; fill-opacity:0" cx="212.673" cy="100.162" r="2"/>
<circle clip-path="url(#clip222)" style="fill:#009af9; stroke:none; fill-opacity:0" cx="279.773" cy="191.744" r="2"/>
<circle clip-path="url(#clip222)" style="fill:#009af9; stroke:none; fill-opacity:0" cx="346.873" cy="330.098" r="2"/>
<circle clip-path="url(#clip222)" style="fill:#009af9; stroke:none; fill-opacity:0" cx="413.973" cy="443.409" r="2"/>
<circle clip-path="url(#clip222)" style="fill:#009af9; stroke:none; fill-opacity:0" cx="481.073" cy="641.645" r="2"/>
<circle clip-path="url(#clip222)" style="fill:#009af9; stroke:none; fill-opacity:0" cx="548.173" cy="667.25" r="2"/>
<circle clip-path="url(#clip222)" style="fill:#009af9; stroke:none; fill-opacity:0" cx="615.273" cy="715.439" r="2"/>
<circle clip-path="url(#clip222)" style="fill:#009af9; stroke:none; fill-opacity:0" cx="682.373" cy="721.897" r="2"/>
<circle clip-path="url(#clip222)" style="fill:#009af9; stroke:none; fill-opacity:0" cx="749.474" cy="725.919" r="2"/>
<circle clip-path="url(#clip222)" style="fill:#009af9; stroke:none; fill-opacity:0" cx="816.574" cy="754.244" r="2"/>
<circle clip-path="url(#clip222)" style="fill:#009af9; stroke:none; fill-opacity:0" cx="883.674" cy="755.33" r="2"/>
<circle clip-path="url(#clip222)" style="fill:#009af9; stroke:none; fill-opacity:0" cx="950.774" cy="766.837" r="2"/>
<circle clip-path="url(#clip222)" style="fill:#009af9; stroke:none; fill-opacity:0" cx="1017.87" cy="833.132" r="2"/>
<circle clip-path="url(#clip222)" style="fill:#009af9; stroke:none; fill-opacity:0" cx="1084.97" cy="843.513" r="2"/>
<circle clip-path="url(#clip222)" style="fill:#009af9; stroke:none; fill-opacity:0" cx="1152.07" cy="850.984" r="2"/>
<circle clip-path="url(#clip222)" style="fill:#009af9; stroke:none; fill-opacity:0" cx="1219.17" cy="854.854" r="2"/>
<circle clip-path="url(#clip222)" style="fill:#009af9; stroke:none; fill-opacity:0" cx="1286.27" cy="857.798" r="2"/>
<circle clip-path="url(#clip222)" style="fill:#009af9; stroke:none; fill-opacity:0" cx="1353.37" cy="865.618" r="2"/>
<circle clip-path="url(#clip222)" style="fill:#009af9; stroke:none; fill-opacity:0" cx="1420.47" cy="889.868" r="2"/>
<circle clip-path="url(#clip222)" style="fill:#009af9; stroke:none; fill-opacity:0" cx="1487.57" cy="897.733" r="2"/>
<circle clip-path="url(#clip222)" style="fill:#009af9; stroke:none; fill-opacity:0" cx="1554.68" cy="922.629" r="2"/>
<circle clip-path="url(#clip222)" style="fill:#009af9; stroke:none; fill-opacity:0" cx="1621.78" cy="934.33" r="2"/>
<circle clip-path="url(#clip222)" style="fill:#009af9; stroke:none; fill-opacity:0" cx="1688.88" cy="982.481" r="2"/>
<circle clip-path="url(#clip222)" style="fill:#009af9; stroke:none; fill-opacity:0" cx="1755.98" cy="984.226" r="2"/>
<circle clip-path="url(#clip222)" style="fill:#009af9; stroke:none; fill-opacity:0" cx="1823.08" cy="993.907" r="2"/>
<path clip-path="url(#clip220)" d="
M1651.02 213.25 L1890.43 213.25 L1890.43 109.57 L1651.02 109.57  Z
  " fill="#ffffff" fill-rule="evenodd" fill-opacity="1"/>
<polyline clip-path="url(#clip220)" style="stroke:#000000; stroke-linecap:round; stroke-linejoin:round; stroke-width:4; stroke-opacity:1; fill:none" points="
  1651.02,213.25 1890.43,213.25 1890.43,109.57 1651.02,109.57 1651.02,213.25 
  "/>
<path clip-path="url(#clip220)" d="
M1671.8 182.146 L1796.45 182.146 L1796.45 140.674 L1671.8 140.674 L1671.8 182.146  Z
  " fill="#009af9" fill-rule="evenodd" fill-opacity="1"/>
<polyline clip-path="url(#clip220)" style="stroke:#000000; stroke-linecap:round; stroke-linejoin:round; stroke-width:4; stroke-opacity:1; fill:none" points="
  1671.8,182.146 1796.45,182.146 1796.45,140.674 1671.8,140.674 1671.8,182.146 
  "/>
<path clip-path="url(#clip220)" d="M1831.07 181.097 Q1829.26 185.727 1827.55 187.139 Q1825.84 188.551 1822.97 188.551 L1819.56 188.551 L1819.56 184.986 L1822.06 184.986 Q1823.82 184.986 1824.79 184.152 Q1825.77 183.319 1826.95 180.217 L1827.71 178.273 L1817.23 152.764 L1821.74 152.764 L1829.84 173.041 L1837.94 152.764 L1842.46 152.764 L1831.07 181.097 Z" fill="#000000" fill-rule="evenodd" fill-opacity="1" /><path clip-path="url(#clip220)" d="M1849.75 174.754 L1857.39 174.754 L1857.39 148.389 L1849.08 150.055 L1849.08 145.796 L1857.34 144.13 L1862.02 144.13 L1862.02 174.754 L1869.66 174.754 L1869.66 178.69 L1849.75 178.69 L1849.75 174.754 Z" fill="#000000" fill-rule="evenodd" fill-opacity="1" /></svg>
