<?xml version="1.0" encoding="utf-8"?>
<svg xmlns="http://www.w3.org/2000/svg" xmlns:xlink="http://www.w3.org/1999/xlink" width="500" height="500" viewBox="0 0 2000 2000">
<defs>
  <clipPath id="clip080">
    <rect x="0" y="0" width="2000" height="2000"/>
  </clipPath>
</defs>
<path clip-path="url(#clip080)" d="
M0 2000 L2000 2000 L2000 0 L0 0  Z
  " fill="#ffffff" fill-rule="evenodd" fill-opacity="1"/>
<defs>
  <clipPath id="clip081">
    <rect x="400" y="200" width="1401" height="1401"/>
  </clipPath>
</defs>
<path clip-path="url(#clip080)" d="
M152.112 1733.38 L1952.76 1733.38 L1952.76 47.2441 L152.112 47.2441  Z
  " fill="#ffffff" fill-rule="evenodd" fill-opacity="1"/>
<defs>
  <clipPath id="clip082">
    <rect x="152" y="47" width="1802" height="1687"/>
  </clipPath>
</defs>
<polyline clip-path="url(#clip082)" style="stroke:#000000; stroke-linecap:round; stroke-linejoin:round; stroke-width:2; stroke-opacity:0.1; fill:none" points="
  276.999,1733.38 276.999,47.2441 
  "/>
<polyline clip-path="url(#clip082)" style="stroke:#000000; stroke-linecap:round; stroke-linejoin:round; stroke-width:2; stroke-opacity:0.1; fill:none" points="
  341.618,1733.38 341.618,47.2441 
  "/>
<polyline clip-path="url(#clip082)" style="stroke:#000000; stroke-linecap:round; stroke-linejoin:round; stroke-width:2; stroke-opacity:0.1; fill:none" points="
  406.238,1733.38 406.238,47.2441 
  "/>
<polyline clip-path="url(#clip082)" style="stroke:#000000; stroke-linecap:round; stroke-linejoin:round; stroke-width:2; stroke-opacity:0.1; fill:none" points="
  470.857,1733.38 470.857,47.2441 
  "/>
<polyline clip-path="url(#clip082)" style="stroke:#000000; stroke-linecap:round; stroke-linejoin:round; stroke-width:2; stroke-opacity:0.1; fill:none" points="
  535.477,1733.38 535.477,47.2441 
  "/>
<polyline clip-path="url(#clip082)" style="stroke:#000000; stroke-linecap:round; stroke-linejoin:round; stroke-width:2; stroke-opacity:0.1; fill:none" points="
  600.097,1733.38 600.097,47.2441 
  "/>
<polyline clip-path="url(#clip082)" style="stroke:#000000; stroke-linecap:round; stroke-linejoin:round; stroke-width:2; stroke-opacity:0.1; fill:none" points="
  664.716,1733.38 664.716,47.2441 
  "/>
<polyline clip-path="url(#clip082)" style="stroke:#000000; stroke-linecap:round; stroke-linejoin:round; stroke-width:2; stroke-opacity:0.1; fill:none" points="
  729.336,1733.38 729.336,47.2441 
  "/>
<polyline clip-path="url(#clip082)" style="stroke:#000000; stroke-linecap:round; stroke-linejoin:round; stroke-width:2; stroke-opacity:0.1; fill:none" points="
  793.956,1733.38 793.956,47.2441 
  "/>
<polyline clip-path="url(#clip082)" style="stroke:#000000; stroke-linecap:round; stroke-linejoin:round; stroke-width:2; stroke-opacity:0.1; fill:none" points="
  858.575,1733.38 858.575,47.2441 
  "/>
<polyline clip-path="url(#clip082)" style="stroke:#000000; stroke-linecap:round; stroke-linejoin:round; stroke-width:2; stroke-opacity:0.1; fill:none" points="
  923.195,1733.38 923.195,47.2441 
  "/>
<polyline clip-path="url(#clip082)" style="stroke:#000000; stroke-linecap:round; stroke-linejoin:round; stroke-width:2; stroke-opacity:0.1; fill:none" points="
  987.814,1733.38 987.814,47.2441 
  "/>
<polyline clip-path="url(#clip082)" style="stroke:#000000; stroke-linecap:round; stroke-linejoin:round; stroke-width:2; stroke-opacity:0.1; fill:none" points="
  1052.43,1733.38 1052.43,47.2441 
  "/>
<polyline clip-path="url(#clip082)" style="stroke:#000000; stroke-linecap:round; stroke-linejoin:round; stroke-width:2; stroke-opacity:0.1; fill:none" points="
  1117.05,1733.38 1117.05,47.2441 
  "/>
<polyline clip-path="url(#clip082)" style="stroke:#000000; stroke-linecap:round; stroke-linejoin:round; stroke-width:2; stroke-opacity:0.1; fill:none" points="
  1181.67,1733.38 1181.67,47.2441 
  "/>
<polyline clip-path="url(#clip082)" style="stroke:#000000; stroke-linecap:round; stroke-linejoin:round; stroke-width:2; stroke-opacity:0.1; fill:none" points="
  1246.29,1733.38 1246.29,47.2441 
  "/>
<polyline clip-path="url(#clip082)" style="stroke:#000000; stroke-linecap:round; stroke-linejoin:round; stroke-width:2; stroke-opacity:0.1; fill:none" points="
  1310.91,1733.38 1310.91,47.2441 
  "/>
<polyline clip-path="url(#clip082)" style="stroke:#000000; stroke-linecap:round; stroke-linejoin:round; stroke-width:2; stroke-opacity:0.1; fill:none" points="
  1375.53,1733.38 1375.53,47.2441 
  "/>
<polyline clip-path="url(#clip082)" style="stroke:#000000; stroke-linecap:round; stroke-linejoin:round; stroke-width:2; stroke-opacity:0.1; fill:none" points="
  1440.15,1733.38 1440.15,47.2441 
  "/>
<polyline clip-path="url(#clip082)" style="stroke:#000000; stroke-linecap:round; stroke-linejoin:round; stroke-width:2; stroke-opacity:0.1; fill:none" points="
  1504.77,1733.38 1504.77,47.2441 
  "/>
<polyline clip-path="url(#clip082)" style="stroke:#000000; stroke-linecap:round; stroke-linejoin:round; stroke-width:2; stroke-opacity:0.1; fill:none" points="
  1569.39,1733.38 1569.39,47.2441 
  "/>
<polyline clip-path="url(#clip082)" style="stroke:#000000; stroke-linecap:round; stroke-linejoin:round; stroke-width:2; stroke-opacity:0.1; fill:none" points="
  1634.01,1733.38 1634.01,47.2441 
  "/>
<polyline clip-path="url(#clip082)" style="stroke:#000000; stroke-linecap:round; stroke-linejoin:round; stroke-width:2; stroke-opacity:0.1; fill:none" points="
  1698.63,1733.38 1698.63,47.2441 
  "/>
<polyline clip-path="url(#clip082)" style="stroke:#000000; stroke-linecap:round; stroke-linejoin:round; stroke-width:2; stroke-opacity:0.1; fill:none" points="
  1763.25,1733.38 1763.25,47.2441 
  "/>
<polyline clip-path="url(#clip082)" style="stroke:#000000; stroke-linecap:round; stroke-linejoin:round; stroke-width:2; stroke-opacity:0.1; fill:none" points="
  1827.87,1733.38 1827.87,47.2441 
  "/>
<polyline clip-path="url(#clip080)" style="stroke:#000000; stroke-linecap:round; stroke-linejoin:round; stroke-width:4; stroke-opacity:1; fill:none" points="
  152.112,1733.38 1952.76,1733.38 
  "/>
<polyline clip-path="url(#clip080)" style="stroke:#000000; stroke-linecap:round; stroke-linejoin:round; stroke-width:4; stroke-opacity:1; fill:none" points="
  276.999,1733.38 276.999,1714.48 
  "/>
<polyline clip-path="url(#clip080)" style="stroke:#000000; stroke-linecap:round; stroke-linejoin:round; stroke-width:4; stroke-opacity:1; fill:none" points="
  341.618,1733.38 341.618,1714.48 
  "/>
<polyline clip-path="url(#clip080)" style="stroke:#000000; stroke-linecap:round; stroke-linejoin:round; stroke-width:4; stroke-opacity:1; fill:none" points="
  406.238,1733.38 406.238,1714.48 
  "/>
<polyline clip-path="url(#clip080)" style="stroke:#000000; stroke-linecap:round; stroke-linejoin:round; stroke-width:4; stroke-opacity:1; fill:none" points="
  470.857,1733.38 470.857,1714.48 
  "/>
<polyline clip-path="url(#clip080)" style="stroke:#000000; stroke-linecap:round; stroke-linejoin:round; stroke-width:4; stroke-opacity:1; fill:none" points="
  535.477,1733.38 535.477,1714.48 
  "/>
<polyline clip-path="url(#clip080)" style="stroke:#000000; stroke-linecap:round; stroke-linejoin:round; stroke-width:4; stroke-opacity:1; fill:none" points="
  600.097,1733.38 600.097,1714.48 
  "/>
<polyline clip-path="url(#clip080)" style="stroke:#000000; stroke-linecap:round; stroke-linejoin:round; stroke-width:4; stroke-opacity:1; fill:none" points="
  664.716,1733.38 664.716,1714.48 
  "/>
<polyline clip-path="url(#clip080)" style="stroke:#000000; stroke-linecap:round; stroke-linejoin:round; stroke-width:4; stroke-opacity:1; fill:none" points="
  729.336,1733.38 729.336,1714.48 
  "/>
<polyline clip-path="url(#clip080)" style="stroke:#000000; stroke-linecap:round; stroke-linejoin:round; stroke-width:4; stroke-opacity:1; fill:none" points="
  793.956,1733.38 793.956,1714.48 
  "/>
<polyline clip-path="url(#clip080)" style="stroke:#000000; stroke-linecap:round; stroke-linejoin:round; stroke-width:4; stroke-opacity:1; fill:none" points="
  858.575,1733.38 858.575,1714.48 
  "/>
<polyline clip-path="url(#clip080)" style="stroke:#000000; stroke-linecap:round; stroke-linejoin:round; stroke-width:4; stroke-opacity:1; fill:none" points="
  923.195,1733.38 923.195,1714.48 
  "/>
<polyline clip-path="url(#clip080)" style="stroke:#000000; stroke-linecap:round; stroke-linejoin:round; stroke-width:4; stroke-opacity:1; fill:none" points="
  987.814,1733.38 987.814,1714.48 
  "/>
<polyline clip-path="url(#clip080)" style="stroke:#000000; stroke-linecap:round; stroke-linejoin:round; stroke-width:4; stroke-opacity:1; fill:none" points="
  1052.43,1733.38 1052.43,1714.48 
  "/>
<polyline clip-path="url(#clip080)" style="stroke:#000000; stroke-linecap:round; stroke-linejoin:round; stroke-width:4; stroke-opacity:1; fill:none" points="
  1117.05,1733.38 1117.05,1714.48 
  "/>
<polyline clip-path="url(#clip080)" style="stroke:#000000; stroke-linecap:round; stroke-linejoin:round; stroke-width:4; stroke-opacity:1; fill:none" points="
  1181.67,1733.38 1181.67,1714.48 
  "/>
<polyline clip-path="url(#clip080)" style="stroke:#000000; stroke-linecap:round; stroke-linejoin:round; stroke-width:4; stroke-opacity:1; fill:none" points="
  1246.29,1733.38 1246.29,1714.48 
  "/>
<polyline clip-path="url(#clip080)" style="stroke:#000000; stroke-linecap:round; stroke-linejoin:round; stroke-width:4; stroke-opacity:1; fill:none" points="
  1310.91,1733.38 1310.91,1714.48 
  "/>
<polyline clip-path="url(#clip080)" style="stroke:#000000; stroke-linecap:round; stroke-linejoin:round; stroke-width:4; stroke-opacity:1; fill:none" points="
  1375.53,1733.38 1375.53,1714.48 
  "/>
<polyline clip-path="url(#clip080)" style="stroke:#000000; stroke-linecap:round; stroke-linejoin:round; stroke-width:4; stroke-opacity:1; fill:none" points="
  1440.15,1733.38 1440.15,1714.48 
  "/>
<polyline clip-path="url(#clip080)" style="stroke:#000000; stroke-linecap:round; stroke-linejoin:round; stroke-width:4; stroke-opacity:1; fill:none" points="
  1504.77,1733.38 1504.77,1714.48 
  "/>
<polyline clip-path="url(#clip080)" style="stroke:#000000; stroke-linecap:round; stroke-linejoin:round; stroke-width:4; stroke-opacity:1; fill:none" points="
  1569.39,1733.38 1569.39,1714.48 
  "/>
<polyline clip-path="url(#clip080)" style="stroke:#000000; stroke-linecap:round; stroke-linejoin:round; stroke-width:4; stroke-opacity:1; fill:none" points="
  1634.01,1733.38 1634.01,1714.48 
  "/>
<polyline clip-path="url(#clip080)" style="stroke:#000000; stroke-linecap:round; stroke-linejoin:round; stroke-width:4; stroke-opacity:1; fill:none" points="
  1698.63,1733.38 1698.63,1714.48 
  "/>
<polyline clip-path="url(#clip080)" style="stroke:#000000; stroke-linecap:round; stroke-linejoin:round; stroke-width:4; stroke-opacity:1; fill:none" points="
  1763.25,1733.38 1763.25,1714.48 
  "/>
<polyline clip-path="url(#clip080)" style="stroke:#000000; stroke-linecap:round; stroke-linejoin:round; stroke-width:4; stroke-opacity:1; fill:none" points="
  1827.87,1733.38 1827.87,1714.48 
  "/>
<path clip-path="url(#clip080)" d="M166.375 1853.9 L181.826 1838.45 L184.609 1841.23 L172.464 1853.37 L179.698 1860.61 L191.336 1848.97 L194.119 1851.75 L182.481 1863.39 L191.336 1872.25 L203.776 1859.81 L206.558 1862.59 L190.812 1878.33 L166.375 1853.9 Z" fill="#000000" fill-rule="evenodd" fill-opacity="1" /><path clip-path="url(#clip080)" d="M193.578 1832.13 L202.761 1841.31 L206.918 1837.15 Q209.226 1834.84 209.292 1832.39 Q209.357 1829.93 207.148 1827.72 Q204.954 1825.53 202.499 1825.6 Q200.044 1825.66 197.736 1827.97 L193.578 1832.13 M187.555 1832.72 L195.019 1825.25 Q199.127 1821.14 203.088 1820.91 Q207.049 1820.65 210.634 1824.24 Q214.251 1827.85 213.989 1831.82 Q213.744 1835.76 209.636 1839.87 L205.478 1844.03 L215.299 1853.85 L211.993 1857.15 L187.555 1832.72 Z" fill="#000000" fill-rule="evenodd" fill-opacity="1" /><path clip-path="url(#clip080)" d="M217.05 1809.74 L224.727 1826.38 L233.713 1817.4 L217.05 1809.74 M211.927 1808.34 L215.675 1804.6 L249.426 1819.72 L245.989 1823.16 L237.494 1819.11 L226.478 1830.13 L230.521 1838.63 L227.035 1842.11 L211.927 1808.34 Z" fill="#000000" fill-rule="evenodd" fill-opacity="1" /><path clip-path="url(#clip080)" d="M244.009 1777.87 L247.233 1781.09 Q244.451 1782.07 242.339 1783.3 Q240.228 1784.53 238.673 1786.08 Q235.972 1788.78 235.546 1791.3 Q235.137 1793.81 237.069 1795.74 Q238.689 1797.36 240.489 1797.23 Q242.29 1797.07 245.514 1794.86 L247.921 1793.27 Q252.324 1790.27 255.859 1790.31 Q259.395 1790.31 262.374 1793.29 Q265.926 1796.84 265.369 1801.06 Q264.829 1805.27 260.229 1809.87 Q258.494 1811.6 256.137 1813.17 Q253.797 1814.73 250.932 1816.05 L247.528 1812.65 Q250.67 1811.77 253.175 1810.41 Q255.679 1809.05 257.545 1807.18 Q260.377 1804.35 260.802 1801.7 Q261.228 1799.05 259.166 1796.98 Q257.365 1795.18 255.237 1795.28 Q253.126 1795.36 250.098 1797.38 L247.691 1799 Q243.256 1801.96 240.031 1802.04 Q236.807 1802.12 234.008 1799.33 Q230.767 1796.08 231.176 1791.94 Q231.602 1787.79 235.612 1783.78 Q237.33 1782.06 239.426 1780.58 Q241.521 1779.11 244.009 1777.87 Z" fill="#000000" fill-rule="evenodd" fill-opacity="1" /><path clip-path="url(#clip080)" d="M272.358 1791.22 L277.76 1785.82 L259.116 1767.18 L254.419 1774.23 L251.407 1771.22 L256.072 1764.2 L259.378 1760.89 L281.033 1782.55 L286.435 1777.15 L289.217 1779.93 L275.141 1794.01 L272.358 1791.22 Z" fill="#000000" fill-rule="evenodd" fill-opacity="1" /><path clip-path="url(#clip080)" d="M221.583 1863.31 L235.626 1849.26 L238.409 1852.05 L227.672 1862.78 L234.873 1869.99 L244.563 1860.3 L247.346 1863.08 L237.656 1872.77 L249.327 1884.44 L246.02 1887.75 L221.583 1863.31 Z" fill="#000000" fill-rule="evenodd" fill-opacity="1" /><path clip-path="url(#clip080)" d="M253.026 1836.35 Q249.425 1839.95 249.981 1844.76 Q250.554 1849.56 255.186 1854.19 Q259.802 1858.81 264.598 1859.38 Q269.41 1859.94 273.011 1856.34 Q276.612 1852.73 276.023 1847.96 Q275.45 1843.16 270.834 1838.54 Q266.202 1833.91 261.406 1833.34 Q256.627 1832.75 253.026 1836.35 M250.341 1833.67 Q255.481 1828.53 262.012 1828.9 Q268.526 1829.26 274.321 1835.06 Q280.099 1840.83 280.475 1847.37 Q280.835 1853.88 275.696 1859.02 Q270.54 1864.18 264.009 1863.83 Q257.494 1863.47 251.7 1857.68 Q245.906 1851.88 245.545 1845.37 Q245.185 1838.82 250.341 1833.67 Z" fill="#000000" fill-rule="evenodd" fill-opacity="1" /><path clip-path="url(#clip080)" d="M263.927 1820.96 L267.479 1817.41 L282.636 1820.42 L279.657 1805.23 L283.209 1801.68 L287.088 1821.27 L308.17 1825.6 L304.618 1829.15 L287.35 1825.63 L290.82 1842.95 L287.251 1846.51 L282.93 1824.75 L263.927 1820.96 Z" fill="#000000" fill-rule="evenodd" fill-opacity="1" /><path clip-path="url(#clip080)" d="M300.231 1789.14 Q296.63 1792.75 297.187 1797.56 Q297.76 1802.35 302.392 1806.99 Q307.008 1811.6 311.804 1812.17 Q316.616 1812.73 320.217 1809.13 Q323.818 1805.53 323.229 1800.75 Q322.656 1795.95 318.04 1791.34 Q313.408 1786.71 308.612 1786.13 Q303.832 1785.54 300.231 1789.14 M326.617 1806.27 L335.734 1806.67 L331.74 1810.67 L324.211 1810.37 Q323.703 1810.95 323.425 1811.26 Q323.163 1811.55 322.901 1811.81 Q317.745 1816.97 311.214 1816.63 Q304.684 1816.25 298.906 1810.47 Q293.111 1804.68 292.751 1798.16 Q292.391 1791.62 297.547 1786.46 Q302.687 1781.32 309.218 1781.7 Q315.732 1782.06 321.526 1787.85 Q325.782 1792.11 327.091 1796.85 Q328.417 1801.58 326.617 1806.27 Z" fill="#000000" fill-rule="evenodd" fill-opacity="1" /><path clip-path="url(#clip080)" d="M336.978 1791.22 L342.379 1785.82 L323.736 1767.18 L319.038 1774.23 L316.027 1771.22 L320.692 1764.2 L323.998 1760.89 L345.653 1782.55 L351.054 1777.15 L353.837 1779.93 L339.76 1794.01 L336.978 1791.22 Z" fill="#000000" fill-rule="evenodd" fill-opacity="1" /><path clip-path="url(#clip080)" d="M263.221 1891.72 L282.225 1910.73 L286.219 1906.73 Q291.276 1901.68 291.325 1897.04 Q291.391 1892.39 286.448 1887.45 Q281.537 1882.54 276.905 1882.62 Q272.273 1882.67 267.215 1887.73 L263.221 1891.72 M257.198 1892.31 L263.991 1885.52 Q271.094 1878.42 277.38 1878.06 Q283.649 1877.68 289.934 1883.96 Q296.252 1890.28 295.876 1896.58 Q295.499 1902.89 288.428 1909.96 L281.635 1916.75 L257.198 1892.31 Z" fill="#000000" fill-rule="evenodd" fill-opacity="1" /><path clip-path="url(#clip080)" d="M283.01 1866.5 L287.463 1862.05 L318.742 1871.66 L298.298 1851.21 L301.506 1848 L325.944 1872.44 L321.492 1876.89 L290.212 1867.29 L310.656 1887.73 L307.448 1890.94 L283.01 1866.5 Z" fill="#000000" fill-rule="evenodd" fill-opacity="1" /><path clip-path="url(#clip080)" d="M308.086 1841.42 L313.013 1836.5 L335.879 1846.89 L325.518 1823.99 L330.445 1819.07 L354.883 1843.5 L351.658 1846.73 L330.2 1825.27 L340.659 1848.33 L337.336 1851.65 L314.274 1841.19 L335.732 1862.65 L332.524 1865.86 L308.086 1841.42 Z" fill="#000000" fill-rule="evenodd" fill-opacity="1" /><path clip-path="url(#clip080)" d="M333.621 1815.89 L354.294 1795.22 L357.076 1798 L348.401 1806.67 L370.056 1828.33 L366.733 1831.65 L345.078 1810 L336.403 1818.67 L333.621 1815.89 Z" fill="#000000" fill-rule="evenodd" fill-opacity="1" /><path clip-path="url(#clip080)" d="M379.059 1792.97 Q381.939 1791.11 384.869 1791.39 Q387.816 1791.65 390.173 1794.01 Q393.79 1797.62 393.282 1802.09 Q392.775 1806.56 388.192 1811.14 Q386.653 1812.68 384.706 1814.01 Q382.79 1815.33 380.45 1816.46 L377.258 1813.27 Q379.435 1812.7 381.481 1811.47 Q383.527 1810.24 385.311 1808.46 Q388.421 1805.35 388.814 1802.5 Q389.223 1799.64 386.883 1797.3 Q384.722 1795.14 381.988 1795.45 Q379.255 1795.72 376.554 1798.43 L373.706 1801.27 L370.989 1798.56 L373.968 1795.58 Q376.407 1793.14 376.734 1790.88 Q377.045 1788.6 375.212 1786.77 Q373.33 1784.89 370.989 1785.23 Q368.648 1785.54 366.16 1788.03 Q364.802 1789.39 363.542 1791.24 Q362.281 1793.09 361.037 1795.58 L358.091 1792.63 Q359.45 1790.22 360.824 1788.33 Q362.216 1786.41 363.673 1784.95 Q367.437 1781.19 371.349 1780.71 Q375.245 1780.22 378.158 1783.14 Q380.188 1785.17 380.433 1787.74 Q380.663 1790.29 379.059 1792.97 Z" fill="#000000" fill-rule="evenodd" fill-opacity="1" /><path clip-path="url(#clip080)" d="M378.813 1770.7 L382.119 1767.39 L403.774 1789.05 L415.674 1777.15 L418.457 1779.93 L403.251 1795.14 L378.813 1770.7 Z" fill="#000000" fill-rule="evenodd" fill-opacity="1" /><path clip-path="url(#clip080)" d="M384.016 1830.11 L387.323 1826.81 L397.651 1837.14 L398.289 1815.84 L402.545 1811.59 L401.809 1835.11 L427.85 1835.16 L423.496 1839.51 L399.992 1839.48 L411.76 1851.24 L408.454 1854.55 L384.016 1830.11 Z" fill="#000000" fill-rule="evenodd" fill-opacity="1" /><path clip-path="url(#clip080)" d="M405.999 1808.13 L409.305 1804.82 L430.96 1826.48 L442.86 1814.58 L445.642 1817.36 L430.436 1832.57 L405.999 1808.13 Z" fill="#000000" fill-rule="evenodd" fill-opacity="1" /><path clip-path="url(#clip080)" d="M424.675 1789.46 L438.719 1775.41 L441.501 1778.19 L430.764 1788.93 L437.966 1796.13 L447.656 1786.44 L450.438 1789.23 L440.748 1798.92 L452.419 1810.59 L449.112 1813.89 L424.675 1789.46 Z" fill="#000000" fill-rule="evenodd" fill-opacity="1" /><path clip-path="url(#clip080)" d="M468.754 1788.69 L480.294 1777.15 L483.076 1779.93 L467.559 1795.45 L464.777 1792.66 Q464.711 1788.83 464.678 1782.32 Q464.646 1775.77 464.531 1773.99 Q464.335 1770.62 463.729 1768.77 Q463.124 1766.88 461.929 1765.69 Q459.981 1763.74 457.378 1763.89 Q454.792 1764.02 452.599 1766.21 Q451.044 1767.77 449.849 1770.04 Q448.67 1772.3 447.803 1775.36 L444.464 1772.02 Q445.659 1769.22 446.985 1767.08 Q448.31 1764.94 449.751 1763.5 Q453.548 1759.7 457.706 1759.34 Q461.863 1758.98 465.039 1762.15 Q466.544 1763.66 467.33 1765.59 Q468.116 1767.49 468.46 1770.81 Q468.525 1771.7 468.607 1776.16 Q468.672 1780.62 468.754 1788.69 Z" fill="#000000" fill-rule="evenodd" fill-opacity="1" /><path clip-path="url(#clip080)" d="M416.62 1862.13 L430.664 1848.09 L433.446 1850.87 L422.709 1861.61 L429.911 1868.81 L439.601 1859.12 L442.383 1861.9 L432.693 1871.59 L444.364 1883.26 L441.058 1886.57 L416.62 1862.13 Z" fill="#000000" fill-rule="evenodd" fill-opacity="1" /><path clip-path="url(#clip080)" d="M448.063 1835.17 Q444.462 1838.77 445.019 1843.58 Q445.592 1848.38 450.224 1853.01 Q454.839 1857.63 459.635 1858.2 Q464.448 1858.76 468.049 1855.16 Q471.65 1851.56 471.06 1846.78 Q470.487 1841.98 465.872 1837.36 Q461.239 1832.73 456.444 1832.16 Q451.664 1831.57 448.063 1835.17 M445.379 1832.49 Q450.518 1827.35 457.049 1827.72 Q463.564 1828.08 469.358 1833.88 Q475.136 1839.66 475.512 1846.19 Q475.873 1852.7 470.733 1857.84 Q465.577 1863 459.046 1862.65 Q452.532 1862.29 446.737 1856.5 Q440.943 1850.7 440.583 1844.19 Q440.223 1837.64 445.379 1832.49 Z" fill="#000000" fill-rule="evenodd" fill-opacity="1" /><path clip-path="url(#clip080)" d="M458.964 1819.79 L462.516 1816.23 L477.673 1819.25 L474.694 1804.06 L478.246 1800.5 L482.125 1820.1 L503.207 1824.42 L499.655 1827.97 L482.387 1824.45 L485.857 1841.77 L482.289 1845.34 L477.968 1823.57 L458.964 1819.79 Z" fill="#000000" fill-rule="evenodd" fill-opacity="1" /><path clip-path="url(#clip080)" d="M483.107 1795.64 L486.414 1792.34 L496.431 1802.35 L508.445 1790.34 L498.428 1780.32 L501.734 1777.02 L526.172 1801.45 L522.865 1804.76 L511.228 1793.12 L499.213 1805.14 L510.851 1816.77 L507.545 1820.08 L483.107 1795.64 Z" fill="#000000" fill-rule="evenodd" fill-opacity="1" /><path clip-path="url(#clip080)" d="M530.837 1791.22 L536.238 1785.82 L517.595 1767.18 L512.897 1774.23 L509.885 1771.22 L514.55 1764.2 L517.857 1760.89 L539.512 1782.55 L544.913 1777.15 L547.696 1779.93 L533.619 1794.01 L530.837 1791.22 Z" fill="#000000" fill-rule="evenodd" fill-opacity="1" /><path clip-path="url(#clip080)" d="M504.99 1839.98 L508.214 1843.21 Q505.432 1844.19 503.32 1845.42 Q501.209 1846.65 499.654 1848.2 Q496.953 1850.9 496.527 1853.42 Q496.118 1855.93 498.05 1857.86 Q499.67 1859.48 501.471 1859.35 Q503.271 1859.18 506.496 1856.97 L508.902 1855.39 Q513.305 1852.39 516.84 1852.42 Q520.376 1852.42 523.355 1855.4 Q526.907 1858.95 526.35 1863.18 Q525.81 1867.38 521.211 1871.98 Q519.475 1873.72 517.118 1875.29 Q514.778 1876.84 511.913 1878.17 L508.509 1874.77 Q511.652 1873.88 514.156 1872.52 Q516.66 1871.17 518.526 1869.3 Q521.358 1866.47 521.783 1863.82 Q522.209 1861.16 520.147 1859.1 Q518.346 1857.3 516.218 1857.4 Q514.107 1857.48 511.079 1859.49 L508.673 1861.11 Q504.237 1864.08 501.012 1864.16 Q497.788 1864.24 494.989 1861.44 Q491.748 1858.2 492.157 1854.06 Q492.583 1849.9 496.593 1845.89 Q498.311 1844.17 500.407 1842.7 Q502.502 1841.23 504.99 1839.98 Z" fill="#000000" fill-rule="evenodd" fill-opacity="1" /><path clip-path="url(#clip080)" d="M522.864 1827.02 L530.54 1843.67 L539.526 1834.68 L522.864 1827.02 M517.74 1825.63 L521.489 1821.88 L555.24 1837 L551.803 1840.44 L543.307 1836.4 L532.292 1847.41 L536.335 1855.91 L532.848 1859.4 L517.74 1825.63 Z" fill="#000000" fill-rule="evenodd" fill-opacity="1" /><path clip-path="url(#clip080)" d="M534.37 1809 L537.677 1805.69 L559.332 1827.35 L571.231 1815.45 L574.014 1818.23 L558.808 1833.44 L534.37 1809 Z" fill="#000000" fill-rule="evenodd" fill-opacity="1" /><path clip-path="url(#clip080)" d="M553.047 1790.32 L556.353 1787.02 L578.008 1808.67 L589.908 1796.77 L592.69 1799.55 L577.484 1814.76 L553.047 1790.32 Z" fill="#000000" fill-rule="evenodd" fill-opacity="1" /><path clip-path="url(#clip080)" d="M583.982 1765.15 L588.68 1786.54 L597.028 1778.19 L583.982 1765.15 M580.234 1763.14 L584.391 1758.98 L600.318 1774.9 L603.804 1771.42 L606.554 1774.17 L603.067 1777.65 L608.829 1783.42 L605.539 1786.71 L599.778 1780.94 L588.745 1791.98 L585.554 1788.78 L580.234 1763.14 Z" fill="#000000" fill-rule="evenodd" fill-opacity="1" /><path clip-path="url(#clip080)" d="M531.832 1881.59 L541.014 1890.77 L545.172 1886.62 Q547.48 1884.31 547.545 1881.85 Q547.611 1879.4 545.401 1877.19 Q543.208 1875 540.752 1875.06 Q538.297 1875.13 535.989 1877.43 L531.832 1881.59 M525.808 1882.18 L533.272 1874.72 Q537.38 1870.61 541.342 1870.38 Q545.303 1870.12 548.887 1873.7 Q552.505 1877.32 552.243 1881.28 Q551.997 1885.23 547.889 1889.33 L543.731 1893.49 L553.552 1903.31 L550.246 1906.62 L525.808 1882.18 Z" fill="#000000" fill-rule="evenodd" fill-opacity="1" /><path clip-path="url(#clip080)" d="M558.184 1854.29 Q554.583 1857.89 555.14 1862.7 Q555.713 1867.5 560.345 1872.13 Q564.961 1876.75 569.757 1877.32 Q574.569 1877.88 578.17 1874.27 Q581.771 1870.67 581.182 1865.89 Q580.609 1861.1 575.993 1856.48 Q571.361 1851.85 566.565 1851.28 Q561.785 1850.69 558.184 1854.29 M555.5 1851.61 Q560.64 1846.47 567.17 1846.84 Q573.685 1847.2 579.479 1853 Q585.257 1858.77 585.634 1865.31 Q585.994 1871.82 580.854 1876.96 Q575.698 1882.12 569.167 1881.77 Q562.653 1881.41 556.859 1875.62 Q551.064 1869.82 550.704 1863.31 Q550.344 1856.76 555.5 1851.61 Z" fill="#000000" fill-rule="evenodd" fill-opacity="1" /><path clip-path="url(#clip080)" d="M572.032 1835.96 L575.355 1832.63 L590.2 1847.48 Q594.129 1851.41 597.288 1851.72 Q600.43 1852.01 603.622 1848.82 Q606.798 1845.65 606.503 1842.5 Q606.192 1839.35 602.264 1835.42 L587.418 1820.57 L590.741 1817.25 L605.996 1832.5 Q610.775 1837.28 610.841 1842.1 Q610.922 1846.89 606.307 1851.51 Q601.674 1856.14 596.862 1856.07 Q592.066 1855.99 587.287 1851.21 L572.032 1835.96 Z" fill="#000000" fill-rule="evenodd" fill-opacity="1" /><path clip-path="url(#clip080)" d="M597.271 1810.72 L610.251 1797.74 L613.034 1800.52 L603.082 1810.47 L609.073 1816.46 Q609.548 1815.5 610.153 1814.66 Q610.742 1813.81 611.463 1813.09 Q615.555 1809 620.187 1808.85 Q624.819 1808.7 628.649 1812.53 Q632.594 1816.48 632.332 1821.13 Q632.054 1825.76 627.585 1830.23 Q626.047 1831.77 624.181 1833.11 Q622.331 1834.43 620.105 1835.61 L616.782 1832.29 Q619.057 1831.62 621.022 1830.44 Q622.986 1829.26 624.737 1827.51 Q627.569 1824.68 627.733 1821.54 Q627.896 1818.39 625.343 1815.84 Q622.789 1813.29 619.647 1813.45 Q616.504 1813.61 613.672 1816.45 Q612.346 1817.77 611.315 1819.39 Q610.3 1821 609.548 1822.99 L597.271 1810.72 Z" fill="#000000" fill-rule="evenodd" fill-opacity="1" /><path clip-path="url(#clip080)" d="M618.272 1789.72 L632.316 1775.67 L635.098 1778.46 L624.361 1789.19 L631.563 1796.4 L641.253 1786.71 L644.035 1789.49 L634.345 1799.18 L646.016 1810.85 L642.709 1814.15 L618.272 1789.72 Z" fill="#000000" fill-rule="evenodd" fill-opacity="1" /><path clip-path="url(#clip080)" d="M660.076 1791.22 L665.477 1785.82 L646.834 1767.18 L642.136 1774.23 L639.125 1771.22 L643.79 1764.2 L647.096 1760.89 L668.751 1782.55 L674.153 1777.15 L676.935 1779.93 L662.859 1794.01 L660.076 1791.22 Z" fill="#000000" fill-rule="evenodd" fill-opacity="1" /><path clip-path="url(#clip080)" d="M637.764 1840.28 L646.947 1849.46 L651.104 1845.3 Q653.412 1843 653.478 1840.54 Q653.543 1838.09 651.334 1835.88 Q649.14 1833.68 646.685 1833.75 Q644.23 1833.81 641.922 1836.12 L637.764 1840.28 M631.741 1840.87 L639.205 1833.4 Q643.313 1829.3 647.274 1829.07 Q651.235 1828.8 654.82 1832.39 Q658.437 1836.01 658.175 1839.97 Q657.93 1843.91 653.822 1848.02 L649.664 1852.18 L659.485 1862 L656.179 1865.31 L631.741 1840.87 Z" fill="#000000" fill-rule="evenodd" fill-opacity="1" /><path clip-path="url(#clip080)" d="M651.579 1821.03 L654.902 1817.71 L669.748 1832.55 Q673.676 1836.48 676.835 1836.79 Q679.978 1837.09 683.17 1833.89 Q686.345 1830.72 686.05 1827.58 Q685.739 1824.42 681.811 1820.49 L666.965 1805.64 L670.288 1802.32 L685.543 1817.58 Q690.322 1822.36 690.388 1827.17 Q690.47 1831.96 685.854 1836.58 Q681.222 1841.21 676.41 1841.15 Q671.614 1841.06 666.834 1836.28 L651.579 1821.03 Z" fill="#000000" fill-rule="evenodd" fill-opacity="1" /><path clip-path="url(#clip080)" d="M701.06 1797.51 Q702.484 1796.8 704.661 1796.98 Q706.854 1797.15 709.932 1798.2 L719.965 1801.52 L716.413 1805.07 L707.018 1801.93 Q703.352 1800.68 701.404 1801.03 Q699.472 1801.35 697.508 1803.32 L693.907 1806.92 L704.235 1817.25 L700.929 1820.55 L676.491 1796.12 L683.955 1788.65 Q688.146 1784.46 691.959 1784.15 Q695.773 1783.84 699.309 1787.38 Q701.617 1789.68 702.058 1792.29 Q702.517 1794.87 701.06 1797.51 M682.515 1795.53 L691.19 1804.2 L695.348 1800.05 Q697.737 1797.66 697.852 1795.35 Q697.966 1793.01 695.822 1790.86 Q693.678 1788.72 691.37 1788.87 Q689.062 1788.98 686.672 1791.37 L682.515 1795.53 Z" fill="#000000" fill-rule="evenodd" fill-opacity="1" /><path clip-path="url(#clip080)" d="M715.857 1782.29 L724.81 1791.24 L730.113 1785.94 Q732.781 1783.27 732.961 1780.89 Q733.142 1778.49 730.866 1776.21 Q728.575 1773.92 726.201 1774.13 Q723.828 1774.31 721.16 1776.98 L715.857 1782.29 M705.807 1772.24 L713.172 1779.6 L718.066 1774.71 Q720.489 1772.29 720.767 1770.21 Q721.045 1768.09 719.179 1766.23 Q717.33 1764.38 715.218 1764.66 Q713.123 1764.92 710.701 1767.34 L705.807 1772.24 M699.783 1772.83 L708.229 1764.38 Q712.01 1760.6 715.628 1760.12 Q719.245 1759.65 722.142 1762.55 Q724.385 1764.79 724.663 1767.16 Q724.941 1769.54 723.239 1771.89 Q726.201 1769.98 729.213 1770.3 Q732.225 1770.6 734.713 1773.09 Q737.986 1776.36 737.545 1780.37 Q737.103 1784.38 732.994 1788.49 L724.221 1797.26 L699.783 1772.83 Z" fill="#000000" fill-rule="evenodd" fill-opacity="1" /><path clip-path="url(#clip080)" d="M716.084 1863.05 L709.521 1856.48 L704.119 1861.88 L701.402 1859.17 L710.077 1850.49 L720.569 1860.98 Q720.013 1864.26 718.408 1867.27 Q716.788 1870.26 714.169 1872.88 Q708.44 1878.61 701.86 1878.51 Q695.28 1878.38 689.306 1872.41 Q683.315 1866.42 683.201 1859.85 Q683.086 1853.26 688.815 1847.53 Q691.205 1845.14 693.938 1843.58 Q696.688 1842.01 699.651 1841.34 L703.17 1844.86 Q699.782 1845.14 696.933 1846.42 Q694.085 1847.69 691.81 1849.97 Q687.325 1854.45 687.571 1859.22 Q687.833 1863.96 692.792 1868.92 Q697.736 1873.87 702.482 1874.13 Q707.245 1874.37 711.73 1869.89 Q713.482 1868.14 714.562 1866.47 Q715.626 1864.78 716.084 1863.05 Z" fill="#000000" fill-rule="evenodd" fill-opacity="1" /><path clip-path="url(#clip080)" d="M715.871 1827.87 L723.548 1844.52 L732.534 1835.53 L715.871 1827.87 M710.748 1826.48 L714.496 1822.73 L748.248 1837.86 L744.81 1841.29 L736.315 1837.25 L725.299 1848.27 L729.342 1856.76 L725.856 1860.25 L710.748 1826.48 Z" fill="#000000" fill-rule="evenodd" fill-opacity="1" /><path clip-path="url(#clip080)" d="M721.387 1815.84 L742.06 1795.17 L744.843 1797.95 L736.168 1806.63 L757.823 1828.28 L754.5 1831.6 L732.845 1809.95 L724.17 1818.62 L721.387 1815.84 Z" fill="#000000" fill-rule="evenodd" fill-opacity="1" /><path clip-path="url(#clip080)" d="M754.075 1789.67 L761.751 1806.31 L770.737 1797.33 L754.075 1789.67 M748.951 1788.28 L752.7 1784.53 L786.451 1799.65 L783.013 1803.09 L774.518 1799.05 L763.503 1810.06 L767.546 1818.56 L764.059 1822.04 L748.951 1788.28 Z" fill="#000000" fill-rule="evenodd" fill-opacity="1" /><path clip-path="url(#clip080)" d="M777.841 1765.15 L782.539 1786.54 L790.887 1778.19 L777.841 1765.15 M774.093 1763.14 L778.25 1758.98 L794.177 1774.9 L797.663 1771.42 L800.413 1774.17 L796.926 1777.65 L802.688 1783.42 L799.398 1786.71 L793.636 1780.94 L782.604 1791.98 L779.412 1788.78 L774.093 1763.14 Z" fill="#000000" fill-rule="evenodd" fill-opacity="1" /><path clip-path="url(#clip080)" d="M778.641 1824.81 L781.866 1828.03 Q779.083 1829.02 776.972 1830.24 Q774.86 1831.47 773.305 1833.03 Q770.605 1835.73 770.179 1838.25 Q769.77 1840.75 771.701 1842.68 Q773.322 1844.3 775.122 1844.17 Q776.923 1844.01 780.147 1841.8 L782.553 1840.21 Q786.956 1837.22 790.492 1837.25 Q794.027 1837.25 797.006 1840.23 Q800.558 1843.78 800.002 1848 Q799.462 1852.21 794.862 1856.81 Q793.127 1858.55 790.77 1860.12 Q788.43 1861.67 785.565 1863 L782.161 1859.59 Q785.303 1858.71 787.808 1857.35 Q790.312 1855.99 792.178 1854.13 Q795.01 1851.29 795.435 1848.64 Q795.861 1845.99 793.798 1843.93 Q791.998 1842.13 789.87 1842.23 Q787.758 1842.31 784.73 1844.32 L782.324 1845.94 Q777.888 1848.9 774.664 1848.99 Q771.439 1849.07 768.64 1846.27 Q765.4 1843.03 765.809 1838.89 Q766.234 1834.73 770.245 1830.72 Q771.963 1829 774.058 1827.53 Q776.153 1826.05 778.641 1824.81 Z" fill="#000000" fill-rule="evenodd" fill-opacity="1" /><path clip-path="url(#clip080)" d="M796.63 1809.7 Q793.029 1813.3 793.586 1818.12 Q794.158 1822.91 798.791 1827.54 Q803.406 1832.16 808.202 1832.73 Q813.014 1833.29 816.615 1829.69 Q820.216 1826.09 819.627 1821.31 Q819.054 1816.51 814.439 1811.9 Q809.806 1807.26 805.01 1806.69 Q800.231 1806.1 796.63 1809.7 M793.946 1807.02 Q799.085 1801.88 805.616 1802.26 Q812.131 1802.62 817.925 1808.41 Q823.703 1814.19 824.079 1820.72 Q824.439 1827.23 819.3 1832.37 Q814.144 1837.53 807.613 1837.18 Q801.098 1836.82 795.304 1831.03 Q789.51 1825.24 789.15 1818.72 Q788.79 1812.17 793.946 1807.02 Z" fill="#000000" fill-rule="evenodd" fill-opacity="1" /><path clip-path="url(#clip080)" d="M807.531 1794.32 L811.083 1790.76 L826.24 1793.78 L823.261 1778.59 L826.813 1775.04 L830.692 1794.63 L851.774 1798.95 L848.222 1802.5 L830.954 1798.98 L834.424 1816.3 L830.856 1819.87 L826.535 1798.1 L807.531 1794.32 Z" fill="#000000" fill-rule="evenodd" fill-opacity="1" /><path clip-path="url(#clip080)" d="M856.472 1788.69 L868.011 1777.15 L870.794 1779.93 L855.277 1795.45 L852.494 1792.66 Q852.429 1788.83 852.396 1782.32 Q852.363 1775.77 852.249 1773.99 Q852.052 1770.62 851.447 1768.77 Q850.841 1766.88 849.646 1765.69 Q847.699 1763.74 845.096 1763.89 Q842.51 1764.02 840.317 1766.21 Q838.762 1767.77 837.567 1770.04 Q836.388 1772.3 835.521 1775.36 L832.182 1772.02 Q833.376 1769.22 834.702 1767.08 Q836.028 1764.94 837.468 1763.5 Q841.266 1759.7 845.423 1759.34 Q849.581 1758.98 852.756 1762.15 Q854.262 1763.66 855.048 1765.59 Q855.833 1767.49 856.177 1770.81 Q856.243 1771.7 856.325 1776.16 Q856.39 1780.62 856.472 1788.69 Z" fill="#000000" fill-rule="evenodd" fill-opacity="1" /><path clip-path="url(#clip080)" d="M860.595 1805.87 L863.901 1802.57 L888.339 1827 L885.032 1830.31 L860.595 1805.87 Z" fill="#000000" fill-rule="evenodd" fill-opacity="1" /><path clip-path="url(#clip080)" d="M876.505 1795.4 L895.508 1814.4 L899.502 1810.41 Q904.56 1805.35 904.609 1800.72 Q904.674 1796.07 899.731 1791.12 Q894.821 1786.21 890.188 1786.3 Q885.556 1786.35 880.499 1791.4 L876.505 1795.4 M870.481 1795.99 L877.274 1789.19 Q884.378 1782.09 890.663 1781.73 Q896.932 1781.35 903.217 1787.64 Q909.536 1793.96 909.159 1800.26 Q908.783 1806.56 901.712 1813.63 L894.919 1820.42 L870.481 1795.99 Z" fill="#000000" fill-rule="evenodd" fill-opacity="1" /><path clip-path="url(#clip080)" d="M921.091 1788.69 L932.631 1777.15 L935.414 1779.93 L919.897 1795.45 L917.114 1792.66 Q917.049 1788.83 917.016 1782.32 Q916.983 1775.77 916.868 1773.99 Q916.672 1770.62 916.066 1768.77 Q915.461 1766.88 914.266 1765.69 Q912.318 1763.74 909.716 1763.89 Q907.129 1764.02 904.936 1766.21 Q903.381 1767.77 902.186 1770.04 Q901.008 1772.3 900.14 1775.36 L896.801 1772.02 Q897.996 1769.22 899.322 1767.08 Q900.648 1764.94 902.088 1763.5 Q905.885 1759.7 910.043 1759.34 Q914.2 1758.98 917.376 1762.15 Q918.882 1763.66 919.667 1765.59 Q920.453 1767.49 920.797 1770.81 Q920.862 1771.7 920.944 1776.16 Q921.01 1780.62 921.091 1788.69 Z" fill="#000000" fill-rule="evenodd" fill-opacity="1" /><path clip-path="url(#clip080)" d="M910.172 1862.82 L903.609 1856.25 L898.207 1861.66 L895.49 1858.94 L904.165 1850.26 L914.657 1860.75 Q914.101 1864.03 912.496 1867.04 Q910.876 1870.04 908.257 1872.65 Q902.528 1878.38 895.948 1878.29 Q889.368 1878.15 883.394 1872.18 Q877.403 1866.19 877.289 1859.63 Q877.174 1853.03 882.903 1847.3 Q885.293 1844.91 888.026 1843.36 Q890.776 1841.78 893.739 1841.11 L897.258 1844.63 Q893.87 1844.91 891.021 1846.19 Q888.173 1847.46 885.898 1849.74 Q881.413 1854.22 881.659 1858.99 Q881.921 1863.73 886.88 1868.69 Q891.824 1873.64 896.57 1873.9 Q901.333 1874.14 905.818 1869.66 Q907.57 1867.91 908.65 1866.24 Q909.714 1864.55 910.172 1862.82 Z" fill="#000000" fill-rule="evenodd" fill-opacity="1" /><path clip-path="url(#clip080)" d="M909.959 1827.64 L917.636 1844.29 L926.622 1835.3 L909.959 1827.64 M904.836 1826.25 L908.584 1822.5 L942.336 1837.63 L938.898 1841.06 L930.403 1837.02 L919.387 1848.04 L923.43 1856.53 L919.944 1860.02 L904.836 1826.25 Z" fill="#000000" fill-rule="evenodd" fill-opacity="1" /><path clip-path="url(#clip080)" d="M915.475 1815.61 L936.148 1794.94 L938.931 1797.72 L930.256 1806.4 L951.911 1828.05 L948.588 1831.37 L926.933 1809.72 L918.258 1818.39 L915.475 1815.61 Z" fill="#000000" fill-rule="evenodd" fill-opacity="1" /><path clip-path="url(#clip080)" d="M948.163 1789.44 L955.839 1806.09 L964.825 1797.1 L948.163 1789.44 M943.039 1788.05 L946.788 1784.3 L980.539 1799.42 L977.101 1802.86 L968.606 1798.82 L957.591 1809.83 L961.634 1818.33 L958.147 1821.82 L943.039 1788.05 Z" fill="#000000" fill-rule="evenodd" fill-opacity="1" /><path clip-path="url(#clip080)" d="M978.345 1774.54 Q976.119 1776.77 976.332 1779.6 Q976.561 1782.42 979.213 1785.07 Q981.848 1787.7 984.68 1787.95 Q987.512 1788.16 989.738 1785.94 Q991.964 1783.71 991.735 1780.89 Q991.505 1778.05 988.87 1775.41 Q986.219 1772.76 983.387 1772.55 Q980.572 1772.32 978.345 1774.54 M974.548 1757.62 L977.56 1760.63 Q975.727 1761.29 974.139 1762.25 Q972.567 1763.2 971.324 1764.44 Q968.05 1767.72 968.525 1771.66 Q969.016 1775.59 973.239 1780.31 Q972.78 1777.92 973.484 1775.71 Q974.172 1773.48 975.923 1771.73 Q979.606 1768.05 983.976 1768.16 Q988.346 1768.24 992.193 1772.09 Q995.958 1775.85 996.007 1780.35 Q996.056 1784.86 992.357 1788.56 Q988.117 1792.79 982.634 1791.8 Q977.134 1790.78 970.963 1784.61 Q965.169 1778.82 964.482 1772.63 Q963.778 1766.43 968.41 1761.79 Q969.654 1760.55 971.16 1759.53 Q972.682 1758.5 974.548 1757.62 Z" fill="#000000" fill-rule="evenodd" fill-opacity="1" /><path clip-path="url(#clip080)" d="M912.233 1883.47 L931.433 1864.27 L933.953 1866.79 L937.636 1901.38 L953.464 1885.55 L956.247 1888.34 L936.294 1908.29 L933.773 1905.77 L930.09 1871.18 L915.015 1886.26 L912.233 1883.47 Z" fill="#000000" fill-rule="evenodd" fill-opacity="1" /><path clip-path="url(#clip080)" d="M952.678 1868.56 L961.632 1877.52 L966.935 1872.21 Q969.603 1869.54 969.783 1867.17 Q969.963 1864.77 967.688 1862.49 Q965.397 1860.2 963.023 1860.41 Q960.65 1860.59 957.982 1863.26 L952.678 1868.56 M942.628 1858.51 L949.994 1865.88 L954.888 1860.98 Q957.311 1858.56 957.589 1856.48 Q957.867 1854.37 956.001 1852.51 Q954.152 1850.66 952.04 1850.93 Q949.945 1851.2 947.523 1853.62 L942.628 1858.51 M936.605 1859.1 L945.051 1850.66 Q948.832 1846.87 952.449 1846.4 Q956.067 1845.93 958.964 1848.82 Q961.206 1851.06 961.485 1853.44 Q961.763 1855.81 960.061 1858.17 Q963.023 1856.25 966.035 1856.58 Q969.047 1856.88 971.535 1859.36 Q974.808 1862.64 974.366 1866.65 Q973.924 1870.66 969.816 1874.77 L961.043 1883.54 L936.605 1859.1 Z" fill="#000000" fill-rule="evenodd" fill-opacity="1" /><path clip-path="url(#clip080)" d="M956.214 1839.49 L976.887 1818.82 L979.67 1821.6 L970.994 1830.28 L992.649 1851.93 L989.327 1855.26 L967.672 1833.6 L958.997 1842.28 L956.214 1839.49 Z" fill="#000000" fill-rule="evenodd" fill-opacity="1" /><path clip-path="url(#clip080)" d="M996.152 1825.09 L1005.11 1834.04 L1010.41 1828.74 Q1013.08 1826.07 1013.26 1823.7 Q1013.44 1821.29 1011.16 1819.02 Q1008.87 1816.72 1006.5 1816.94 Q1004.12 1817.12 1001.46 1819.79 L996.152 1825.09 M986.102 1815.04 L993.468 1822.4 L998.362 1817.51 Q1000.78 1815.09 1001.06 1813.01 Q1001.34 1810.9 999.475 1809.03 Q997.625 1807.18 995.514 1807.46 Q993.419 1807.72 990.996 1810.14 L986.102 1815.04 M980.079 1815.63 L988.525 1807.18 Q992.306 1803.4 995.923 1802.93 Q999.54 1802.45 1002.44 1805.35 Q1004.68 1807.59 1004.96 1809.96 Q1005.24 1812.34 1003.53 1814.69 Q1006.5 1812.78 1009.51 1813.11 Q1012.52 1813.4 1015.01 1815.89 Q1018.28 1819.16 1017.84 1823.17 Q1017.4 1827.18 1013.29 1831.29 L1004.52 1840.07 L980.079 1815.63 Z" fill="#000000" fill-rule="evenodd" fill-opacity="1" /><path clip-path="url(#clip080)" d="M1025.6 1813.42 L1031 1808.02 L1012.36 1789.37 L1007.66 1796.43 L1004.65 1793.42 L1009.31 1786.39 L1012.62 1783.09 L1034.27 1804.74 L1039.68 1799.34 L1042.46 1802.12 L1028.38 1816.2 L1025.6 1813.42 Z" fill="#000000" fill-rule="evenodd" fill-opacity="1" /><path clip-path="url(#clip080)" d="M1033.95 1766.11 Q1031.39 1768.67 1032.62 1772.48 Q1033.85 1776.26 1038.89 1781.3 Q1043.91 1786.33 1047.71 1787.57 Q1051.51 1788.78 1054.06 1786.23 Q1056.63 1783.66 1055.4 1779.88 Q1054.18 1776.07 1049.15 1771.04 Q1044.11 1766 1040.31 1764.79 Q1036.52 1763.54 1033.95 1766.11 M1031.33 1763.5 Q1035.44 1759.39 1040.85 1760.48 Q1046.27 1761.55 1052.46 1767.73 Q1058.63 1773.91 1059.71 1779.34 Q1060.79 1784.74 1056.68 1788.85 Q1052.57 1792.96 1047.16 1791.89 Q1041.74 1790.8 1035.57 1784.63 Q1029.38 1778.44 1028.3 1773.04 Q1027.22 1767.6 1031.33 1763.5 Z" fill="#000000" fill-rule="evenodd" fill-opacity="1" /><path clip-path="url(#clip080)" d="M979.455 1884.64 L982.941 1888.12 Q979.717 1888.24 977.049 1889.37 Q974.397 1890.48 972.269 1892.61 Q968.079 1896.8 968.423 1901.59 Q968.75 1906.37 973.595 1911.22 Q978.424 1916.05 983.22 1916.39 Q987.999 1916.72 992.189 1912.53 Q994.317 1910.4 995.43 1907.75 Q996.56 1905.08 996.674 1901.86 L1000.13 1905.31 Q999.571 1908.22 998.213 1910.76 Q996.871 1913.28 994.71 1915.44 Q989.161 1920.99 982.581 1920.79 Q975.985 1920.58 970.109 1914.7 Q964.216 1908.81 964.02 1902.23 Q963.807 1895.64 969.356 1890.09 Q971.549 1887.89 974.07 1886.55 Q976.591 1885.18 979.455 1884.64 Z" fill="#000000" fill-rule="evenodd" fill-opacity="1" /><path clip-path="url(#clip080)" d="M1007.25 1879.04 Q1008.67 1878.33 1010.85 1878.51 Q1013.04 1878.68 1016.12 1879.73 L1026.15 1883.05 L1022.6 1886.6 L1013.21 1883.46 Q1009.54 1882.21 1007.59 1882.56 Q1005.66 1882.88 1003.7 1884.85 L1000.1 1888.45 L1010.42 1898.78 L1007.12 1902.08 L982.68 1877.65 L990.143 1870.18 Q994.334 1865.99 998.147 1865.68 Q1001.96 1865.37 1005.5 1868.91 Q1007.8 1871.21 1008.25 1873.82 Q1008.7 1876.4 1007.25 1879.04 M988.703 1877.06 L997.378 1885.73 L1001.54 1881.58 Q1003.93 1879.19 1004.04 1876.88 Q1004.15 1874.54 1002.01 1872.39 Q999.866 1870.25 997.558 1870.4 Q995.25 1870.51 992.86 1872.9 L988.703 1877.06 Z" fill="#000000" fill-rule="evenodd" fill-opacity="1" /><path clip-path="url(#clip080)" d="M1005.97 1854.35 L1021.42 1838.9 L1024.21 1841.69 L1012.06 1853.83 L1019.3 1861.07 L1030.93 1849.43 L1033.72 1852.21 L1022.08 1863.85 L1030.93 1872.7 L1043.37 1860.26 L1046.16 1863.05 L1030.41 1878.79 L1005.97 1854.35 Z" fill="#000000" fill-rule="evenodd" fill-opacity="1" /><path clip-path="url(#clip080)" d="M1043.23 1842.64 L1052.18 1851.59 L1057.48 1846.29 Q1060.15 1843.62 1060.33 1841.24 Q1060.51 1838.84 1058.23 1836.56 Q1055.94 1834.27 1053.57 1834.48 Q1051.2 1834.66 1048.53 1837.33 L1043.23 1842.64 M1033.18 1832.59 L1040.54 1839.95 L1045.43 1835.06 Q1047.86 1832.63 1048.14 1830.56 Q1048.41 1828.44 1046.55 1826.58 Q1044.7 1824.73 1042.59 1825.01 Q1040.49 1825.27 1038.07 1827.69 L1033.18 1832.59 M1027.15 1833.17 L1035.6 1824.73 Q1039.38 1820.95 1043 1820.47 Q1046.61 1820 1049.51 1822.9 Q1051.75 1825.14 1052.03 1827.51 Q1052.31 1829.88 1050.61 1832.24 Q1053.57 1830.33 1056.58 1830.65 Q1059.59 1830.95 1062.08 1833.44 Q1065.35 1836.71 1064.91 1840.72 Q1064.47 1844.73 1060.36 1848.84 L1051.59 1857.61 L1027.15 1833.17 Z" fill="#000000" fill-rule="evenodd" fill-opacity="1" /><path clip-path="url(#clip080)" d="M1071.72 1811.13 Q1074.6 1809.26 1077.53 1809.54 Q1080.48 1809.8 1082.84 1812.16 Q1086.45 1815.78 1085.95 1820.24 Q1085.44 1824.71 1080.86 1829.3 Q1079.32 1830.83 1077.37 1832.16 Q1075.45 1833.49 1073.11 1834.61 L1069.92 1831.42 Q1072.1 1830.85 1074.14 1829.62 Q1076.19 1828.4 1077.97 1826.61 Q1081.08 1823.5 1081.48 1820.65 Q1081.89 1817.79 1079.55 1815.45 Q1077.39 1813.29 1074.65 1813.6 Q1071.92 1813.88 1069.22 1816.58 L1066.37 1819.43 L1063.65 1816.71 L1066.63 1813.73 Q1069.07 1811.29 1069.4 1809.03 Q1069.71 1806.76 1067.88 1804.92 Q1065.99 1803.04 1063.65 1803.38 Q1061.31 1803.7 1058.82 1806.18 Q1057.47 1807.54 1056.21 1809.39 Q1054.94 1811.24 1053.7 1813.73 L1050.75 1810.78 Q1052.11 1808.38 1053.49 1806.48 Q1054.88 1804.56 1056.34 1803.11 Q1060.1 1799.34 1064.01 1798.87 Q1067.91 1798.38 1070.82 1801.29 Q1072.85 1803.32 1073.1 1805.89 Q1073.33 1808.44 1071.72 1811.13 Z" fill="#000000" fill-rule="evenodd" fill-opacity="1" /><path clip-path="url(#clip080)" d="M1071.48 1788.85 L1074.78 1785.54 L1096.44 1807.2 L1108.34 1795.3 L1111.12 1798.08 L1095.91 1813.29 L1071.48 1788.85 Z" fill="#000000" fill-rule="evenodd" fill-opacity="1" /><path clip-path="url(#clip080)" d="M1114.95 1788.69 L1126.49 1777.15 L1129.27 1779.93 L1113.76 1795.45 L1110.97 1792.66 Q1110.91 1788.83 1110.87 1782.32 Q1110.84 1775.77 1110.73 1773.99 Q1110.53 1770.62 1109.93 1768.77 Q1109.32 1766.88 1108.12 1765.69 Q1106.18 1763.74 1103.57 1763.89 Q1100.99 1764.02 1098.79 1766.21 Q1097.24 1767.77 1096.05 1770.04 Q1094.87 1772.3 1094 1775.36 L1090.66 1772.02 Q1091.85 1769.22 1093.18 1767.08 Q1094.51 1764.94 1095.95 1763.5 Q1099.74 1759.7 1103.9 1759.34 Q1108.06 1758.98 1111.23 1762.15 Q1112.74 1763.66 1113.53 1765.59 Q1114.31 1767.49 1114.66 1770.81 Q1114.72 1771.7 1114.8 1776.16 Q1114.87 1780.62 1114.95 1788.69 Z" fill="#000000" fill-rule="evenodd" fill-opacity="1" /><path clip-path="url(#clip080)" d="M1093.36 1831.59 L1096.67 1828.28 L1106.99 1838.61 L1107.63 1817.31 L1111.89 1813.06 L1111.15 1836.58 L1137.19 1836.63 L1132.84 1840.98 L1109.33 1840.95 L1121.1 1852.72 L1117.8 1856.02 L1093.36 1831.59 Z" fill="#000000" fill-rule="evenodd" fill-opacity="1" /><path clip-path="url(#clip080)" d="M1115.34 1809.6 L1118.65 1806.3 L1140.3 1827.95 L1152.2 1816.05 L1154.99 1818.84 L1139.78 1834.04 L1115.34 1809.6 Z" fill="#000000" fill-rule="evenodd" fill-opacity="1" /><path clip-path="url(#clip080)" d="M1134.02 1790.93 L1148.06 1776.88 L1150.84 1779.67 L1140.11 1790.4 L1147.31 1797.61 L1157 1787.92 L1159.78 1790.7 L1150.09 1800.39 L1161.76 1812.06 L1158.46 1815.37 L1134.02 1790.93 Z" fill="#000000" fill-rule="evenodd" fill-opacity="1" /><path clip-path="url(#clip080)" d="M1165.56 1765.15 L1170.26 1786.54 L1178.6 1778.19 L1165.56 1765.15 M1161.81 1763.14 L1165.97 1758.98 L1181.89 1774.9 L1185.38 1771.42 L1188.13 1774.17 L1184.64 1777.65 L1190.41 1783.42 L1187.12 1786.71 L1181.35 1780.94 L1170.32 1791.98 L1167.13 1788.78 L1161.81 1763.14 Z" fill="#000000" fill-rule="evenodd" fill-opacity="1" /><path clip-path="url(#clip080)" d="M1114.67 1874.9 L1119.12 1870.44 L1150.4 1880.05 L1129.96 1859.61 L1133.16 1856.4 L1157.6 1880.84 L1153.15 1885.29 L1121.87 1875.68 L1142.31 1896.13 L1139.11 1899.33 L1114.67 1874.9 Z" fill="#000000" fill-rule="evenodd" fill-opacity="1" /><path clip-path="url(#clip080)" d="M1151.17 1844.91 L1158.85 1861.56 L1167.83 1852.57 L1151.17 1844.91 M1146.05 1843.52 L1149.79 1839.77 L1183.55 1854.9 L1180.11 1858.33 L1171.61 1854.29 L1160.6 1865.31 L1164.64 1873.8 L1161.15 1877.29 L1146.05 1843.52 Z" fill="#000000" fill-rule="evenodd" fill-opacity="1" /><path clip-path="url(#clip080)" d="M1162.68 1826.89 L1167.13 1822.44 L1198.41 1832.05 L1177.96 1811.6 L1181.17 1808.39 L1205.61 1832.83 L1201.16 1837.28 L1169.88 1827.67 L1190.32 1848.12 L1187.11 1851.33 L1162.68 1826.89 Z" fill="#000000" fill-rule="evenodd" fill-opacity="1" /><path clip-path="url(#clip080)" d="M1199.91 1794.14 Q1196.31 1797.74 1196.87 1802.55 Q1197.44 1807.35 1202.07 1811.98 Q1206.69 1816.59 1211.49 1817.17 Q1216.3 1817.72 1219.9 1814.12 Q1223.5 1810.52 1222.91 1805.74 Q1222.34 1800.95 1217.72 1796.33 Q1213.09 1791.7 1208.29 1791.12 Q1203.51 1790.54 1199.91 1794.14 M1197.23 1791.45 Q1202.37 1786.31 1208.9 1786.69 Q1215.41 1787.05 1221.21 1792.84 Q1226.99 1798.62 1227.36 1805.15 Q1227.72 1811.67 1222.58 1816.81 Q1217.43 1821.96 1210.9 1821.62 Q1204.38 1821.26 1198.59 1815.46 Q1192.79 1809.67 1192.43 1803.16 Q1192.07 1796.61 1197.23 1791.45 Z" fill="#000000" fill-rule="evenodd" fill-opacity="1" /><path clip-path="url(#clip080)" d="M1251.75 1779.72 L1245.19 1773.15 L1239.79 1778.55 L1237.07 1775.84 L1245.74 1767.16 L1256.24 1777.65 Q1255.68 1780.93 1254.08 1783.94 Q1252.46 1786.93 1249.84 1789.55 Q1244.11 1795.28 1237.53 1795.18 Q1230.95 1795.05 1224.97 1789.08 Q1218.98 1783.09 1218.87 1776.52 Q1218.75 1769.93 1224.48 1764.2 Q1226.87 1761.81 1229.61 1760.25 Q1232.36 1758.68 1235.32 1758.01 L1238.84 1761.53 Q1235.45 1761.81 1232.6 1763.09 Q1229.75 1764.36 1227.48 1766.64 Q1222.99 1771.12 1223.24 1775.89 Q1223.5 1780.63 1228.46 1785.59 Q1233.4 1790.54 1238.15 1790.8 Q1242.91 1791.04 1247.4 1786.56 Q1249.15 1784.81 1250.23 1783.14 Q1251.29 1781.45 1251.75 1779.72 Z" fill="#000000" fill-rule="evenodd" fill-opacity="1" /><path clip-path="url(#clip080)" d="M1239.75 1840.39 Q1241.18 1839.69 1243.35 1839.87 Q1245.55 1840.03 1248.62 1841.08 L1258.66 1844.4 L1255.11 1847.96 L1245.71 1844.81 Q1242.04 1843.57 1240.1 1843.91 Q1238.16 1844.24 1236.2 1846.2 L1232.6 1849.8 L1242.93 1860.13 L1239.62 1863.44 L1215.18 1839 L1222.65 1831.54 Q1226.84 1827.35 1230.65 1827.04 Q1234.47 1826.73 1238 1830.26 Q1240.31 1832.57 1240.75 1835.17 Q1241.21 1837.76 1239.75 1840.39 M1221.21 1838.41 L1229.88 1847.09 L1234.04 1842.93 Q1236.43 1840.54 1236.54 1838.23 Q1236.66 1835.89 1234.51 1833.75 Q1232.37 1831.6 1230.06 1831.75 Q1227.75 1831.87 1225.36 1834.25 L1221.21 1838.41 Z" fill="#000000" fill-rule="evenodd" fill-opacity="1" /><path clip-path="url(#clip080)" d="M1238.48 1815.71 L1253.93 1800.26 L1256.71 1803.04 L1244.56 1815.19 L1251.8 1822.42 L1263.44 1810.78 L1266.22 1813.57 L1254.58 1825.2 L1263.44 1834.06 L1275.88 1821.62 L1278.66 1824.4 L1262.91 1840.15 L1238.48 1815.71 Z" fill="#000000" fill-rule="evenodd" fill-opacity="1" /><path clip-path="url(#clip080)" d="M1284.22 1795.92 Q1285.65 1795.22 1287.83 1795.4 Q1290.02 1795.56 1293.1 1796.61 L1303.13 1799.93 L1299.58 1803.48 L1290.18 1800.34 Q1286.52 1799.1 1284.57 1799.44 Q1282.64 1799.77 1280.67 1801.73 L1277.07 1805.33 L1287.4 1815.66 L1284.09 1818.97 L1259.66 1794.53 L1267.12 1787.07 Q1271.31 1782.88 1275.12 1782.56 Q1278.94 1782.25 1282.47 1785.79 Q1284.78 1788.1 1285.22 1790.7 Q1285.68 1793.29 1284.22 1795.92 M1265.68 1793.94 L1274.35 1802.62 L1278.51 1798.46 Q1280.9 1796.07 1281.02 1793.76 Q1281.13 1791.42 1278.99 1789.28 Q1276.84 1787.13 1274.53 1787.28 Q1272.23 1787.39 1269.84 1789.78 L1265.68 1793.94 Z" fill="#000000" fill-rule="evenodd" fill-opacity="1" /><path clip-path="url(#clip080)" d="M1282.95 1771.24 L1298.4 1755.79 L1301.18 1758.57 L1289.04 1770.71 L1296.27 1777.95 L1307.91 1766.31 L1310.69 1769.09 L1299.05 1780.73 L1307.91 1789.59 L1320.35 1777.15 L1323.13 1779.93 L1307.39 1795.68 L1282.95 1771.24 Z" fill="#000000" fill-rule="evenodd" fill-opacity="1" /><path clip-path="url(#clip080)" d="M1253.37 1865.44 L1274.04 1844.76 L1276.82 1847.55 L1268.15 1856.22 L1289.8 1877.88 L1286.48 1881.2 L1264.83 1859.54 L1256.15 1868.22 L1253.37 1865.44 Z" fill="#000000" fill-rule="evenodd" fill-opacity="1" /><path clip-path="url(#clip080)" d="M1277.23 1841.57 L1292.68 1826.12 L1295.47 1828.9 L1283.32 1841.05 L1290.56 1848.28 L1302.19 1836.64 L1304.98 1839.43 L1293.34 1851.06 L1302.19 1859.92 L1314.63 1847.48 L1317.42 1850.26 L1301.67 1866.01 L1277.23 1841.57 Z" fill="#000000" fill-rule="evenodd" fill-opacity="1" /><path clip-path="url(#clip080)" d="M1309.84 1815.48 L1317.52 1832.13 L1326.5 1823.14 L1309.84 1815.48 M1304.72 1814.09 L1308.46 1810.34 L1342.21 1825.47 L1338.78 1828.9 L1330.28 1824.86 L1319.27 1835.88 L1323.31 1844.37 L1319.82 1847.86 L1304.72 1814.09 Z" fill="#000000" fill-rule="evenodd" fill-opacity="1" /><path clip-path="url(#clip080)" d="M1327.37 1796.87 L1346.37 1815.87 L1350.37 1811.88 Q1355.42 1806.82 1355.47 1802.19 Q1355.54 1797.54 1350.6 1792.6 Q1345.68 1787.69 1341.05 1787.77 Q1336.42 1787.82 1331.36 1792.88 L1327.37 1796.87 M1321.35 1797.46 L1328.14 1790.67 Q1335.24 1783.56 1341.53 1783.2 Q1347.8 1782.83 1354.08 1789.11 Q1360.4 1795.43 1360.02 1801.73 Q1359.65 1808.03 1352.58 1815.1 L1345.78 1821.9 L1321.35 1797.46 Z" fill="#000000" fill-rule="evenodd" fill-opacity="1" /><path clip-path="url(#clip080)" d="M1359.42 1765.15 L1364.12 1786.54 L1372.46 1778.19 L1359.42 1765.15 M1355.67 1763.14 L1359.83 1758.98 L1375.75 1774.9 L1379.24 1771.42 L1381.99 1774.17 L1378.5 1777.65 L1384.26 1783.42 L1380.97 1786.71 L1375.21 1780.94 L1364.18 1791.98 L1360.99 1788.78 L1355.67 1763.14 Z" fill="#000000" fill-rule="evenodd" fill-opacity="1" /><path clip-path="url(#clip080)" d="M1353.44 1829.98 L1368.89 1814.53 L1371.68 1817.31 L1359.53 1829.46 L1366.77 1836.69 L1378.4 1825.06 L1381.19 1827.84 L1369.55 1839.48 L1378.4 1848.33 L1390.84 1835.89 L1393.63 1838.67 L1377.88 1854.42 L1353.44 1829.98 Z" fill="#000000" fill-rule="evenodd" fill-opacity="1" /><path clip-path="url(#clip080)" d="M1374.62 1808.8 L1377.93 1805.5 L1399.58 1827.15 L1411.48 1815.25 L1414.27 1818.03 L1399.06 1833.24 L1374.62 1808.8 Z" fill="#000000" fill-rule="evenodd" fill-opacity="1" /><path clip-path="url(#clip080)" d="M1393.3 1790.13 L1407.34 1776.08 L1410.12 1778.87 L1399.39 1789.6 L1406.59 1796.8 L1416.28 1787.11 L1419.06 1789.9 L1409.37 1799.59 L1421.04 1811.26 L1417.74 1814.56 L1393.3 1790.13 Z" fill="#000000" fill-rule="evenodd" fill-opacity="1" /><path clip-path="url(#clip080)" d="M1434.15 1771.79 Q1437.03 1769.93 1439.96 1770.21 Q1442.91 1770.47 1445.27 1772.83 Q1448.88 1776.44 1448.38 1780.91 Q1447.87 1785.38 1443.29 1789.96 Q1441.75 1791.5 1439.8 1792.83 Q1437.88 1794.15 1435.54 1795.28 L1432.35 1792.09 Q1434.53 1791.52 1436.58 1790.29 Q1438.62 1789.06 1440.41 1787.28 Q1443.52 1784.17 1443.91 1781.32 Q1444.32 1778.46 1441.98 1776.12 Q1439.82 1773.95 1437.08 1774.27 Q1434.35 1774.54 1431.65 1777.24 L1428.8 1780.09 L1426.08 1777.38 L1429.06 1774.4 Q1431.5 1771.96 1431.83 1769.7 Q1432.14 1767.42 1430.31 1765.59 Q1428.42 1763.71 1426.08 1764.05 Q1423.74 1764.36 1421.25 1766.85 Q1419.9 1768.21 1418.64 1770.06 Q1417.38 1771.91 1416.13 1774.4 L1413.19 1771.45 Q1414.54 1769.04 1415.92 1767.15 Q1417.31 1765.23 1418.77 1763.77 Q1422.53 1760.01 1426.44 1759.53 Q1430.34 1759.04 1433.25 1761.96 Q1435.28 1763.99 1435.53 1766.56 Q1435.76 1769.11 1434.15 1771.79 Z" fill="#000000" fill-rule="evenodd" fill-opacity="1" /><path clip-path="url(#clip080)" d="M1410.25 1837.79 L1413.81 1834.24 L1428.96 1837.25 L1425.98 1822.06 L1429.54 1818.51 L1433.41 1838.1 L1454.5 1842.42 L1450.94 1845.97 L1433.68 1842.46 L1437.15 1859.77 L1433.58 1863.34 L1429.26 1841.57 L1410.25 1837.79 Z" fill="#000000" fill-rule="evenodd" fill-opacity="1" /><path clip-path="url(#clip080)" d="M1450.47 1823.11 L1459.42 1832.06 L1464.73 1826.76 Q1467.39 1824.09 1467.57 1821.72 Q1467.75 1819.31 1465.48 1817.04 Q1463.19 1814.74 1460.81 1814.96 Q1458.44 1815.14 1455.77 1817.8 L1450.47 1823.11 M1440.42 1813.06 L1447.79 1820.42 L1452.68 1815.53 Q1455.1 1813.11 1455.38 1811.03 Q1455.66 1808.92 1453.79 1807.05 Q1451.94 1805.2 1449.83 1805.48 Q1447.74 1805.74 1445.31 1808.16 L1440.42 1813.06 M1434.4 1813.65 L1442.84 1805.2 Q1446.62 1801.42 1450.24 1800.95 Q1453.86 1800.47 1456.76 1803.37 Q1459 1805.61 1459.28 1807.98 Q1459.55 1810.36 1457.85 1812.71 Q1460.81 1810.8 1463.83 1811.13 Q1466.84 1811.42 1469.33 1813.91 Q1472.6 1817.18 1472.16 1821.19 Q1471.72 1825.2 1467.61 1829.31 L1458.83 1838.09 L1434.4 1813.65 Z" fill="#000000" fill-rule="evenodd" fill-opacity="1" /><path clip-path="url(#clip080)" d="M1463.42 1790.06 L1472.6 1799.24 L1476.76 1795.09 Q1479.07 1792.78 1479.13 1790.32 Q1479.2 1787.87 1476.99 1785.66 Q1474.79 1783.46 1472.34 1783.53 Q1469.88 1783.6 1467.57 1785.9 L1463.42 1790.06 M1457.39 1790.65 L1464.86 1783.19 Q1468.97 1779.08 1472.93 1778.85 Q1476.89 1778.59 1480.47 1782.17 Q1484.09 1785.79 1483.83 1789.75 Q1483.58 1793.69 1479.47 1797.8 L1475.32 1801.96 L1485.14 1811.78 L1481.83 1815.09 L1457.39 1790.65 Z" fill="#000000" fill-rule="evenodd" fill-opacity="1" /><path clip-path="url(#clip080)" d="M1500.13 1791.22 L1505.53 1785.82 L1486.89 1767.18 L1482.19 1774.23 L1479.18 1771.22 L1483.84 1764.2 L1487.15 1760.89 L1508.81 1782.55 L1514.21 1777.15 L1516.99 1779.93 L1502.91 1794.01 L1500.13 1791.22 Z" fill="#000000" fill-rule="evenodd" fill-opacity="1" /><path clip-path="url(#clip080)" d="M1503.55 1810.72 L1506.77 1813.94 Q1503.99 1814.92 1501.88 1816.15 Q1499.77 1817.38 1498.21 1818.93 Q1495.51 1821.64 1495.09 1824.16 Q1494.68 1826.66 1496.61 1828.59 Q1498.23 1830.21 1500.03 1830.08 Q1501.83 1829.92 1505.06 1827.71 L1507.46 1826.12 Q1511.87 1823.12 1515.4 1823.16 Q1518.94 1823.16 1521.92 1826.14 Q1525.47 1829.69 1524.91 1833.91 Q1524.37 1838.12 1519.77 1842.72 Q1518.04 1844.45 1515.68 1846.02 Q1513.34 1847.58 1510.47 1848.9 L1507.07 1845.5 Q1510.21 1844.62 1512.72 1843.26 Q1515.22 1841.9 1517.09 1840.03 Q1519.92 1837.2 1520.34 1834.55 Q1520.77 1831.9 1518.71 1829.84 Q1516.91 1828.03 1514.78 1828.13 Q1512.67 1828.22 1509.64 1830.23 L1507.23 1831.85 Q1502.8 1834.81 1499.57 1834.89 Q1496.35 1834.98 1493.55 1832.18 Q1490.31 1828.94 1490.72 1824.79 Q1491.14 1820.64 1495.15 1816.63 Q1496.87 1814.91 1498.97 1813.43 Q1501.06 1811.96 1503.55 1810.72 Z" fill="#000000" fill-rule="evenodd" fill-opacity="1" /><path clip-path="url(#clip080)" d="M1509.38 1803.29 L1512.68 1799.98 L1537.12 1824.42 L1533.81 1827.72 L1509.38 1803.29 Z" fill="#000000" fill-rule="evenodd" fill-opacity="1" /><path clip-path="url(#clip080)" d="M1518.09 1794.58 L1521.64 1791.03 L1536.79 1794.04 L1533.81 1778.85 L1537.37 1775.3 L1541.25 1794.89 L1562.33 1799.21 L1558.78 1802.76 L1541.51 1799.24 L1544.98 1816.56 L1541.41 1820.13 L1537.09 1798.36 L1518.09 1794.58 Z" fill="#000000" fill-rule="evenodd" fill-opacity="1" /><path clip-path="url(#clip080)" d="M1564.75 1791.22 L1570.15 1785.82 L1551.51 1767.18 L1546.81 1774.23 L1543.8 1771.22 L1548.46 1764.2 L1551.77 1760.89 L1573.43 1782.55 L1578.83 1777.15 L1581.61 1779.93 L1567.53 1794.01 L1564.75 1791.22 Z" fill="#000000" fill-rule="evenodd" fill-opacity="1" /><path clip-path="url(#clip080)" d="M1521.91 1855.37 L1541.11 1836.17 L1543.63 1838.69 L1547.32 1873.28 L1563.14 1857.45 L1565.93 1860.23 L1545.97 1880.18 L1543.45 1877.66 L1539.77 1843.08 L1524.7 1858.15 L1521.91 1855.37 Z" fill="#000000" fill-rule="evenodd" fill-opacity="1" /><path clip-path="url(#clip080)" d="M1546.29 1831 L1560.33 1816.95 L1563.11 1819.74 L1552.37 1830.47 L1559.58 1837.68 L1569.27 1827.99 L1572.05 1830.77 L1562.36 1840.46 L1574.03 1852.13 L1570.72 1855.44 L1546.29 1831 Z" fill="#000000" fill-rule="evenodd" fill-opacity="1" /><path clip-path="url(#clip080)" d="M1571.59 1811.13 L1580.77 1820.31 L1584.93 1816.15 Q1587.24 1813.84 1587.3 1811.39 Q1587.37 1808.93 1585.16 1806.72 Q1582.97 1804.53 1580.51 1804.6 Q1578.06 1804.66 1575.75 1806.97 L1571.59 1811.13 M1565.57 1811.72 L1573.03 1804.25 Q1577.14 1800.14 1581.1 1799.91 Q1585.06 1799.65 1588.65 1803.24 Q1592.26 1806.85 1592 1810.82 Q1591.76 1814.76 1587.65 1818.87 L1583.49 1823.03 L1593.31 1832.85 L1590 1836.15 L1565.57 1811.72 Z" fill="#000000" fill-rule="evenodd" fill-opacity="1" /><path clip-path="url(#clip080)" d="M1598.04 1785 L1602.74 1806.4 L1611.09 1798.05 L1598.04 1785 M1594.29 1782.99 L1598.45 1778.83 L1614.38 1794.76 L1617.86 1791.27 L1620.61 1794.02 L1617.13 1797.51 L1622.89 1803.27 L1619.6 1806.56 L1613.84 1800.8 L1602.8 1811.83 L1599.61 1808.64 L1594.29 1782.99 Z" fill="#000000" fill-rule="evenodd" fill-opacity="1" /><path clip-path="url(#clip080)" d="M1631.91 1788.69 L1643.45 1777.15 L1646.23 1779.93 L1630.71 1795.45 L1627.93 1792.66 Q1627.86 1788.83 1627.83 1782.32 Q1627.8 1775.77 1627.68 1773.99 Q1627.49 1770.62 1626.88 1768.77 Q1626.28 1766.88 1625.08 1765.69 Q1623.13 1763.74 1620.53 1763.89 Q1617.95 1764.02 1615.75 1766.21 Q1614.2 1767.77 1613 1770.04 Q1611.82 1772.3 1610.96 1775.36 L1607.62 1772.02 Q1608.81 1769.22 1610.14 1767.08 Q1611.46 1764.94 1612.9 1763.5 Q1616.7 1759.7 1620.86 1759.34 Q1625.02 1758.98 1628.19 1762.15 Q1629.7 1763.66 1630.48 1765.59 Q1631.27 1767.49 1631.61 1770.81 Q1631.68 1771.7 1631.76 1776.16 Q1631.83 1780.62 1631.91 1788.69 Z" fill="#000000" fill-rule="evenodd" fill-opacity="1" /><path clip-path="url(#clip080)" d="M1629.68 1817.66 L1638.86 1826.84 L1643.02 1822.68 Q1645.33 1820.37 1645.39 1817.92 Q1645.46 1815.46 1643.25 1813.25 Q1641.06 1811.06 1638.6 1811.13 Q1636.14 1811.19 1633.84 1813.5 L1629.68 1817.66 M1623.66 1818.25 L1631.12 1810.78 Q1635.23 1806.67 1639.19 1806.45 Q1643.15 1806.18 1646.74 1809.77 Q1650.35 1813.39 1650.09 1817.35 Q1649.85 1821.29 1645.74 1825.4 L1641.58 1829.56 L1651.4 1839.38 L1648.09 1842.68 L1623.66 1818.25 Z" fill="#000000" fill-rule="evenodd" fill-opacity="1" /><path clip-path="url(#clip080)" d="M1643.87 1798.03 L1647.18 1794.73 L1657.19 1804.74 L1669.21 1792.73 L1659.19 1782.71 L1662.5 1779.41 L1686.94 1803.84 L1683.63 1807.15 L1671.99 1795.51 L1659.98 1807.53 L1671.61 1819.16 L1668.31 1822.47 L1643.87 1798.03 Z" fill="#000000" fill-rule="evenodd" fill-opacity="1" /><path clip-path="url(#clip080)" d="M1685.15 1782.29 L1694.1 1791.24 L1699.41 1785.94 Q1702.08 1783.27 1702.26 1780.89 Q1702.44 1778.49 1700.16 1776.21 Q1697.87 1773.92 1695.5 1774.13 Q1693.12 1774.31 1690.45 1776.98 L1685.15 1782.29 M1675.1 1772.24 L1682.47 1779.6 L1687.36 1774.71 Q1689.78 1772.29 1690.06 1770.21 Q1690.34 1768.09 1688.47 1766.23 Q1686.62 1764.38 1684.51 1764.66 Q1682.42 1764.92 1680 1767.34 L1675.1 1772.24 M1669.08 1772.83 L1677.52 1764.38 Q1681.3 1760.6 1684.92 1760.12 Q1688.54 1759.65 1691.44 1762.55 Q1693.68 1764.79 1693.96 1767.16 Q1694.24 1769.54 1692.53 1771.89 Q1695.5 1769.98 1698.51 1770.3 Q1701.52 1770.6 1704.01 1773.09 Q1707.28 1776.36 1706.84 1780.37 Q1706.4 1784.38 1702.29 1788.49 L1693.52 1797.26 L1669.08 1772.83 Z" fill="#000000" fill-rule="evenodd" fill-opacity="1" /><path clip-path="url(#clip080)" d="M1665.85 1840.67 L1686.52 1820 L1689.31 1822.78 L1680.63 1831.46 L1702.29 1853.11 L1698.96 1856.43 L1677.31 1834.78 L1668.63 1843.45 L1665.85 1840.67 Z" fill="#000000" fill-rule="evenodd" fill-opacity="1" /><path clip-path="url(#clip080)" d="M1705.79 1826.27 L1714.74 1835.22 L1720.05 1829.92 Q1722.71 1827.25 1722.89 1824.88 Q1723.07 1822.47 1720.8 1820.19 Q1718.51 1817.9 1716.13 1818.12 Q1713.76 1818.3 1711.09 1820.96 L1705.79 1826.27 M1695.74 1816.22 L1703.11 1823.58 L1708 1818.69 Q1710.42 1816.27 1710.7 1814.19 Q1710.98 1812.08 1709.11 1810.21 Q1707.26 1808.36 1705.15 1808.64 Q1703.06 1808.9 1700.63 1811.32 L1695.74 1816.22 M1689.72 1816.81 L1698.16 1808.36 Q1701.94 1804.58 1705.56 1804.1 Q1709.18 1803.63 1712.07 1806.53 Q1714.32 1808.77 1714.6 1811.14 Q1714.87 1813.52 1713.17 1815.87 Q1716.13 1813.96 1719.15 1814.29 Q1722.16 1814.58 1724.65 1817.07 Q1727.92 1820.34 1727.48 1824.35 Q1727.04 1828.36 1722.93 1832.47 L1714.15 1841.24 L1689.72 1816.81 Z" fill="#000000" fill-rule="evenodd" fill-opacity="1" /><path clip-path="url(#clip080)" d="M1711.53 1794.99 L1715.09 1791.44 L1730.24 1794.45 L1727.26 1779.26 L1730.82 1775.71 L1734.7 1795.3 L1755.78 1799.62 L1752.23 1803.17 L1734.96 1799.65 L1738.43 1816.97 L1734.86 1820.54 L1730.54 1798.77 L1711.53 1794.99 Z" fill="#000000" fill-rule="evenodd" fill-opacity="1" /><path clip-path="url(#clip080)" d="M1757.25 1771.79 Q1760.13 1769.93 1763.06 1770.21 Q1766.01 1770.47 1768.36 1772.83 Q1771.98 1776.44 1771.47 1780.91 Q1770.97 1785.38 1766.38 1789.96 Q1764.85 1791.5 1762.9 1792.83 Q1760.98 1794.15 1758.64 1795.28 L1755.45 1792.09 Q1757.63 1791.52 1759.67 1790.29 Q1761.72 1789.06 1763.5 1787.28 Q1766.61 1784.17 1767.01 1781.32 Q1767.42 1778.46 1765.07 1776.12 Q1762.91 1773.95 1760.18 1774.27 Q1757.45 1774.54 1754.75 1777.24 L1751.9 1780.09 L1749.18 1777.38 L1752.16 1774.4 Q1754.6 1771.96 1754.93 1769.7 Q1755.24 1767.42 1753.4 1765.59 Q1751.52 1763.71 1749.18 1764.05 Q1746.84 1764.36 1744.35 1766.85 Q1742.99 1768.21 1741.73 1770.06 Q1740.47 1771.91 1739.23 1774.4 L1736.28 1771.45 Q1737.64 1769.04 1739.02 1767.15 Q1740.41 1765.23 1741.86 1763.77 Q1745.63 1760.01 1749.54 1759.53 Q1753.44 1759.04 1756.35 1761.96 Q1758.38 1763.99 1758.63 1766.56 Q1758.85 1769.11 1757.25 1771.79 Z" fill="#000000" fill-rule="evenodd" fill-opacity="1" /><path clip-path="url(#clip080)" d="M1711.6 1859.54 L1732.27 1838.87 L1735.05 1841.65 L1726.38 1850.33 L1748.03 1871.98 L1744.71 1875.31 L1723.06 1853.65 L1714.38 1862.33 L1711.6 1859.54 Z" fill="#000000" fill-rule="evenodd" fill-opacity="1" /><path clip-path="url(#clip080)" d="M1760.03 1837.07 Q1761.46 1836.37 1763.63 1836.55 Q1765.83 1836.71 1768.9 1837.76 L1778.94 1841.08 L1775.39 1844.63 L1765.99 1841.49 Q1762.32 1840.25 1760.38 1840.59 Q1758.44 1840.92 1756.48 1842.88 L1752.88 1846.48 L1763.21 1856.81 L1759.9 1860.12 L1735.46 1835.68 L1742.93 1828.22 Q1747.12 1824.02 1750.93 1823.71 Q1754.74 1823.4 1758.28 1826.94 Q1760.59 1829.25 1761.03 1831.85 Q1761.49 1834.43 1760.03 1837.07 M1741.49 1835.09 L1750.16 1843.76 L1754.32 1839.61 Q1756.71 1837.22 1756.82 1834.91 Q1756.94 1832.57 1754.79 1830.42 Q1752.65 1828.28 1750.34 1828.43 Q1748.03 1828.54 1745.64 1830.93 L1741.49 1835.09 Z" fill="#000000" fill-rule="evenodd" fill-opacity="1" /><path clip-path="url(#clip080)" d="M1764.78 1811.8 L1773.96 1820.98 L1778.12 1816.82 Q1780.43 1814.51 1780.49 1812.06 Q1780.56 1809.6 1778.35 1807.39 Q1776.15 1805.2 1773.7 1805.27 Q1771.24 1805.33 1768.94 1807.64 L1764.78 1811.8 M1758.76 1812.39 L1766.22 1804.92 Q1770.33 1800.81 1774.29 1800.59 Q1778.25 1800.32 1781.83 1803.91 Q1785.45 1807.53 1785.19 1811.49 Q1784.94 1815.43 1780.84 1819.54 L1776.68 1823.7 L1786.5 1833.52 L1783.19 1836.82 L1758.76 1812.39 Z" fill="#000000" fill-rule="evenodd" fill-opacity="1" /><path clip-path="url(#clip080)" d="M1779.3 1791.85 L1792.28 1778.87 L1795.06 1781.65 L1785.11 1791.6 L1791.1 1797.59 Q1791.57 1796.62 1792.18 1795.79 Q1792.77 1794.94 1793.49 1794.22 Q1797.58 1790.13 1802.21 1789.98 Q1806.84 1789.83 1810.67 1793.66 Q1814.62 1797.61 1814.36 1802.26 Q1814.08 1806.89 1809.61 1811.36 Q1808.07 1812.89 1806.21 1814.24 Q1804.36 1815.56 1802.13 1816.74 L1798.81 1813.42 Q1801.08 1812.75 1803.05 1811.57 Q1805.01 1810.39 1806.76 1808.64 Q1809.59 1805.81 1809.76 1802.66 Q1809.92 1799.52 1807.37 1796.97 Q1804.81 1794.41 1801.67 1794.58 Q1798.53 1794.74 1795.7 1797.57 Q1794.37 1798.9 1793.34 1800.52 Q1792.33 1802.12 1791.57 1804.12 L1779.3 1791.85 Z" fill="#000000" fill-rule="evenodd" fill-opacity="1" /><path clip-path="url(#clip080)" d="M1821.87 1771.79 Q1824.75 1769.93 1827.68 1770.21 Q1830.63 1770.47 1832.98 1772.83 Q1836.6 1776.44 1836.09 1780.91 Q1835.59 1785.38 1831 1789.96 Q1829.47 1791.5 1827.52 1792.83 Q1825.6 1794.15 1823.26 1795.28 L1820.07 1792.09 Q1822.25 1791.52 1824.29 1790.29 Q1826.34 1789.06 1828.12 1787.28 Q1831.23 1784.17 1831.63 1781.32 Q1832.04 1778.46 1829.69 1776.12 Q1827.53 1773.95 1824.8 1774.27 Q1822.07 1774.54 1819.37 1777.24 L1816.52 1780.09 L1813.8 1777.38 L1816.78 1774.4 Q1819.22 1771.96 1819.55 1769.7 Q1819.86 1767.42 1818.02 1765.59 Q1816.14 1763.71 1813.8 1764.05 Q1811.46 1764.36 1808.97 1766.85 Q1807.61 1768.21 1806.35 1770.06 Q1805.09 1771.91 1803.85 1774.4 L1800.9 1771.45 Q1802.26 1769.04 1803.64 1767.15 Q1805.03 1765.23 1806.48 1763.77 Q1810.25 1760.01 1814.16 1759.53 Q1818.06 1759.04 1820.97 1761.96 Q1823 1763.99 1823.25 1766.56 Q1823.47 1769.11 1821.87 1771.79 Z" fill="#000000" fill-rule="evenodd" fill-opacity="1" /><polyline clip-path="url(#clip082)" style="stroke:#000000; stroke-linecap:round; stroke-linejoin:round; stroke-width:2; stroke-opacity:0.1; fill:none" points="
  152.112,1685.66 1952.76,1685.66 
  "/>
<polyline clip-path="url(#clip082)" style="stroke:#000000; stroke-linecap:round; stroke-linejoin:round; stroke-width:2; stroke-opacity:0.1; fill:none" points="
  152.112,1276.44 1952.76,1276.44 
  "/>
<polyline clip-path="url(#clip082)" style="stroke:#000000; stroke-linecap:round; stroke-linejoin:round; stroke-width:2; stroke-opacity:0.1; fill:none" points="
  152.112,867.216 1952.76,867.216 
  "/>
<polyline clip-path="url(#clip082)" style="stroke:#000000; stroke-linecap:round; stroke-linejoin:round; stroke-width:2; stroke-opacity:0.1; fill:none" points="
  152.112,457.993 1952.76,457.993 
  "/>
<polyline clip-path="url(#clip082)" style="stroke:#000000; stroke-linecap:round; stroke-linejoin:round; stroke-width:2; stroke-opacity:0.1; fill:none" points="
  152.112,48.7704 1952.76,48.7704 
  "/>
<polyline clip-path="url(#clip080)" style="stroke:#000000; stroke-linecap:round; stroke-linejoin:round; stroke-width:4; stroke-opacity:1; fill:none" points="
  152.112,1733.38 152.112,47.2441 
  "/>
<polyline clip-path="url(#clip080)" style="stroke:#000000; stroke-linecap:round; stroke-linejoin:round; stroke-width:4; stroke-opacity:1; fill:none" points="
  152.112,1685.66 171.01,1685.66 
  "/>
<polyline clip-path="url(#clip080)" style="stroke:#000000; stroke-linecap:round; stroke-linejoin:round; stroke-width:4; stroke-opacity:1; fill:none" points="
  152.112,1276.44 171.01,1276.44 
  "/>
<polyline clip-path="url(#clip080)" style="stroke:#000000; stroke-linecap:round; stroke-linejoin:round; stroke-width:4; stroke-opacity:1; fill:none" points="
  152.112,867.216 171.01,867.216 
  "/>
<polyline clip-path="url(#clip080)" style="stroke:#000000; stroke-linecap:round; stroke-linejoin:round; stroke-width:4; stroke-opacity:1; fill:none" points="
  152.112,457.993 171.01,457.993 
  "/>
<polyline clip-path="url(#clip080)" style="stroke:#000000; stroke-linecap:round; stroke-linejoin:round; stroke-width:4; stroke-opacity:1; fill:none" points="
  152.112,48.7704 171.01,48.7704 
  "/>
<path clip-path="url(#clip080)" d="M64.9365 1671.46 Q61.3254 1671.46 59.4967 1675.02 Q57.6912 1678.57 57.6912 1685.7 Q57.6912 1692.8 59.4967 1696.37 Q61.3254 1699.91 64.9365 1699.91 Q68.5707 1699.91 70.3763 1696.37 Q72.205 1692.8 72.205 1685.7 Q72.205 1678.57 70.3763 1675.02 Q68.5707 1671.46 64.9365 1671.46 M64.9365 1667.76 Q70.7467 1667.76 73.8022 1672.36 Q76.8809 1676.95 76.8809 1685.7 Q76.8809 1694.42 73.8022 1699.03 Q70.7467 1703.61 64.9365 1703.61 Q59.1264 1703.61 56.0477 1699.03 Q52.9921 1694.42 52.9921 1685.7 Q52.9921 1676.95 56.0477 1672.36 Q59.1264 1667.76 64.9365 1667.76 Z" fill="#000000" fill-rule="evenodd" fill-opacity="1" /><path clip-path="url(#clip080)" d="M85.0984 1697.06 L89.9827 1697.06 L89.9827 1702.94 L85.0984 1702.94 L85.0984 1697.06 Z" fill="#000000" fill-rule="evenodd" fill-opacity="1" /><path clip-path="url(#clip080)" d="M110.168 1671.46 Q106.557 1671.46 104.728 1675.02 Q102.922 1678.57 102.922 1685.7 Q102.922 1692.8 104.728 1696.37 Q106.557 1699.91 110.168 1699.91 Q113.802 1699.91 115.608 1696.37 Q117.436 1692.8 117.436 1685.7 Q117.436 1678.57 115.608 1675.02 Q113.802 1671.46 110.168 1671.46 M110.168 1667.76 Q115.978 1667.76 119.033 1672.36 Q122.112 1676.95 122.112 1685.7 Q122.112 1694.42 119.033 1699.03 Q115.978 1703.61 110.168 1703.61 Q104.358 1703.61 101.279 1699.03 Q98.2234 1694.42 98.2234 1685.7 Q98.2234 1676.95 101.279 1672.36 Q104.358 1667.76 110.168 1667.76 Z" fill="#000000" fill-rule="evenodd" fill-opacity="1" /><path clip-path="url(#clip080)" d="M65.9319 1262.24 Q62.3208 1262.24 60.4921 1265.8 Q58.6865 1269.34 58.6865 1276.47 Q58.6865 1283.58 60.4921 1287.14 Q62.3208 1290.69 65.9319 1290.69 Q69.5661 1290.69 71.3717 1287.14 Q73.2004 1283.58 73.2004 1276.47 Q73.2004 1269.34 71.3717 1265.8 Q69.5661 1262.24 65.9319 1262.24 M65.9319 1258.53 Q71.742 1258.53 74.7976 1263.14 Q77.8763 1267.72 77.8763 1276.47 Q77.8763 1285.2 74.7976 1289.81 Q71.742 1294.39 65.9319 1294.39 Q60.1217 1294.39 57.043 1289.81 Q53.9875 1285.2 53.9875 1276.47 Q53.9875 1267.72 57.043 1263.14 Q60.1217 1258.53 65.9319 1258.53 Z" fill="#000000" fill-rule="evenodd" fill-opacity="1" /><path clip-path="url(#clip080)" d="M86.0938 1287.84 L90.978 1287.84 L90.978 1293.72 L86.0938 1293.72 L86.0938 1287.84 Z" fill="#000000" fill-rule="evenodd" fill-opacity="1" /><path clip-path="url(#clip080)" d="M101.209 1259.16 L119.566 1259.16 L119.566 1263.09 L105.492 1263.09 L105.492 1271.57 Q106.51 1271.22 107.529 1271.06 Q108.547 1270.87 109.566 1270.87 Q115.353 1270.87 118.733 1274.04 Q122.112 1277.21 122.112 1282.63 Q122.112 1288.21 118.64 1291.31 Q115.168 1294.39 108.848 1294.39 Q106.672 1294.39 104.404 1294.02 Q102.159 1293.65 99.7511 1292.91 L99.7511 1288.21 Q101.834 1289.34 104.057 1289.9 Q106.279 1290.45 108.756 1290.45 Q112.76 1290.45 115.098 1288.35 Q117.436 1286.24 117.436 1282.63 Q117.436 1279.02 115.098 1276.91 Q112.76 1274.81 108.756 1274.81 Q106.881 1274.81 105.006 1275.22 Q103.154 1275.64 101.209 1276.52 L101.209 1259.16 Z" fill="#000000" fill-rule="evenodd" fill-opacity="1" /><path clip-path="url(#clip080)" d="M55.7467 880.561 L63.3856 880.561 L63.3856 854.195 L55.0754 855.862 L55.0754 851.602 L63.3393 849.936 L68.0152 849.936 L68.0152 880.561 L75.654 880.561 L75.654 884.496 L55.7467 884.496 L55.7467 880.561 Z" fill="#000000" fill-rule="evenodd" fill-opacity="1" /><path clip-path="url(#clip080)" d="M85.0984 878.616 L89.9827 878.616 L89.9827 884.496 L85.0984 884.496 L85.0984 878.616 Z" fill="#000000" fill-rule="evenodd" fill-opacity="1" /><path clip-path="url(#clip080)" d="M110.168 853.014 Q106.557 853.014 104.728 856.579 Q102.922 860.121 102.922 867.251 Q102.922 874.357 104.728 877.922 Q106.557 881.463 110.168 881.463 Q113.802 881.463 115.608 877.922 Q117.436 874.357 117.436 867.251 Q117.436 860.121 115.608 856.579 Q113.802 853.014 110.168 853.014 M110.168 849.311 Q115.978 849.311 119.033 853.917 Q122.112 858.501 122.112 867.251 Q122.112 875.977 119.033 880.584 Q115.978 885.167 110.168 885.167 Q104.358 885.167 101.279 880.584 Q98.2234 875.977 98.2234 867.251 Q98.2234 858.501 101.279 853.917 Q104.358 849.311 110.168 849.311 Z" fill="#000000" fill-rule="evenodd" fill-opacity="1" /><path clip-path="url(#clip080)" d="M56.7421 471.338 L64.381 471.338 L64.381 444.972 L56.0708 446.639 L56.0708 442.38 L64.3347 440.713 L69.0106 440.713 L69.0106 471.338 L76.6494 471.338 L76.6494 475.273 L56.7421 475.273 L56.7421 471.338 Z" fill="#000000" fill-rule="evenodd" fill-opacity="1" /><path clip-path="url(#clip080)" d="M86.0938 469.394 L90.978 469.394 L90.978 475.273 L86.0938 475.273 L86.0938 469.394 Z" fill="#000000" fill-rule="evenodd" fill-opacity="1" /><path clip-path="url(#clip080)" d="M101.209 440.713 L119.566 440.713 L119.566 444.648 L105.492 444.648 L105.492 453.12 Q106.51 452.773 107.529 452.611 Q108.547 452.426 109.566 452.426 Q115.353 452.426 118.733 455.597 Q122.112 458.769 122.112 464.185 Q122.112 469.764 118.64 472.866 Q115.168 475.944 108.848 475.944 Q106.672 475.944 104.404 475.574 Q102.159 475.204 99.7511 474.463 L99.7511 469.764 Q101.834 470.898 104.057 471.454 Q106.279 472.009 108.756 472.009 Q112.76 472.009 115.098 469.903 Q117.436 467.796 117.436 464.185 Q117.436 460.574 115.098 458.468 Q112.76 456.361 108.756 456.361 Q106.881 456.361 105.006 456.778 Q103.154 457.194 101.209 458.074 L101.209 440.713 Z" fill="#000000" fill-rule="evenodd" fill-opacity="1" /><path clip-path="url(#clip080)" d="M58.9643 62.1152 L75.2837 62.1152 L75.2837 66.0504 L53.3393 66.0504 L53.3393 62.1152 Q56.0014 59.3606 60.5847 54.731 Q65.1911 50.0783 66.3717 48.7357 Q68.617 46.2126 69.4967 44.4765 Q70.3994 42.7172 70.3994 41.0274 Q70.3994 38.2728 68.455 36.5367 Q66.5337 34.8006 63.4319 34.8006 Q61.2328 34.8006 58.7791 35.5645 Q56.3486 36.3283 53.5708 37.8793 L53.5708 33.1571 Q56.3949 32.0228 58.8486 31.4441 Q61.3023 30.8654 63.3393 30.8654 Q68.7096 30.8654 71.9041 33.5506 Q75.0985 36.2358 75.0985 40.7265 Q75.0985 42.8561 74.2883 44.7774 Q73.5013 46.6755 71.3948 49.2681 Q70.8161 49.9394 67.7143 53.157 Q64.6124 56.3514 58.9643 62.1152 Z" fill="#000000" fill-rule="evenodd" fill-opacity="1" /><path clip-path="url(#clip080)" d="M85.0984 60.1708 L89.9827 60.1708 L89.9827 66.0504 L85.0984 66.0504 L85.0984 60.1708 Z" fill="#000000" fill-rule="evenodd" fill-opacity="1" /><path clip-path="url(#clip080)" d="M110.168 34.5691 Q106.557 34.5691 104.728 38.1339 Q102.922 41.6755 102.922 48.8051 Q102.922 55.9116 104.728 59.4764 Q106.557 63.018 110.168 63.018 Q113.802 63.018 115.608 59.4764 Q117.436 55.9116 117.436 48.8051 Q117.436 41.6755 115.608 38.1339 Q113.802 34.5691 110.168 34.5691 M110.168 30.8654 Q115.978 30.8654 119.033 35.4719 Q122.112 40.0552 122.112 48.8051 Q122.112 57.5319 119.033 62.1384 Q115.978 66.7217 110.168 66.7217 Q104.358 66.7217 101.279 62.1384 Q98.2234 57.5319 98.2234 48.8051 Q98.2234 40.0552 101.279 35.4719 Q104.358 30.8654 110.168 30.8654 Z" fill="#000000" fill-rule="evenodd" fill-opacity="1" /><path clip-path="url(#clip082)" d="
M251.151 94.965 L251.151 1685.66 L302.846 1685.66 L302.846 94.965 L251.151 94.965 L251.151 94.965  Z
  " fill="#009af9" fill-rule="evenodd" fill-opacity="1"/>
<polyline clip-path="url(#clip082)" style="stroke:#000000; stroke-linecap:round; stroke-linejoin:round; stroke-width:4; stroke-opacity:1; fill:none" points="
  251.151,94.965 251.151,1685.66 302.846,1685.66 302.846,94.965 251.151,94.965 
  "/>
<path clip-path="url(#clip082)" d="
M315.77 177.556 L315.77 1685.66 L367.466 1685.66 L367.466 177.556 L315.77 177.556 L315.77 177.556  Z
  " fill="#009af9" fill-rule="evenodd" fill-opacity="1"/>
<polyline clip-path="url(#clip082)" style="stroke:#000000; stroke-linecap:round; stroke-linejoin:round; stroke-width:4; stroke-opacity:1; fill:none" points="
  315.77,177.556 315.77,1685.66 367.466,1685.66 367.466,177.556 315.77,177.556 
  "/>
<path clip-path="url(#clip082)" d="
M380.39 302.318 L380.39 1685.66 L432.086 1685.66 L432.086 302.318 L380.39 302.318 L380.39 302.318  Z
  " fill="#009af9" fill-rule="evenodd" fill-opacity="1"/>
<polyline clip-path="url(#clip082)" style="stroke:#000000; stroke-linecap:round; stroke-linejoin:round; stroke-width:4; stroke-opacity:1; fill:none" points="
  380.39,302.318 380.39,1685.66 432.086,1685.66 432.086,302.318 380.39,302.318 
  "/>
<path clip-path="url(#clip082)" d="
M445.01 404.506 L445.01 1685.66 L496.705 1685.66 L496.705 404.506 L445.01 404.506 L445.01 404.506  Z
  " fill="#009af9" fill-rule="evenodd" fill-opacity="1"/>
<polyline clip-path="url(#clip082)" style="stroke:#000000; stroke-linecap:round; stroke-linejoin:round; stroke-width:4; stroke-opacity:1; fill:none" points="
  445.01,404.506 445.01,1685.66 496.705,1685.66 496.705,404.506 445.01,404.506 
  "/>
<path clip-path="url(#clip082)" d="
M509.629 583.271 L509.629 1685.66 L561.325 1685.66 L561.325 583.271 L509.629 583.271 L509.629 583.271  Z
  " fill="#009af9" fill-rule="evenodd" fill-opacity="1"/>
<polyline clip-path="url(#clip082)" style="stroke:#000000; stroke-linecap:round; stroke-linejoin:round; stroke-width:4; stroke-opacity:1; fill:none" points="
  509.629,583.271 509.629,1685.66 561.325,1685.66 561.325,583.271 509.629,583.271 
  "/>
<path clip-path="url(#clip082)" d="
M574.249 606.362 L574.249 1685.66 L625.945 1685.66 L625.945 606.362 L574.249 606.362 L574.249 606.362  Z
  " fill="#009af9" fill-rule="evenodd" fill-opacity="1"/>
<polyline clip-path="url(#clip082)" style="stroke:#000000; stroke-linecap:round; stroke-linejoin:round; stroke-width:4; stroke-opacity:1; fill:none" points="
  574.249,606.362 574.249,1685.66 625.945,1685.66 625.945,606.362 574.249,606.362 
  "/>
<path clip-path="url(#clip082)" d="
M638.868 649.818 L638.868 1685.66 L690.564 1685.66 L690.564 649.818 L638.868 649.818 L638.868 649.818  Z
  " fill="#009af9" fill-rule="evenodd" fill-opacity="1"/>
<polyline clip-path="url(#clip082)" style="stroke:#000000; stroke-linecap:round; stroke-linejoin:round; stroke-width:4; stroke-opacity:1; fill:none" points="
  638.868,649.818 638.868,1685.66 690.564,1685.66 690.564,649.818 638.868,649.818 
  "/>
<path clip-path="url(#clip082)" d="
M703.488 655.641 L703.488 1685.66 L755.184 1685.66 L755.184 655.641 L703.488 655.641 L703.488 655.641  Z
  " fill="#009af9" fill-rule="evenodd" fill-opacity="1"/>
<polyline clip-path="url(#clip082)" style="stroke:#000000; stroke-linecap:round; stroke-linejoin:round; stroke-width:4; stroke-opacity:1; fill:none" points="
  703.488,655.641 703.488,1685.66 755.184,1685.66 755.184,655.641 703.488,655.641 
  "/>
<path clip-path="url(#clip082)" d="
M768.108 659.267 L768.108 1685.66 L819.803 1685.66 L819.803 659.267 L768.108 659.267 L768.108 659.267  Z
  " fill="#009af9" fill-rule="evenodd" fill-opacity="1"/>
<polyline clip-path="url(#clip082)" style="stroke:#000000; stroke-linecap:round; stroke-linejoin:round; stroke-width:4; stroke-opacity:1; fill:none" points="
  768.108,659.267 768.108,1685.66 819.803,1685.66 819.803,659.267 768.108,659.267 
  "/>
<path clip-path="url(#clip082)" d="
M832.727 684.813 L832.727 1685.66 L884.423 1685.66 L884.423 684.813 L832.727 684.813 L832.727 684.813  Z
  " fill="#009af9" fill-rule="evenodd" fill-opacity="1"/>
<polyline clip-path="url(#clip082)" style="stroke:#000000; stroke-linecap:round; stroke-linejoin:round; stroke-width:4; stroke-opacity:1; fill:none" points="
  832.727,684.813 832.727,1685.66 884.423,1685.66 884.423,684.813 832.727,684.813 
  "/>
<path clip-path="url(#clip082)" d="
M897.347 685.791 L897.347 1685.66 L949.043 1685.66 L949.043 685.791 L897.347 685.791 L897.347 685.791  Z
  " fill="#009af9" fill-rule="evenodd" fill-opacity="1"/>
<polyline clip-path="url(#clip082)" style="stroke:#000000; stroke-linecap:round; stroke-linejoin:round; stroke-width:4; stroke-opacity:1; fill:none" points="
  897.347,685.791 897.347,1685.66 949.043,1685.66 949.043,685.791 897.347,685.791 
  "/>
<path clip-path="url(#clip082)" d="
M961.967 696.168 L961.967 1685.66 L1013.66 1685.66 L1013.66 696.168 L961.967 696.168 L961.967 696.168  Z
  " fill="#009af9" fill-rule="evenodd" fill-opacity="1"/>
<polyline clip-path="url(#clip082)" style="stroke:#000000; stroke-linecap:round; stroke-linejoin:round; stroke-width:4; stroke-opacity:1; fill:none" points="
  961.967,696.168 961.967,1685.66 1013.66,1685.66 1013.66,696.168 961.967,696.168 
  "/>
<path clip-path="url(#clip082)" d="
M1026.59 755.952 L1026.59 1685.66 L1078.28 1685.66 L1078.28 755.952 L1026.59 755.952 L1026.59 755.952  Z
  " fill="#009af9" fill-rule="evenodd" fill-opacity="1"/>
<polyline clip-path="url(#clip082)" style="stroke:#000000; stroke-linecap:round; stroke-linejoin:round; stroke-width:4; stroke-opacity:1; fill:none" points="
  1026.59,755.952 1026.59,1685.66 1078.28,1685.66 1078.28,755.952 1026.59,755.952 
  "/>
<path clip-path="url(#clip082)" d="
M1091.21 765.313 L1091.21 1685.66 L1142.9 1685.66 L1142.9 765.313 L1091.21 765.313 L1091.21 765.313  Z
  " fill="#009af9" fill-rule="evenodd" fill-opacity="1"/>
<polyline clip-path="url(#clip082)" style="stroke:#000000; stroke-linecap:round; stroke-linejoin:round; stroke-width:4; stroke-opacity:1; fill:none" points="
  1091.21,765.313 1091.21,1685.66 1142.9,1685.66 1142.9,765.313 1091.21,765.313 
  "/>
<path clip-path="url(#clip082)" d="
M1155.83 772.051 L1155.83 1685.66 L1207.52 1685.66 L1207.52 772.051 L1155.83 772.051 L1155.83 772.051  Z
  " fill="#009af9" fill-rule="evenodd" fill-opacity="1"/>
<polyline clip-path="url(#clip082)" style="stroke:#000000; stroke-linecap:round; stroke-linejoin:round; stroke-width:4; stroke-opacity:1; fill:none" points="
  1155.83,772.051 1155.83,1685.66 1207.52,1685.66 1207.52,772.051 1155.83,772.051 
  "/>
<path clip-path="url(#clip082)" d="
M1220.45 775.539 L1220.45 1685.66 L1272.14 1685.66 L1272.14 775.539 L1220.45 775.539 L1220.45 775.539  Z
  " fill="#009af9" fill-rule="evenodd" fill-opacity="1"/>
<polyline clip-path="url(#clip082)" style="stroke:#000000; stroke-linecap:round; stroke-linejoin:round; stroke-width:4; stroke-opacity:1; fill:none" points="
  1220.45,775.539 1220.45,1685.66 1272.14,1685.66 1272.14,775.539 1220.45,775.539 
  "/>
<path clip-path="url(#clip082)" d="
M1285.06 778.195 L1285.06 1685.66 L1336.76 1685.66 L1336.76 778.195 L1285.06 778.195 L1285.06 778.195  Z
  " fill="#009af9" fill-rule="evenodd" fill-opacity="1"/>
<polyline clip-path="url(#clip082)" style="stroke:#000000; stroke-linecap:round; stroke-linejoin:round; stroke-width:4; stroke-opacity:1; fill:none" points="
  1285.06,778.195 1285.06,1685.66 1336.76,1685.66 1336.76,778.195 1285.06,778.195 
  "/>
<path clip-path="url(#clip082)" d="
M1349.68 785.247 L1349.68 1685.66 L1401.38 1685.66 L1401.38 785.247 L1349.68 785.247 L1349.68 785.247  Z
  " fill="#009af9" fill-rule="evenodd" fill-opacity="1"/>
<polyline clip-path="url(#clip082)" style="stroke:#000000; stroke-linecap:round; stroke-linejoin:round; stroke-width:4; stroke-opacity:1; fill:none" points="
  1349.68,785.247 1349.68,1685.66 1401.38,1685.66 1401.38,785.247 1349.68,785.247 
  "/>
<path clip-path="url(#clip082)" d="
M1414.3 807.115 L1414.3 1685.66 L1466 1685.66 L1466 807.115 L1414.3 807.115 L1414.3 807.115  Z
  " fill="#009af9" fill-rule="evenodd" fill-opacity="1"/>
<polyline clip-path="url(#clip082)" style="stroke:#000000; stroke-linecap:round; stroke-linejoin:round; stroke-width:4; stroke-opacity:1; fill:none" points="
  1414.3,807.115 1414.3,1685.66 1466,1685.66 1466,807.115 1414.3,807.115 
  "/>
<path clip-path="url(#clip082)" d="
M1478.92 814.209 L1478.92 1685.66 L1530.62 1685.66 L1530.62 814.209 L1478.92 814.209 L1478.92 814.209  Z
  " fill="#009af9" fill-rule="evenodd" fill-opacity="1"/>
<polyline clip-path="url(#clip082)" style="stroke:#000000; stroke-linecap:round; stroke-linejoin:round; stroke-width:4; stroke-opacity:1; fill:none" points="
  1478.92,814.209 1478.92,1685.66 1530.62,1685.66 1530.62,814.209 1478.92,814.209 
  "/>
<path clip-path="url(#clip082)" d="
M1543.54 836.661 L1543.54 1685.66 L1595.24 1685.66 L1595.24 836.661 L1543.54 836.661 L1543.54 836.661  Z
  " fill="#009af9" fill-rule="evenodd" fill-opacity="1"/>
<polyline clip-path="url(#clip082)" style="stroke:#000000; stroke-linecap:round; stroke-linejoin:round; stroke-width:4; stroke-opacity:1; fill:none" points="
  1543.54,836.661 1543.54,1685.66 1595.24,1685.66 1595.24,836.661 1543.54,836.661 
  "/>
<path clip-path="url(#clip082)" d="
M1608.16 847.211 L1608.16 1685.66 L1659.86 1685.66 L1659.86 847.211 L1608.16 847.211 L1608.16 847.211  Z
  " fill="#009af9" fill-rule="evenodd" fill-opacity="1"/>
<polyline clip-path="url(#clip082)" style="stroke:#000000; stroke-linecap:round; stroke-linejoin:round; stroke-width:4; stroke-opacity:1; fill:none" points="
  1608.16,847.211 1608.16,1685.66 1659.86,1685.66 1659.86,847.211 1608.16,847.211 
  "/>
<path clip-path="url(#clip082)" d="
M1672.78 890.634 L1672.78 1685.66 L1724.48 1685.66 L1724.48 890.634 L1672.78 890.634 L1672.78 890.634  Z
  " fill="#009af9" fill-rule="evenodd" fill-opacity="1"/>
<polyline clip-path="url(#clip082)" style="stroke:#000000; stroke-linecap:round; stroke-linejoin:round; stroke-width:4; stroke-opacity:1; fill:none" points="
  1672.78,890.634 1672.78,1685.66 1724.48,1685.66 1724.48,890.634 1672.78,890.634 
  "/>
<path clip-path="url(#clip082)" d="
M1737.4 892.207 L1737.4 1685.66 L1789.1 1685.66 L1789.1 892.207 L1737.4 892.207 L1737.4 892.207  Z
  " fill="#009af9" fill-rule="evenodd" fill-opacity="1"/>
<polyline clip-path="url(#clip082)" style="stroke:#000000; stroke-linecap:round; stroke-linejoin:round; stroke-width:4; stroke-opacity:1; fill:none" points="
  1737.4,892.207 1737.4,1685.66 1789.1,1685.66 1789.1,892.207 1737.4,892.207 
  "/>
<path clip-path="url(#clip082)" d="
M1802.02 900.936 L1802.02 1685.66 L1853.72 1685.66 L1853.72 900.936 L1802.02 900.936 L1802.02 900.936  Z
  " fill="#009af9" fill-rule="evenodd" fill-opacity="1"/>
<polyline clip-path="url(#clip082)" style="stroke:#000000; stroke-linecap:round; stroke-linejoin:round; stroke-width:4; stroke-opacity:1; fill:none" points="
  1802.02,900.936 1802.02,1685.66 1853.72,1685.66 1853.72,900.936 1802.02,900.936 
  "/>
<circle clip-path="url(#clip082)" style="fill:#009af9; stroke:none; fill-opacity:0" cx="276.999" cy="94.965" r="2"/>
<circle clip-path="url(#clip082)" style="fill:#009af9; stroke:none; fill-opacity:0" cx="341.618" cy="177.556" r="2"/>
<circle clip-path="url(#clip082)" style="fill:#009af9; stroke:none; fill-opacity:0" cx="406.238" cy="302.318" r="2"/>
<circle clip-path="url(#clip082)" style="fill:#009af9; stroke:none; fill-opacity:0" cx="470.857" cy="404.506" r="2"/>
<circle clip-path="url(#clip082)" style="fill:#009af9; stroke:none; fill-opacity:0" cx="535.477" cy="583.271" r="2"/>
<circle clip-path="url(#clip082)" style="fill:#009af9; stroke:none; fill-opacity:0" cx="600.097" cy="606.362" r="2"/>
<circle clip-path="url(#clip082)" style="fill:#009af9; stroke:none; fill-opacity:0" cx="664.716" cy="649.818" r="2"/>
<circle clip-path="url(#clip082)" style="fill:#009af9; stroke:none; fill-opacity:0" cx="729.336" cy="655.641" r="2"/>
<circle clip-path="url(#clip082)" style="fill:#009af9; stroke:none; fill-opacity:0" cx="793.956" cy="659.267" r="2"/>
<circle clip-path="url(#clip082)" style="fill:#009af9; stroke:none; fill-opacity:0" cx="858.575" cy="684.813" r="2"/>
<circle clip-path="url(#clip082)" style="fill:#009af9; stroke:none; fill-opacity:0" cx="923.195" cy="685.791" r="2"/>
<circle clip-path="url(#clip082)" style="fill:#009af9; stroke:none; fill-opacity:0" cx="987.814" cy="696.168" r="2"/>
<circle clip-path="url(#clip082)" style="fill:#009af9; stroke:none; fill-opacity:0" cx="1052.43" cy="755.952" r="2"/>
<circle clip-path="url(#clip082)" style="fill:#009af9; stroke:none; fill-opacity:0" cx="1117.05" cy="765.313" r="2"/>
<circle clip-path="url(#clip082)" style="fill:#009af9; stroke:none; fill-opacity:0" cx="1181.67" cy="772.051" r="2"/>
<circle clip-path="url(#clip082)" style="fill:#009af9; stroke:none; fill-opacity:0" cx="1246.29" cy="775.539" r="2"/>
<circle clip-path="url(#clip082)" style="fill:#009af9; stroke:none; fill-opacity:0" cx="1310.91" cy="778.195" r="2"/>
<circle clip-path="url(#clip082)" style="fill:#009af9; stroke:none; fill-opacity:0" cx="1375.53" cy="785.247" r="2"/>
<circle clip-path="url(#clip082)" style="fill:#009af9; stroke:none; fill-opacity:0" cx="1440.15" cy="807.115" r="2"/>
<circle clip-path="url(#clip082)" style="fill:#009af9; stroke:none; fill-opacity:0" cx="1504.77" cy="814.209" r="2"/>
<circle clip-path="url(#clip082)" style="fill:#009af9; stroke:none; fill-opacity:0" cx="1569.39" cy="836.661" r="2"/>
<circle clip-path="url(#clip082)" style="fill:#009af9; stroke:none; fill-opacity:0" cx="1634.01" cy="847.211" r="2"/>
<circle clip-path="url(#clip082)" style="fill:#009af9; stroke:none; fill-opacity:0" cx="1698.63" cy="890.634" r="2"/>
<circle clip-path="url(#clip082)" style="fill:#009af9; stroke:none; fill-opacity:0" cx="1763.25" cy="892.207" r="2"/>
<circle clip-path="url(#clip082)" style="fill:#009af9; stroke:none; fill-opacity:0" cx="1827.87" cy="900.936" r="2"/>
<path clip-path="url(#clip080)" d="
M1660.24 207.129 L1892.73 207.129 L1892.73 103.449 L1660.24 103.449  Z
  " fill="#ffffff" fill-rule="evenodd" fill-opacity="1"/>
<polyline clip-path="url(#clip080)" style="stroke:#000000; stroke-linecap:round; stroke-linejoin:round; stroke-width:4; stroke-opacity:1; fill:none" points="
  1660.24,207.129 1892.73,207.129 1892.73,103.449 1660.24,103.449 1660.24,207.129 
  "/>
<path clip-path="url(#clip080)" d="
M1680.25 176.025 L1800.29 176.025 L1800.29 134.553 L1680.25 134.553 L1680.25 176.025  Z
  " fill="#009af9" fill-rule="evenodd" fill-opacity="1"/>
<polyline clip-path="url(#clip080)" style="stroke:#000000; stroke-linecap:round; stroke-linejoin:round; stroke-width:4; stroke-opacity:1; fill:none" points="
  1680.25,176.025 1800.29,176.025 1800.29,134.553 1680.25,134.553 1680.25,176.025 
  "/>
<path clip-path="url(#clip080)" d="M1834.14 174.976 Q1832.33 179.606 1830.62 181.018 Q1828.91 182.43 1826.04 182.43 L1822.63 182.43 L1822.63 178.865 L1825.13 178.865 Q1826.89 178.865 1827.87 178.032 Q1828.84 177.198 1830.02 174.096 L1830.78 172.152 L1820.3 146.643 L1824.81 146.643 L1832.91 166.921 L1841.01 146.643 L1845.53 146.643 L1834.14 174.976 Z" fill="#000000" fill-rule="evenodd" fill-opacity="1" /><path clip-path="url(#clip080)" d="M1852.82 168.634 L1860.46 168.634 L1860.46 142.268 L1852.15 143.935 L1852.15 139.675 L1860.41 138.009 L1865.09 138.009 L1865.09 168.634 L1872.73 168.634 L1872.73 172.569 L1852.82 172.569 L1852.82 168.634 Z" fill="#000000" fill-rule="evenodd" fill-opacity="1" /></svg>
