<?xml version="1.0" encoding="utf-8"?>
<svg xmlns="http://www.w3.org/2000/svg" xmlns:xlink="http://www.w3.org/1999/xlink" width="500" height="500" viewBox="0 0 2000 2000">
<defs>
  <clipPath id="clip250">
    <rect x="0" y="0" width="2000" height="2000"/>
  </clipPath>
</defs>
<path clip-path="url(#clip250)" d="
M0 2000 L2000 2000 L2000 0 L0 0  Z
  " fill="#ffffff" fill-rule="evenodd" fill-opacity="1"/>
<defs>
  <clipPath id="clip251">
    <rect x="400" y="200" width="1401" height="1401"/>
  </clipPath>
</defs>
<path clip-path="url(#clip250)" d="
M82.9921 1917.01 L1952.76 1917.01 L1952.76 47.2441 L82.9921 47.2441  Z
  " fill="#ffffff" fill-rule="evenodd" fill-opacity="1"/>
<defs>
  <clipPath id="clip252">
    <rect x="82" y="47" width="1871" height="1871"/>
  </clipPath>
</defs>
<polyline clip-path="url(#clip252)" style="stroke:#000000; stroke-linecap:round; stroke-linejoin:round; stroke-width:2; stroke-opacity:0.1; fill:none" points="
  221.238,1917.01 221.238,47.2441 
  "/>
<polyline clip-path="url(#clip252)" style="stroke:#000000; stroke-linecap:round; stroke-linejoin:round; stroke-width:2; stroke-opacity:0.1; fill:none" points="
  309.754,1917.01 309.754,47.2441 
  "/>
<polyline clip-path="url(#clip252)" style="stroke:#000000; stroke-linecap:round; stroke-linejoin:round; stroke-width:2; stroke-opacity:0.1; fill:none" points="
  398.269,1917.01 398.269,47.2441 
  "/>
<polyline clip-path="url(#clip252)" style="stroke:#000000; stroke-linecap:round; stroke-linejoin:round; stroke-width:2; stroke-opacity:0.1; fill:none" points="
  486.784,1917.01 486.784,47.2441 
  "/>
<polyline clip-path="url(#clip252)" style="stroke:#000000; stroke-linecap:round; stroke-linejoin:round; stroke-width:2; stroke-opacity:0.1; fill:none" points="
  575.299,1917.01 575.299,47.2441 
  "/>
<polyline clip-path="url(#clip252)" style="stroke:#000000; stroke-linecap:round; stroke-linejoin:round; stroke-width:2; stroke-opacity:0.1; fill:none" points="
  663.814,1917.01 663.814,47.2441 
  "/>
<polyline clip-path="url(#clip252)" style="stroke:#000000; stroke-linecap:round; stroke-linejoin:round; stroke-width:2; stroke-opacity:0.1; fill:none" points="
  752.329,1917.01 752.329,47.2441 
  "/>
<polyline clip-path="url(#clip252)" style="stroke:#000000; stroke-linecap:round; stroke-linejoin:round; stroke-width:2; stroke-opacity:0.1; fill:none" points="
  840.844,1917.01 840.844,47.2441 
  "/>
<polyline clip-path="url(#clip252)" style="stroke:#000000; stroke-linecap:round; stroke-linejoin:round; stroke-width:2; stroke-opacity:0.1; fill:none" points="
  929.359,1917.01 929.359,47.2441 
  "/>
<polyline clip-path="url(#clip252)" style="stroke:#000000; stroke-linecap:round; stroke-linejoin:round; stroke-width:2; stroke-opacity:0.1; fill:none" points="
  1017.87,1917.01 1017.87,47.2441 
  "/>
<polyline clip-path="url(#clip252)" style="stroke:#000000; stroke-linecap:round; stroke-linejoin:round; stroke-width:2; stroke-opacity:0.1; fill:none" points="
  1106.39,1917.01 1106.39,47.2441 
  "/>
<polyline clip-path="url(#clip252)" style="stroke:#000000; stroke-linecap:round; stroke-linejoin:round; stroke-width:2; stroke-opacity:0.1; fill:none" points="
  1194.9,1917.01 1194.9,47.2441 
  "/>
<polyline clip-path="url(#clip252)" style="stroke:#000000; stroke-linecap:round; stroke-linejoin:round; stroke-width:2; stroke-opacity:0.1; fill:none" points="
  1283.42,1917.01 1283.42,47.2441 
  "/>
<polyline clip-path="url(#clip252)" style="stroke:#000000; stroke-linecap:round; stroke-linejoin:round; stroke-width:2; stroke-opacity:0.1; fill:none" points="
  1371.93,1917.01 1371.93,47.2441 
  "/>
<polyline clip-path="url(#clip252)" style="stroke:#000000; stroke-linecap:round; stroke-linejoin:round; stroke-width:2; stroke-opacity:0.1; fill:none" points="
  1460.45,1917.01 1460.45,47.2441 
  "/>
<polyline clip-path="url(#clip252)" style="stroke:#000000; stroke-linecap:round; stroke-linejoin:round; stroke-width:2; stroke-opacity:0.1; fill:none" points="
  1548.96,1917.01 1548.96,47.2441 
  "/>
<polyline clip-path="url(#clip252)" style="stroke:#000000; stroke-linecap:round; stroke-linejoin:round; stroke-width:2; stroke-opacity:0.1; fill:none" points="
  1637.48,1917.01 1637.48,47.2441 
  "/>
<polyline clip-path="url(#clip252)" style="stroke:#000000; stroke-linecap:round; stroke-linejoin:round; stroke-width:2; stroke-opacity:0.1; fill:none" points="
  1725.99,1917.01 1725.99,47.2441 
  "/>
<polyline clip-path="url(#clip252)" style="stroke:#000000; stroke-linecap:round; stroke-linejoin:round; stroke-width:2; stroke-opacity:0.1; fill:none" points="
  1814.51,1917.01 1814.51,47.2441 
  "/>
<polyline clip-path="url(#clip250)" style="stroke:#000000; stroke-linecap:round; stroke-linejoin:round; stroke-width:4; stroke-opacity:1; fill:none" points="
  82.9921,1917.01 1952.76,1917.01 
  "/>
<polyline clip-path="url(#clip250)" style="stroke:#000000; stroke-linecap:round; stroke-linejoin:round; stroke-width:4; stroke-opacity:1; fill:none" points="
  221.238,1917.01 221.238,1898.11 
  "/>
<polyline clip-path="url(#clip250)" style="stroke:#000000; stroke-linecap:round; stroke-linejoin:round; stroke-width:4; stroke-opacity:1; fill:none" points="
  309.754,1917.01 309.754,1898.11 
  "/>
<polyline clip-path="url(#clip250)" style="stroke:#000000; stroke-linecap:round; stroke-linejoin:round; stroke-width:4; stroke-opacity:1; fill:none" points="
  398.269,1917.01 398.269,1898.11 
  "/>
<polyline clip-path="url(#clip250)" style="stroke:#000000; stroke-linecap:round; stroke-linejoin:round; stroke-width:4; stroke-opacity:1; fill:none" points="
  486.784,1917.01 486.784,1898.11 
  "/>
<polyline clip-path="url(#clip250)" style="stroke:#000000; stroke-linecap:round; stroke-linejoin:round; stroke-width:4; stroke-opacity:1; fill:none" points="
  575.299,1917.01 575.299,1898.11 
  "/>
<polyline clip-path="url(#clip250)" style="stroke:#000000; stroke-linecap:round; stroke-linejoin:round; stroke-width:4; stroke-opacity:1; fill:none" points="
  663.814,1917.01 663.814,1898.11 
  "/>
<polyline clip-path="url(#clip250)" style="stroke:#000000; stroke-linecap:round; stroke-linejoin:round; stroke-width:4; stroke-opacity:1; fill:none" points="
  752.329,1917.01 752.329,1898.11 
  "/>
<polyline clip-path="url(#clip250)" style="stroke:#000000; stroke-linecap:round; stroke-linejoin:round; stroke-width:4; stroke-opacity:1; fill:none" points="
  840.844,1917.01 840.844,1898.11 
  "/>
<polyline clip-path="url(#clip250)" style="stroke:#000000; stroke-linecap:round; stroke-linejoin:round; stroke-width:4; stroke-opacity:1; fill:none" points="
  929.359,1917.01 929.359,1898.11 
  "/>
<polyline clip-path="url(#clip250)" style="stroke:#000000; stroke-linecap:round; stroke-linejoin:round; stroke-width:4; stroke-opacity:1; fill:none" points="
  1017.87,1917.01 1017.87,1898.11 
  "/>
<polyline clip-path="url(#clip250)" style="stroke:#000000; stroke-linecap:round; stroke-linejoin:round; stroke-width:4; stroke-opacity:1; fill:none" points="
  1106.39,1917.01 1106.39,1898.11 
  "/>
<polyline clip-path="url(#clip250)" style="stroke:#000000; stroke-linecap:round; stroke-linejoin:round; stroke-width:4; stroke-opacity:1; fill:none" points="
  1194.9,1917.01 1194.9,1898.11 
  "/>
<polyline clip-path="url(#clip250)" style="stroke:#000000; stroke-linecap:round; stroke-linejoin:round; stroke-width:4; stroke-opacity:1; fill:none" points="
  1283.42,1917.01 1283.42,1898.11 
  "/>
<polyline clip-path="url(#clip250)" style="stroke:#000000; stroke-linecap:round; stroke-linejoin:round; stroke-width:4; stroke-opacity:1; fill:none" points="
  1371.93,1917.01 1371.93,1898.11 
  "/>
<polyline clip-path="url(#clip250)" style="stroke:#000000; stroke-linecap:round; stroke-linejoin:round; stroke-width:4; stroke-opacity:1; fill:none" points="
  1460.45,1917.01 1460.45,1898.11 
  "/>
<polyline clip-path="url(#clip250)" style="stroke:#000000; stroke-linecap:round; stroke-linejoin:round; stroke-width:4; stroke-opacity:1; fill:none" points="
  1548.96,1917.01 1548.96,1898.11 
  "/>
<polyline clip-path="url(#clip250)" style="stroke:#000000; stroke-linecap:round; stroke-linejoin:round; stroke-width:4; stroke-opacity:1; fill:none" points="
  1637.48,1917.01 1637.48,1898.11 
  "/>
<polyline clip-path="url(#clip250)" style="stroke:#000000; stroke-linecap:round; stroke-linejoin:round; stroke-width:4; stroke-opacity:1; fill:none" points="
  1725.99,1917.01 1725.99,1898.11 
  "/>
<polyline clip-path="url(#clip250)" style="stroke:#000000; stroke-linecap:round; stroke-linejoin:round; stroke-width:4; stroke-opacity:1; fill:none" points="
  1814.51,1917.01 1814.51,1898.11 
  "/>
<path clip-path="url(#clip250)" d="M126.131 2023.61 L129.356 2026.83 Q126.573 2027.82 124.462 2029.04 Q122.35 2030.27 120.795 2031.83 Q118.095 2034.53 117.669 2037.05 Q117.26 2039.55 119.191 2041.48 Q120.812 2043.1 122.612 2042.97 Q124.413 2042.81 127.637 2040.6 L130.043 2039.01 Q134.447 2036.02 137.982 2036.05 Q141.518 2036.05 144.497 2039.03 Q148.048 2042.58 147.492 2046.8 Q146.952 2051.01 142.352 2055.61 Q140.617 2057.34 138.26 2058.92 Q135.92 2060.47 133.055 2061.8 L129.651 2058.39 Q132.793 2057.51 135.298 2056.15 Q137.802 2054.79 139.668 2052.92 Q142.5 2050.09 142.925 2047.44 Q143.351 2044.79 141.288 2042.73 Q139.488 2040.93 137.36 2041.03 Q135.249 2041.11 132.22 2043.12 L129.814 2044.74 Q125.379 2047.7 122.154 2047.79 Q118.93 2047.87 116.131 2045.07 Q112.89 2041.83 113.299 2037.69 Q113.724 2033.53 117.735 2029.52 Q119.453 2027.8 121.548 2026.33 Q123.644 2024.85 126.131 2023.61 Z" fill="#000000" fill-rule="evenodd" fill-opacity="1" /><path clip-path="url(#clip250)" d="M144.005 2010.65 L151.682 2027.29 L160.668 2018.31 L144.005 2010.65 M138.882 2009.25 L142.631 2005.51 L176.382 2020.63 L172.944 2024.07 L164.449 2020.02 L153.434 2031.04 L157.476 2039.54 L153.99 2043.02 L138.882 2009.25 Z" fill="#000000" fill-rule="evenodd" fill-opacity="1" /><path clip-path="url(#clip250)" d="M155.512 1992.62 L158.819 1989.32 L180.474 2010.97 L192.373 1999.07 L195.156 2001.86 L179.95 2017.06 L155.512 1992.62 Z" fill="#000000" fill-rule="evenodd" fill-opacity="1" /><path clip-path="url(#clip250)" d="M174.188 1973.95 L177.495 1970.64 L199.15 1992.3 L211.049 1980.4 L213.832 1983.18 L198.626 1998.39 L174.188 1973.95 Z" fill="#000000" fill-rule="evenodd" fill-opacity="1" /><path clip-path="url(#clip250)" d="M205.124 1948.77 L209.822 1970.17 L218.169 1961.82 L205.124 1948.77 M201.376 1946.76 L205.533 1942.6 L221.459 1958.53 L224.946 1955.04 L227.696 1957.79 L224.209 1961.28 L229.971 1967.04 L226.681 1970.33 L220.919 1964.57 L209.887 1975.6 L206.695 1972.41 L201.376 1946.76 Z" fill="#000000" fill-rule="evenodd" fill-opacity="1" /><path clip-path="url(#clip250)" d="M176.869 2065.22 L186.051 2074.4 L190.209 2070.24 Q192.517 2067.93 192.582 2065.48 Q192.648 2063.02 190.438 2060.81 Q188.245 2058.62 185.79 2058.69 Q183.334 2058.75 181.026 2061.06 L176.869 2065.22 M170.845 2065.81 L178.309 2058.34 Q182.418 2054.23 186.379 2054.01 Q190.34 2053.74 193.925 2057.33 Q197.542 2060.95 197.28 2064.91 Q197.034 2068.85 192.926 2072.96 L188.769 2077.12 L198.589 2086.94 L195.283 2090.24 L170.845 2065.81 Z" fill="#000000" fill-rule="evenodd" fill-opacity="1" /><path clip-path="url(#clip250)" d="M203.222 2037.92 Q199.621 2041.52 200.177 2046.33 Q200.75 2051.12 205.382 2055.76 Q209.998 2060.37 214.794 2060.95 Q219.606 2061.5 223.207 2057.9 Q226.808 2054.3 226.219 2049.52 Q225.646 2044.72 221.03 2040.11 Q216.398 2035.48 211.602 2034.9 Q206.823 2034.31 203.222 2037.92 M200.537 2035.23 Q205.677 2030.09 212.208 2030.47 Q218.722 2030.83 224.517 2036.62 Q230.294 2042.4 230.671 2048.93 Q231.031 2055.45 225.891 2060.59 Q220.735 2065.74 214.205 2065.4 Q207.69 2065.04 201.896 2059.24 Q196.101 2053.45 195.741 2046.93 Q195.381 2040.39 200.537 2035.23 Z" fill="#000000" fill-rule="evenodd" fill-opacity="1" /><path clip-path="url(#clip250)" d="M217.069 2019.58 L220.392 2016.26 L235.238 2031.11 Q239.166 2035.03 242.325 2035.35 Q245.468 2035.64 248.66 2032.45 Q251.835 2029.27 251.54 2026.13 Q251.229 2022.97 247.301 2019.04 L232.455 2004.2 L235.778 2000.87 L251.033 2016.13 Q255.812 2020.91 255.878 2025.72 Q255.96 2030.52 251.344 2035.13 Q246.712 2039.76 241.899 2039.7 Q237.104 2039.62 232.324 2034.84 L217.069 2019.58 Z" fill="#000000" fill-rule="evenodd" fill-opacity="1" /><path clip-path="url(#clip250)" d="M242.309 1994.34 L255.289 1981.36 L258.071 1984.15 L248.119 1994.1 L254.11 2000.09 Q254.585 1999.12 255.19 1998.29 Q255.78 1997.44 256.5 1996.72 Q260.592 1992.62 265.224 1992.48 Q269.856 1992.33 273.686 1996.16 Q277.631 2000.1 277.369 2004.75 Q277.091 2009.39 272.622 2013.85 Q271.084 2015.39 269.218 2016.73 Q267.368 2018.06 265.142 2019.24 L261.819 2015.92 Q264.095 2015.25 266.059 2014.07 Q268.023 2012.89 269.774 2011.14 Q272.606 2008.31 272.77 2005.16 Q272.933 2002.02 270.38 1999.47 Q267.827 1996.91 264.684 1997.08 Q261.541 1997.24 258.71 2000.07 Q257.384 2001.4 256.353 2003.02 Q255.338 2004.62 254.585 2006.62 L242.309 1994.34 Z" fill="#000000" fill-rule="evenodd" fill-opacity="1" /><path clip-path="url(#clip250)" d="M263.309 1973.34 L277.353 1959.3 L280.135 1962.08 L269.398 1972.82 L276.6 1980.02 L286.29 1970.33 L289.072 1973.11 L279.382 1982.8 L291.053 1994.47 L287.747 1997.78 L263.309 1973.34 Z" fill="#000000" fill-rule="evenodd" fill-opacity="1" /><path clip-path="url(#clip250)" d="M305.113 1974.85 L310.515 1969.45 L291.871 1950.8 L287.174 1957.86 L284.162 1954.85 L288.827 1947.83 L292.133 1944.52 L313.788 1966.17 L319.19 1960.77 L321.972 1963.55 L307.896 1977.63 L305.113 1974.85 Z" fill="#000000" fill-rule="evenodd" fill-opacity="1" /><path clip-path="url(#clip250)" d="M318.335 2008.44 L321.559 2011.66 Q318.777 2012.64 316.665 2013.87 Q314.554 2015.1 312.999 2016.65 Q310.298 2019.35 309.873 2021.87 Q309.463 2024.38 311.395 2026.31 Q313.015 2027.93 314.816 2027.8 Q316.616 2027.64 319.841 2025.43 L322.247 2023.84 Q326.65 2020.84 330.185 2020.88 Q333.721 2020.88 336.7 2023.86 Q340.252 2027.41 339.695 2031.63 Q339.155 2035.84 334.556 2040.44 Q332.821 2042.17 330.464 2043.74 Q328.123 2045.3 325.259 2046.62 L321.854 2043.22 Q324.997 2042.33 327.501 2040.98 Q330.005 2039.62 331.871 2037.75 Q334.703 2034.92 335.129 2032.27 Q335.554 2029.62 333.492 2027.55 Q331.691 2025.75 329.563 2025.85 Q327.452 2025.93 324.424 2027.95 L322.018 2029.57 Q317.582 2032.53 314.357 2032.61 Q311.133 2032.69 308.334 2029.89 Q305.093 2026.65 305.502 2022.51 Q305.928 2018.36 309.938 2014.35 Q311.657 2012.63 313.752 2011.15 Q315.847 2009.68 318.335 2008.44 Z" fill="#000000" fill-rule="evenodd" fill-opacity="1" /><path clip-path="url(#clip250)" d="M336.323 1993.33 Q332.722 1996.93 333.279 2001.74 Q333.852 2006.54 338.484 2011.17 Q343.1 2015.79 347.896 2016.36 Q352.708 2016.91 356.309 2013.31 Q359.91 2009.71 359.321 2004.93 Q358.748 2000.14 354.132 1995.52 Q349.5 1990.89 344.704 1990.32 Q339.924 1989.73 336.323 1993.33 M333.639 1990.64 Q338.779 1985.5 345.31 1985.88 Q351.824 1986.24 357.618 1992.04 Q363.396 1997.81 363.773 2004.34 Q364.133 2010.86 358.993 2016 Q353.837 2021.15 347.306 2020.81 Q340.792 2020.45 334.998 2014.66 Q329.203 2008.86 328.843 2002.35 Q328.483 1995.8 333.639 1990.64 Z" fill="#000000" fill-rule="evenodd" fill-opacity="1" /><path clip-path="url(#clip250)" d="M347.225 1977.94 L350.776 1974.39 L365.933 1977.4 L362.954 1962.21 L366.506 1958.66 L370.386 1978.25 L391.468 1982.57 L387.916 1986.13 L370.647 1982.61 L374.117 1999.92 L370.549 2003.49 L366.228 1981.72 L347.225 1977.94 Z" fill="#000000" fill-rule="evenodd" fill-opacity="1" /><path clip-path="url(#clip250)" d="M396.165 1972.31 L407.705 1960.77 L410.487 1963.55 L394.97 1979.07 L392.188 1976.29 Q392.122 1972.46 392.09 1965.94 Q392.057 1959.4 391.942 1957.61 Q391.746 1954.24 391.14 1952.39 Q390.535 1950.51 389.34 1949.31 Q387.392 1947.37 384.789 1947.51 Q382.203 1947.65 380.01 1949.84 Q378.455 1951.39 377.26 1953.67 Q376.082 1955.93 375.214 1958.99 L371.875 1955.65 Q373.07 1952.85 374.396 1950.71 Q375.722 1948.56 377.162 1947.12 Q380.959 1943.32 385.117 1942.96 Q389.274 1942.6 392.45 1945.78 Q393.956 1947.28 394.741 1949.22 Q395.527 1951.12 395.871 1954.44 Q395.936 1955.32 396.018 1959.79 Q396.083 1964.24 396.165 1972.31 Z" fill="#000000" fill-rule="evenodd" fill-opacity="1" /><path clip-path="url(#clip250)" d="M398.469 2015.21 L401.776 2011.91 L412.104 2022.23 L412.742 2000.94 L416.998 1996.68 L416.262 2020.2 L442.303 2020.25 L437.949 2024.61 L414.445 2024.58 L426.213 2036.34 L422.907 2039.65 L398.469 2015.21 Z" fill="#000000" fill-rule="evenodd" fill-opacity="1" /><path clip-path="url(#clip250)" d="M420.452 1993.23 L423.758 1989.92 L445.413 2011.58 L457.313 1999.68 L460.095 2002.46 L444.889 2017.67 L420.452 1993.23 Z" fill="#000000" fill-rule="evenodd" fill-opacity="1" /><path clip-path="url(#clip250)" d="M439.128 1974.55 L453.172 1960.51 L455.954 1963.29 L445.217 1974.03 L452.419 1981.23 L462.109 1971.54 L464.891 1974.33 L455.201 1984.02 L466.872 1995.69 L463.565 1998.99 L439.128 1974.55 Z" fill="#000000" fill-rule="evenodd" fill-opacity="1" /><path clip-path="url(#clip250)" d="M470.669 1948.77 L475.367 1970.17 L483.715 1961.82 L470.669 1948.77 M466.921 1946.76 L471.078 1942.6 L487.005 1958.53 L490.491 1955.04 L493.241 1957.79 L489.754 1961.28 L495.516 1967.04 L492.226 1970.33 L486.464 1964.57 L475.432 1975.6 L472.241 1972.41 L466.921 1946.76 Z" fill="#000000" fill-rule="evenodd" fill-opacity="1" /><path clip-path="url(#clip250)" d="M443.674 2058.52 L448.127 2054.07 L479.406 2063.68 L458.962 2043.23 L462.17 2040.03 L486.608 2064.46 L482.156 2068.92 L450.876 2059.31 L471.32 2079.75 L468.112 2082.96 L443.674 2058.52 Z" fill="#000000" fill-rule="evenodd" fill-opacity="1" /><path clip-path="url(#clip250)" d="M480.175 2028.54 L487.852 2045.18 L496.838 2036.2 L480.175 2028.54 M475.052 2027.15 L478.8 2023.4 L512.552 2038.52 L509.114 2041.96 L500.619 2037.92 L489.603 2048.93 L493.646 2057.43 L490.16 2060.91 L475.052 2027.15 Z" fill="#000000" fill-rule="evenodd" fill-opacity="1" /><path clip-path="url(#clip250)" d="M491.682 2010.52 L496.134 2006.06 L527.414 2015.67 L506.97 1995.23 L510.178 1992.02 L534.616 2016.46 L530.164 2020.91 L498.884 2011.3 L519.328 2031.74 L516.12 2034.95 L491.682 2010.52 Z" fill="#000000" fill-rule="evenodd" fill-opacity="1" /><path clip-path="url(#clip250)" d="M528.92 1977.76 Q525.319 1981.36 525.875 1986.18 Q526.448 1990.97 531.08 1995.6 Q535.696 2000.22 540.492 2000.79 Q545.304 2001.35 548.905 1997.75 Q552.506 1994.15 551.917 1989.37 Q551.344 1984.57 546.728 1979.96 Q542.096 1975.32 537.3 1974.75 Q532.521 1974.16 528.92 1977.76 M526.235 1975.08 Q531.375 1969.94 537.906 1970.31 Q544.42 1970.68 550.215 1976.47 Q555.993 1982.25 556.369 1988.78 Q556.729 1995.29 551.589 2000.43 Q546.434 2005.59 539.903 2005.24 Q533.388 2004.88 527.594 1999.09 Q521.8 1993.3 521.439 1986.78 Q521.079 1980.23 526.235 1975.08 Z" fill="#000000" fill-rule="evenodd" fill-opacity="1" /><path clip-path="url(#clip250)" d="M580.757 1963.34 L574.194 1956.78 L568.792 1962.18 L566.075 1959.46 L574.75 1950.79 L585.242 1961.28 Q584.686 1964.55 583.082 1967.57 Q581.461 1970.56 578.842 1973.18 Q573.114 1978.91 566.534 1978.81 Q559.954 1978.68 553.979 1972.7 Q547.989 1966.71 547.874 1960.15 Q547.759 1953.55 553.488 1947.83 Q555.878 1945.44 558.611 1943.88 Q561.361 1942.31 564.324 1941.64 L567.843 1945.16 Q564.455 1945.44 561.607 1946.71 Q558.759 1947.99 556.484 1950.26 Q551.999 1954.75 552.244 1959.51 Q552.506 1964.26 557.466 1969.22 Q562.409 1974.16 567.156 1974.42 Q571.919 1974.67 576.404 1970.18 Q578.155 1968.43 579.235 1966.76 Q580.299 1965.08 580.757 1963.34 Z" fill="#000000" fill-rule="evenodd" fill-opacity="1" /><path clip-path="url(#clip250)" d="M551.717 2039 L570.916 2019.8 L573.437 2022.32 L577.12 2056.9 L592.948 2041.07 L595.731 2043.86 L575.778 2063.81 L573.257 2061.29 L569.574 2026.7 L554.499 2041.78 L551.717 2039 Z" fill="#000000" fill-rule="evenodd" fill-opacity="1" /><path clip-path="url(#clip250)" d="M576.089 2014.62 L590.133 2000.58 L592.915 2003.36 L582.178 2014.1 L589.38 2021.3 L599.07 2011.61 L601.852 2014.39 L592.162 2024.08 L603.833 2035.75 L600.526 2039.06 L576.089 2014.62 Z" fill="#000000" fill-rule="evenodd" fill-opacity="1" /><path clip-path="url(#clip250)" d="M601.394 1994.75 L610.576 2003.94 L614.734 1999.78 Q617.042 1997.47 617.107 1995.01 Q617.173 1992.56 614.963 1990.35 Q612.77 1988.16 610.315 1988.22 Q607.859 1988.29 605.551 1990.6 L601.394 1994.75 M595.37 1995.34 L602.834 1987.88 Q606.943 1983.77 610.904 1983.54 Q614.865 1983.28 618.45 1986.86 Q622.067 1990.48 621.805 1994.44 Q621.559 1998.39 617.451 2002.49 L613.294 2006.65 L623.114 2016.47 L619.808 2019.78 L595.37 1995.34 Z" fill="#000000" fill-rule="evenodd" fill-opacity="1" /><path clip-path="url(#clip250)" d="M627.845 1968.63 L632.542 1990.02 L640.89 1981.67 L627.845 1968.63 M624.097 1966.62 L628.254 1962.46 L644.18 1978.38 L647.667 1974.9 L650.416 1977.65 L646.93 1981.13 L652.692 1986.9 L649.402 1990.19 L643.64 1984.42 L632.608 1995.46 L629.416 1992.26 L624.097 1966.62 Z" fill="#000000" fill-rule="evenodd" fill-opacity="1" /><path clip-path="url(#clip250)" d="M661.71 1972.31 L673.25 1960.77 L676.033 1963.55 L660.516 1979.07 L657.733 1976.29 Q657.668 1972.46 657.635 1965.94 Q657.602 1959.4 657.487 1957.61 Q657.291 1954.24 656.685 1952.39 Q656.08 1950.51 654.885 1949.31 Q652.937 1947.37 650.335 1947.51 Q647.748 1947.65 645.555 1949.84 Q644 1951.39 642.805 1953.67 Q641.627 1955.93 640.759 1958.99 L637.42 1955.65 Q638.615 1952.85 639.941 1950.71 Q641.267 1948.56 642.707 1947.12 Q646.504 1943.32 650.662 1942.96 Q654.819 1942.6 657.995 1945.78 Q659.501 1947.28 660.286 1949.22 Q661.072 1951.12 661.416 1954.44 Q661.481 1955.32 661.563 1959.79 Q661.629 1964.24 661.71 1972.31 Z" fill="#000000" fill-rule="evenodd" fill-opacity="1" /><path clip-path="url(#clip250)" d="M654.93 2024.3 L675.603 2003.62 L678.386 2006.41 L669.711 2015.08 L691.366 2036.74 L688.043 2040.06 L666.388 2018.4 L657.713 2027.08 L654.93 2024.3 Z" fill="#000000" fill-rule="evenodd" fill-opacity="1" /><path clip-path="url(#clip250)" d="M694.869 2009.89 L703.822 2018.85 L709.125 2013.54 Q711.793 2010.88 711.973 2008.5 Q712.153 2006.1 709.878 2003.82 Q707.587 2001.53 705.213 2001.74 Q702.84 2001.92 700.172 2004.59 L694.869 2009.89 M684.819 1999.84 L692.184 2007.21 L697.078 2002.31 Q699.501 1999.89 699.779 1997.81 Q700.057 1995.7 698.191 1993.84 Q696.342 1991.99 694.23 1992.26 Q692.135 1992.53 689.713 1994.95 L684.819 1999.84 M678.795 2000.43 L687.241 1991.99 Q691.022 1988.21 694.639 1987.73 Q698.257 1987.26 701.154 1990.15 Q703.396 1992.4 703.675 1994.77 Q703.953 1997.14 702.251 1999.5 Q705.213 1997.58 708.225 1997.91 Q711.237 1998.21 713.725 2000.69 Q716.998 2003.97 716.556 2007.98 Q716.114 2011.99 712.006 2016.1 L703.233 2024.87 L678.795 2000.43 Z" fill="#000000" fill-rule="evenodd" fill-opacity="1" /><path clip-path="url(#clip250)" d="M700.614 1978.61 L704.166 1975.06 L719.323 1978.07 L716.344 1962.88 L719.895 1959.33 L723.775 1978.92 L744.857 1983.25 L741.305 1986.8 L724.037 1983.28 L727.507 2000.6 L723.938 2004.16 L719.617 1982.39 L700.614 1978.61 Z" fill="#000000" fill-rule="evenodd" fill-opacity="1" /><path clip-path="url(#clip250)" d="M746.33 1955.42 Q749.211 1953.55 752.141 1953.83 Q755.087 1954.09 757.444 1956.45 Q761.061 1960.07 760.554 1964.54 Q760.046 1969.01 755.463 1973.59 Q753.925 1975.13 751.977 1976.45 Q750.062 1977.78 747.721 1978.91 L744.529 1975.72 Q746.706 1975.14 748.752 1973.92 Q750.798 1972.69 752.583 1970.9 Q755.692 1967.79 756.085 1964.95 Q756.495 1962.08 754.154 1959.74 Q751.993 1957.58 749.26 1957.89 Q746.526 1958.17 743.826 1960.87 L740.978 1963.72 L738.26 1961 L741.239 1958.02 Q743.678 1955.58 744.006 1953.32 Q744.317 1951.05 742.483 1949.22 Q740.601 1947.33 738.26 1947.68 Q735.92 1947.99 733.432 1950.48 Q732.073 1951.84 730.813 1953.68 Q729.553 1955.53 728.309 1958.02 L725.362 1955.08 Q726.721 1952.67 728.096 1950.77 Q729.487 1948.86 730.944 1947.4 Q734.709 1943.63 738.621 1943.16 Q742.516 1942.67 745.43 1945.58 Q747.459 1947.61 747.705 1950.18 Q747.934 1952.74 746.33 1955.42 Z" fill="#000000" fill-rule="evenodd" fill-opacity="1" /><path clip-path="url(#clip250)" d="M739.091 2030.25 L742.316 2033.48 Q739.533 2034.46 737.422 2035.69 Q735.31 2036.92 733.755 2038.47 Q731.055 2041.17 730.629 2043.69 Q730.22 2046.2 732.151 2048.13 Q733.772 2049.75 735.572 2049.62 Q737.373 2049.45 740.597 2047.25 L743.003 2045.66 Q747.406 2042.66 750.942 2042.69 Q754.477 2042.69 757.456 2045.67 Q761.008 2049.23 760.452 2053.45 Q759.912 2057.66 755.312 2062.25 Q753.577 2063.99 751.22 2065.56 Q748.88 2067.12 746.015 2068.44 L742.611 2065.04 Q745.753 2064.15 748.258 2062.79 Q750.762 2061.44 752.628 2059.57 Q755.46 2056.74 755.885 2054.09 Q756.311 2051.44 754.248 2049.37 Q752.448 2047.57 750.32 2047.67 Q748.208 2047.75 745.18 2049.77 L742.774 2051.39 Q738.339 2054.35 735.114 2054.43 Q731.889 2054.51 729.091 2051.71 Q725.85 2048.47 726.259 2044.33 Q726.684 2040.17 730.695 2036.16 Q732.413 2034.45 734.508 2032.97 Q736.603 2031.5 739.091 2030.25 Z" fill="#000000" fill-rule="evenodd" fill-opacity="1" /><path clip-path="url(#clip250)" d="M757.08 2015.15 Q753.479 2018.75 754.036 2023.56 Q754.608 2028.36 759.241 2032.99 Q763.856 2037.6 768.652 2038.18 Q773.465 2038.73 777.065 2035.13 Q780.666 2031.53 780.077 2026.75 Q779.504 2021.96 774.889 2017.34 Q770.256 2012.71 765.46 2012.14 Q760.681 2011.55 757.08 2015.15 M754.396 2012.46 Q759.535 2007.32 766.066 2007.7 Q772.581 2008.06 778.375 2013.85 Q784.153 2019.63 784.529 2026.16 Q784.889 2032.68 779.75 2037.82 Q774.594 2042.97 768.063 2042.63 Q761.549 2042.27 755.754 2036.47 Q749.96 2030.68 749.6 2024.17 Q749.24 2017.62 754.396 2012.46 Z" fill="#000000" fill-rule="evenodd" fill-opacity="1" /><path clip-path="url(#clip250)" d="M767.981 1999.76 L771.533 1996.21 L786.69 1999.22 L783.711 1984.03 L787.263 1980.48 L791.142 2000.07 L812.224 2004.39 L808.672 2007.95 L791.404 2004.43 L794.874 2021.74 L791.306 2025.31 L786.985 2003.54 L767.981 1999.76 Z" fill="#000000" fill-rule="evenodd" fill-opacity="1" /><path clip-path="url(#clip250)" d="M814.647 1996.41 L820.048 1991 L801.405 1972.36 L796.707 1979.42 L793.696 1976.4 L798.36 1969.38 L801.667 1966.08 L823.322 1987.73 L828.723 1982.33 L831.506 1985.11 L817.429 1999.19 L814.647 1996.41 Z" fill="#000000" fill-rule="evenodd" fill-opacity="1" /><path clip-path="url(#clip250)" d="M812.912 1954.83 L828.625 1939.12 L830.033 1940.52 L844.191 1972.43 L840.738 1975.88 L827.43 1945.88 L815.694 1957.61 L812.912 1954.83 Z" fill="#000000" fill-rule="evenodd" fill-opacity="1" /><path clip-path="url(#clip250)" d="M858.673 2023.54 Q860.097 2022.84 862.274 2023.02 Q864.468 2023.18 867.545 2024.23 L877.578 2027.55 L874.027 2031.11 L864.631 2027.96 Q860.965 2026.72 859.017 2027.06 Q857.086 2027.39 855.121 2029.35 L851.52 2032.96 L861.849 2043.28 L858.542 2046.59 L834.105 2022.15 L841.569 2014.69 Q845.759 2010.5 849.573 2010.19 Q853.386 2009.88 856.922 2013.41 Q859.23 2015.72 859.672 2018.32 Q860.13 2020.91 858.673 2023.54 M840.128 2021.56 L848.803 2030.24 L852.961 2026.08 Q855.35 2023.69 855.465 2021.38 Q855.58 2019.04 853.435 2016.9 Q851.291 2014.75 848.983 2014.9 Q846.675 2015.02 844.286 2017.41 L840.128 2021.56 Z" fill="#000000" fill-rule="evenodd" fill-opacity="1" /><path clip-path="url(#clip250)" d="M857.396 1998.86 L872.848 1983.41 L875.631 1986.19 L863.485 1998.34 L870.72 2005.57 L882.358 1993.93 L885.14 1996.72 L873.503 2008.35 L882.358 2017.21 L894.798 2004.77 L897.58 2007.55 L881.834 2023.3 L857.396 1998.86 Z" fill="#000000" fill-rule="evenodd" fill-opacity="1" /><path clip-path="url(#clip250)" d="M894.028 1963.83 L897.253 1967.06 Q894.47 1968.04 892.359 1969.27 Q890.247 1970.49 888.692 1972.05 Q885.992 1974.75 885.566 1977.27 Q885.157 1979.78 887.088 1981.71 Q888.709 1983.33 890.509 1983.2 Q892.31 1983.03 895.534 1980.82 L897.94 1979.24 Q902.343 1976.24 905.879 1976.27 Q909.414 1976.27 912.393 1979.25 Q915.945 1982.8 915.389 1987.03 Q914.849 1991.23 910.249 1995.83 Q908.514 1997.57 906.157 1999.14 Q903.816 2000.69 900.952 2002.02 L897.548 1998.62 Q900.69 1997.73 903.195 1996.37 Q905.699 1995.01 907.565 1993.15 Q910.396 1990.32 910.822 1987.67 Q911.248 1985.01 909.185 1982.95 Q907.385 1981.15 905.257 1981.25 Q903.145 1981.33 900.117 1983.34 L897.711 1984.96 Q893.275 1987.93 890.051 1988.01 Q886.826 1988.09 884.027 1985.29 Q880.787 1982.05 881.196 1977.91 Q881.621 1973.75 885.632 1969.74 Q887.35 1968.02 889.445 1966.55 Q891.54 1965.08 894.028 1963.83 Z" fill="#000000" fill-rule="evenodd" fill-opacity="1" /><path clip-path="url(#clip250)" d="M896.467 1959.79 L917.14 1939.12 L919.923 1941.9 L911.248 1950.57 L932.903 1972.23 L929.58 1975.55 L907.925 1953.9 L899.25 1962.57 L896.467 1959.79 Z" fill="#000000" fill-rule="evenodd" fill-opacity="1" /><path clip-path="url(#clip250)" d="M899.901 2044.87 L904.828 2039.94 L927.694 2050.34 L917.333 2027.44 L922.26 2022.51 L946.697 2046.95 L943.473 2050.18 L922.014 2028.72 L932.473 2051.78 L929.151 2055.1 L906.088 2044.64 L927.547 2066.1 L924.338 2069.31 L899.901 2044.87 Z" fill="#000000" fill-rule="evenodd" fill-opacity="1" /><path clip-path="url(#clip250)" d="M925.468 2019.3 L929.02 2015.75 L945.846 2019.03 L942.523 2002.25 L946.075 1998.7 L950.233 2020.14 L961.87 2031.78 L958.548 2035.1 L946.91 2023.46 L925.468 2019.3 Z" fill="#000000" fill-rule="evenodd" fill-opacity="1" /><path clip-path="url(#clip250)" d="M965.373 2004.93 L974.327 2013.89 L979.63 2008.58 Q982.298 2005.92 982.478 2003.54 Q982.658 2001.14 980.383 1998.86 Q978.091 1996.57 975.718 1996.78 Q973.345 1996.96 970.677 1999.63 L965.373 2004.93 M955.323 1994.88 L962.689 2002.25 L967.583 1997.36 Q970.005 1994.93 970.284 1992.85 Q970.562 1990.74 968.696 1988.88 Q966.846 1987.03 964.735 1987.31 Q962.64 1987.57 960.217 1989.99 L955.323 1994.88 M949.3 1995.47 L957.746 1987.03 Q961.527 1983.25 965.144 1982.77 Q968.761 1982.3 971.659 1985.19 Q973.901 1987.44 974.179 1989.81 Q974.458 1992.18 972.755 1994.54 Q975.718 1992.62 978.73 1992.95 Q981.741 1993.25 984.229 1995.73 Q987.503 1999.01 987.061 2003.02 Q986.619 2007.03 982.511 2011.14 L973.737 2019.91 L949.3 1995.47 Z" fill="#000000" fill-rule="evenodd" fill-opacity="1" /><path clip-path="url(#clip250)" d="M972.297 1972.48 L975.603 1969.17 L997.258 1990.82 L1009.16 1978.92 L1011.94 1981.71 L996.735 1996.91 L972.297 1972.48 Z" fill="#000000" fill-rule="evenodd" fill-opacity="1" /><path clip-path="url(#clip250)" d="M1015.77 1972.31 L1027.31 1960.77 L1030.09 1963.55 L1014.58 1979.07 L1011.79 1976.29 Q1011.73 1972.46 1011.7 1965.94 Q1011.66 1959.4 1011.55 1957.61 Q1011.35 1954.24 1010.75 1952.39 Q1010.14 1950.51 1008.95 1949.31 Q1007 1947.37 1004.39 1947.51 Q1001.81 1947.65 999.615 1949.84 Q998.06 1951.39 996.866 1953.67 Q995.687 1955.93 994.82 1958.99 L991.48 1955.65 Q992.675 1952.85 994.001 1950.71 Q995.327 1948.56 996.767 1947.12 Q1000.56 1943.32 1004.72 1942.96 Q1008.88 1942.6 1012.06 1945.78 Q1013.56 1947.28 1014.35 1949.22 Q1015.13 1951.12 1015.48 1954.44 Q1015.54 1955.32 1015.62 1959.79 Q1015.69 1964.24 1015.77 1972.31 Z" fill="#000000" fill-rule="evenodd" fill-opacity="1" /><path clip-path="url(#clip250)" d="M1025.67 2007.62 L1030.6 2002.69 L1053.46 2013.08 L1043.1 1990.19 L1048.03 1985.26 L1072.47 2009.7 L1069.24 2012.92 L1047.78 1991.46 L1058.24 2014.53 L1054.92 2017.85 L1031.86 2007.39 L1053.32 2028.85 L1050.11 2032.06 L1025.67 2007.62 Z" fill="#000000" fill-rule="evenodd" fill-opacity="1" /><path clip-path="url(#clip250)" d="M1070.04 1964.85 L1073.27 1968.07 Q1070.49 1969.05 1068.37 1970.28 Q1066.26 1971.51 1064.71 1973.06 Q1062.01 1975.77 1061.58 1978.29 Q1061.17 1980.79 1063.1 1982.72 Q1064.72 1984.34 1066.52 1984.21 Q1068.33 1984.05 1071.55 1981.84 L1073.96 1980.25 Q1078.36 1977.26 1081.89 1977.29 Q1085.43 1977.29 1088.41 1980.27 Q1091.96 1983.82 1091.4 1988.04 Q1090.86 1992.25 1086.26 1996.85 Q1084.53 1998.58 1082.17 2000.15 Q1079.83 2001.71 1076.97 2003.03 L1073.56 1999.63 Q1076.71 1998.75 1079.21 1997.39 Q1081.71 1996.03 1083.58 1994.16 Q1086.41 1991.33 1086.84 1988.68 Q1087.26 1986.03 1085.2 1983.97 Q1083.4 1982.17 1081.27 1982.26 Q1079.16 1982.35 1076.13 1984.36 L1073.73 1985.98 Q1069.29 1988.94 1066.07 1989.02 Q1062.84 1989.11 1060.04 1986.31 Q1056.8 1983.07 1057.21 1978.92 Q1057.64 1974.77 1061.65 1970.76 Q1063.37 1969.04 1065.46 1967.57 Q1067.56 1966.09 1070.04 1964.85 Z" fill="#000000" fill-rule="evenodd" fill-opacity="1" /><path clip-path="url(#clip250)" d="M1096.05 1941 L1099.54 1944.49 Q1096.31 1944.6 1093.65 1945.73 Q1090.99 1946.84 1088.87 1948.97 Q1084.68 1953.16 1085.02 1957.96 Q1085.35 1962.74 1090.19 1967.58 Q1095.02 1972.41 1099.82 1972.75 Q1104.6 1973.08 1108.79 1968.89 Q1110.91 1966.76 1112.03 1964.11 Q1113.16 1961.44 1113.27 1958.22 L1116.73 1961.67 Q1116.17 1964.59 1114.81 1967.12 Q1113.47 1969.64 1111.31 1971.8 Q1105.76 1977.35 1099.18 1977.16 Q1092.58 1976.94 1086.71 1971.07 Q1080.81 1965.18 1080.62 1958.6 Q1080.4 1952 1085.95 1946.45 Q1088.15 1944.26 1090.67 1942.91 Q1093.19 1941.54 1096.05 1941 Z" fill="#000000" fill-rule="evenodd" fill-opacity="1" /><path clip-path="url(#clip250)" d="M1095.62 2052.14 Q1097.05 2051.44 1099.22 2051.62 Q1101.42 2051.78 1104.49 2052.83 L1114.53 2056.15 L1110.98 2059.7 L1101.58 2056.56 Q1097.91 2055.31 1095.97 2055.66 Q1094.04 2055.99 1092.07 2057.95 L1088.47 2061.55 L1098.8 2071.88 L1095.49 2075.19 L1071.05 2050.75 L1078.52 2043.28 Q1082.71 2039.09 1086.52 2038.78 Q1090.34 2038.47 1093.87 2042.01 Q1096.18 2044.32 1096.62 2046.92 Q1097.08 2049.5 1095.62 2052.14 M1077.08 2050.16 L1085.75 2058.83 L1089.91 2054.68 Q1092.3 2052.29 1092.42 2049.98 Q1092.53 2047.64 1090.39 2045.49 Q1088.24 2043.35 1085.93 2043.5 Q1083.63 2043.61 1081.24 2046 L1077.08 2050.16 Z" fill="#000000" fill-rule="evenodd" fill-opacity="1" /><path clip-path="url(#clip250)" d="M1094.35 2027.46 L1097.65 2024.15 L1107.67 2034.17 L1119.68 2022.15 L1109.67 2012.14 L1112.97 2008.83 L1137.41 2033.27 L1134.1 2036.57 L1122.47 2024.94 L1110.45 2036.95 L1122.09 2048.59 L1118.78 2051.89 L1094.35 2027.46 Z" fill="#000000" fill-rule="evenodd" fill-opacity="1" /><path clip-path="url(#clip250)" d="M1131.71 1994.57 Q1128.11 1998.17 1128.67 2002.99 Q1129.24 2007.78 1133.88 2012.41 Q1138.49 2017.03 1143.29 2017.6 Q1148.1 2018.16 1151.7 2014.56 Q1155.3 2010.96 1154.71 2006.18 Q1154.14 2001.38 1149.52 1996.77 Q1144.89 1992.13 1140.1 1991.56 Q1135.32 1990.97 1131.71 1994.57 M1129.03 1991.89 Q1134.17 1986.75 1140.7 1987.12 Q1147.22 1987.49 1153.01 1993.28 Q1158.79 1999.06 1159.16 2005.59 Q1159.52 2012.1 1154.38 2017.24 Q1149.23 2022.4 1142.7 2022.05 Q1136.18 2021.69 1130.39 2015.9 Q1124.59 2010.11 1124.23 2003.59 Q1123.87 1997.04 1129.03 1991.89 Z" fill="#000000" fill-rule="evenodd" fill-opacity="1" /><path clip-path="url(#clip250)" d="M1142.62 1979.19 L1146.17 1975.63 L1161.32 1978.65 L1158.35 1963.46 L1161.9 1959.9 L1165.78 1979.5 L1186.86 1983.82 L1183.31 1987.37 L1166.04 1983.85 L1169.51 2001.17 L1165.94 2004.74 L1161.62 1982.97 L1142.62 1979.19 Z" fill="#000000" fill-rule="evenodd" fill-opacity="1" /><path clip-path="url(#clip250)" d="M1185.44 1958.17 Q1183.21 1960.4 1183.42 1963.23 Q1183.65 1966.04 1186.3 1968.69 Q1188.94 1971.33 1191.77 1971.58 Q1194.6 1971.79 1196.83 1969.56 Q1199.05 1967.34 1198.82 1964.52 Q1198.6 1961.67 1195.96 1959.04 Q1193.31 1956.39 1190.48 1956.17 Q1187.66 1955.94 1185.44 1958.17 M1181.64 1941.25 L1184.65 1944.26 Q1182.82 1944.91 1181.23 1945.88 Q1179.66 1946.83 1178.41 1948.07 Q1175.14 1951.34 1175.61 1955.29 Q1176.11 1959.22 1180.33 1963.93 Q1179.87 1961.54 1180.57 1959.33 Q1181.26 1957.11 1183.01 1955.35 Q1186.7 1951.67 1191.07 1951.79 Q1195.44 1951.87 1199.28 1955.71 Q1203.05 1959.48 1203.1 1963.98 Q1203.15 1968.48 1199.45 1972.18 Q1195.21 1976.42 1189.72 1975.42 Q1184.22 1974.41 1178.05 1968.24 Q1172.26 1962.44 1171.57 1956.25 Q1170.87 1950.05 1175.5 1945.42 Q1176.74 1944.18 1178.25 1943.16 Q1179.77 1942.13 1181.64 1941.25 Z" fill="#000000" fill-rule="evenodd" fill-opacity="1" /><path clip-path="url(#clip250)" d="M1164.82 2045.49 L1180.28 2030.04 L1183.06 2032.82 L1170.91 2044.97 L1178.15 2052.2 L1189.79 2040.57 L1192.57 2043.35 L1180.93 2054.99 L1189.79 2063.84 L1202.23 2051.4 L1205.01 2054.19 L1189.26 2069.93 L1164.82 2045.49 Z" fill="#000000" fill-rule="evenodd" fill-opacity="1" /><path clip-path="url(#clip250)" d="M1201.46 2010.47 L1204.68 2013.69 Q1201.9 2014.67 1199.79 2015.9 Q1197.67 2017.13 1196.12 2018.68 Q1193.42 2021.38 1192.99 2023.9 Q1192.58 2026.41 1194.52 2028.34 Q1196.14 2029.96 1197.94 2029.83 Q1199.74 2029.67 1202.96 2027.46 L1205.37 2025.87 Q1209.77 2022.87 1213.31 2022.91 Q1216.84 2022.91 1219.82 2025.88 Q1223.37 2029.44 1222.82 2033.66 Q1222.28 2037.87 1217.68 2042.47 Q1215.94 2044.2 1213.58 2045.77 Q1211.24 2047.33 1208.38 2048.65 L1204.97 2045.25 Q1208.12 2044.36 1210.62 2043.01 Q1213.13 2041.65 1214.99 2039.78 Q1217.82 2036.95 1218.25 2034.3 Q1218.68 2031.65 1216.61 2029.58 Q1214.81 2027.78 1212.68 2027.88 Q1210.57 2027.96 1207.54 2029.98 L1205.14 2031.6 Q1200.7 2034.56 1197.48 2034.64 Q1194.25 2034.72 1191.45 2031.92 Q1188.21 2028.68 1188.62 2024.54 Q1189.05 2020.39 1193.06 2016.37 Q1194.78 2014.66 1196.87 2013.18 Q1198.97 2011.71 1201.46 2010.47 Z" fill="#000000" fill-rule="evenodd" fill-opacity="1" /><path clip-path="url(#clip250)" d="M1231.85 2004.43 Q1233.28 2003.72 1235.45 2003.9 Q1237.65 2004.07 1240.72 2005.11 L1250.76 2008.44 L1247.2 2011.99 L1237.81 2008.85 Q1234.14 2007.6 1232.2 2007.95 Q1230.26 2008.27 1228.3 2010.24 L1224.7 2013.84 L1235.03 2024.17 L1231.72 2027.47 L1207.28 2003.03 L1214.75 1995.57 Q1218.94 1991.38 1222.75 1991.07 Q1226.56 1990.76 1230.1 1994.29 Q1232.41 1996.6 1232.85 1999.2 Q1233.31 2001.79 1231.85 2004.43 M1213.31 2002.45 L1221.98 2011.12 L1226.14 2006.96 Q1228.53 2004.57 1228.64 2002.27 Q1228.76 1999.92 1226.61 1997.78 Q1224.47 1995.64 1222.16 1995.78 Q1219.85 1995.9 1217.46 1998.29 L1213.31 2002.45 Z" fill="#000000" fill-rule="evenodd" fill-opacity="1" /><path clip-path="url(#clip250)" d="M1255.14 1981.13 Q1256.57 1980.43 1258.74 1980.61 Q1260.94 1980.77 1264.01 1981.82 L1274.05 1985.14 L1270.5 1988.7 L1261.1 1985.55 Q1257.43 1984.31 1255.49 1984.65 Q1253.56 1984.98 1251.59 1986.94 L1247.99 1990.55 L1258.32 2000.87 L1255.01 2004.18 L1230.57 1979.74 L1238.04 1972.28 Q1242.23 1968.09 1246.04 1967.78 Q1249.86 1967.47 1253.39 1971 Q1255.7 1973.31 1256.14 1975.91 Q1256.6 1978.5 1255.14 1981.13 M1236.6 1979.15 L1245.27 1987.83 L1249.43 1983.67 Q1251.82 1981.28 1251.94 1978.97 Q1252.05 1976.63 1249.91 1974.49 Q1247.76 1972.34 1245.45 1972.49 Q1243.15 1972.61 1240.76 1975 L1236.6 1979.15 Z" fill="#000000" fill-rule="evenodd" fill-opacity="1" /><path clip-path="url(#clip250)" d="M1269.94 1965.91 L1278.89 1974.87 L1284.2 1969.56 Q1286.86 1966.89 1287.04 1964.52 Q1287.22 1962.11 1284.95 1959.84 Q1282.66 1957.55 1280.28 1957.76 Q1277.91 1957.94 1275.24 1960.61 L1269.94 1965.91 M1259.89 1955.86 L1267.26 1963.23 L1272.15 1958.33 Q1274.57 1955.91 1274.85 1953.83 Q1275.13 1951.72 1273.26 1949.85 Q1271.41 1948.01 1269.3 1948.28 Q1267.21 1948.55 1264.78 1950.97 L1259.89 1955.86 M1253.87 1956.45 L1262.31 1948.01 Q1266.09 1944.22 1269.71 1943.75 Q1273.33 1943.27 1276.23 1946.17 Q1278.47 1948.41 1278.75 1950.79 Q1279.02 1953.16 1277.32 1955.52 Q1280.28 1953.6 1283.3 1953.93 Q1286.31 1954.23 1288.8 1956.71 Q1292.07 1959.99 1291.63 1964 Q1291.19 1968.01 1287.08 1972.12 L1278.3 1980.89 L1253.87 1956.45 Z" fill="#000000" fill-rule="evenodd" fill-opacity="1" /><path clip-path="url(#clip250)" d="M1270.25 2028.59 L1275.17 2023.66 L1298.04 2034.05 L1287.68 2011.15 L1292.61 2006.23 L1317.04 2030.66 L1313.82 2033.89 L1292.36 2012.43 L1302.82 2035.49 L1299.5 2038.82 L1276.43 2028.36 L1297.89 2049.81 L1294.68 2053.02 L1270.25 2028.59 Z" fill="#000000" fill-rule="evenodd" fill-opacity="1" /><path clip-path="url(#clip250)" d="M1295.81 2003.02 L1299.37 1999.47 L1316.19 2002.74 L1312.87 1985.96 L1316.42 1982.41 L1320.58 2003.85 L1332.22 2015.49 L1328.89 2018.81 L1317.26 2007.18 L1295.81 2003.02 Z" fill="#000000" fill-rule="evenodd" fill-opacity="1" /><path clip-path="url(#clip250)" d="M1337.99 1964.6 L1341.48 1968.09 Q1338.26 1968.2 1335.59 1969.33 Q1332.94 1970.45 1330.81 1972.57 Q1326.62 1976.76 1326.96 1981.56 Q1327.29 1986.34 1332.14 1991.18 Q1336.96 1996.01 1341.76 1996.36 Q1346.54 1996.68 1350.73 1992.49 Q1352.86 1990.37 1353.97 1987.71 Q1355.1 1985.05 1355.21 1981.82 L1358.67 1985.28 Q1358.11 1988.19 1356.75 1990.73 Q1355.41 1993.25 1353.25 1995.41 Q1347.7 2000.96 1341.12 2000.76 Q1334.52 2000.55 1328.65 1994.67 Q1322.76 1988.78 1322.56 1982.2 Q1322.35 1975.6 1327.9 1970.05 Q1330.09 1967.86 1332.61 1966.52 Q1335.13 1965.14 1337.99 1964.6 Z" fill="#000000" fill-rule="evenodd" fill-opacity="1" /><path clip-path="url(#clip250)" d="M1341.22 1957.61 L1345.67 1953.16 L1376.95 1962.77 L1356.51 1942.33 L1359.72 1939.12 L1384.15 1963.55 L1379.7 1968.01 L1348.42 1958.4 L1368.87 1978.84 L1365.66 1982.05 L1341.22 1957.61 Z" fill="#000000" fill-rule="evenodd" fill-opacity="1" /><path clip-path="url(#clip250)" d="M1328.96 2058.39 L1349.63 2037.72 L1352.41 2040.5 L1343.74 2049.18 L1365.39 2070.83 L1362.07 2074.15 L1340.41 2052.5 L1331.74 2061.17 L1328.96 2058.39 Z" fill="#000000" fill-rule="evenodd" fill-opacity="1" /><path clip-path="url(#clip250)" d="M1371.04 2020.07 L1374.52 2023.56 Q1371.3 2023.68 1368.63 2024.8 Q1365.98 2025.92 1363.85 2028.05 Q1359.66 2032.24 1360.01 2037.03 Q1360.33 2041.81 1365.18 2046.66 Q1370.01 2051.48 1374.8 2051.83 Q1379.58 2052.16 1383.77 2047.97 Q1385.9 2045.84 1387.01 2043.19 Q1388.14 2040.52 1388.26 2037.29 L1391.71 2040.75 Q1391.15 2043.66 1389.8 2046.2 Q1388.45 2048.72 1386.29 2050.88 Q1380.74 2056.43 1374.16 2056.23 Q1367.57 2056.02 1361.69 2050.14 Q1355.8 2044.25 1355.6 2037.67 Q1355.39 2031.07 1360.94 2025.52 Q1363.13 2023.33 1365.65 2021.99 Q1368.17 2020.61 1371.04 2020.07 Z" fill="#000000" fill-rule="evenodd" fill-opacity="1" /><path clip-path="url(#clip250)" d="M1374.26 2013.08 L1388.31 1999.04 L1391.09 2001.82 L1380.35 2012.56 L1387.55 2019.76 L1397.24 2010.07 L1400.03 2012.86 L1390.34 2022.55 L1402.01 2034.22 L1398.7 2037.52 L1374.26 2013.08 Z" fill="#000000" fill-rule="evenodd" fill-opacity="1" /><path clip-path="url(#clip250)" d="M1393 1994.34 L1408.72 1978.63 L1410.13 1980.04 L1424.28 2011.94 L1420.83 2015.39 L1407.52 1985.39 L1395.79 1997.13 L1393 1994.34 Z" fill="#000000" fill-rule="evenodd" fill-opacity="1" /><path clip-path="url(#clip250)" d="M1414.87 1972.48 L1418.18 1969.17 L1439.83 1990.82 L1451.73 1978.92 L1454.52 1981.71 L1439.31 1996.91 L1414.87 1972.48 Z" fill="#000000" fill-rule="evenodd" fill-opacity="1" /><path clip-path="url(#clip250)" d="M1458.35 1972.31 L1469.89 1960.77 L1472.67 1963.55 L1457.15 1979.07 L1454.37 1976.29 Q1454.3 1972.46 1454.27 1965.94 Q1454.24 1959.4 1454.12 1957.61 Q1453.93 1954.24 1453.32 1952.39 Q1452.72 1950.51 1451.52 1949.31 Q1449.57 1947.37 1446.97 1947.51 Q1444.38 1947.65 1442.19 1949.84 Q1440.64 1951.39 1439.44 1953.67 Q1438.26 1955.93 1437.39 1958.99 L1434.06 1955.65 Q1435.25 1952.85 1436.58 1950.71 Q1437.9 1948.56 1439.34 1947.12 Q1443.14 1943.32 1447.3 1942.96 Q1451.46 1942.6 1454.63 1945.78 Q1456.14 1947.28 1456.92 1949.22 Q1457.71 1951.12 1458.05 1954.44 Q1458.12 1955.32 1458.2 1959.79 Q1458.26 1964.24 1458.35 1972.31 Z" fill="#000000" fill-rule="evenodd" fill-opacity="1" /><path clip-path="url(#clip250)" d="M1486.1 1989.76 L1489.41 1986.45 L1513.85 2010.89 L1510.54 2014.2 L1486.1 1989.76 Z" fill="#000000" fill-rule="evenodd" fill-opacity="1" /><path clip-path="url(#clip250)" d="M1502.01 1979.28 L1521.02 1998.29 L1525.01 1994.29 Q1530.07 1989.24 1530.12 1984.6 Q1530.18 1979.96 1525.24 1975.01 Q1520.33 1970.1 1515.7 1970.18 Q1511.06 1970.23 1506.01 1975.29 L1502.01 1979.28 M1495.99 1979.87 L1502.78 1973.08 Q1509.89 1965.98 1516.17 1965.62 Q1522.44 1965.24 1528.73 1971.53 Q1535.04 1977.84 1534.67 1984.15 Q1534.29 1990.45 1527.22 1997.52 L1520.43 2004.31 L1495.99 1979.87 Z" fill="#000000" fill-rule="evenodd" fill-opacity="1" /><path clip-path="url(#clip250)" d="M1544.32 1974.85 L1549.73 1969.45 L1531.08 1950.8 L1526.38 1957.86 L1523.37 1954.85 L1528.04 1947.83 L1531.34 1944.52 L1553 1966.17 L1558.4 1960.77 L1561.18 1963.55 L1547.11 1977.63 L1544.32 1974.85 Z" fill="#000000" fill-rule="evenodd" fill-opacity="1" /><path clip-path="url(#clip250)" d="M1517.62 2046.75 L1522.08 2042.3 L1553.36 2051.91 L1532.91 2031.47 L1536.12 2028.26 L1560.56 2052.7 L1556.11 2057.15 L1524.83 2047.54 L1545.27 2067.98 L1542.06 2071.19 L1517.62 2046.75 Z" fill="#000000" fill-rule="evenodd" fill-opacity="1" /><path clip-path="url(#clip250)" d="M1567.27 2023.07 Q1568.69 2022.37 1570.87 2022.55 Q1573.06 2022.71 1576.14 2023.76 L1586.17 2027.08 L1582.62 2030.63 L1573.23 2027.49 Q1569.56 2026.24 1567.61 2026.59 Q1565.68 2026.92 1563.72 2028.88 L1560.12 2032.48 L1570.44 2042.81 L1567.14 2046.12 L1542.7 2021.68 L1550.16 2014.21 Q1554.35 2010.02 1558.17 2009.71 Q1561.98 2009.4 1565.52 2012.94 Q1567.82 2015.25 1568.27 2017.85 Q1568.73 2020.43 1567.27 2023.07 M1548.72 2021.09 L1557.4 2029.76 L1561.56 2025.61 Q1563.95 2023.22 1564.06 2020.91 Q1564.17 2018.57 1562.03 2016.42 Q1559.89 2014.28 1557.58 2014.43 Q1555.27 2014.54 1552.88 2016.93 L1548.72 2021.09 Z" fill="#000000" fill-rule="evenodd" fill-opacity="1" /><path clip-path="url(#clip250)" d="M1575.53 1993.2 Q1572.98 1995.75 1574.21 1999.56 Q1575.44 2003.35 1580.48 2008.39 Q1585.5 2013.41 1589.3 2014.66 Q1593.1 2015.87 1595.65 2013.31 Q1598.22 2010.74 1596.99 2006.96 Q1595.77 2003.15 1590.74 1998.12 Q1585.7 1993.08 1581.9 1991.87 Q1578.1 1990.63 1575.53 1993.2 M1572.92 1990.58 Q1577.02 1986.47 1582.44 1987.57 Q1587.86 1988.63 1594.05 1994.82 Q1600.22 2000.99 1601.3 2006.42 Q1602.38 2011.82 1598.27 2015.93 Q1594.16 2020.04 1588.74 2018.98 Q1583.33 2017.88 1577.15 2011.71 Q1570.97 2005.52 1569.89 2000.12 Q1568.81 1994.69 1572.92 1990.58 Z" fill="#000000" fill-rule="evenodd" fill-opacity="1" /><path clip-path="url(#clip250)" d="M1603.39 1986.52 L1612.35 1995.47 L1617.65 1990.17 Q1620.32 1987.5 1620.5 1985.13 Q1620.68 1982.72 1618.4 1980.45 Q1616.11 1978.16 1613.74 1978.37 Q1611.36 1978.55 1608.7 1981.22 L1603.39 1986.52 M1593.34 1976.47 L1600.71 1983.83 L1605.6 1978.94 Q1608.02 1976.52 1608.3 1974.44 Q1608.58 1972.33 1606.72 1970.46 Q1604.87 1968.61 1602.75 1968.89 Q1600.66 1969.15 1598.24 1971.58 L1593.34 1976.47 M1587.32 1977.06 L1595.77 1968.61 Q1599.55 1964.83 1603.16 1964.36 Q1606.78 1963.88 1609.68 1966.78 Q1611.92 1969.02 1612.2 1971.4 Q1612.48 1973.77 1610.77 1976.13 Q1613.74 1974.21 1616.75 1974.54 Q1619.76 1974.83 1622.25 1977.32 Q1625.52 1980.59 1625.08 1984.6 Q1624.64 1988.61 1620.53 1992.72 L1611.76 2001.5 L1587.32 1977.06 Z" fill="#000000" fill-rule="evenodd" fill-opacity="1" /><path clip-path="url(#clip250)" d="M1632.84 1974.85 L1638.24 1969.45 L1619.6 1950.8 L1614.9 1957.86 L1611.89 1954.85 L1616.55 1947.83 L1619.86 1944.52 L1641.51 1966.17 L1646.92 1960.77 L1649.7 1963.55 L1635.62 1977.63 L1632.84 1974.85 Z" fill="#000000" fill-rule="evenodd" fill-opacity="1" /><path clip-path="url(#clip250)" d="M1615.11 2039.39 L1618.33 2042.61 Q1615.55 2043.6 1613.44 2044.82 Q1611.33 2046.05 1609.77 2047.61 Q1607.07 2050.31 1606.65 2052.83 Q1606.24 2055.33 1608.17 2057.26 Q1609.79 2058.88 1611.59 2058.75 Q1613.39 2058.59 1616.61 2056.38 L1619.02 2054.79 Q1623.42 2051.8 1626.96 2051.83 Q1630.49 2051.83 1633.47 2054.81 Q1637.03 2058.36 1636.47 2062.58 Q1635.93 2066.79 1631.33 2071.39 Q1629.59 2073.12 1627.24 2074.69 Q1624.9 2076.25 1622.03 2077.58 L1618.63 2074.17 Q1621.77 2073.29 1624.27 2071.93 Q1626.78 2070.57 1628.65 2068.7 Q1631.48 2065.87 1631.9 2063.22 Q1632.33 2060.57 1630.27 2058.51 Q1628.47 2056.71 1626.34 2056.8 Q1624.23 2056.89 1621.2 2058.9 L1618.79 2060.52 Q1614.36 2063.48 1611.13 2063.56 Q1607.91 2063.65 1605.11 2060.85 Q1601.87 2057.61 1602.28 2053.46 Q1602.7 2049.31 1606.71 2045.3 Q1608.43 2043.58 1610.53 2042.11 Q1612.62 2040.63 1615.11 2039.39 Z" fill="#000000" fill-rule="evenodd" fill-opacity="1" /><path clip-path="url(#clip250)" d="M1620.94 2031.96 L1625.86 2027.03 L1648.73 2037.42 L1638.37 2014.53 L1643.29 2009.6 L1667.73 2034.04 L1664.51 2037.26 L1643.05 2015.8 L1653.51 2038.86 L1650.19 2042.19 L1627.12 2031.73 L1648.58 2053.19 L1645.37 2056.39 L1620.94 2031.96 Z" fill="#000000" fill-rule="evenodd" fill-opacity="1" /><path clip-path="url(#clip250)" d="M1661.28 1998.12 L1668.96 2014.77 L1677.95 2005.78 L1661.28 1998.12 M1656.16 1996.73 L1659.91 1992.98 L1693.66 2008.11 L1690.22 2011.55 L1681.73 2007.5 L1670.71 2018.52 L1674.75 2027.01 L1671.27 2030.5 L1656.16 1996.73 Z" fill="#000000" fill-rule="evenodd" fill-opacity="1" /><path clip-path="url(#clip250)" d="M1678.81 1979.51 L1697.82 1998.52 L1701.81 1994.52 Q1706.87 1989.47 1706.92 1984.83 Q1706.98 1980.18 1702.04 1975.24 Q1697.13 1970.33 1692.5 1970.41 Q1687.86 1970.46 1682.81 1975.52 L1678.81 1979.51 M1672.79 1980.1 L1679.58 1973.31 Q1686.69 1966.21 1692.97 1965.85 Q1699.24 1965.47 1705.53 1971.76 Q1711.84 1978.07 1711.47 1984.38 Q1711.09 1990.68 1704.02 1997.75 L1697.23 2004.54 L1672.79 1980.1 Z" fill="#000000" fill-rule="evenodd" fill-opacity="1" /><path clip-path="url(#clip250)" d="M1698.06 1954.83 L1713.78 1939.12 L1715.18 1940.52 L1729.34 1972.43 L1725.89 1975.88 L1712.58 1945.88 L1700.84 1957.61 L1698.06 1954.83 Z" fill="#000000" fill-rule="evenodd" fill-opacity="1" /><path clip-path="url(#clip250)" d="M1696.39 2045.02 L1699.7 2041.71 L1722.43 2064.45 Q1726.85 2068.87 1727.16 2072.55 Q1727.49 2076.22 1723.77 2079.93 L1722.51 2081.19 L1719.73 2078.41 L1720.76 2077.38 Q1722.95 2075.19 1722.63 2073.06 Q1722.3 2070.93 1719.12 2067.75 L1696.39 2045.02 Z" fill="#000000" fill-rule="evenodd" fill-opacity="1" /><path clip-path="url(#clip250)" d="M1717.11 2030.81 L1724.79 2047.46 L1733.77 2038.47 L1717.11 2030.81 M1711.99 2029.42 L1715.74 2025.67 L1749.49 2040.8 L1746.05 2044.23 L1737.55 2040.19 L1726.54 2051.21 L1730.58 2059.7 L1727.1 2063.19 L1711.99 2029.42 Z" fill="#000000" fill-rule="evenodd" fill-opacity="1" /><path clip-path="url(#clip250)" d="M1753.19 2014.18 Q1754.61 2013.48 1756.79 2013.66 Q1758.98 2013.82 1762.06 2014.87 L1772.09 2018.19 L1768.54 2021.74 L1759.14 2018.6 Q1755.48 2017.36 1753.53 2017.7 Q1751.6 2018.03 1749.63 2019.99 L1746.03 2023.59 L1756.36 2033.92 L1753.06 2037.23 L1728.62 2012.79 L1736.08 2005.33 Q1740.27 2001.14 1744.09 2000.83 Q1747.9 2000.51 1751.43 2004.05 Q1753.74 2006.36 1754.18 2008.96 Q1754.64 2011.55 1753.19 2014.18 M1734.64 2012.2 L1743.32 2020.88 L1747.47 2016.72 Q1749.86 2014.33 1749.98 2012.02 Q1750.09 2009.68 1747.95 2007.54 Q1745.8 2005.39 1743.5 2005.54 Q1741.19 2005.65 1738.8 2008.04 L1734.64 2012.2 Z" fill="#000000" fill-rule="evenodd" fill-opacity="1" /><path clip-path="url(#clip250)" d="M1751.91 1989.5 L1755.22 1986.19 L1779.65 2010.63 L1776.35 2013.94 L1751.91 1989.5 Z" fill="#000000" fill-rule="evenodd" fill-opacity="1" /><path clip-path="url(#clip250)" d="M1767.82 1979.02 L1786.82 1998.03 L1790.82 1994.03 Q1795.87 1988.97 1795.92 1984.34 Q1795.99 1979.69 1791.05 1974.75 Q1786.14 1969.84 1781.5 1969.92 Q1776.87 1969.97 1771.81 1975.03 L1767.82 1979.02 M1761.8 1979.61 L1768.59 1972.82 Q1775.69 1965.72 1781.98 1965.36 Q1788.25 1964.98 1794.53 1971.26 Q1800.85 1977.58 1800.47 1983.88 Q1800.1 1990.19 1793.03 1997.26 L1786.23 2004.05 L1761.8 1979.61 Z" fill="#000000" fill-rule="evenodd" fill-opacity="1" /><path clip-path="url(#clip250)" d="M1812.41 1972.31 L1823.95 1960.77 L1826.73 1963.55 L1811.21 1979.07 L1808.43 1976.29 Q1808.36 1972.46 1808.33 1965.94 Q1808.3 1959.4 1808.18 1957.61 Q1807.99 1954.24 1807.38 1952.39 Q1806.78 1950.51 1805.58 1949.31 Q1803.63 1947.37 1801.03 1947.51 Q1798.44 1947.65 1796.25 1949.84 Q1794.7 1951.39 1793.5 1953.67 Q1792.32 1955.93 1791.46 1958.99 L1788.12 1955.65 Q1789.31 1952.85 1790.64 1950.71 Q1791.96 1948.56 1793.4 1947.12 Q1797.2 1943.32 1801.36 1942.96 Q1805.52 1942.6 1808.69 1945.78 Q1810.2 1947.28 1810.98 1949.22 Q1811.77 1951.12 1812.11 1954.44 Q1812.18 1955.32 1812.26 1959.79 Q1812.32 1964.24 1812.41 1972.31 Z" fill="#000000" fill-rule="evenodd" fill-opacity="1" /><polyline clip-path="url(#clip252)" style="stroke:#000000; stroke-linecap:round; stroke-linejoin:round; stroke-width:2; stroke-opacity:0.1; fill:none" points="
  82.9921,1864.09 1952.76,1864.09 
  "/>
<polyline clip-path="url(#clip252)" style="stroke:#000000; stroke-linecap:round; stroke-linejoin:round; stroke-width:2; stroke-opacity:0.1; fill:none" points="
  82.9921,1596.57 1952.76,1596.57 
  "/>
<polyline clip-path="url(#clip252)" style="stroke:#000000; stroke-linecap:round; stroke-linejoin:round; stroke-width:2; stroke-opacity:0.1; fill:none" points="
  82.9921,1329.05 1952.76,1329.05 
  "/>
<polyline clip-path="url(#clip252)" style="stroke:#000000; stroke-linecap:round; stroke-linejoin:round; stroke-width:2; stroke-opacity:0.1; fill:none" points="
  82.9921,1061.53 1952.76,1061.53 
  "/>
<polyline clip-path="url(#clip252)" style="stroke:#000000; stroke-linecap:round; stroke-linejoin:round; stroke-width:2; stroke-opacity:0.1; fill:none" points="
  82.9921,794.005 1952.76,794.005 
  "/>
<polyline clip-path="url(#clip252)" style="stroke:#000000; stroke-linecap:round; stroke-linejoin:round; stroke-width:2; stroke-opacity:0.1; fill:none" points="
  82.9921,526.483 1952.76,526.483 
  "/>
<polyline clip-path="url(#clip252)" style="stroke:#000000; stroke-linecap:round; stroke-linejoin:round; stroke-width:2; stroke-opacity:0.1; fill:none" points="
  82.9921,258.962 1952.76,258.962 
  "/>
<polyline clip-path="url(#clip250)" style="stroke:#000000; stroke-linecap:round; stroke-linejoin:round; stroke-width:4; stroke-opacity:1; fill:none" points="
  82.9921,1917.01 82.9921,47.2441 
  "/>
<polyline clip-path="url(#clip250)" style="stroke:#000000; stroke-linecap:round; stroke-linejoin:round; stroke-width:4; stroke-opacity:1; fill:none" points="
  82.9921,1864.09 101.89,1864.09 
  "/>
<polyline clip-path="url(#clip250)" style="stroke:#000000; stroke-linecap:round; stroke-linejoin:round; stroke-width:4; stroke-opacity:1; fill:none" points="
  82.9921,1596.57 101.89,1596.57 
  "/>
<polyline clip-path="url(#clip250)" style="stroke:#000000; stroke-linecap:round; stroke-linejoin:round; stroke-width:4; stroke-opacity:1; fill:none" points="
  82.9921,1329.05 101.89,1329.05 
  "/>
<polyline clip-path="url(#clip250)" style="stroke:#000000; stroke-linecap:round; stroke-linejoin:round; stroke-width:4; stroke-opacity:1; fill:none" points="
  82.9921,1061.53 101.89,1061.53 
  "/>
<polyline clip-path="url(#clip250)" style="stroke:#000000; stroke-linecap:round; stroke-linejoin:round; stroke-width:4; stroke-opacity:1; fill:none" points="
  82.9921,794.005 101.89,794.005 
  "/>
<polyline clip-path="url(#clip250)" style="stroke:#000000; stroke-linecap:round; stroke-linejoin:round; stroke-width:4; stroke-opacity:1; fill:none" points="
  82.9921,526.483 101.89,526.483 
  "/>
<polyline clip-path="url(#clip250)" style="stroke:#000000; stroke-linecap:round; stroke-linejoin:round; stroke-width:4; stroke-opacity:1; fill:none" points="
  82.9921,258.962 101.89,258.962 
  "/>
<path clip-path="url(#clip250)" d="M-4.18349 1849.89 Q-7.79459 1849.89 -9.62328 1853.45 Q-11.4288 1857 -11.4288 1864.12 Q-11.4288 1871.23 -9.62328 1874.8 Q-7.79459 1878.34 -4.18349 1878.34 Q-0.549254 1878.34 1.25629 1874.8 Q3.08499 1871.23 3.08499 1864.12 Q3.08499 1857 1.25629 1853.45 Q-0.549254 1849.89 -4.18349 1849.89 M-4.18349 1846.19 Q1.62666 1846.19 4.6822 1850.79 Q7.76089 1855.37 7.76089 1864.12 Q7.76089 1872.85 4.6822 1877.46 Q1.62666 1882.04 -4.18349 1882.04 Q-9.99365 1882.04 -13.0723 1877.46 Q-16.1279 1872.85 -16.1279 1864.12 Q-16.1279 1855.37 -13.0723 1850.79 Q-9.99365 1846.19 -4.18349 1846.19 Z" fill="#000000" fill-rule="evenodd" fill-opacity="1" /><path clip-path="url(#clip250)" d="M15.9784 1875.49 L20.8627 1875.49 L20.8627 1881.37 L15.9784 1881.37 L15.9784 1875.49 Z" fill="#000000" fill-rule="evenodd" fill-opacity="1" /><path clip-path="url(#clip250)" d="M41.0477 1849.89 Q37.4367 1849.89 35.608 1853.45 Q33.8024 1857 33.8024 1864.12 Q33.8024 1871.23 35.608 1874.8 Q37.4367 1878.34 41.0477 1878.34 Q44.682 1878.34 46.4875 1874.8 Q48.3162 1871.23 48.3162 1864.12 Q48.3162 1857 46.4875 1853.45 Q44.682 1849.89 41.0477 1849.89 M41.0477 1846.19 Q46.8579 1846.19 49.9134 1850.79 Q52.9921 1855.37 52.9921 1864.12 Q52.9921 1872.85 49.9134 1877.46 Q46.8579 1882.04 41.0477 1882.04 Q35.2376 1882.04 32.1589 1877.46 Q29.1034 1872.85 29.1034 1864.12 Q29.1034 1855.37 32.1589 1850.79 Q35.2376 1846.19 41.0477 1846.19 Z" fill="#000000" fill-rule="evenodd" fill-opacity="1" /><path clip-path="url(#clip250)" d="M-2.58628 1582.37 Q-6.19737 1582.37 -8.02607 1585.93 Q-9.83161 1589.47 -9.83161 1596.6 Q-9.83161 1603.71 -8.02607 1607.27 Q-6.19737 1610.82 -2.58628 1610.82 Q1.04796 1610.82 2.85351 1607.27 Q4.6822 1603.71 4.6822 1596.6 Q4.6822 1589.47 2.85351 1585.93 Q1.04796 1582.37 -2.58628 1582.37 M-2.58628 1578.66 Q3.22387 1578.66 6.27941 1583.27 Q9.3581 1587.85 9.3581 1596.6 Q9.3581 1605.33 6.27941 1609.94 Q3.22387 1614.52 -2.58628 1614.52 Q-8.39643 1614.52 -11.4751 1609.94 Q-14.5307 1605.33 -14.5307 1596.6 Q-14.5307 1587.85 -11.4751 1583.27 Q-8.39643 1578.66 -2.58628 1578.66 Z" fill="#000000" fill-rule="evenodd" fill-opacity="1" /><path clip-path="url(#clip250)" d="M17.5756 1607.97 L22.4599 1607.97 L22.4599 1613.85 L17.5756 1613.85 L17.5756 1607.97 Z" fill="#000000" fill-rule="evenodd" fill-opacity="1" /><path clip-path="url(#clip250)" d="M36.6728 1609.91 L52.9921 1609.91 L52.9921 1613.85 L31.0478 1613.85 L31.0478 1609.91 Q33.7098 1607.16 38.2931 1602.53 Q42.8996 1597.88 44.0801 1596.53 Q46.3255 1594.01 47.2051 1592.27 Q48.1079 1590.52 48.1079 1588.83 Q48.1079 1586.07 46.1635 1584.33 Q44.2422 1582.6 41.1403 1582.6 Q38.9413 1582.6 36.4876 1583.36 Q34.057 1584.13 31.2793 1585.68 L31.2793 1580.96 Q34.1033 1579.82 36.557 1579.24 Q39.0107 1578.66 41.0477 1578.66 Q46.4181 1578.66 49.6125 1581.35 Q52.8069 1584.03 52.8069 1588.52 Q52.8069 1590.65 51.9968 1592.58 Q51.2097 1594.47 49.1033 1597.07 Q48.5246 1597.74 45.4227 1600.96 Q42.3209 1604.15 36.6728 1609.91 Z" fill="#000000" fill-rule="evenodd" fill-opacity="1" /><path clip-path="url(#clip250)" d="M-4.6696 1314.85 Q-8.28069 1314.85 -10.1094 1318.41 Q-11.9149 1321.95 -11.9149 1329.08 Q-11.9149 1336.19 -10.1094 1339.75 Q-8.28069 1343.29 -4.6696 1343.29 Q-1.03536 1343.29 0.770184 1339.75 Q2.59888 1336.19 2.59888 1329.08 Q2.59888 1321.95 0.770184 1318.41 Q-1.03536 1314.85 -4.6696 1314.85 M-4.6696 1311.14 Q1.14055 1311.14 4.19609 1315.75 Q7.27478 1320.33 7.27478 1329.08 Q7.27478 1337.81 4.19609 1342.42 Q1.14055 1347 -4.6696 1347 Q-10.4798 1347 -13.5584 1342.42 Q-16.614 1337.81 -16.614 1329.08 Q-16.614 1320.33 -13.5584 1315.75 Q-10.4798 1311.14 -4.6696 1311.14 Z" fill="#000000" fill-rule="evenodd" fill-opacity="1" /><path clip-path="url(#clip250)" d="M15.4923 1340.45 L20.3766 1340.45 L20.3766 1346.33 L15.4923 1346.33 L15.4923 1340.45 Z" fill="#000000" fill-rule="evenodd" fill-opacity="1" /><path clip-path="url(#clip250)" d="M43.4088 1315.84 L31.6034 1334.29 L43.4088 1334.29 L43.4088 1315.84 M42.182 1311.77 L48.0616 1311.77 L48.0616 1334.29 L52.9921 1334.29 L52.9921 1338.18 L48.0616 1338.18 L48.0616 1346.33 L43.4088 1346.33 L43.4088 1338.18 L27.8071 1338.18 L27.8071 1333.67 L42.182 1311.77 Z" fill="#000000" fill-rule="evenodd" fill-opacity="1" /><path clip-path="url(#clip250)" d="M-4.34553 1047.32 Q-7.95662 1047.32 -9.78532 1050.89 Q-11.5909 1054.43 -11.5909 1061.56 Q-11.5909 1068.67 -9.78532 1072.23 Q-7.95662 1075.77 -4.34553 1075.77 Q-0.71129 1075.77 1.09426 1072.23 Q2.92295 1068.67 2.92295 1061.56 Q2.92295 1054.43 1.09426 1050.89 Q-0.71129 1047.32 -4.34553 1047.32 M-4.34553 1043.62 Q1.46462 1043.62 4.52016 1048.23 Q7.59885 1052.81 7.59885 1061.56 Q7.59885 1070.29 4.52016 1074.89 Q1.46462 1079.48 -4.34553 1079.48 Q-10.1557 1079.48 -13.2344 1074.89 Q-16.2899 1070.29 -16.2899 1061.56 Q-16.2899 1052.81 -13.2344 1048.23 Q-10.1557 1043.62 -4.34553 1043.62 Z" fill="#000000" fill-rule="evenodd" fill-opacity="1" /><path clip-path="url(#clip250)" d="M15.8164 1072.93 L20.7006 1072.93 L20.7006 1078.81 L15.8164 1078.81 L15.8164 1072.93 Z" fill="#000000" fill-rule="evenodd" fill-opacity="1" /><path clip-path="url(#clip250)" d="M41.4644 1059.66 Q38.3163 1059.66 36.4644 1061.82 Q34.6357 1063.97 34.6357 1067.72 Q34.6357 1071.44 36.4644 1073.62 Q38.3163 1075.77 41.4644 1075.77 Q44.6125 1075.77 46.4412 1073.62 Q48.2931 1071.44 48.2931 1067.72 Q48.2931 1063.97 46.4412 1061.82 Q44.6125 1059.66 41.4644 1059.66 M50.7468 1045.01 L50.7468 1049.27 Q48.9875 1048.44 47.182 1048 Q45.3996 1047.56 43.6403 1047.56 Q39.0107 1047.56 36.557 1050.68 Q34.1265 1053.81 33.7793 1060.13 Q35.145 1058.11 37.2052 1057.05 Q39.2653 1055.96 41.7422 1055.96 Q46.9505 1055.96 49.9597 1059.13 Q52.9921 1062.28 52.9921 1067.72 Q52.9921 1073.04 49.844 1076.26 Q46.6959 1079.48 41.4644 1079.48 Q35.4691 1079.48 32.2978 1074.89 Q29.1265 1070.29 29.1265 1061.56 Q29.1265 1053.37 33.0154 1048.51 Q36.9042 1043.62 43.4551 1043.62 Q45.2144 1043.62 46.9968 1043.97 Q48.8023 1044.32 50.7468 1045.01 Z" fill="#000000" fill-rule="evenodd" fill-opacity="1" /><path clip-path="url(#clip250)" d="M-4.0909 779.803 Q-7.70199 779.803 -9.53069 783.368 Q-11.3362 786.91 -11.3362 794.039 Q-11.3362 801.146 -9.53069 804.711 Q-7.70199 808.252 -4.0909 808.252 Q-0.456662 808.252 1.34888 804.711 Q3.17758 801.146 3.17758 794.039 Q3.17758 786.91 1.34888 783.368 Q-0.456662 779.803 -4.0909 779.803 M-4.0909 776.1 Q1.71925 776.1 4.77479 780.706 Q7.85348 785.289 7.85348 794.039 Q7.85348 802.766 4.77479 807.373 Q1.71925 811.956 -4.0909 811.956 Q-9.90106 811.956 -12.9797 807.373 Q-16.0353 802.766 -16.0353 794.039 Q-16.0353 785.289 -12.9797 780.706 Q-9.90106 776.1 -4.0909 776.1 Z" fill="#000000" fill-rule="evenodd" fill-opacity="1" /><path clip-path="url(#clip250)" d="M16.071 805.405 L20.9553 805.405 L20.9553 811.285 L16.071 811.285 L16.071 805.405 Z" fill="#000000" fill-rule="evenodd" fill-opacity="1" /><path clip-path="url(#clip250)" d="M41.1403 794.873 Q37.807 794.873 35.8857 796.655 Q33.9876 798.437 33.9876 801.562 Q33.9876 804.687 35.8857 806.47 Q37.807 808.252 41.1403 808.252 Q44.4737 808.252 46.3949 806.47 Q48.3162 804.664 48.3162 801.562 Q48.3162 798.437 46.3949 796.655 Q44.4968 794.873 41.1403 794.873 M36.4644 792.882 Q33.4552 792.141 31.7654 790.081 Q30.0987 788.021 30.0987 785.058 Q30.0987 780.914 33.0385 778.507 Q36.0015 776.1 41.1403 776.1 Q46.3023 776.1 49.2421 778.507 Q52.1819 780.914 52.1819 785.058 Q52.1819 788.021 50.4921 790.081 Q48.8255 792.141 45.8394 792.882 Q49.219 793.669 51.094 795.961 Q52.9921 798.252 52.9921 801.562 Q52.9921 806.585 49.9134 809.271 Q46.8579 811.956 41.1403 811.956 Q35.4228 811.956 32.3441 809.271 Q29.2885 806.585 29.2885 801.562 Q29.2885 798.252 31.1867 795.961 Q33.0848 793.669 36.4644 792.882 M34.7515 785.498 Q34.7515 788.183 36.4181 789.687 Q38.1079 791.192 41.1403 791.192 Q44.1496 791.192 45.8394 789.687 Q47.5523 788.183 47.5523 785.498 Q47.5523 782.812 45.8394 781.308 Q44.1496 779.803 41.1403 779.803 Q38.1079 779.803 36.4181 781.308 Q34.7515 782.812 34.7515 785.498 Z" fill="#000000" fill-rule="evenodd" fill-opacity="1" /><path clip-path="url(#clip250)" d="M-13.3733 539.828 L-5.73441 539.828 L-5.73441 513.462 L-14.0446 515.129 L-14.0446 510.87 L-5.78071 509.203 L-1.10481 509.203 L-1.10481 539.828 L6.53404 539.828 L6.53404 543.763 L-13.3733 543.763 L-13.3733 539.828 Z" fill="#000000" fill-rule="evenodd" fill-opacity="1" /><path clip-path="url(#clip250)" d="M15.9784 537.884 L20.8627 537.884 L20.8627 543.763 L15.9784 543.763 L15.9784 537.884 Z" fill="#000000" fill-rule="evenodd" fill-opacity="1" /><path clip-path="url(#clip250)" d="M41.0477 512.282 Q37.4367 512.282 35.608 515.847 Q33.8024 519.388 33.8024 526.518 Q33.8024 533.624 35.608 537.189 Q37.4367 540.731 41.0477 540.731 Q44.682 540.731 46.4875 537.189 Q48.3162 533.624 48.3162 526.518 Q48.3162 519.388 46.4875 515.847 Q44.682 512.282 41.0477 512.282 M41.0477 508.578 Q46.8579 508.578 49.9134 513.185 Q52.9921 517.768 52.9921 526.518 Q52.9921 535.245 49.9134 539.851 Q46.8579 544.434 41.0477 544.434 Q35.2376 544.434 32.1589 539.851 Q29.1034 535.245 29.1034 526.518 Q29.1034 517.768 32.1589 513.185 Q35.2376 508.578 41.0477 508.578 Z" fill="#000000" fill-rule="evenodd" fill-opacity="1" /><path clip-path="url(#clip250)" d="M-11.776 272.307 L-4.1372 272.307 L-4.1372 245.941 L-12.4473 247.608 L-12.4473 243.348 L-4.18349 241.682 L0.492407 241.682 L0.492407 272.307 L8.13126 272.307 L8.13126 276.242 L-11.776 276.242 L-11.776 272.307 Z" fill="#000000" fill-rule="evenodd" fill-opacity="1" /><path clip-path="url(#clip250)" d="M17.5756 270.362 L22.4599 270.362 L22.4599 276.242 L17.5756 276.242 L17.5756 270.362 Z" fill="#000000" fill-rule="evenodd" fill-opacity="1" /><path clip-path="url(#clip250)" d="M36.6728 272.307 L52.9921 272.307 L52.9921 276.242 L31.0478 276.242 L31.0478 272.307 Q33.7098 269.552 38.2931 264.922 Q42.8996 260.27 44.0801 258.927 Q46.3255 256.404 47.2051 254.668 Q48.1079 252.909 48.1079 251.219 Q48.1079 248.464 46.1635 246.728 Q44.2422 244.992 41.1403 244.992 Q38.9413 244.992 36.4876 245.756 Q34.057 246.52 31.2793 248.071 L31.2793 243.348 Q34.1033 242.214 36.557 241.636 Q39.0107 241.057 41.0477 241.057 Q46.4181 241.057 49.6125 243.742 Q52.8069 246.427 52.8069 250.918 Q52.8069 253.047 51.9968 254.969 Q51.2097 256.867 49.1033 259.459 Q48.5246 260.131 45.4227 263.348 Q42.3209 266.543 36.6728 272.307 Z" fill="#000000" fill-rule="evenodd" fill-opacity="1" /><path clip-path="url(#clip252)" d="
M185.832 100.162 L185.832 1864.09 L256.645 1864.09 L256.645 100.162 L185.832 100.162 L185.832 100.162  Z
  " fill="#009af9" fill-rule="evenodd" fill-opacity="1"/>
<polyline clip-path="url(#clip252)" style="stroke:#000000; stroke-linecap:round; stroke-linejoin:round; stroke-width:4; stroke-opacity:1; fill:none" points="
  185.832,100.162 185.832,1864.09 256.645,1864.09 256.645,100.162 185.832,100.162 
  "/>
<path clip-path="url(#clip252)" d="
M274.348 171.184 L274.348 1864.09 L345.16 1864.09 L345.16 171.184 L274.348 171.184 L274.348 171.184  Z
  " fill="#009af9" fill-rule="evenodd" fill-opacity="1"/>
<polyline clip-path="url(#clip252)" style="stroke:#000000; stroke-linecap:round; stroke-linejoin:round; stroke-width:4; stroke-opacity:1; fill:none" points="
  274.348,171.184 274.348,1864.09 345.16,1864.09 345.16,171.184 274.348,171.184 
  "/>
<path clip-path="url(#clip252)" d="
M362.863 228.374 L362.863 1864.09 L433.675 1864.09 L433.675 228.374 L362.863 228.374 L362.863 228.374  Z
  " fill="#009af9" fill-rule="evenodd" fill-opacity="1"/>
<polyline clip-path="url(#clip252)" style="stroke:#000000; stroke-linecap:round; stroke-linejoin:round; stroke-width:4; stroke-opacity:1; fill:none" points="
  362.863,228.374 362.863,1864.09 433.675,1864.09 433.675,228.374 362.863,228.374 
  "/>
<path clip-path="url(#clip252)" d="
M451.378 370.952 L451.378 1864.09 L522.19 1864.09 L522.19 370.952 L451.378 370.952 L451.378 370.952  Z
  " fill="#009af9" fill-rule="evenodd" fill-opacity="1"/>
<polyline clip-path="url(#clip252)" style="stroke:#000000; stroke-linecap:round; stroke-linejoin:round; stroke-width:4; stroke-opacity:1; fill:none" points="
  451.378,370.952 451.378,1864.09 522.19,1864.09 522.19,370.952 451.378,370.952 
  "/>
<path clip-path="url(#clip252)" d="
M539.893 376.655 L539.893 1864.09 L610.705 1864.09 L610.705 376.655 L539.893 376.655 L539.893 376.655  Z
  " fill="#009af9" fill-rule="evenodd" fill-opacity="1"/>
<polyline clip-path="url(#clip252)" style="stroke:#000000; stroke-linecap:round; stroke-linejoin:round; stroke-width:4; stroke-opacity:1; fill:none" points="
  539.893,376.655 539.893,1864.09 610.705,1864.09 610.705,376.655 539.893,376.655 
  "/>
<path clip-path="url(#clip252)" d="
M628.408 493.79 L628.408 1864.09 L699.22 1864.09 L699.22 493.79 L628.408 493.79 L628.408 493.79  Z
  " fill="#009af9" fill-rule="evenodd" fill-opacity="1"/>
<polyline clip-path="url(#clip252)" style="stroke:#000000; stroke-linecap:round; stroke-linejoin:round; stroke-width:4; stroke-opacity:1; fill:none" points="
  628.408,493.79 628.408,1864.09 699.22,1864.09 699.22,493.79 628.408,493.79 
  "/>
<path clip-path="url(#clip252)" d="
M716.923 567.328 L716.923 1864.09 L787.735 1864.09 L787.735 567.328 L716.923 567.328 L716.923 567.328  Z
  " fill="#009af9" fill-rule="evenodd" fill-opacity="1"/>
<polyline clip-path="url(#clip252)" style="stroke:#000000; stroke-linecap:round; stroke-linejoin:round; stroke-width:4; stroke-opacity:1; fill:none" points="
  716.923,567.328 716.923,1864.09 787.735,1864.09 787.735,567.328 716.923,567.328 
  "/>
<path clip-path="url(#clip252)" d="
M805.438 677.964 L805.438 1864.09 L876.25 1864.09 L876.25 677.964 L805.438 677.964 L805.438 677.964  Z
  " fill="#009af9" fill-rule="evenodd" fill-opacity="1"/>
<polyline clip-path="url(#clip252)" style="stroke:#000000; stroke-linecap:round; stroke-linejoin:round; stroke-width:4; stroke-opacity:1; fill:none" points="
  805.438,677.964 805.438,1864.09 876.25,1864.09 876.25,677.964 805.438,677.964 
  "/>
<path clip-path="url(#clip252)" d="
M893.953 856.493 L893.953 1864.09 L964.765 1864.09 L964.765 856.493 L893.953 856.493 L893.953 856.493  Z
  " fill="#009af9" fill-rule="evenodd" fill-opacity="1"/>
<polyline clip-path="url(#clip252)" style="stroke:#000000; stroke-linecap:round; stroke-linejoin:round; stroke-width:4; stroke-opacity:1; fill:none" points="
  893.953,856.493 893.953,1864.09 964.765,1864.09 964.765,856.493 893.953,856.493 
  "/>
<path clip-path="url(#clip252)" d="
M982.468 890.678 L982.468 1864.09 L1053.28 1864.09 L1053.28 890.678 L982.468 890.678 L982.468 890.678  Z
  " fill="#009af9" fill-rule="evenodd" fill-opacity="1"/>
<polyline clip-path="url(#clip252)" style="stroke:#000000; stroke-linecap:round; stroke-linejoin:round; stroke-width:4; stroke-opacity:1; fill:none" points="
  982.468,890.678 982.468,1864.09 1053.28,1864.09 1053.28,890.678 982.468,890.678 
  "/>
<path clip-path="url(#clip252)" d="
M1070.98 894.013 L1070.98 1864.09 L1141.8 1864.09 L1141.8 894.013 L1070.98 894.013 L1070.98 894.013  Z
  " fill="#009af9" fill-rule="evenodd" fill-opacity="1"/>
<polyline clip-path="url(#clip252)" style="stroke:#000000; stroke-linecap:round; stroke-linejoin:round; stroke-width:4; stroke-opacity:1; fill:none" points="
  1070.98,894.013 1070.98,1864.09 1141.8,1864.09 1141.8,894.013 1070.98,894.013 
  "/>
<path clip-path="url(#clip252)" d="
M1159.5 953.656 L1159.5 1864.09 L1230.31 1864.09 L1230.31 953.656 L1159.5 953.656 L1159.5 953.656  Z
  " fill="#009af9" fill-rule="evenodd" fill-opacity="1"/>
<polyline clip-path="url(#clip252)" style="stroke:#000000; stroke-linecap:round; stroke-linejoin:round; stroke-width:4; stroke-opacity:1; fill:none" points="
  1159.5,953.656 1159.5,1864.09 1230.31,1864.09 1230.31,953.656 1159.5,953.656 
  "/>
<path clip-path="url(#clip252)" d="
M1248.01 976.414 L1248.01 1864.09 L1318.83 1864.09 L1318.83 976.414 L1248.01 976.414 L1248.01 976.414  Z
  " fill="#009af9" fill-rule="evenodd" fill-opacity="1"/>
<polyline clip-path="url(#clip252)" style="stroke:#000000; stroke-linecap:round; stroke-linejoin:round; stroke-width:4; stroke-opacity:1; fill:none" points="
  1248.01,976.414 1248.01,1864.09 1318.83,1864.09 1318.83,976.414 1248.01,976.414 
  "/>
<path clip-path="url(#clip252)" d="
M1336.53 986.416 L1336.53 1864.09 L1407.34 1864.09 L1407.34 986.416 L1336.53 986.416 L1336.53 986.416  Z
  " fill="#009af9" fill-rule="evenodd" fill-opacity="1"/>
<polyline clip-path="url(#clip252)" style="stroke:#000000; stroke-linecap:round; stroke-linejoin:round; stroke-width:4; stroke-opacity:1; fill:none" points="
  1336.53,986.416 1336.53,1864.09 1407.34,1864.09 1407.34,986.416 1336.53,986.416 
  "/>
<path clip-path="url(#clip252)" d="
M1425.04 1014.71 L1425.04 1864.09 L1495.86 1864.09 L1495.86 1014.71 L1425.04 1014.71 L1425.04 1014.71  Z
  " fill="#009af9" fill-rule="evenodd" fill-opacity="1"/>
<polyline clip-path="url(#clip252)" style="stroke:#000000; stroke-linecap:round; stroke-linejoin:round; stroke-width:4; stroke-opacity:1; fill:none" points="
  1425.04,1014.71 1425.04,1864.09 1495.86,1864.09 1495.86,1014.71 1425.04,1014.71 
  "/>
<path clip-path="url(#clip252)" d="
M1513.56 1190.86 L1513.56 1864.09 L1584.37 1864.09 L1584.37 1190.86 L1513.56 1190.86 L1513.56 1190.86  Z
  " fill="#009af9" fill-rule="evenodd" fill-opacity="1"/>
<polyline clip-path="url(#clip252)" style="stroke:#000000; stroke-linecap:round; stroke-linejoin:round; stroke-width:4; stroke-opacity:1; fill:none" points="
  1513.56,1190.86 1513.56,1864.09 1584.37,1864.09 1584.37,1190.86 1513.56,1190.86 
  "/>
<path clip-path="url(#clip252)" d="
M1602.07 1209.9 L1602.07 1864.09 L1672.89 1864.09 L1672.89 1209.9 L1602.07 1209.9 L1602.07 1209.9  Z
  " fill="#009af9" fill-rule="evenodd" fill-opacity="1"/>
<polyline clip-path="url(#clip252)" style="stroke:#000000; stroke-linecap:round; stroke-linejoin:round; stroke-width:4; stroke-opacity:1; fill:none" points="
  1602.07,1209.9 1602.07,1864.09 1672.89,1864.09 1672.89,1209.9 1602.07,1209.9 
  "/>
<path clip-path="url(#clip252)" d="
M1690.59 1232.14 L1690.59 1864.09 L1761.4 1864.09 L1761.4 1232.14 L1690.59 1232.14 L1690.59 1232.14  Z
  " fill="#009af9" fill-rule="evenodd" fill-opacity="1"/>
<polyline clip-path="url(#clip252)" style="stroke:#000000; stroke-linecap:round; stroke-linejoin:round; stroke-width:4; stroke-opacity:1; fill:none" points="
  1690.59,1232.14 1690.59,1864.09 1761.4,1864.09 1761.4,1232.14 1690.59,1232.14 
  "/>
<path clip-path="url(#clip252)" d="
M1779.1 1532.96 L1779.1 1864.09 L1849.92 1864.09 L1849.92 1532.96 L1779.1 1532.96 L1779.1 1532.96  Z
  " fill="#009af9" fill-rule="evenodd" fill-opacity="1"/>
<polyline clip-path="url(#clip252)" style="stroke:#000000; stroke-linecap:round; stroke-linejoin:round; stroke-width:4; stroke-opacity:1; fill:none" points="
  1779.1,1532.96 1779.1,1864.09 1849.92,1864.09 1849.92,1532.96 1779.1,1532.96 
  "/>
<circle clip-path="url(#clip252)" style="fill:#009af9; stroke:none; fill-opacity:0" cx="221.238" cy="100.162" r="2"/>
<circle clip-path="url(#clip252)" style="fill:#009af9; stroke:none; fill-opacity:0" cx="309.754" cy="171.184" r="2"/>
<circle clip-path="url(#clip252)" style="fill:#009af9; stroke:none; fill-opacity:0" cx="398.269" cy="228.374" r="2"/>
<circle clip-path="url(#clip252)" style="fill:#009af9; stroke:none; fill-opacity:0" cx="486.784" cy="370.952" r="2"/>
<circle clip-path="url(#clip252)" style="fill:#009af9; stroke:none; fill-opacity:0" cx="575.299" cy="376.655" r="2"/>
<circle clip-path="url(#clip252)" style="fill:#009af9; stroke:none; fill-opacity:0" cx="663.814" cy="493.79" r="2"/>
<circle clip-path="url(#clip252)" style="fill:#009af9; stroke:none; fill-opacity:0" cx="752.329" cy="567.328" r="2"/>
<circle clip-path="url(#clip252)" style="fill:#009af9; stroke:none; fill-opacity:0" cx="840.844" cy="677.964" r="2"/>
<circle clip-path="url(#clip252)" style="fill:#009af9; stroke:none; fill-opacity:0" cx="929.359" cy="856.493" r="2"/>
<circle clip-path="url(#clip252)" style="fill:#009af9; stroke:none; fill-opacity:0" cx="1017.87" cy="890.678" r="2"/>
<circle clip-path="url(#clip252)" style="fill:#009af9; stroke:none; fill-opacity:0" cx="1106.39" cy="894.013" r="2"/>
<circle clip-path="url(#clip252)" style="fill:#009af9; stroke:none; fill-opacity:0" cx="1194.9" cy="953.656" r="2"/>
<circle clip-path="url(#clip252)" style="fill:#009af9; stroke:none; fill-opacity:0" cx="1283.42" cy="976.414" r="2"/>
<circle clip-path="url(#clip252)" style="fill:#009af9; stroke:none; fill-opacity:0" cx="1371.93" cy="986.416" r="2"/>
<circle clip-path="url(#clip252)" style="fill:#009af9; stroke:none; fill-opacity:0" cx="1460.45" cy="1014.71" r="2"/>
<circle clip-path="url(#clip252)" style="fill:#009af9; stroke:none; fill-opacity:0" cx="1548.96" cy="1190.86" r="2"/>
<circle clip-path="url(#clip252)" style="fill:#009af9; stroke:none; fill-opacity:0" cx="1637.48" cy="1209.9" r="2"/>
<circle clip-path="url(#clip252)" style="fill:#009af9; stroke:none; fill-opacity:0" cx="1725.99" cy="1232.14" r="2"/>
<circle clip-path="url(#clip252)" style="fill:#009af9; stroke:none; fill-opacity:0" cx="1814.51" cy="1532.96" r="2"/>
<path clip-path="url(#clip250)" d="
M1651.02 213.25 L1890.43 213.25 L1890.43 109.57 L1651.02 109.57  Z
  " fill="#ffffff" fill-rule="evenodd" fill-opacity="1"/>
<polyline clip-path="url(#clip250)" style="stroke:#000000; stroke-linecap:round; stroke-linejoin:round; stroke-width:4; stroke-opacity:1; fill:none" points="
  1651.02,213.25 1890.43,213.25 1890.43,109.57 1651.02,109.57 1651.02,213.25 
  "/>
<path clip-path="url(#clip250)" d="
M1671.8 182.146 L1796.45 182.146 L1796.45 140.674 L1671.8 140.674 L1671.8 182.146  Z
  " fill="#009af9" fill-rule="evenodd" fill-opacity="1"/>
<polyline clip-path="url(#clip250)" style="stroke:#000000; stroke-linecap:round; stroke-linejoin:round; stroke-width:4; stroke-opacity:1; fill:none" points="
  1671.8,182.146 1796.45,182.146 1796.45,140.674 1671.8,140.674 1671.8,182.146 
  "/>
<path clip-path="url(#clip250)" d="M1831.07 181.097 Q1829.26 185.727 1827.55 187.139 Q1825.84 188.551 1822.97 188.551 L1819.56 188.551 L1819.56 184.986 L1822.06 184.986 Q1823.82 184.986 1824.79 184.152 Q1825.77 183.319 1826.95 180.217 L1827.71 178.273 L1817.23 152.764 L1821.74 152.764 L1829.84 173.041 L1837.94 152.764 L1842.46 152.764 L1831.07 181.097 Z" fill="#000000" fill-rule="evenodd" fill-opacity="1" /><path clip-path="url(#clip250)" d="M1849.75 174.754 L1857.39 174.754 L1857.39 148.389 L1849.08 150.055 L1849.08 145.796 L1857.34 144.13 L1862.02 144.13 L1862.02 174.754 L1869.66 174.754 L1869.66 178.69 L1849.75 178.69 L1849.75 174.754 Z" fill="#000000" fill-rule="evenodd" fill-opacity="1" /></svg>
